<svg enable-background="new 0 0 28 28" viewBox="0 0 28 28" xmlns="http://www.w3.org/2000/svg"><path d="m5.98 12.03c-.76 0-1.38-.62-1.38-1.38s.62-1.38 1.38-1.38 1.38.62 1.38 1.38c.01.76-.61 1.38-1.38 1.38zm0-1.99c-.34 0-.62.28-.62.62s.28.62.62.62.62-.28.62-.62c0-.35-.28-.62-.62-.62z" fill="#03dac6"/><path d="m22.02 19.39c-.76 0-1.38-.62-1.38-1.38s.62-1.38 1.38-1.38 1.38.62 1.38 1.38-.62 1.38-1.38 1.38zm0-2c-.34 0-.62.28-.62.62s.28.62.62.62.62-.28.62-.62c-.01-.34-.28-.62-.62-.62z" fill="#03dac6"/><path d="m15.03 20.26c-.17 0-.34-.06-.47-.19l-6.16-6.16c-.25-.26-.25-.67 0-.93.12-.13.29-.2.47-.2s.35.06.47.19l5.69 5.69 5.8-5.8h.04c.25-.13.56-.1.77.11.13.12.2.29.2.47s-.06.34-.19.47l-6.16 6.16c-.12.12-.29.19-.46.19z" fill="#fff"/><path d="m15.03 15.22c-.17 0-.34-.06-.47-.19l-6.16-6.15c-.25-.26-.25-.67 0-.93s.67-.27.94-.02l5.69 5.69 5.8-5.8h.04c.26-.14.59-.1.8.12.25.26.25.68-.02.94l-6.15 6.15c-.13.13-.3.19-.47.19z" fill="#fff"/><path d="m15.03 20.26c-.18 0-.34-.07-.47-.19l-6.16-6.16c-.13-.13-.19-.3-.19-.48s.07-.34.2-.47c.26-.25.66-.25.92 0l5.69 5.69 5.68-5.68c.13-.13.29-.19.48-.19.18 0 .34.07.47.2.25.26.25.66 0 .92l-6.16 6.16c-.12.13-.29.2-.46.2z" fill="#03dac6"/><path d="m15.03 15.22c-.18 0-.34-.07-.47-.19l-6.16-6.15c-.12-.14-.19-.3-.19-.48s.07-.34.2-.47c.26-.25.66-.25.92 0l5.69 5.69 5.68-5.68c.25-.26.67-.26.93-.01.13.12.2.29.2.47s-.06.34-.19.47l-6.16 6.17c-.11.11-.28.18-.45.18zm6.23-6.74c-.01 0 0 0 0 0z" fill="#fff"/></svg>