<svg enable-background="new 0 0 28 28" viewBox="0 0 28 28" xmlns="http://www.w3.org/2000/svg"><path d="m15.15 20.14-.48-.59c.29-.24.44-.49.45-.77.03-.55-.45-1.06-.45-1.07l-.02-.03-3.48-4.27-1.39 1.13c-.44.36-.55.81-.56 1.12-.01.22-.15.41-.35.48-.21.07-.44.01-.57-.17l-2.3-2.82 8.7-7.08 2.3 2.82c.14.17.16.4.05.6-.11.19-.32.29-.54.25-.31-.05-.77-.04-1.21.32l-1.39 1.13 3.5 4.3s.4.58.96.66c.28.04.55-.05.84-.29l.48.59zm.08-2.95c.09.1.58.66.65 1.37l2.09-1.7c-.68-.21-1.13-.8-1.21-.92l-3.96-4.86 1.99-1.62c.43-.35.87-.48 1.25-.51l-1.47-1.81-7.51 6.12 1.47 1.81c.11-.37.32-.77.75-1.12l1.99-1.62z" fill="#fff"/><path d="m4.17 11.9c-.76 0-1.38-.62-1.38-1.38s.62-1.38 1.38-1.38 1.38.62 1.38 1.38-.62 1.38-1.38 1.38zm0-2c-.34 0-.62.28-.62.62s.28.62.62.62.62-.28.62-.62c-.01-.34-.29-.62-.62-.62z" fill="#03dac6"/><path d="m21.86 20.23c-.76 0-1.38-.62-1.38-1.38s.62-1.38 1.38-1.38 1.38.62 1.38 1.38-.62 1.38-1.38 1.38zm0-2c-.34 0-.62.28-.62.62s.28.62.62.62.62-.28.62-.62-.28-.62-.62-.62z" fill="#03dac6"/><g fill="#fff"><path d="m19.18 2.55-1.63 2.08c-.12.15-.13.36-.02.52l1.54 2.32c.13.2.41.26.61.12s.26-.41.12-.61l-1.14-1.71c1.34-.23 2.72.12 3.79.96 2.11 1.65 2.49 4.69.84 6.8-.15.19-.12.47.08.62.19.15.47.12.62-.08.92-1.17 1.34-2.66 1.18-4.14-.34-3.14-3.15-5.41-6.29-5.08l.99-1.27c.16-.18.13-.46-.07-.61-.19-.15-.47-.12-.62.08z"/><path d="m9.92 25.42 1.42-2.23c.1-.16.09-.37-.03-.52l-1.76-2.16c-.15-.19-.43-.22-.62-.06-.19.15-.22.43-.06.62l1.3 1.6c-1.31.35-2.71.14-3.86-.59-2.26-1.44-2.93-4.43-1.49-6.69.13-.21.07-.48-.14-.61s-.48-.07-.61.14c-.8 1.25-1.08 2.77-.78 4.23.64 3.09 3.66 5.08 6.76 4.45l-.86 1.36c-.13.21-.07.48.14.61s.46.05.59-.15z"/></g></svg>