<svg id="Layer_1" data-name="Layer 1" xmlns="http://www.w3.org/2000/svg" viewBox="0 0 28 28"><defs><style>.cls-1{fill:#fff;}.cls-2{fill:#03dac6;}</style></defs><path class="cls-1" d="M20.29,9.83H7.7a5.45,5.45,0,0,0,0,10.89H20.29a5.45,5.45,0,0,0,0-10.89ZM7.71,19.17a3.9,3.9,0,1,1,3.89-3.89A3.89,3.89,0,0,1,7.71,19.17Z"/><path class="cls-2" d="M20.53,15.07,17.86,12.4a.28.28,0,0,0-.2-.08.29.29,0,0,0-.2.09.28.28,0,0,0,0,.4l2.47,2.47-2.47,2.46a.28.28,0,0,0,0,.4.27.27,0,0,0,.2.09.32.32,0,0,0,.21-.08l2.67-2.67a.3.3,0,0,0,.08-.2h0A.29.29,0,0,0,20.53,15.07Z"/><path class="cls-2" d="M13.13,6.2a2,2,0,1,1,2-2A2,2,0,0,1,13.13,6.2Zm0-2.86a.88.88,0,1,0,.89.88A.88.88,0,0,0,13.13,3.34Z"/><path class="cls-2" d="M22.6,25.76a2,2,0,1,1,2-2A2,2,0,0,1,22.6,25.76Zm0-2.86a.88.88,0,1,0,.88.88A.87.87,0,0,0,22.6,22.9Z"/></svg>