<svg enable-background="new 0 0 28 28" viewBox="0 0 28 28" xmlns="http://www.w3.org/2000/svg"><g fill="#fff"><path d="m17.31 22.32c.18.04.37.07.6.07h-.52c-.03-.02-.06-.05-.08-.07z"/><path d="m20.16 13.28c.22.07.42.18.58.29-.06.08-.19.1-.27.01s-.18-.2-.31-.3z"/><path d="m13.3 20.49s.08.85-.34 1.52c-.09.14-.2.27-.34.38h-1.95c2.12 0 1.92-2.29 1.92-2.29v-6.93h.38.33z"/><path d="m20.78 9.42v.39h-12.27v3.4c-.17.12-.3.26-.41.38-.1.11-.3.04-.3-.12v-4.05z"/><path d="m20.74 13.57c-.16-.12-.36-.22-.58-.29-.22-.07-.46-.11-.75-.11h-.58c.67.04 1.1.38 1.35.67.15.18.39.23.61.15.1-.04.18-.1.24-.17-.08-.09-.17-.17-.29-.25zm-3.43 8.75c.03.03.05.05.08.07h-4.77c.14-.11.25-.25.34-.38h-.52c.59-.74.55-1.76.54-1.92v-6.92h-.78v6.97c0 .01.07.92-.42 1.46-.26.28-.62.41-1.11.41v.77h7.24v-.77c-.44 0-.77-.11-1.02-.33.08.22.22.45.42.64zm-9.89-13.28v4.43c0 .23.14.44.36.52s.46.02.61-.15c.04-.04.08-.09.12-.13v-.96c-.12.07-.23.15-.33.23v-3.18h12.22v.01h.77v-.77z"/><path d="m12.2 13.16-1.61.01c-.9 0-1.47.45-1.78.81-.1.12-.3.04-.3-.12v-.15c.28-.27.72-.55 1.37-.55z"/><path d="m17.91 22.67c.2.07.44.1.71.1h-7.24c.06 0 .11 0 .16-.01.47-.03.82-.17 1.07-.38h4.77c.15.13.32.22.53.29z"/><path d="m16.89 21.67c-.03-.03-.06-.05-.08-.08-.5-.54-.42-1.45-.42-1.46v-6.98h2.32c.05 0 .09 0 .14.01-1.22 0-2.13 0-2.13 0v7.32c-.01.01-.06.61.17 1.19z"/><path d="m18.62 23.16h-7.24v-.77c.49 0 .85-.14 1.11-.41.5-.54.43-1.45.42-1.46v-.03-6.94h-2.32c-.75 0-1.22.37-1.49.68-.15.18-.39.24-.61.15-.22-.08-.36-.29-.36-.52v-4.44h13.75v4.43c0 .23-.14.44-.36.52s-.46.02-.61-.15c-.27-.31-.74-.68-1.49-.68h-2.32v6.97c0 .01-.07.92.42 1.46.26.28.62.41 1.11.41v.78zm-5.47-.77h3.71c-.59-.74-.55-1.76-.53-1.92v-7.69h3.09c.75 0 1.31.27 1.7.58v-3.17h-12.22v3.17c.39-.31.94-.58 1.7-.58h3.09v7.69c0 .16.05 1.18-.54 1.92z"/></g><path d="m8.51 7.6c-.76 0-1.38-.62-1.38-1.38s.62-1.38 1.38-1.38 1.38.62 1.38 1.38-.62 1.38-1.38 1.38zm0-2c-.34 0-.61.28-.61.62s.28.62.62.62.62-.28.62-.62-.29-.62-.63-.62z" fill="#03dac6"/><path d="m21.32 19.54c-.76 0-1.38-.62-1.38-1.38s.62-1.38 1.38-1.38 1.38.62 1.38 1.38-.62 1.38-1.38 1.38zm0-2c-.34 0-.62.28-.62.62s.28.62.62.62.62-.28.62-.62-.28-.62-.62-.62z" fill="#03dac6"/><path d="m5.3 13.36h3.83v1.44h-3.83z" fill="#03dac6"/><path d="m10.84 17.41h3.83v1.44h-3.83z" fill="#03dac6"/><path d="m7.8 21.72h3.83v1.44h-3.83z" fill="#fff"/><path d="m17.41 6.74h3.83v1.44h-3.83z" fill="#fff"/><path d="m17.67 21h3.83v1.44h-3.83z" fill="#03dac6"/></svg>