<svg id="Layer_1" data-name="Layer 1" xmlns="http://www.w3.org/2000/svg" xmlns:xlink="http://www.w3.org/1999/xlink" viewBox="0 0 26.85 27.2"><defs><style>.cls-1{fill-opacity:0.25;fill:url(#linear-gradient);}.cls-2{fill:#fff;}.cls-3{fill:url(#linear-gradient-2);}.cls-4{fill:#121212;}</style><linearGradient id="linear-gradient" x1="-2.77" y1="24.69" x2="30.07" y2="7.81" gradientTransform="matrix(1, 0, 0, -1, -0.59, 29.43)" gradientUnits="userSpaceOnUse"><stop offset="0" stop-color="#6200ee" stop-opacity="0.46"/><stop offset="0.34" stop-color="#6200ee" stop-opacity="0.46"/><stop offset="0.99" stop-color="#fff"/></linearGradient><linearGradient id="linear-gradient-2" x1="16.55" y1="20.74" x2="4.88" y2="16.55" gradientTransform="matrix(1, 0, 0, -1, 0, 30)" gradientUnits="userSpaceOnUse"><stop offset="0" stop-color="#ff6cdf"/><stop offset="0.99" stop-color="#eb0ce2"/></linearGradient></defs><ellipse class="cls-1" cx="13.43" cy="13.37" rx="13.43" ry="13.37"/><path class="cls-2" d="M21.07,3.67a1.21,1.21,0,1,1,1.21-1.21A1.21,1.21,0,0,1,21.07,3.67Zm0-1.75a.55.55,0,1,0,.55.54A.55.55,0,0,0,21.07,1.92Z" transform="translate(-0.59 -0.57)"/><path class="cls-2" d="M9.89,27.77a1,1,0,1,1,1-1A1,1,0,0,1,9.89,27.77Zm0-1.5a.47.47,0,1,0,.46.47A.47.47,0,0,0,9.89,26.27Z" transform="translate(-0.59 -0.57)"/><path class="cls-3" d="M7.9,12.87l-.8-.79,1.14-1.14,3.27,3.27a1.41,1.41,0,0,1,0,2l.83.83,4.48-4.48L16,11.71a1.41,1.41,0,0,1-2,0L10.73,8.45l1.14-1.14.79.79.83-.83L11.15,4.93l-.83.83.72.72L6.27,11.24l-.72-.72-.83.84L7.07,13.7Zm5.27-.33a2.54,2.54,0,0,0,1.29.71L13,14.67a2.61,2.61,0,0,0-.7-1.29L9.07,10.11l.83-.83Z" transform="translate(-0.59 -0.57)"/><path class="cls-4" d="M23.83,14.27a4.34,4.34,0,0,0-6.13,0l-4.95,4.94a3.16,3.16,0,0,1-4.46,0l-.86-.86-.83.83.86.86a4.33,4.33,0,0,0,6.13,0l4.94-4.94a3.17,3.17,0,0,1,4.47,0l.86.86.83-.83Z" transform="translate(-0.59 -0.57)"/><path class="cls-2" d="M23.83,14.27a4.34,4.34,0,0,0-6.13,0l-4.95,4.94a3.16,3.16,0,0,1-4.46,0l-.86-.86-.83.83.86.86a4.33,4.33,0,0,0,6.13,0l4.94-4.94a3.17,3.17,0,0,1,4.47,0l.86.86.83-.83Z" transform="translate(-0.59 -0.57)"/></svg>