<svg enable-background="new 0 0 28 28" viewBox="0 0 28 28" xmlns="http://www.w3.org/2000/svg"><path d="m16.91 20.35h-5.83v-.77c.37 0 .65-.1.84-.31.37-.41.32-1.11.32-1.11v-.03-5.51h-1.79c-.57 0-.94.28-1.14.52-.14.16-.37.22-.57.15-.21-.08-.34-.27-.34-.49v-3.66h11.22v3.64c0 .22-.13.41-.34.49s-.43.02-.57-.15c-.2-.24-.57-.52-1.14-.52h-1.79v5.55c0 .01-.05.71.32 1.12.19.21.46.31.84.31v.77zm-4.26-.77h2.7c-.4-.6-.37-1.34-.36-1.47v-6.26h2.56c.55 0 .98.17 1.29.39v-2.33h-9.68v2.33c.32-.22.74-.39 1.29-.39h2.56v6.26c.01.14.04.88-.36 1.47z" fill="#03dac6"/><g fill="#fff"><path d="m14 6.54c-.76 0-1.38-.62-1.38-1.38s.62-1.38 1.38-1.38 1.38.62 1.38 1.38-.62 1.38-1.38 1.38zm0-2c-.34 0-.62.28-.62.62s.28.62.62.62.62-.28.62-.62-.28-.62-.62-.62z"/><path d="m6.34 10.48c-.76 0-1.38-.62-1.38-1.38s.62-1.38 1.38-1.38 1.38.62 1.38 1.38-.62 1.38-1.38 1.38zm0-2c-.34 0-.62.28-.62.62s.28.62.62.62.61-.28.61-.62-.27-.62-.61-.62z"/><path d="m6.34 20.35c-.76 0-1.38-.62-1.38-1.38s.62-1.38 1.38-1.38 1.38.62 1.38 1.38-.62 1.38-1.38 1.38zm0-2c-.34 0-.62.28-.62.62s.28.62.62.62.62-.28.62-.62c-.01-.34-.28-.62-.62-.62z"/><path d="m14 24.22c-.76 0-1.38-.62-1.38-1.38s.62-1.38 1.38-1.38 1.38.62 1.38 1.38-.62 1.38-1.38 1.38zm0-2c-.34 0-.62.28-.62.62s.28.62.62.62.62-.28.62-.62-.28-.62-.62-.62z"/><path d="m21.66 10.48c-.76 0-1.38-.62-1.38-1.38s.62-1.38 1.38-1.38 1.38.62 1.38 1.38-.62 1.38-1.38 1.38zm0-2c-.34 0-.62.28-.62.62s.28.62.62.62.62-.28.62-.62-.28-.62-.62-.62z"/><path d="m6.34 17.97c.14 0 .27.03.38.08v-8.03c-.12.05-.25.08-.38.08-.14 0-.27-.03-.38-.08v8.03c.11-.05.24-.08.38-.08z"/><path d="m7.28 8.78 6.03-2.9c-.19-.18-.3-.42-.31-.7l-6.26 3.01c.26.11.45.32.54.59z"/><path d="m14.69 5.88 6.03 2.9c.09-.27.28-.48.54-.59l-6.26-3.01c-.01.28-.13.52-.31.7z"/><path d="m20.7 19.23-6.02 2.89c.19.18.3.42.31.7l6.19-2.97c-.23-.13-.41-.35-.48-.62z"/><path d="m21.66 10.1c-.14 0-.27-.03-.38-.08v8.03c.12-.05.25-.08.38-.08.14 0 .27.03.38.08v-8.03c-.11.05-.24.08-.38.08z"/><path d="m13.31 22.12-6.01-2.89c-.07.27-.25.49-.49.61l6.2 2.97c0-.27.12-.51.3-.69z"/><path d="m21.66 20.35c-.76 0-1.38-.62-1.38-1.38s.62-1.38 1.38-1.38 1.38.62 1.38 1.38-.62 1.38-1.38 1.38zm0-2c-.34 0-.62.28-.62.62s.28.62.62.62.62-.28.62-.62-.28-.62-.62-.62z"/></g></svg>