<svg enable-background="new 0 0 28 28" viewBox="0 0 28 28" xmlns="http://www.w3.org/2000/svg"><g fill="#03dac6"><path d="m21.68 20.19c-.76 0-1.38-.62-1.38-1.38s.62-1.38 1.38-1.38 1.38.62 1.38 1.38-.62 1.38-1.38 1.38zm0-2c-.34 0-.62.28-.62.62s.28.62.62.62.62-.28.62-.62-.28-.62-.62-.62z"/><path d="m6.32 10.58c-.76 0-1.38-.62-1.38-1.38s.62-1.38 1.38-1.38 1.38.62 1.38 1.38-.62 1.38-1.38 1.38zm0-2c-.34 0-.62.28-.62.62s.28.62.62.62.62-.28.62-.62-.28-.62-.62-.62z"/><path d="m11.3 18.79-6.36-3.75v-1.71l6.36-3.75v2.46l-3.85 2.14 3.85 2.14zm-5.6-4.18 4.83 2.84v-.67l-4.23-2.35v-.48l4.23-2.35v-.67l-4.83 2.85z"/></g><path d="m12.75 17.3v-3.53h-.6v-1.05h.6v-.18c0-.55.17-1.16.58-1.54.36-.34.85-.46 1.27-.46.32 0 .56.04.76.09l-.06 1.1c-.12-.04-.27-.07-.46-.07-.47 0-.67.37-.67.82v.23h.92v1.05h-.91v3.53h-1.43z" fill="#fff"/><path d="m16.7 18.79v-2.46l3.85-2.14-3.85-2.14v-2.46l6.36 3.75v1.71zm.76-2.01v.67l4.83-2.84v-.83l-4.83-2.84v.67l4.23 2.35v.48z" fill="#03dac6"/></svg>