<?xml version="1.0" encoding="utf-8"?>
<!-- Generator: Adobe Illustrator 24.3.0, SVG Export Plug-In . SVG Version: 6.00 Build 0)  -->
<svg version="1.1" id="Warstwa_1" xmlns="http://www.w3.org/2000/svg" xmlns:xlink="http://www.w3.org/1999/xlink" x="0px" y="0px"
	 viewBox="0 0 62 30" style="enable-background:new 0 0 62 30;" xml:space="preserve">
<style type="text/css">
	.st0{fill:#362985;}
	.st1{display:none;}
	.st2{display:inline;fill:none;stroke:#362985;stroke-width:3.8;stroke-linecap:round;stroke-linejoin:round;stroke-miterlimit:10;}
	.st3{display:inline;fill:#362985;}
</style>
<path class="st0" d="M12.2,29.6h37.6V0.3H12.2V29.6z M16,4.1h30v21.7H16V4.1z M10.1,13.1l-2.5-2.8l-6.1,5.4l6.1,5.5l2.6-2.8
	l-2.9-2.7L10.1,13.1z M54.4,10.3l-2.5,2.8l2.9,2.6l-2.9,2.7l2.6,2.8l6.1-5.5L54.4,10.3z M24,12.9h14V9.1H24V12.9z M24,20.9h14v-3.8
	H24V20.9z"/>
<g id="Warstwa_2_1_" class="st1">
	<line class="st2" x1="7.1" y1="11.7" x2="2.7" y2="15.7"/>
	<line class="st2" x1="7.1" y1="19.8" x2="2.7" y2="15.7"/>
	<line class="st2" x1="55" y1="11.7" x2="59.5" y2="15.7"/>
	<line class="st2" x1="55" y1="19.8" x2="59.5" y2="15.7"/>
	<path class="st3" d="M46.2,0.3H15.9c-2.1,0-3.7,1.7-3.7,3.7v21.9c0,2.1,1.7,3.7,3.7,3.7h30.3c2.1,0,3.7-1.7,3.7-3.7V4.1
		C49.9,2,48.3,0.3,46.2,0.3z M25.5,9.6h11.1c0.6,0,1,0.4,1,1s-0.4,1-1,1H25.5c-0.6,0-1-0.4-1-1S25,9.6,25.5,9.6z M36.6,20.4H25.5
		c-0.6,0-1-0.4-1-1s0.4-1,1-1h11.1c0.6,0,1,0.4,1,1S37.2,20.4,36.6,20.4z M39.1,16H23c-0.6,0-1-0.4-1-1s0.4-1,1-1h16.1
		c0.6,0,1,0.4,1,1S39.6,16,39.1,16z"/>
</g>
</svg>
