<svg clip-rule="evenodd" fill-rule="evenodd" stroke-linejoin="round" stroke-miterlimit="2" viewBox="0 0 28 28" xmlns="http://www.w3.org/2000/svg"><path d="m0-10.274v.001zm9.531 16.85h6.503c-.953-1.447-.884-3.233-.861-3.562v-15.187h6.213c1.332 0 2.358.419 3.121.947v-5.624h-23.449v5.624c.763-.528 1.789-.947 3.121-.947h6.214v15.187c.021.329.09 2.115-.862 3.562m10.313 1.875h-14.123v-1.875c.902 0 1.565-.246 2.026-.75.901-.988.775-2.675.774-2.693l-.003-.085v-13.346h-4.339c-1.384 0-2.267.681-2.763 1.253-.349.403-.895.543-1.399.355-.506-.188-.833-.658-.833-1.197v-8.838h27.198v8.838c0 .538-.327 1.008-.833 1.197-.5.187-1.051.048-1.401-.355-.497-.572-1.377-1.253-2.762-1.253h-4.338l-.004 13.431c-.001.014-.131 1.71.78 2.699.46.5 1.12.744 2.02.744z" fill="#fff" fill-rule="nonzero" transform="matrix(.221764 0 0 .221764 6.13292988 15.371411788)"/><path d="m0-5.083c-1.818-.344-3.39 1.228-3.045 3.046.191 1.012 1.018 1.84 2.028 2.036 1.826.354 3.407-1.228 3.053-3.054-.195-1.01-1.024-1.837-2.036-2.028m.828 8.207c-4.234.944-7.942-2.764-6.996-6.996.478-2.134 2.199-3.857 4.333-4.333 4.232-.946 7.941 2.761 6.996 6.995-.476 2.135-2.199 3.857-4.333 4.334" fill="#03dac6" fill-rule="nonzero" transform="matrix(.221764 0 0 .221764 7.35263188 8.916083512)"/><path d="m0-5.082c-1.819-.345-3.391 1.227-3.046 3.045.192 1.012 1.018 1.841 2.028 2.036 1.826.354 3.407-1.227 3.053-3.053-.195-1.01-1.023-1.837-2.035-2.028m.827 8.206c-4.234.945-7.941-2.764-6.996-6.996.478-2.134 2.199-3.856 4.333-4.333 4.233-.946 7.941 2.762 6.996 6.995-.475 2.135-2.198 3.857-4.333 4.334" fill="#03dac6" fill-rule="nonzero" transform="matrix(.221764 0 0 .221764 19.27688216 20.210524032)"/><g fill="#fff"><path d="m1257.35 302.565h26.208v3h-26.208z" transform="matrix(-.221764 0 0 .221764 290.71158288 -49.07254132)"/><path d="m0-16.995v18.341c.026.397.11 2.554-1.04 4.301h7.852c-1.15-1.747-1.066-3.904-1.04-4.301v-18.341h7.503c1.609 0 2.848.507 3.769 1.145v-6.792h-28.315v6.792c.921-.638 2.16-1.145 3.767-1.145z" fill-rule="nonzero" transform="matrix(.221764 0 0 .221764 16.96388364 14.73228794)"/><path d="m0-11.472c0 .65-.395 1.218-1.006 1.446-.603.227-1.268.058-1.691-.427-.6-.692-1.664-1.515-3.336-1.515h-5.238l-.005 16.221c-.001.015-.158 2.064.942 3.258.556.605 1.353.898 2.438.898v2.264h-17.054v-2.264c1.091 0 1.89-.296 2.447-.905 1.089-1.193.937-3.231.935-3.251l-.005-.103v-16.118h-5.239c-1.671 0-2.737.823-3.335 1.515-.421.485-1.082.655-1.692.427-.61-.227-1.006-.795-1.006-1.446v-10.672h32.845zm-36.459-11.381v34.235c0 2.56 2.076 4.635 4.636 4.635h30.802c2.559 0 4.635-2.075 4.635-4.635v-34.235c0-2.559-2.076-4.636-4.635-4.636h-30.802c-2.56 0-4.636 2.077-4.636 4.636" fill-rule="nonzero" transform="matrix(.221764 0 0 .221764 21.24614648 14.119775772)"/></g></svg>