<svg width="36" height="37" viewBox="0 0 36 37" fill="none" xmlns="http://www.w3.org/2000/svg">
<g clip-path="url(#clip0_615_21196)">
<circle cx="18" cy="18.3604" r="18" fill="#1DA1F3"/>
<path d="M25.6456 14.9887C25.6456 15.1593 25.6456 15.3299 25.6456 15.4762C25.6456 20.5218 21.7943 26.3474 14.7743 26.3474C12.605 26.3474 10.6062 25.7137 8.89996 24.6412C9.19246 24.6656 9.50934 24.6899 9.80184 24.6899C11.5812 24.6899 13.2387 24.0806 14.555 23.0568C12.8731 23.0324 11.4593 21.9112 10.9962 20.3999C11.24 20.4487 11.4593 20.4731 11.7275 20.4731C12.0687 20.4731 12.41 20.4243 12.7268 20.3268C10.9718 19.9856 9.65559 18.4499 9.65559 16.5974C9.65559 16.5731 9.65559 16.5731 9.65559 16.5487C10.1675 16.8412 10.7525 17.0118 11.3862 17.0362C10.3625 16.3537 9.67996 15.1837 9.67996 13.8431C9.67996 13.1362 9.87496 12.4781 10.1918 11.9174C12.0687 14.2331 14.8962 15.7443 18.065 15.9149C17.9918 15.6468 17.9675 15.3299 17.9675 15.0374C17.9675 12.9168 19.6737 11.2106 21.7943 11.2106C22.8912 11.2106 23.8906 11.6737 24.5731 12.4049C25.4506 12.2343 26.255 11.9174 27.0106 11.4787C26.7181 12.3806 26.1087 13.1118 25.3287 13.5993C26.1087 13.5018 26.84 13.3068 27.5225 12.9899C27.035 13.7699 26.4012 14.4524 25.6456 14.9887Z" fill="#FAFBFC"/>
</g>
<defs>
<clipPath id="clip0_615_21196">
<rect width="36" height="36" fill="white" transform="translate(0 0.360352)"/>
</clipPath>
</defs>
</svg>
