<svg width="37" height="37" viewBox="0 0 37 37" fill="none" xmlns="http://www.w3.org/2000/svg">
<g clip-path="url(#clip0_615_21190)">
<circle cx="18.7332" cy="18.3604" r="18" fill="#25D366"/>
<path d="M23.6082 20.5054C23.3157 20.4079 22.0482 19.7254 21.7557 19.6279C21.4632 19.5304 21.3657 19.5304 21.1707 19.7254C20.9024 20.102 20.6093 20.4603 20.2932 20.7979C20.0982 20.9929 20.0007 20.9929 19.7082 20.8954C18.8931 20.621 18.157 20.1525 17.5632 19.5304C16.9588 19.015 16.4618 18.3855 16.1007 17.6779C15.9057 17.3854 16.1007 17.2879 16.1982 17.0929C16.3514 16.9504 16.4828 16.7861 16.5882 16.6054C16.6857 16.4104 16.7832 16.3129 16.8807 16.1179C16.9782 15.9229 16.8807 15.8254 16.8807 15.6304C16.8807 15.4354 16.2957 14.1679 16.0032 13.6804C15.7107 13.1929 15.6132 13.1929 15.4182 13.1929H14.9307C14.6753 13.2043 14.4327 13.3082 14.2482 13.4854C13.9277 13.7619 13.6736 14.1071 13.5048 14.4953C13.336 14.8836 13.2569 15.3049 13.2732 15.7279C13.3626 16.7246 13.7347 17.6751 14.3457 18.4676C15.4533 20.2223 17.0495 21.6152 18.938 22.4749C19.6205 22.7674 20.108 22.8649 20.498 23.0599C21.0334 23.2316 21.6036 23.2651 22.1555 23.1574C22.8996 22.9587 23.5533 22.5114 24.008 21.8899C24.1312 21.4784 24.1968 21.0518 24.203 20.6224C24.0038 20.6241 23.8059 20.5911 23.618 20.5249L23.6082 20.5054ZM18.7332 27.1354C17.1135 27.1548 15.5214 26.7154 14.141 25.8679L13.8485 25.6729L10.4262 26.5504L11.3135 23.2354L11.1185 22.9429C10.2272 21.5051 9.75452 19.8472 9.75349 18.1556C9.75156 16.3768 10.2774 14.6375 11.2644 13.1577C12.2515 11.6778 13.6553 10.5241 15.2983 9.84253C16.9414 9.16093 18.7497 8.98208 20.4944 9.32863C22.2391 9.67518 23.8417 10.5315 25.0995 11.7893C26.3573 13.0471 27.2137 14.6498 27.5602 16.3945C27.9068 18.1392 27.7279 19.9475 27.0463 21.5905C26.3647 23.2335 25.211 24.6374 23.7312 25.6244C22.2514 26.6115 20.512 27.1373 18.7332 27.1354ZM26.348 10.6384C24.3007 8.66499 21.5766 7.54882 18.7332 7.51837C15.8888 7.51837 13.1608 8.64832 11.1495 10.6597C9.13819 12.671 8.00824 15.3989 8.00824 18.2434C8.00776 20.1325 8.51272 21.9874 9.47074 23.6156L7.89124 29.2024L13.6535 27.7399C15.2402 28.604 17.0243 29.0407 18.8307 29.0074C20.2392 29.0074 21.6338 28.73 22.935 28.191C24.2362 27.652 25.4185 26.862 26.4145 25.8661C27.4104 24.8702 28.2004 23.6879 28.7393 22.3867C29.2783 21.0854 29.5557 19.6908 29.5557 18.2824C29.4867 15.4263 28.3328 12.7036 26.3285 10.6676" fill="#FAFBFC"/>
</g>
<defs>
<clipPath id="clip0_615_21190">
<rect width="36" height="36" fill="white" transform="translate(0.733154 0.360352)"/>
</clipPath>
</defs>
</svg>
