<svg enable-background="new 0 0 28 28" viewBox="0 0 28 28" xmlns="http://www.w3.org/2000/svg"><path d="m3.65 6.07c-.76 0-1.38-.62-1.38-1.38s.62-1.39 1.38-1.39 1.38.62 1.38 1.38-.61 1.39-1.38 1.39zm0-2c-.34 0-.62.28-.62.62s.28.61.62.61.62-.28.62-.62-.28-.61-.62-.61z" fill="#03dac6"/><path d="m22.21 26.39c-.76 0-1.38-.62-1.38-1.38s.62-1.38 1.38-1.38 1.38.62 1.38 1.38-.62 1.38-1.38 1.38zm0-2c-.34 0-.62.28-.62.62s.28.62.62.62.62-.28.62-.62-.28-.62-.62-.62z" fill="#03dac6"/><path d="m6.86 12.93h1.08v.77h-1.08z" fill="#03dac6"/><g fill="#fff"><path d="m6.86 18.48h1.08v.51h-1.08z"/><path d="m6.86 19.74h1.08v.51h-1.08z"/><path d="m18.85 22.2v1.45c0 .53-.43.97-.97.97h-11.57c-.53 0-.97-.43-.97-.97v-14.43h2.59v-.77h-2.5c.15-.34.49-.58.89-.58h1.63v-.77h-1.64c-.96 0-1.73.78-1.73 1.73v14.82c0 .96.78 1.73 1.73 1.73h11.57c.96 0 1.73-.78 1.73-1.73v-1.45z"/><path d="m21.82 19.51v1.34c0 .53-.43.97-.97.97h-11.56c-.53 0-.97-.43-.97-.97v-14.43h2.75v-.77h-2.66c.15-.34.49-.58.88-.58h1.79v-.77h-1.79c-.95 0-1.73.78-1.73 1.73v14.82c0 .96.78 1.73 1.73 1.73h11.57c.96 0 1.73-.78 1.73-1.73v-1.34z"/></g><path d="m9.84 10.13h1.24v.77h-1.24z" fill="#03dac6"/><path d="m9.84 15.67h1.24v.51h-1.24z" fill="#fff"/><path d="m9.84 16.94h1.24v.51h-1.24z" fill="#fff"/><path d="m24 19.9h-11.57c-.96 0-1.73-.78-1.73-1.73v-14.83c0-.96.78-1.73 1.73-1.73h11.57c.96 0 1.73.78 1.73 1.73v14.82c0 .96-.78 1.74-1.73 1.74zm-11.57-17.52c-.53 0-.97.43-.97.97v14.82c0 .53.43.97.97.97h11.57c.53 0 .97-.43.97-.97v-14.83c0-.53-.43-.97-.97-.97h-11.57z" fill="#fff"/><path d="m12.97 7.44h10.47v.77h-10.47z" fill="#03dac6"/><path d="m12.97 12.98h10.47v.51h-10.47z" fill="#fff"/><path d="m12.97 14.25h10.47v.51h-10.47z" fill="#fff"/><path d="m11.08 2.96h14.27v.77h-14.27z" fill="#fff"/></svg>