<svg enable-background="new 0 0 28 28" viewBox="0 0 28 28" xmlns="http://www.w3.org/2000/svg"><path d="m6.3 24c-.7 0-1.3-.6-1.3-1.3s.6-1.3 1.3-1.3 1.3.6 1.3 1.3-.6 1.3-1.3 1.3zm0-1.9c-.3 0-.6.3-.6.6s.3.6.6.6.6-.3.6-.6c-.1-.3-.3-.6-.6-.6z" fill="#03dac6"/><path d="m19.4 5.2c-.7 0-1.3-.6-1.3-1.3s.6-1.3 1.3-1.3 1.3.6 1.3 1.3c.1.7-.5 1.3-1.3 1.3zm0-1.9c-.3 0-.6.3-.6.6s.3.6.6.6.6-.3.6-.6-.2-.6-.6-.6z" fill="#03dac6"/><path d="m19.8 23.3h-10.9v-10.6h10.9zm-10.2-.7h9.5v-9.3h-9.5z" fill="#fff"/><g fill="#03dac6"><path d="m14.3 12.5h-5.4v-5.4h5.4zm-4.7-.7h4v-4h-4z"/><path d="m19.8 12.5h-5.4v-5.4h5.4zm-4.7-.7h4v-4h-4z"/></g></svg>