<svg enable-background="new 0 0 28 28" viewBox="0 0 28 28" xmlns="http://www.w3.org/2000/svg"><path d="m16.97 14.03v5.08c0 .66-.53 1.19-1.19 1.19h-12.26c-.66 0-1.19-.53-1.19-1.19v-7.27c0-.66.53-1.19 1.19-1.19h7.13v-.77h-7.13c-1.08 0-1.96.88-1.96 1.96v7.27c0 1.08.88 1.95 1.96 1.95h12.25c1.08 0 1.96-.88 1.96-1.95v-5.08z" fill="#03dac6"/><path d="m24.48 14.41h-12.26c-1.08 0-1.96-.88-1.96-1.96v-7.26c0-1.08.88-1.96 1.96-1.96h12.25c1.08 0 1.95.88 1.95 1.96v7.27c.01 1.08-.87 1.95-1.94 1.95zm-12.26-10.41c-.66 0-1.19.53-1.19 1.19v7.27c0 .66.53 1.19 1.19 1.19h12.25c.66 0 1.19-.53 1.19-1.19v-7.27c0-.66-.53-1.19-1.19-1.19z" fill="#fff"/><path d="m4.89 8.95c-.76 0-1.38-.62-1.38-1.38s.62-1.38 1.38-1.38 1.38.61 1.38 1.37c0 .77-.62 1.39-1.38 1.39zm0-2c-.34 0-.62.28-.62.62s.28.62.62.62.61-.29.61-.63-.27-.61-.61-.61z" fill="#03dac6"/><path d="m15.76 24.76c-.76 0-1.38-.62-1.38-1.38s.62-1.38 1.38-1.38 1.38.62 1.38 1.38-.62 1.38-1.38 1.38zm0-1.99c-.34 0-.62.28-.62.62s.28.62.62.62.62-.28.62-.62c-.01-.35-.28-.62-.62-.62z" fill="#03dac6"/><g fill="#fff"><path d="m22.9 8.71c-1 0-1.82-.82-1.82-1.82s.82-1.82 1.82-1.82 1.82.82 1.82 1.82-.82 1.82-1.82 1.82zm0-2.87c-.58 0-1.05.47-1.05 1.05s.47 1.05 1.05 1.05 1.05-.47 1.05-1.05-.47-1.05-1.05-1.05z"/><path d="m23.8 21.26h-2.52v-.77c.14 0 .19-.05.2-.06.08-.08.09-.26.08-.32v-.03-2.17h-.56c-.14 0-.24.05-.33.15-.12.14-.31.19-.49.12-.17-.06-.29-.23-.29-.42v-1.79h5.29v1.79c0 .18-.12.35-.29.42-.18.07-.37.02-.49-.12-.09-.1-.2-.15-.33-.15h-.56v2.2c0 .07.01.24.08.32.01.02.06.06.2.06v.77zm-1.52-.77h.51c-.05-.19-.05-.36-.04-.43v-2.92h1.33c.12 0 .23.02.34.05v-.45h-3.76v.45c.11-.03.22-.05.34-.05h1.33v2.92c0 .07 0 .24-.05.43z"/></g></svg>