<svg enable-background="new 0 0 28 28" viewBox="0 0 28 28" xmlns="http://www.w3.org/2000/svg"><path d="m6.28 11.78c-.76 0-1.38-.62-1.38-1.38s.62-1.38 1.38-1.38 1.38.62 1.38 1.38c.01.76-.61 1.38-1.38 1.38zm0-1.99c-.34 0-.62.28-.62.62s.28.62.62.62.62-.29.62-.63-.28-.61-.62-.61z" fill="#03dac6"/><path d="m21.72 18.63c-.76 0-1.38-.62-1.38-1.38s.62-1.38 1.38-1.38 1.38.62 1.38 1.38-.62 1.38-1.38 1.38zm0-2c-.34 0-.62.28-.62.62s.28.62.62.62.62-.28.62-.62-.28-.62-.62-.62z" fill="#03dac6"/><g fill="#fff"><path d="m14.71 17.79c-.21 0-.4-.07-.56-.21-.32-.28-.62-.54-.89-.76-.81-.69-1.51-1.29-2.01-1.89-.59-.72-.87-1.4-.87-2.16 0-.74.26-1.43.73-1.94.48-.52 1.14-.81 1.86-.81.54 0 1.04.17 1.47.51.09.07.18.15.27.23.08-.09.17-.16.27-.24.43-.34.93-.51 1.47-.51.72 0 1.38.29 1.86.81.47.51.73 1.2.73 1.94 0 .76-.28 1.45-.87 2.16-.5.6-1.2 1.2-2 1.88l-.04.03c-.26.22-.55.47-.85.73-.17.16-.37.23-.57.23zm-1.74-7c-.5 0-.96.2-1.29.56-.34.37-.52.87-.52 1.42 0 .57.22 1.1.69 1.67.46.55 1.13 1.12 1.91 1.79.28.24.58.5.9.77.03.03.08.03.1 0 .3-.27.6-.52.86-.74l.04-.03c.78-.66 1.45-1.24 1.91-1.79.47-.57.69-1.1.69-1.67 0-.55-.19-1.06-.52-1.42-.33-.36-.79-.56-1.29-.56-.37 0-.71.12-1 .35-.16.12-.3.27-.42.44l-.31.43-.31-.43c-.13-.17-.27-.32-.42-.44-.32-.24-.65-.35-1.02-.35z"/><path d="m7.99 7.29h13.42v.77h-13.42z"/><path d="m7.99 19.94h.64v.77h-.64z"/></g><path d="m19.43 20.71h-1.35v-.77h1.35zm-2.7 0h-1.35v-.77h1.35zm-2.7 0h-1.35v-.77h1.35zm-2.7 0h-1.35v-.77h1.35z" fill="#03dac6"/><path d="m20.78 19.94h.64v.77h-.64z" fill="#fff"/></svg>