<svg enable-background="new 0 0 28 28" viewBox="0 0 28 28" xmlns="http://www.w3.org/2000/svg"><g fill="#03dac6"><path d="m3.74 7.31c-.76 0-1.38-.62-1.38-1.38s.62-1.38 1.38-1.38 1.38.62 1.38 1.38-.62 1.38-1.38 1.38zm0-2c-.34 0-.62.28-.62.62s.28.61.62.61.62-.28.62-.62-.28-.61-.62-.61z"/><path d="m24.26 19.64c-.76 0-1.38-.62-1.38-1.38s.62-1.38 1.38-1.38 1.38.62 1.38 1.38-.62 1.38-1.38 1.38zm0-2c-.34 0-.62.28-.62.62s.28.62.62.62.62-.28.62-.62-.28-.62-.62-.62z"/><path d="m6.28 5.66v3.36l.77-.07v-2.59l13.1-1.2v17.68l-13.1-1.2v-3.97l-.77-.07v4.74l14.64 1.34v-19.36z"/></g><path d="m10.53 18.37-7.72-.71v-8.71l7.72-.71zm-6.96-1.41 6.19.57v-8.45l-6.19.57z" fill="#fff"/></svg>