<svg enable-background="new 0 0 28 28" viewBox="0 0 28 28" xmlns="http://www.w3.org/2000/svg"><path d="m18.47 19.05h-5.77v-.77c.37 0 .64-.1.83-.31.37-.4.32-1.09.32-1.1v-.03-5.45h-1.77c-.57 0-.93.28-1.13.51-.14.16-.37.22-.57.14-.21-.08-.34-.27-.34-.49v-3.6h11.12v3.61c0 .22-.13.41-.34.49-.2.08-.43.02-.57-.14-.2-.23-.56-.51-1.13-.51h-1.77v5.49c0 .01-.05.7.32 1.1.19.2.46.3.83.3v.76zm-4.22-.76h2.66c-.39-.59-.36-1.32-.35-1.46v-6.21h2.54c.54 0 .96.17 1.28.39v-2.3h-9.58v2.3c.31-.22.73-.39 1.28-.39h2.54v6.21c-.01.14.02.87-.37 1.46z" fill="#fff"/><g fill="#03dac6"><path d="m20.75 20.05c-.76 0-1.38-.62-1.38-1.38s.62-1.38 1.38-1.38 1.38.62 1.38 1.38c.01.76-.61 1.38-1.38 1.38zm0-1.99c-.34 0-.62.28-.62.62s.28.62.62.62.62-.28.62-.62c0-.35-.28-.62-.62-.62z"/><path d="m5.86 14.86h4.91v.77h-4.91z"/><path d="m8.84 17.69-.46-.61 2.41-1.82-2.4-1.7.44-.62 3.26 2.3z"/></g></svg>