<svg width="390" height="128" viewBox="0 0 390 128" fill="none" xmlns="http://www.w3.org/2000/svg">
<path d="M34.6631 29.444C34.7483 30.2768 34.6631 31.105 34.4076 31.9284C34.1615 32.7423 33.7877 33.4805 33.2861 34.143C32.2923 35.4113 31.0572 36.282 29.5808 36.7552C28.1043 37.219 26.59 37.3467 25.0379 37.1385C23.4668 36.9114 21.9761 36.4429 20.5659 35.733C19.1557 35.0138 17.8213 34.1904 16.5625 33.2628L18.4364 30.4519C20.547 31.7769 22.7711 32.8748 25.1088 33.7455C26.2446 34.1904 27.404 34.5547 28.587 34.8387C29.1265 34.9712 29.6896 35.0516 30.2764 35.08C30.8632 35.0989 31.4169 34.9996 31.9374 34.7819C32.316 34.4412 32.6472 34.0673 32.9312 33.6603C33.1394 32.8369 33.0163 32.0703 32.562 31.3605C32.1078 30.6507 31.5115 30.0213 30.7733 29.4724C30.0445 28.9234 29.3725 28.4739 28.7574 28.1237C27.3282 27.2814 25.8849 26.6056 24.4274 25.8011C23.0361 25.0345 21.6543 24.2537 20.282 23.4587C19.5532 23.0328 18.9617 22.498 18.5074 21.8545C18.0626 21.2109 17.7976 20.4632 17.7124 19.6114C17.561 18.0876 17.8402 16.6491 18.55 15.2957C19.4965 13.7719 20.8357 12.7923 22.5677 12.357C24.2712 11.9973 25.9417 12.092 27.579 12.6409C29.2164 13.1898 30.7307 13.8041 32.122 14.7789C31.98 14.9871 31.838 15.1953 31.6961 15.4035C31.3175 15.9619 30.9342 16.5203 30.5461 17.0787C29.5145 16.1891 28.393 15.5796 27.1815 14.9549C26.4433 14.5574 25.6388 14.2404 24.7681 14.0038C23.9069 13.7577 23.0456 13.6725 22.1843 13.7482C21.3326 13.8239 20.547 14.1457 19.8277 14.7136C19.3734 15.0827 19.0374 15.537 18.8198 16.0765C18.6021 16.6065 18.5784 17.1601 18.7488 17.7375C18.9475 18.2959 19.2693 18.7785 19.7141 19.1855C20.159 19.5925 20.6369 19.9285 21.148 20.1935V20.2077C22.5771 20.927 24.0678 21.5232 25.6199 21.9964C27.049 22.4318 28.4356 22.9713 29.7795 23.6148C30.9815 24.2206 32.0415 24.8774 32.9595 25.8806C33.8871 26.8838 34.4549 28.0716 34.6631 29.444Z" fill="#FF0000"/>
<path d="M60.1068 15.9169C62.2268 18.0748 63.4288 20.6633 63.7127 23.6824C63.8926 26.3514 63.32 28.8074 61.995 31.0504C60.6794 33.284 58.8102 34.964 56.3873 36.0902C53.8887 37.1692 51.3428 37.4342 48.7496 36.8852C46.1563 36.3363 43.9322 35.0681 42.0772 33.0806V49.4271H37.716V12.2116H42.0772V16.357C43.6956 14.625 45.5837 13.4514 47.7416 12.8362C49.9089 12.2116 52.0857 12.1548 54.272 12.6659C56.4678 13.177 58.4127 14.2606 60.1068 15.9169ZM51.3049 36.6013C51.4374 36.6013 51.5699 36.6013 51.7024 36.6013C53.6426 35.5792 55.2137 34.1595 56.4157 32.3423C57.8543 30.0709 58.5689 27.6291 58.5594 25.0169C58.5499 22.4047 57.878 19.996 56.5435 17.7908C55.209 15.5762 53.283 13.9294 50.7655 12.8504C47.2447 13.0776 44.3486 14.5398 42.0772 17.2372V32.2004C43.2224 33.5916 44.5994 34.6753 46.2084 35.4514C47.8268 36.218 49.5256 36.6013 51.3049 36.6013Z" fill="#FF0000"/>
<path d="M86.902 32.5451C86.9304 33.0845 86.926 33.553 87.2478 33.9505C87.5696 34.3386 88.0428 34.4616 88.6675 34.3196C88.6202 34.4048 88.5208 34.5846 88.3694 34.8591C88.2274 35.1241 88.0618 35.4222 87.8725 35.7535C87.6927 36.0942 87.5223 36.4065 87.3614 36.6905C87.21 36.9649 87.1153 37.14 87.0775 37.2157C86.0364 37.2725 85.2079 37.0202 84.375 36.4713C83.5516 35.9223 82.9743 35.1557 82.643 34.1714C82.4537 33.3859 82.3875 32.5814 82.4443 31.758C82.4443 31.5593 82.4443 31.3605 82.4443 31.1617C82.4443 28.9092 82.4443 26.6567 82.4443 24.4042C82.0941 26.3444 81.5215 28.2231 80.7265 30.0402C80.0148 31.5893 78.8885 33.1746 77.4215 34.5375C76.229 35.607 74.8141 36.3878 73.1768 36.8799C71.5394 37.3626 69.9399 37.3342 68.3783 36.7948C67.3278 36.3594 66.5659 35.6969 66.0927 34.8072C65.6289 33.9081 65.351 32.8875 65.4078 31.8369C65.4646 30.7864 65.7538 30.1112 66.2744 29.2026C66.8706 28.2183 67.6041 27.3902 68.4748 26.7182C69.355 26.0368 70.3062 25.4595 71.3284 24.9862C72.36 24.5036 73.3916 24.0587 74.4232 23.6518C74.5273 23.6139 74.6314 23.576 74.7355 23.5382C75.7482 23.1501 76.7562 22.7006 77.7594 22.1895C78.7626 21.6784 79.6712 21.0585 80.4852 20.3298C81.3086 19.601 81.9474 18.7113 82.4017 17.6608C82.307 16.6008 81.99 15.626 81.4505 14.7363C80.9111 13.8372 80.1018 13.2409 79.0229 12.9475C79.0229 12.9475 78.9472 12.9428 78.7958 12.9333C78.6443 12.9144 78.455 12.8955 78.2279 12.8766C78.0102 12.8482 77.7831 12.8292 77.5465 12.8198C77.3193 12.8008 77.1111 12.7961 76.9218 12.8056C76.1836 12.8529 75.4548 12.9854 74.7355 13.2031C73.4484 13.6006 72.2417 14.1732 71.1154 14.9209C69.8093 15.7632 68.7843 16.7569 67.7338 17.9021V14.5375C69.144 13.7709 70.9025 13.0375 72.5209 12.6778C74.1487 12.3182 75.8128 12.1453 77.4028 12.2116C78.6426 12.2494 79.8037 12.4696 80.9962 12.8198C82.1982 13.17 83.2724 13.7189 84.2189 14.4666C85.1653 15.2143 85.9508 16.2048 86.4335 17.4257C86.6796 18.0977 86.8216 18.7886 86.8594 19.4984C86.9067 20.1988 86.9209 20.9039 86.902 21.6137C86.902 21.8692 86.902 22.1248 86.902 22.3803C86.902 25.7685 86.902 29.1568 86.902 32.5451ZM80.5561 29.0465C81.1997 27.428 81.6729 25.7529 81.9758 24.0209C82.2881 22.2889 82.4443 20.5569 82.4443 18.8249C81.7061 20.008 80.7596 20.9828 79.605 21.7494C78.4598 22.5066 77.2531 23.1359 75.9848 23.6376C74.8113 24.3379 73.737 25.2087 72.7622 26.2497C71.7968 27.2908 71.1154 28.4549 70.7179 29.7421C70.3204 31.0292 70.4699 32.1288 71.0189 33.5579C71.4164 34.476 71.9606 35.0438 72.6515 35.2615C73.3424 35.4697 74.0806 35.4461 74.8661 35.1905C75.6612 34.935 76.4041 34.5612 77.095 34.069C78.5715 32.7251 79.7498 30.9647 80.5561 29.0465Z" fill="#FF0000"/>
<path d="M111.263 0.000244141H115.636V37.2157H111.263V33.0561C109.683 34.7597 107.98 35.9649 105.803 36.6274C103.627 37.2805 101.412 37.3373 99.1593 36.7978C97.2475 36.3056 95.5487 35.4207 94.0628 34.143C92.5863 32.8559 91.4648 31.3037 90.6982 29.4866C89.9694 27.6789 89.6666 25.8096 89.7896 23.8789C89.9221 21.9482 90.4758 20.1357 91.4506 18.4416C92.4633 16.738 93.7883 15.3562 95.4256 14.2962C97.063 13.2267 98.8659 12.5737 100.835 12.3371C102.841 12.1383 104.767 12.3891 106.613 13.0895C108.468 13.7899 109.9 14.8561 111.263 16.3326V0.000244141ZM103.248 36.5564C104.914 36.405 106.442 35.9507 107.833 35.1936C109.234 34.427 110.26 33.4063 111.263 32.176V17.2128C110.071 15.7742 108.813 14.6937 107.138 13.9271C105.463 13.151 103.688 12.7914 101.814 12.8482C99.8739 13.8609 98.3028 15.2758 97.1008 17.0929C95.6622 19.3644 94.9477 21.8062 94.9571 24.4184C94.9666 27.0305 95.6386 29.444 96.9731 31.6586C98.3075 33.8733 100.234 35.5154 102.751 36.5848C102.921 36.5848 103.087 36.5754 103.248 36.5564Z" fill="#FF0000"/>
<path d="M142.933 20.2588C143.955 23.0602 143.992 25.7212 143.111 28.4848C142.241 31.239 140.58 33.4631 138.128 35.1572C135.81 36.6431 133.311 37.3293 130.633 37.2157C127.964 37.1116 125.531 36.222 123.336 34.5468C121.178 32.7959 119.739 30.6143 119.02 28.0021C118.31 25.39 118.468 22.8993 119.424 20.2872C120.332 17.9873 121.761 16.1181 123.711 14.6795C125.661 13.2315 127.875 12.4128 130.355 12.2235C133.137 12.0815 135.669 12.7393 137.95 14.1968C140.231 15.6544 141.892 17.675 142.933 20.2588ZM135.474 35.8812C136.865 35.2945 137.844 34.348 138.412 33.0419C138.99 31.7358 139.283 30.3162 139.292 28.783C139.302 27.2497 139.155 25.849 138.852 24.5808C138.37 22.4797 137.567 20.59 136.374 18.6688C135.191 16.7475 133.649 15.2379 131.746 14.1401C130.838 13.629 129.896 13.3356 128.921 13.2599C127.946 13.1841 126.995 13.4018 126.068 13.9129C125.339 14.3577 124.752 14.954 124.307 15.7017C123.862 16.4399 123.545 17.216 123.356 18.0299C122.854 20.1405 122.806 22.1579 123.279 24.3252C123.752 26.4831 124.542 28.4754 125.65 30.302C126.293 31.3904 127.121 32.4551 128.134 33.4962C129.147 34.5373 130.282 35.3181 131.541 35.8387C132.8 36.3497 134.111 36.3639 135.474 35.8812Z" fill="#FF0000"/>
<path d="M164.534 37.2237L152.808 23.311C152.013 24.2575 151.454 24.9484 151.132 25.3837V37.2521H146.746V0.000244141H151.132V24.461C151.464 24.0351 151.885 23.5145 152.396 22.8993C153.38 21.7541 154.388 20.6705 155.42 19.6483C157.199 17.8974 158.941 16.4446 160.644 15.29C162.793 13.8419 164.827 12.9097 166.749 12.4932C167.487 12.3418 168.206 12.2661 168.907 12.2661V16.7522C168.907 16.7522 168.58 16.6481 167.927 16.4399C167.274 16.2317 166.417 16.0802 165.357 15.9856C164.297 15.8815 163.133 15.9667 161.865 16.2411C160.597 16.5061 159.324 17.0929 158.046 18.0015C157.232 18.7019 156.489 19.3881 155.817 20.06C155.808 20.0695 155.803 20.0742 155.803 20.0742L170.269 37.2237H164.534Z" fill="#FF0000"/>
<circle cx="77.3279" cy="6.39677" r="2.32597" fill="#FF0000"/>
<path d="M-23.624 68.9911C-23.5388 69.8239 -23.624 70.6521 -23.8795 71.4755C-24.1256 72.2894 -24.4994 73.0276 -25.001 73.6901C-25.9948 74.9584 -27.2299 75.8291 -28.7063 76.3023C-30.1828 76.7661 -31.6971 76.8938 -33.2493 76.6856C-34.8203 76.4585 -36.311 75.99 -37.7212 75.2802C-39.1314 74.5609 -40.4658 73.7375 -41.7246 72.81L-39.8507 69.999C-37.7401 71.3241 -35.516 72.4219 -33.1783 73.2926C-32.0425 73.7375 -30.8832 74.1019 -29.7001 74.3858C-29.1606 74.5183 -28.5975 74.5987 -28.0107 74.6271C-27.4239 74.6461 -26.8703 74.5467 -26.3497 74.329C-25.9711 73.9883 -25.6399 73.6144 -25.356 73.2075C-25.1477 72.3841 -25.2708 71.6174 -25.7251 70.9076C-26.1794 70.1978 -26.7756 69.5684 -27.5138 69.0195C-28.2426 68.4705 -28.9146 68.021 -29.5297 67.6708C-30.9589 66.8285 -32.4022 66.1527 -33.8597 65.3482C-35.251 64.5816 -36.6328 63.8008 -38.0051 63.0058C-38.7339 62.5799 -39.3254 62.0452 -39.7797 61.4016C-40.2245 60.758 -40.4895 60.0103 -40.5747 59.1585C-40.7261 57.6348 -40.4469 56.1962 -39.7371 54.8428C-38.7906 53.319 -37.4514 52.3394 -35.7195 51.9041C-34.0159 51.5444 -32.3454 51.6391 -30.7081 52.188C-29.0707 52.7369 -27.5564 53.3512 -26.1652 54.326C-26.3071 54.5342 -26.4491 54.7424 -26.5911 54.9507C-26.9696 55.5091 -27.3529 56.0675 -27.741 56.6259C-28.7726 55.7362 -29.8941 55.1267 -31.1056 54.5021C-31.8438 54.1045 -32.6483 53.7875 -33.519 53.5509C-34.3802 53.3048 -35.2415 53.2196 -36.1028 53.2953C-36.9546 53.3711 -37.7401 53.6928 -38.4594 54.2607C-38.9137 54.6298 -39.2497 55.0841 -39.4674 55.6236C-39.685 56.1536 -39.7087 56.7073 -39.5383 57.2846C-39.3396 57.843 -39.0178 58.3257 -38.573 58.7326C-38.1281 59.1396 -37.6502 59.4756 -37.1391 59.7406V59.7548C-35.71 60.4741 -34.2194 61.0703 -32.6672 61.5436C-31.2381 61.9789 -29.8515 62.5184 -28.5076 63.162C-27.3056 63.7677 -26.2456 64.4245 -25.3276 65.4277C-24.4001 66.431 -23.8322 67.6187 -23.624 68.9911Z" fill="#FF0000"/>
<path d="M1.81971 55.464C3.93973 57.6219 5.14171 60.2104 5.42564 63.2295C5.60546 65.8985 5.03287 68.3545 3.70785 70.5976C2.3923 72.8312 0.523085 74.5111 -1.8998 75.6374C-4.3984 76.7163 -6.94432 76.9813 -9.53756 76.4324C-12.1308 75.8834 -14.3549 74.6152 -16.2099 72.6277V88.9742H-20.5711V51.7587H-16.2099V55.9041C-14.5915 54.1721 -12.7034 52.9985 -10.5455 52.3834C-8.37817 51.7587 -6.20136 51.7019 -4.01509 52.213C-1.81935 52.7241 0.125581 53.8077 1.81971 55.464ZM-6.98217 76.1484C-6.84967 76.1484 -6.71717 76.1484 -6.58467 76.1484C-4.64447 75.1263 -3.07338 73.7066 -1.8714 71.8895C-0.432817 69.618 0.281744 67.1762 0.272279 64.564C0.262815 61.9519 -0.409156 59.5432 -1.74363 57.338C-3.07811 55.1233 -5.00412 53.4765 -7.52164 52.3976C-11.0424 52.6247 -13.9385 54.0869 -16.2099 56.7843V71.7475C-15.0648 73.1388 -13.6877 74.2224 -12.0787 74.9985C-10.4603 75.7651 -8.76148 76.1484 -6.98217 76.1484Z" fill="#FF0000"/>
<path d="M28.6149 72.0922C28.6433 72.6316 28.6389 73.1001 28.9607 73.4976C29.2825 73.8857 29.7557 74.0087 30.3804 73.8667C30.3331 73.9519 30.2337 74.1317 30.0823 74.4062C29.9403 74.6712 29.7747 74.9693 29.5854 75.3006C29.4056 75.6413 29.2352 75.9536 29.0743 76.2376C28.9229 76.512 28.8282 76.6871 28.7904 76.7628C27.7493 76.8196 26.9208 76.5673 26.0879 76.0184C25.2645 75.4695 24.6872 74.7028 24.3559 73.7185C24.1666 72.933 24.1004 72.1285 24.1572 71.3051C24.1572 71.1064 24.1572 70.9076 24.1572 70.7089C24.1572 68.4563 24.1572 66.2038 24.1572 63.9513C23.807 65.8915 23.2344 67.7702 22.4394 69.5873C21.7277 71.1365 20.6014 72.7218 19.1344 74.0846C17.9419 75.1541 16.527 75.9349 14.8896 76.4271C13.2523 76.9097 11.6528 76.8814 10.0912 76.3419C9.04065 75.9065 8.27877 75.244 7.80555 74.3544C7.3418 73.4552 7.06392 72.4346 7.12071 71.384C7.1775 70.3335 7.46673 69.6583 7.98727 68.7497C8.58352 67.7654 9.31701 66.9373 10.1877 66.2653C11.0679 65.5839 12.0191 65.0066 13.0413 64.5334C14.0729 64.0507 15.1045 63.6058 16.1361 63.1989C16.2402 63.161 16.3443 63.1232 16.4484 63.0853C17.4611 62.6973 18.4691 62.2477 19.4723 61.7366C20.4755 61.2256 21.3841 60.6056 22.198 59.8769C23.0214 59.1481 23.6603 58.2585 24.1146 57.2079C24.0199 56.1479 23.7029 55.1731 23.1634 54.2834C22.6239 53.3843 21.8147 52.7881 20.7358 52.4947C20.7358 52.4947 20.6601 52.4899 20.5087 52.4805C20.3572 52.4615 20.1679 52.4426 19.9408 52.4237C19.7231 52.3953 19.496 52.3764 19.2594 52.3669C19.0322 52.348 18.824 52.3432 18.6347 52.3527C17.8965 52.4 17.1677 52.5325 16.4484 52.7502C15.1613 53.1477 13.9546 53.7203 12.8283 54.468C11.5222 55.3103 10.4972 56.3041 9.44668 57.4492V54.0847C10.8569 53.318 12.6154 52.5846 14.2338 52.2249C15.8616 51.8653 17.5257 51.6925 19.1157 51.7587C20.3555 51.7966 21.5166 52.0167 22.7091 52.3669C23.9111 52.7171 24.9853 53.266 25.9317 54.0137C26.8782 54.7614 27.6637 55.7519 28.1464 56.9728C28.3925 57.6448 28.5345 58.3357 28.5723 59.0455C28.6196 59.7459 28.6338 60.451 28.6149 61.1608C28.6149 61.4163 28.6149 61.6719 28.6149 61.9274C28.6149 65.3157 28.6149 68.7039 28.6149 72.0922ZM22.269 68.5936C22.9126 66.9752 23.3858 65.3 23.6887 63.568C24.001 61.836 24.1572 60.104 24.1572 58.372C23.419 59.5551 22.4725 60.5299 21.3179 61.2965C20.1727 62.0537 18.966 62.6831 17.6977 63.1847C16.5241 63.885 15.4499 64.7558 14.4751 65.7969C13.5097 66.8379 12.8283 68.0021 12.4308 69.2892C12.0333 70.5764 12.1828 71.6759 12.7318 73.1051C13.1293 74.0231 13.6735 74.591 14.3644 74.8086C15.0553 75.0169 15.7935 74.9932 16.579 74.7377C17.374 74.4821 18.117 74.1083 18.8079 73.6161C20.2843 72.2722 21.4627 70.5118 22.269 68.5936Z" fill="#FF0000"/>
<path d="M52.9762 39.5474H57.3488V76.7629H52.9762V72.6033C51.3957 74.3068 49.693 75.512 47.5162 76.1746C45.3394 76.8276 43.1247 76.8844 40.8722 76.3449C38.9604 75.8528 37.2616 74.9678 35.7757 73.6901C34.2992 72.403 33.1777 70.8508 32.4111 69.0337C31.6823 67.226 31.3794 65.3568 31.5025 63.426C31.635 61.4953 32.1887 59.6829 33.1635 57.9887C34.1762 56.2851 35.5012 54.9033 37.1385 53.8433C38.7759 52.7739 40.5788 52.1208 42.5474 51.8842C44.5539 51.6855 46.4799 51.9363 48.3254 52.6366C50.1804 53.337 51.6134 54.4032 52.9762 55.8797V39.5474ZM44.9608 76.1036C46.6266 75.9521 48.1551 75.4978 49.5463 74.7407C50.9471 73.9741 51.973 72.9534 52.9762 71.7231V56.7599C51.7837 55.3213 50.5259 54.2408 48.8507 53.4742C47.1755 52.6981 45.4009 52.3385 43.527 52.3953C41.5868 53.408 40.0157 54.8229 38.8137 56.6401C37.3751 58.9115 36.6606 61.3533 36.67 63.9655C36.6795 66.5777 37.3515 68.9911 38.686 71.2057C40.0204 73.4204 41.9464 75.0625 44.464 76.132C44.6343 76.132 44.7999 76.1225 44.9608 76.1036Z" fill="#FF0000"/>
<path d="M84.646 59.8059C85.6681 62.6074 85.7045 65.2683 84.8243 68.0319C83.9535 70.7861 82.2925 73.0102 79.8413 74.7043C77.5225 76.1902 75.0239 76.8764 72.3455 76.7628C69.6765 76.6587 67.2442 75.7691 65.0484 74.0939C62.8906 72.343 61.452 70.1614 60.7327 67.5493C60.0228 64.9371 60.1805 62.4465 61.1364 59.8343C62.045 57.5344 63.4741 55.6652 65.4238 54.2266C67.3735 52.7786 69.5881 51.9599 72.0678 51.7706C74.8503 51.6287 77.382 52.2864 79.663 53.744C81.9439 55.2015 83.6049 57.2221 84.646 59.8059ZM77.1865 75.4284C78.5778 74.8416 79.5573 73.8951 80.1252 72.589C80.7025 71.283 80.9959 69.8633 81.0054 68.3301C81.0149 66.7968 80.8682 65.3961 80.5653 64.1279C80.0826 62.0268 79.2797 60.1371 78.0871 58.2159C76.9041 56.2946 75.3614 54.785 73.4591 53.6872C72.5505 53.1761 71.6088 52.8827 70.6339 52.807C69.6591 52.7313 68.7079 52.9489 67.7804 53.46C67.0517 53.9049 66.4649 54.5011 66.02 55.2488C65.5752 55.987 65.2582 56.7631 65.0689 57.577C64.5673 59.6876 64.5184 61.705 64.9916 63.8724C65.4649 66.0302 66.2551 68.0225 67.3625 69.8491C68.0061 70.9375 68.8342 72.0023 69.8469 73.0433C70.8596 74.0844 71.9953 74.8652 73.2541 75.3858C74.5128 75.8969 75.8236 75.911 77.1865 75.4284Z" fill="#FF0000"/>
<path d="M106.247 76.7708L94.5205 62.8582C93.7255 63.8046 93.1671 64.4955 92.8453 64.9309V76.7992H88.4586V39.5474H92.8453V64.0081C93.1766 63.5822 93.5978 63.0616 94.1088 62.4465C95.0931 61.3013 96.1011 60.2176 97.1327 59.1954C98.912 57.4445 100.653 55.9917 102.357 54.8371C104.505 53.389 106.54 52.4568 108.462 52.0404C109.2 51.8889 109.919 51.8132 110.619 51.8132V56.2993C110.619 56.2993 110.293 56.1952 109.64 55.987C108.987 55.7788 108.13 55.6274 107.07 55.5327C106.01 55.4286 104.846 55.5138 103.578 55.7883C102.31 56.0533 101.037 56.6401 99.7591 57.5486C98.9451 58.249 98.2022 58.9352 97.5302 59.6071C97.5207 59.6166 97.516 59.6213 97.516 59.6213L111.982 76.7708H106.247Z" fill="#FF0000"/>
<circle cx="19.0408" cy="45.9439" r="2.32597" fill="#FF0000"/>
<path d="M-42.3466 107.901C-42.2614 108.734 -42.3466 109.562 -42.6022 110.385C-42.8482 111.199 -43.2221 111.938 -43.7237 112.6C-44.7175 113.868 -45.9526 114.739 -47.429 115.212C-48.9054 115.676 -50.4197 115.804 -51.9719 115.596C-53.543 115.368 -55.0336 114.9 -56.4438 114.19C-57.854 113.471 -59.1885 112.647 -60.4473 111.72L-58.5733 108.909C-56.4628 110.234 -54.2386 111.332 -51.9009 112.203C-50.7652 112.647 -49.6058 113.012 -48.4228 113.296C-47.8833 113.428 -47.3202 113.509 -46.7334 113.537C-46.1466 113.556 -45.5929 113.457 -45.0724 113.239C-44.6938 112.898 -44.3625 112.524 -44.0786 112.117C-43.8704 111.294 -43.9934 110.527 -44.4477 109.818C-44.902 109.108 -45.4983 108.478 -46.2365 107.929C-46.9652 107.38 -47.6372 106.931 -48.2524 106.581C-49.6815 105.738 -51.1248 105.063 -52.5824 104.258C-53.9736 103.492 -55.3554 102.711 -56.7278 101.916C-57.4565 101.49 -58.048 100.955 -58.5023 100.312C-58.9472 99.6679 -59.2122 98.9202 -59.2973 98.0684C-59.4488 96.5447 -59.1696 95.1061 -58.4597 93.7527C-57.5133 92.2289 -56.1741 91.2494 -54.4421 90.814C-52.7385 90.4543 -51.0681 90.549 -49.4307 91.0979C-47.7934 91.6469 -46.2791 92.2611 -44.8878 93.2359C-45.0298 93.4441 -45.1717 93.6524 -45.3137 93.8606C-45.6923 94.419 -46.0756 94.9774 -46.4636 95.5358C-47.4953 94.6461 -48.6168 94.0366 -49.8282 93.412C-50.5664 93.0145 -51.3709 92.6974 -52.2416 92.4608C-53.1029 92.2147 -53.9642 92.1295 -54.8254 92.2053C-55.6772 92.281 -56.4628 92.6028 -57.1821 93.1706C-57.6363 93.5397 -57.9723 93.994 -58.19 94.5335C-58.4077 95.0635 -58.4314 95.6172 -58.261 96.1945C-58.0622 96.7529 -57.7405 97.2356 -57.2956 97.6425C-56.8508 98.0495 -56.3728 98.3855 -55.8618 98.6505V98.6647C-54.4326 99.384 -52.942 99.9802 -51.3898 100.453C-49.9607 100.889 -48.5742 101.428 -47.2303 102.072C-46.0283 102.678 -44.9683 103.334 -44.0502 104.338C-43.1227 105.341 -42.5548 106.529 -42.3466 107.901Z" fill="#FF0000"/>
<path d="M-16.9029 94.3739C-14.7829 96.5318 -13.581 99.1203 -13.297 102.139C-13.1172 104.808 -13.6898 107.264 -15.0148 109.507C-16.3304 111.741 -18.1996 113.421 -20.6225 114.547C-23.1211 115.626 -25.667 115.891 -28.2602 115.342C-30.8535 114.793 -33.0776 113.525 -34.9326 111.538V127.884H-39.2938V90.6686H-34.9326V94.814C-33.3142 93.082 -31.4261 91.9085 -29.2682 91.2933C-27.1008 90.6686 -24.924 90.6118 -22.7377 91.1229C-20.542 91.634 -18.5971 92.7177 -16.9029 94.3739ZM-25.7048 115.058C-25.5723 115.058 -25.4398 115.058 -25.3073 115.058C-23.3671 114.036 -21.796 112.617 -20.5941 110.799C-19.1555 108.528 -18.4409 106.086 -18.4504 103.474C-18.4598 100.862 -19.1318 98.4531 -20.4663 96.2479C-21.8008 94.0332 -23.7268 92.3864 -26.2443 91.3075C-29.7651 91.5346 -32.6612 92.9969 -34.9326 95.6942V110.657C-33.7874 112.049 -32.4103 113.132 -30.8014 113.908C-29.183 114.675 -27.4841 115.058 -25.7048 115.058Z" fill="#FF0000"/>
<path d="M9.89224 111.002C9.92063 111.542 9.91628 112.01 10.2381 112.408C10.5599 112.796 11.0331 112.919 11.6577 112.777C11.6104 112.862 11.511 113.042 11.3596 113.316C11.2176 113.581 11.052 113.879 10.8627 114.211C10.6829 114.551 10.5125 114.864 10.3516 115.147C10.2002 115.422 10.1056 115.597 10.0677 115.673C9.02663 115.73 8.19812 115.477 7.36526 114.928C6.54185 114.379 5.96452 113.613 5.63327 112.628C5.44398 111.843 5.37773 111.038 5.43452 110.215C5.43452 110.016 5.43452 109.818 5.43452 109.619C5.43452 107.366 5.43452 105.114 5.43452 102.861C5.08433 104.801 4.51174 106.68 3.71673 108.497C3.00501 110.046 1.87875 111.632 0.411766 112.995C-0.780746 114.064 -2.19567 114.845 -3.83301 115.337C-5.47035 115.82 -7.06983 115.791 -8.63145 115.252C-9.682 114.816 -10.4439 114.154 -10.9171 113.264C-11.3809 112.365 -11.6587 111.345 -11.6019 110.294C-11.5452 109.243 -11.2559 108.568 -10.7354 107.66C-10.1391 106.675 -9.40564 105.847 -8.53492 105.175C-7.65473 104.494 -6.70356 103.916 -5.68141 103.443C-4.64979 102.961 -3.61817 102.516 -2.58655 102.109C-2.48244 102.071 -2.37833 102.033 -2.27423 101.995C-1.26154 101.607 -0.25358 101.158 0.749645 100.647C1.75287 100.135 2.66145 99.5155 3.47539 98.7868C4.29879 98.058 4.93764 97.1684 5.39193 96.1178C5.29728 95.0578 4.98023 94.083 4.44076 93.1933C3.90129 92.2942 3.09208 91.698 2.01314 91.4046C2.01314 91.4046 1.93743 91.3998 1.786 91.3904C1.63456 91.3714 1.44528 91.3525 1.21813 91.3336C1.00045 91.3052 0.773306 91.2863 0.536696 91.2768C0.309551 91.2579 0.101334 91.2531 -0.0879534 91.2626C-0.826176 91.3099 -1.55493 91.4424 -2.27423 91.6601C-3.56138 92.0576 -4.76809 92.6302 -5.89435 93.3779C-7.20044 94.2202 -8.22543 95.214 -9.27598 96.3592V92.9946C-7.86579 92.228 -6.1073 91.4945 -4.48889 91.1348C-2.86102 90.7752 -1.19699 90.6024 0.393027 90.6686C1.63286 90.7065 2.79395 90.9266 3.98646 91.2768C5.18844 91.627 6.26265 92.1759 7.20909 92.9236C8.15553 93.6713 8.94107 94.6618 9.42375 95.8827C9.66983 96.5547 9.81179 97.2456 9.84965 97.9554C9.89697 98.6558 9.91117 99.3609 9.89224 100.071C9.89224 100.326 9.89224 100.582 9.89224 100.837C9.89224 104.226 9.89224 107.614 9.89224 111.002ZM3.54637 107.503C4.18995 105.885 4.66317 104.21 4.96603 102.478C5.27835 100.746 5.43452 99.0139 5.43452 97.282C4.69629 98.465 3.74986 99.4398 2.5952 100.206C1.45001 100.964 0.2433 101.593 -1.02493 102.095C-2.19851 102.795 -3.27272 103.666 -4.24755 104.707C-5.21292 105.748 -5.89435 106.912 -6.29186 108.199C-6.68936 109.486 -6.53983 110.586 -5.99089 112.015C-5.59339 112.933 -5.04918 113.501 -4.35828 113.719C-3.66738 113.927 -2.92916 113.903 -2.14362 113.648C-1.34861 113.392 -0.605655 113.018 0.0852449 112.526C1.56169 111.182 2.74001 109.422 3.54637 107.503Z" fill="#FF0000"/>
<path d="M34.2536 78.4573H38.6261V115.673H34.2536V111.513C32.673 113.217 30.9704 114.422 28.7936 115.084C26.6168 115.738 24.4021 115.794 22.1496 115.255C20.2378 114.763 18.5389 113.878 17.053 112.6C15.5766 111.313 14.455 109.761 13.6884 107.944C12.9597 106.136 12.6568 104.267 12.7798 102.336C12.9123 100.405 13.466 98.5928 14.4408 96.8986C15.4535 95.1951 16.7785 93.8133 18.4159 92.7532C20.0532 91.6838 21.8562 91.0307 23.8248 90.7941C25.8312 90.5954 27.7572 90.8462 29.6028 91.5465C31.4578 92.2469 32.8907 93.3132 34.2536 94.7896V78.4573ZM26.2382 115.013C27.9039 114.862 29.4324 114.408 30.8237 113.651C32.2244 112.884 33.2503 111.863 34.2536 110.633V95.6698C33.0611 94.2312 31.8032 93.1507 30.128 92.3841C28.4528 91.6081 26.6783 91.2484 24.8043 91.3052C22.8641 92.3179 21.293 93.7328 20.0911 95.55C18.6525 97.8214 17.9379 100.263 17.9474 102.875C17.9568 105.488 18.6288 107.901 19.9633 110.116C21.2978 112.33 23.2238 113.972 25.7413 115.042C25.9117 115.042 26.0773 115.032 26.2382 115.013Z" fill="#FF0000"/>
<path d="M65.9233 98.7158C66.9455 101.517 66.9818 104.178 66.1016 106.942C65.2309 109.696 63.5699 111.92 61.1186 113.614C58.7998 115.1 56.3012 115.786 53.6228 115.673C50.9539 115.569 48.5215 114.679 46.3258 113.004C44.1679 111.253 42.7293 109.071 42.01 106.459C41.3002 103.847 41.4579 101.356 42.4138 98.7442C43.3223 96.4444 44.7515 94.5751 46.7011 93.1366C48.6508 91.6885 50.8655 90.8698 53.3451 90.6805C56.1277 90.5386 58.6594 91.1964 60.9403 92.6539C63.2212 94.1114 64.8822 96.132 65.9233 98.7158ZM58.4639 114.338C59.8551 113.751 60.8347 112.805 61.4025 111.499C61.9799 110.193 62.2733 108.773 62.2827 107.24C62.2922 105.707 62.1455 104.306 61.8426 103.038C61.36 100.937 60.557 99.0471 59.3645 97.1258C58.1814 95.2045 56.6387 93.695 54.7364 92.5971C53.8278 92.086 52.8861 91.7926 51.9113 91.7169C50.9364 91.6412 49.9853 91.8589 49.0578 92.3699C48.329 92.8148 47.7422 93.411 47.2974 94.1587C46.8526 94.8969 46.5355 95.673 46.3462 96.4869C45.8446 98.5975 45.7958 100.615 46.269 102.782C46.7422 104.94 47.5325 106.932 48.6398 108.759C49.2834 109.847 50.1115 110.912 51.1242 111.953C52.1369 112.994 53.2726 113.775 54.5314 114.296C55.7902 114.807 57.101 114.821 58.4639 114.338Z" fill="#FF0000"/>
<path d="M87.5242 115.681L75.7979 101.768C75.0029 102.715 74.4445 103.405 74.1227 103.841V115.709H69.7359V78.4573H74.1227V102.918C74.4539 102.492 74.8751 101.972 75.3862 101.356C76.3705 100.211 77.3784 99.1275 78.41 98.1054C80.1893 96.3544 81.9308 94.9017 83.6344 93.747C85.7828 92.299 87.8176 91.3667 89.7389 90.9503C90.4771 90.7988 91.1964 90.7231 91.8968 90.7231V95.2093C91.8968 95.2093 91.5703 95.1051 90.9172 94.8969C90.2642 94.6887 89.4077 94.5373 88.3476 94.4426C87.2876 94.3385 86.1235 94.4237 84.8553 94.6982C83.5871 94.9632 82.3141 95.55 81.0364 96.4586C80.2225 97.1589 79.4795 97.8451 78.8075 98.5171C78.7981 98.5265 78.7934 98.5313 78.7934 98.5313L93.2597 115.681H87.5242Z" fill="#FF0000"/>
<circle cx="0.318155" cy="84.8538" r="2.32597" fill="#FF0000"/>
<path d="M347.218 29.444C347.303 30.2768 347.218 31.105 346.962 31.9284C346.716 32.7423 346.342 33.4805 345.841 34.143C344.847 35.4113 343.612 36.282 342.135 36.7552C340.659 37.219 339.145 37.3467 337.593 37.1385C336.021 36.9114 334.531 36.4429 333.121 35.733C331.71 35.0138 330.376 34.1904 329.117 33.2628L330.991 30.4519C333.102 31.7769 335.326 32.8748 337.664 33.7455C338.799 34.1904 339.959 34.5547 341.142 34.8387C341.681 34.9712 342.244 35.0516 342.831 35.08C343.418 35.0989 343.972 34.9996 344.492 34.7819C344.871 34.4412 345.202 34.0673 345.486 33.6603C345.694 32.8369 345.571 32.0703 345.117 31.3605C344.662 30.6507 344.066 30.0213 343.328 29.4724C342.599 28.9234 341.927 28.4739 341.312 28.1237C339.883 27.2814 338.44 26.6056 336.982 25.8011C335.591 25.0345 334.209 24.2537 332.837 23.4587C332.108 23.0328 331.516 22.498 331.062 21.8545C330.617 21.2109 330.352 20.4632 330.267 19.6114C330.116 18.0876 330.395 16.6491 331.105 15.2957C332.051 13.7719 333.39 12.7923 335.122 12.357C336.826 11.9973 338.496 12.092 340.134 12.6409C341.771 13.1898 343.285 13.8041 344.677 14.7789C344.535 14.9871 344.393 15.1953 344.251 15.4035C343.872 15.9619 343.489 16.5203 343.101 17.0787C342.069 16.1891 340.948 15.5796 339.736 14.9549C338.998 14.5574 338.194 14.2404 337.323 14.0038C336.462 13.7577 335.6 13.6725 334.739 13.7482C333.887 13.8239 333.102 14.1457 332.382 14.7136C331.928 15.0827 331.592 15.537 331.374 16.0765C331.157 16.6065 331.133 17.1601 331.303 17.7375C331.502 18.2959 331.824 18.7785 332.269 19.1855C332.714 19.5925 333.192 19.9285 333.703 20.1935V20.2077C335.132 20.927 336.622 21.5232 338.175 21.9964C339.604 22.4318 340.99 22.9713 342.334 23.6148C343.536 24.2206 344.596 24.8774 345.514 25.8806C346.442 26.8838 347.01 28.0716 347.218 29.444Z" fill="#FF0000"/>
<path d="M372.662 15.9169C374.782 18.0748 375.984 20.6633 376.267 23.6824C376.447 26.3514 375.875 28.8074 374.55 31.0504C373.234 33.284 371.365 34.964 368.942 36.0902C366.443 37.1692 363.897 37.4342 361.304 36.8852C358.711 36.3363 356.487 35.0681 354.632 33.0806V49.4271H350.271V12.2116H354.632V16.357C356.25 14.625 358.138 13.4514 360.296 12.8362C362.464 12.2116 364.64 12.1548 366.827 12.6659C369.022 13.177 370.967 14.2606 372.662 15.9169ZM363.86 36.6013C363.992 36.6013 364.125 36.6013 364.257 36.6013C366.197 35.5792 367.768 34.1595 368.97 32.3423C370.409 30.0709 371.124 27.6291 371.114 25.0169C371.105 22.4047 370.433 19.996 369.098 17.7908C367.764 15.5762 365.838 13.9294 363.32 12.8504C359.799 13.0776 356.903 14.5398 354.632 17.2372V32.2004C355.777 33.5916 357.154 34.6753 358.763 35.4514C360.381 36.218 362.08 36.6013 363.86 36.6013Z" fill="#FF0000"/>
<path d="M399.457 32.5451C399.485 33.0845 399.481 33.553 399.803 33.9505C400.124 34.3386 400.598 34.4616 401.222 34.3196C401.175 34.4048 401.075 34.5846 400.924 34.8591C400.782 35.1241 400.616 35.4222 400.427 35.7535C400.247 36.0942 400.077 36.4065 399.916 36.6905C399.765 36.9649 399.67 37.14 399.632 37.2157C398.591 37.2725 397.763 37.0202 396.93 36.4713C396.106 35.9223 395.529 35.1557 395.198 34.1714C395.008 33.3859 394.942 32.5814 394.999 31.758C394.999 31.5593 394.999 31.3605 394.999 31.1617C394.999 28.9092 394.999 26.6567 394.999 24.4042C394.649 26.3444 394.076 28.2231 393.281 30.0402C392.569 31.5893 391.443 33.1746 389.976 34.5375C388.784 35.607 387.369 36.3878 385.731 36.8799C384.094 37.3626 382.495 37.3342 380.933 36.7948C379.882 36.3594 379.121 35.6969 378.647 34.8072C378.184 33.9081 377.906 32.8875 377.963 31.8369C378.019 30.7864 378.309 30.1112 378.829 29.2026C379.425 28.2183 380.159 27.3902 381.03 26.7182C381.91 26.0368 382.861 25.4595 383.883 24.9862C384.915 24.5036 385.946 24.0587 386.978 23.6518C387.082 23.6139 387.186 23.576 387.29 23.5382C388.303 23.1501 389.311 22.7006 390.314 22.1895C391.317 21.6784 392.226 21.0585 393.04 20.3298C393.863 19.601 394.502 18.7113 394.956 17.6608C394.862 16.6008 394.545 15.626 394.005 14.7363C393.466 13.8372 392.657 13.2409 391.578 12.9475C391.578 12.9475 391.502 12.9428 391.35 12.9333C391.199 12.9144 391.01 12.8955 390.783 12.8766C390.565 12.8482 390.338 12.8292 390.101 12.8198C389.874 12.8008 389.666 12.7961 389.476 12.8056C388.738 12.8529 388.01 12.9854 387.29 13.2031C386.003 13.6006 384.796 14.1732 383.67 14.9209C382.364 15.7632 381.339 16.7569 380.288 17.9021V14.5375C381.699 13.7709 383.457 13.0375 385.076 12.6778C386.703 12.3182 388.367 12.1453 389.957 12.2116C391.197 12.2494 392.358 12.4696 393.551 12.8198C394.753 13.17 395.827 13.7189 396.774 14.4666C397.72 15.2143 398.506 16.2048 398.988 17.4257C399.234 18.0977 399.376 18.7886 399.414 19.4984C399.461 20.1988 399.476 20.9039 399.457 21.6137C399.457 21.8692 399.457 22.1248 399.457 22.3803C399.457 25.7685 399.457 29.1568 399.457 32.5451ZM393.111 29.0465C393.754 27.428 394.228 25.7529 394.53 24.0209C394.843 22.2889 394.999 20.5569 394.999 18.8249C394.261 20.008 393.314 20.9828 392.16 21.7494C391.014 22.5066 389.808 23.1359 388.54 23.6376C387.366 24.3379 386.292 25.2087 385.317 26.2497C384.352 27.2908 383.67 28.4549 383.273 29.7421C382.875 31.0292 383.025 32.1288 383.574 33.5579C383.971 34.476 384.515 35.0438 385.206 35.2615C385.897 35.4697 386.635 35.4461 387.421 35.1905C388.216 34.935 388.959 34.5612 389.65 34.069C391.126 32.7251 392.304 30.9647 393.111 29.0465Z" fill="#FF0000"/>
<path d="M423.818 0.000244141H428.191V37.2157H423.818V33.0561C422.237 34.7597 420.535 35.9649 418.358 36.6274C416.181 37.2805 413.967 37.3373 411.714 36.7978C409.802 36.3056 408.103 35.4207 406.617 34.143C405.141 32.8559 404.019 31.3037 403.253 29.4866C402.524 27.6789 402.221 25.8096 402.344 23.8789C402.477 21.9482 403.03 20.1357 404.005 18.4416C405.018 16.738 406.343 15.3562 407.98 14.2962C409.618 13.2267 411.421 12.5737 413.389 12.3371C415.396 12.1383 417.322 12.3891 419.167 13.0895C421.022 13.7899 422.455 14.8561 423.818 16.3326V0.000244141ZM415.803 36.5564C417.468 36.405 418.997 35.9507 420.388 35.1936C421.789 34.427 422.815 33.4063 423.818 32.176V17.2128C422.626 15.7742 421.368 14.6937 419.692 13.9271C418.017 13.151 416.243 12.7914 414.369 12.8482C412.429 13.8609 410.857 15.2758 409.656 17.0929C408.217 19.3644 407.502 21.8062 407.512 24.4184C407.521 27.0305 408.193 29.444 409.528 31.6586C410.862 33.8733 412.788 35.5154 415.306 36.5848C415.476 36.5848 415.642 36.5754 415.803 36.5564Z" fill="#FF0000"/>
<path d="M455.488 20.2588C456.51 23.0602 456.546 25.7212 455.666 28.4848C454.795 31.239 453.134 33.4631 450.683 35.1572C448.364 36.6431 445.866 37.3293 443.187 37.2157C440.518 37.1116 438.086 36.222 435.89 34.5468C433.732 32.7959 432.294 30.6143 431.574 28.0021C430.865 25.39 431.022 22.8993 431.978 20.2872C432.887 17.9873 434.316 16.1181 436.266 14.6795C438.215 13.2315 440.43 12.4128 442.91 12.2235C445.692 12.0815 448.224 12.7393 450.505 14.1968C452.786 15.6544 454.447 17.675 455.488 20.2588ZM448.028 35.8812C449.42 35.2945 450.399 34.348 450.967 33.0419C451.544 31.7358 451.838 30.3162 451.847 28.783C451.857 27.2497 451.71 25.849 451.407 24.5808C450.924 22.4797 450.121 20.59 448.929 18.6688C447.746 16.7475 446.203 15.2379 444.301 14.1401C443.392 13.629 442.451 13.3356 441.476 13.2599C440.501 13.1841 439.55 13.4018 438.622 13.9129C437.893 14.3577 437.307 14.954 436.862 15.7017C436.417 16.4399 436.1 17.216 435.911 18.0299C435.409 20.1405 435.36 22.1579 435.833 24.3252C436.307 26.4831 437.097 28.4754 438.204 30.302C438.848 31.3904 439.676 32.4551 440.689 33.4962C441.701 34.5373 442.837 35.3181 444.096 35.8387C445.355 36.3497 446.665 36.3639 448.028 35.8812Z" fill="#FF0000"/>
<path d="M477.089 37.2237L465.362 23.311C464.567 24.2575 464.009 24.9484 463.687 25.3837V37.2521H459.3V0.000244141H463.687V24.461C464.018 24.0351 464.44 23.5145 464.951 22.8993C465.935 21.7541 466.943 20.6705 467.974 19.6483C469.754 17.8974 471.495 16.4446 473.199 15.29C475.347 13.8419 477.382 12.9097 479.303 12.4932C480.042 12.3418 480.761 12.2661 481.461 12.2661V16.7522C481.461 16.7522 481.135 16.6481 480.482 16.4399C479.829 16.2317 478.972 16.0802 477.912 15.9856C476.852 15.8815 475.688 15.9667 474.42 16.2411C473.152 16.5061 471.879 17.0929 470.601 18.0015C469.787 18.7019 469.044 19.3881 468.372 20.06C468.363 20.0695 468.358 20.0742 468.358 20.0742L482.824 37.2237H477.089Z" fill="#FF0000"/>
<circle cx="389.883" cy="6.39677" r="2.32597" fill="#FF0000"/>
<path d="M288.931 68.9911C289.016 69.8239 288.931 70.6521 288.675 71.4755C288.429 72.2894 288.055 73.0276 287.554 73.6901C286.56 74.9584 285.325 75.8291 283.848 76.3023C282.372 76.7661 280.858 76.8938 279.305 76.6856C277.734 76.4585 276.244 75.99 274.834 75.2802C273.423 74.5609 272.089 73.7375 270.83 72.81L272.704 69.999C274.815 71.3241 277.039 72.4219 279.376 73.2926C280.512 73.7375 281.672 74.1019 282.855 74.3858C283.394 74.5183 283.957 74.5987 284.544 74.6271C285.131 74.6461 285.684 74.5467 286.205 74.329C286.584 73.9883 286.915 73.6144 287.199 73.2075C287.407 72.3841 287.284 71.6174 286.83 70.9076C286.375 70.1978 285.779 69.5684 285.041 69.0195C284.312 68.4705 283.64 68.021 283.025 67.6708C281.596 66.8285 280.152 66.1527 278.695 65.3482C277.304 64.5816 275.922 63.8008 274.55 63.0058C273.821 62.5799 273.229 62.0452 272.775 61.4016C272.33 60.758 272.065 60.0103 271.98 59.1585C271.829 57.6348 272.108 56.1962 272.818 54.8428C273.764 53.319 275.103 52.3394 276.835 51.9041C278.539 51.5444 280.209 51.6391 281.847 52.188C283.484 52.7369 284.998 53.3512 286.39 54.326C286.248 54.5342 286.106 54.7424 285.964 54.9507C285.585 55.5091 285.202 56.0675 284.814 56.6259C283.782 55.7362 282.661 55.1267 281.449 54.5021C280.711 54.1045 279.906 53.7875 279.036 53.5509C278.174 53.3048 277.313 53.2196 276.452 53.2953C275.6 53.3711 274.815 53.6928 274.095 54.2607C273.641 54.6298 273.305 55.0841 273.087 55.6236C272.87 56.1536 272.846 56.7073 273.016 57.2846C273.215 57.843 273.537 58.3257 273.982 58.7326C274.427 59.1396 274.904 59.4756 275.416 59.7406V59.7548C276.845 60.4741 278.335 61.0703 279.887 61.5436C281.317 61.9789 282.703 62.5184 284.047 63.162C285.249 63.7677 286.309 64.4245 287.227 65.4277C288.155 66.431 288.723 67.6187 288.931 68.9911Z" fill="#FF0000"/>
<path d="M314.374 55.464C316.494 57.6219 317.696 60.2104 317.98 63.2295C318.16 65.8985 317.588 68.3545 316.263 70.5976C314.947 72.8312 313.078 74.5111 310.655 75.6374C308.156 76.7163 305.61 76.9813 303.017 76.4324C300.424 75.8834 298.2 74.6152 296.345 72.6277V88.9742H291.984V51.7587H296.345V55.9041C297.963 54.1721 299.851 52.9985 302.009 52.3834C304.177 51.7587 306.353 51.7019 308.54 52.213C310.735 52.7241 312.68 53.8077 314.374 55.464ZM305.573 76.1484C305.705 76.1484 305.838 76.1484 305.97 76.1484C307.91 75.1263 309.481 73.7066 310.683 71.8895C312.122 69.618 312.836 67.1762 312.827 64.564C312.818 61.9519 312.146 59.5432 310.811 57.338C309.477 55.1233 307.551 53.4765 305.033 52.3976C301.512 52.6247 298.616 54.0869 296.345 56.7843V71.7475C297.49 73.1388 298.867 74.2224 300.476 74.9985C302.094 75.7651 303.793 76.1484 305.573 76.1484Z" fill="#FF0000"/>
<path d="M341.17 72.0922C341.198 72.6316 341.194 73.1001 341.515 73.4976C341.837 73.8857 342.31 74.0087 342.935 73.8667C342.888 73.9519 342.788 74.1317 342.637 74.4062C342.495 74.6712 342.329 74.9693 342.14 75.3006C341.96 75.6413 341.79 75.9536 341.629 76.2376C341.478 76.512 341.383 76.6871 341.345 76.7628C340.304 76.8196 339.475 76.5673 338.643 76.0184C337.819 75.4695 337.242 74.7028 336.911 73.7185C336.721 72.933 336.655 72.1285 336.712 71.3051C336.712 71.1064 336.712 70.9076 336.712 70.7089C336.712 68.4563 336.712 66.2038 336.712 63.9513C336.362 65.8915 335.789 67.7702 334.994 69.5873C334.282 71.1365 333.156 72.7218 331.689 74.0846C330.497 75.1541 329.082 75.9349 327.444 76.4271C325.807 76.9097 324.208 76.8814 322.646 76.3419C321.595 75.9065 320.833 75.244 320.36 74.3544C319.896 73.4552 319.619 72.4346 319.675 71.384C319.732 70.3335 320.021 69.6583 320.542 68.7497C321.138 67.7654 321.872 66.9373 322.742 66.2653C323.623 65.5839 324.574 65.0066 325.596 64.5334C326.628 64.0507 327.659 63.6058 328.691 63.1989C328.795 63.161 328.899 63.1232 329.003 63.0853C330.016 62.6973 331.024 62.2477 332.027 61.7366C333.03 61.2256 333.939 60.6056 334.753 59.8769C335.576 59.1481 336.215 58.2585 336.669 57.2079C336.575 56.1479 336.258 55.1731 335.718 54.2834C335.179 53.3843 334.369 52.7881 333.29 52.4947C333.29 52.4947 333.215 52.4899 333.063 52.4805C332.912 52.4615 332.723 52.4426 332.495 52.4237C332.278 52.3953 332.051 52.3764 331.814 52.3669C331.587 52.348 331.379 52.3432 331.189 52.3527C330.451 52.4 329.722 52.5325 329.003 52.7502C327.716 53.1477 326.509 53.7203 325.383 54.468C324.077 55.3103 323.052 56.3041 322.001 57.4492V54.0847C323.412 53.318 325.17 52.5846 326.788 52.2249C328.416 51.8653 330.08 51.6925 331.67 51.7587C332.91 51.7966 334.071 52.0167 335.264 52.3669C336.466 52.7171 337.54 53.266 338.486 54.0137C339.433 54.7614 340.218 55.7519 340.701 56.9728C340.947 57.6448 341.089 58.3357 341.127 59.0455C341.174 59.7459 341.189 60.451 341.17 61.1608C341.17 61.4163 341.17 61.6719 341.17 61.9274C341.17 65.3157 341.17 68.7039 341.17 72.0922ZM334.824 68.5936C335.467 66.9752 335.941 65.3 336.243 63.568C336.556 61.836 336.712 60.104 336.712 58.372C335.974 59.5551 335.027 60.5299 333.873 61.2965C332.727 62.0537 331.521 62.6831 330.252 63.1847C329.079 63.885 328.005 64.7558 327.03 65.7969C326.064 66.8379 325.383 68.0021 324.985 69.2892C324.588 70.5764 324.738 71.6759 325.286 73.1051C325.684 74.0231 326.228 74.591 326.919 74.8086C327.61 75.0169 328.348 74.9932 329.134 74.7377C329.929 74.4821 330.672 74.1083 331.363 73.6161C332.839 72.2722 334.017 70.5118 334.824 68.5936Z" fill="#FF0000"/>
<path d="M365.531 39.5474H369.903V76.7629H365.531V72.6033C363.95 74.3068 362.248 75.512 360.071 76.1746C357.894 76.8276 355.679 76.8844 353.427 76.3449C351.515 75.8528 349.816 74.9678 348.33 73.6901C346.854 72.403 345.732 70.8508 344.966 69.0337C344.237 67.226 343.934 65.3568 344.057 63.426C344.19 61.4953 344.743 59.6829 345.718 57.9887C346.731 56.2851 348.056 54.9033 349.693 53.8433C351.331 52.7739 353.134 52.1208 355.102 51.8842C357.109 51.6855 359.035 51.9363 360.88 52.6366C362.735 53.337 364.168 54.4032 365.531 55.8797V39.5474ZM357.516 76.1036C359.181 75.9521 360.71 75.4978 362.101 74.7407C363.502 73.9741 364.528 72.9534 365.531 71.7231V56.7599C364.338 55.3213 363.081 54.2408 361.405 53.4742C359.73 52.6981 357.956 52.3385 356.082 52.3953C354.141 53.408 352.57 54.8229 351.368 56.6401C349.93 58.9115 349.215 61.3533 349.225 63.9655C349.234 66.5777 349.906 68.9911 351.241 71.2057C352.575 73.4204 354.501 75.0625 357.019 76.132C357.189 76.132 357.355 76.1225 357.516 76.1036Z" fill="#FF0000"/>
<path d="M397.201 59.8059C398.223 62.6074 398.259 65.2683 397.379 68.0319C396.508 70.7861 394.847 73.0102 392.396 74.7043C390.077 76.1902 387.579 76.8764 384.9 76.7628C382.231 76.6587 379.799 75.7691 377.603 74.0939C375.445 72.343 374.007 70.1614 373.287 67.5493C372.578 64.9371 372.735 62.4465 373.691 59.8343C374.6 57.5344 376.029 55.6652 377.978 54.2266C379.928 52.7786 382.143 51.9599 384.622 51.7706C387.405 51.6287 389.937 52.2864 392.218 53.744C394.499 55.2015 396.16 57.2221 397.201 59.8059ZM389.741 75.4284C391.132 74.8416 392.112 73.8951 392.68 72.589C393.257 71.283 393.551 69.8633 393.56 68.3301C393.57 66.7968 393.423 65.3961 393.12 64.1279C392.637 62.0268 391.834 60.1371 390.642 58.2159C389.459 56.2946 387.916 54.785 386.014 53.6872C385.105 53.1761 384.163 52.8827 383.189 52.807C382.214 52.7313 381.263 52.9489 380.335 53.46C379.606 53.9049 379.02 54.5011 378.575 55.2488C378.13 55.987 377.813 56.7631 377.624 57.577C377.122 59.6876 377.073 61.705 377.546 63.8724C378.02 66.0302 378.81 68.0225 379.917 69.8491C380.561 70.9375 381.389 72.0023 382.402 73.0433C383.414 74.0844 384.55 74.8652 385.809 75.3858C387.068 75.8969 388.378 75.911 389.741 75.4284Z" fill="#FF0000"/>
<path d="M418.802 76.7708L407.075 62.8582C406.28 63.8046 405.722 64.4955 405.4 64.9309V76.7992H401.013V39.5474H405.4V64.0081C405.731 63.5822 406.152 63.0616 406.664 62.4465C407.648 61.3013 408.656 60.2176 409.687 59.1954C411.467 57.4445 413.208 55.9917 414.912 54.8371C417.06 53.389 419.095 52.4568 421.016 52.0404C421.754 51.8889 422.474 51.8132 423.174 51.8132V56.2993C423.174 56.2993 422.848 56.1952 422.195 55.987C421.542 55.7788 420.685 55.6274 419.625 55.5327C418.565 55.4286 417.401 55.5138 416.133 55.7883C414.864 56.0533 413.591 56.6401 412.314 57.5486C411.5 58.249 410.757 58.9352 410.085 59.6071C410.075 59.6166 410.071 59.6213 410.071 59.6213L424.537 76.7708H418.802Z" fill="#FF0000"/>
<circle cx="331.595" cy="45.9439" r="2.32597" fill="#FF0000"/>
<path d="M270.208 107.901C270.293 108.734 270.208 109.562 269.953 110.385C269.706 111.199 269.333 111.938 268.831 112.6C267.837 113.868 266.602 114.739 265.126 115.212C263.649 115.676 262.135 115.804 260.583 115.596C259.012 115.368 257.521 114.9 256.111 114.19C254.701 113.471 253.366 112.647 252.107 111.72L253.981 108.909C256.092 110.234 258.316 111.332 260.654 112.203C261.789 112.647 262.949 113.012 264.132 113.296C264.671 113.428 265.235 113.509 265.821 113.537C266.408 113.556 266.962 113.457 267.482 113.239C267.861 112.898 268.192 112.524 268.476 112.117C268.684 111.294 268.561 110.527 268.107 109.818C267.653 109.108 267.056 108.478 266.318 107.929C265.589 107.38 264.917 106.931 264.302 106.581C262.873 105.738 261.43 105.063 259.972 104.258C258.581 103.492 257.199 102.711 255.827 101.916C255.098 101.49 254.507 100.955 254.052 100.312C253.608 99.6679 253.343 98.9202 253.257 98.0684C253.106 96.5447 253.385 95.1061 254.095 93.7527C255.041 92.2289 256.381 91.2494 258.113 90.814C259.816 90.4543 261.487 90.549 263.124 91.0979C264.761 91.6469 266.276 92.2611 267.667 93.2359C267.525 93.4441 267.383 93.6524 267.241 93.8606C266.862 94.419 266.479 94.9774 266.091 95.5358C265.059 94.6461 263.938 94.0366 262.726 93.412C261.988 93.0145 261.184 92.6974 260.313 92.4608C259.452 92.2147 258.591 92.1295 257.729 92.2053C256.877 92.281 256.092 92.6028 255.373 93.1706C254.918 93.5397 254.582 93.994 254.365 94.5335C254.147 95.0635 254.123 95.6172 254.294 96.1945C254.492 96.7529 254.814 97.2356 255.259 97.6425C255.704 98.0495 256.182 98.3855 256.693 98.6505V98.6647C258.122 99.384 259.613 99.9802 261.165 100.453C262.594 100.889 263.98 101.428 265.324 102.072C266.526 102.678 267.586 103.334 268.504 104.338C269.432 105.341 270 106.529 270.208 107.901Z" fill="#FF0000"/>
<path d="M295.652 94.3739C297.772 96.5318 298.974 99.1203 299.258 102.139C299.437 104.808 298.865 107.264 297.54 109.507C296.224 111.741 294.355 113.421 291.932 114.547C289.434 115.626 286.888 115.891 284.294 115.342C281.701 114.793 279.477 113.525 277.622 111.538V127.884H273.261V90.6686H277.622V94.814C279.24 93.082 281.129 91.9085 283.287 91.2933C285.454 90.6686 287.631 90.6118 289.817 91.1229C292.013 91.634 293.958 92.7177 295.652 94.3739ZM286.85 115.058C286.982 115.058 287.115 115.058 287.247 115.058C289.188 114.036 290.759 112.617 291.961 110.799C293.399 108.528 294.114 106.086 294.104 103.474C294.095 100.862 293.423 98.4531 292.088 96.2479C290.754 94.0332 288.828 92.3864 286.31 91.3075C282.79 91.5346 279.894 92.9969 277.622 95.6942V110.657C278.767 112.049 280.144 113.132 281.753 113.908C283.372 114.675 285.071 115.058 286.85 115.058Z" fill="#FF0000"/>
<path d="M322.447 111.002C322.475 111.542 322.471 112.01 322.793 112.408C323.115 112.796 323.588 112.919 324.212 112.777C324.165 112.862 324.066 113.042 323.914 113.316C323.772 113.581 323.607 113.879 323.417 114.211C323.238 114.551 323.067 114.864 322.906 115.147C322.755 115.422 322.66 115.597 322.622 115.673C321.581 115.73 320.753 115.477 319.92 114.928C319.097 114.379 318.519 113.613 318.188 112.628C317.999 111.843 317.932 111.038 317.989 110.215C317.989 110.016 317.989 109.818 317.989 109.619C317.989 107.366 317.989 105.114 317.989 102.861C317.639 104.801 317.066 106.68 316.271 108.497C315.56 110.046 314.433 111.632 312.966 112.995C311.774 114.064 310.359 114.845 308.722 115.337C307.084 115.82 305.485 115.791 303.923 115.252C302.873 114.816 302.111 114.154 301.638 113.264C301.174 112.365 300.896 111.345 300.953 110.294C301.01 109.243 301.299 108.568 301.819 107.66C302.416 106.675 303.149 105.847 304.02 105.175C304.9 104.494 305.851 103.916 306.873 103.443C307.905 102.961 308.937 102.516 309.968 102.109C310.072 102.071 310.176 102.033 310.28 101.995C311.293 101.607 312.301 101.158 313.304 100.647C314.308 100.135 315.216 99.5155 316.03 98.7868C316.853 98.058 317.492 97.1684 317.947 96.1178C317.852 95.0578 317.535 94.083 316.995 93.1933C316.456 92.2942 315.647 91.698 314.568 91.4046C314.568 91.4046 314.492 91.3998 314.341 91.3904C314.189 91.3714 314 91.3525 313.773 91.3336C313.555 91.3052 313.328 91.2863 313.091 91.2768C312.864 91.2579 312.656 91.2531 312.467 91.2626C311.729 91.3099 311 91.4424 310.28 91.6601C308.993 92.0576 307.787 92.6302 306.66 93.3779C305.354 94.2202 304.329 95.214 303.279 96.3592V92.9946C304.689 92.228 306.447 91.4945 308.066 91.1348C309.694 90.7752 311.358 90.6024 312.948 90.6686C314.188 90.7065 315.349 90.9266 316.541 91.2768C317.743 91.627 318.817 92.1759 319.764 92.9236C320.71 93.6713 321.496 94.6618 321.978 95.8827C322.225 96.5547 322.366 97.2456 322.404 97.9554C322.452 98.6558 322.466 99.3609 322.447 100.071C322.447 100.326 322.447 100.582 322.447 100.837C322.447 104.226 322.447 107.614 322.447 111.002ZM316.101 107.503C316.745 105.885 317.218 104.21 317.521 102.478C317.833 100.746 317.989 99.0139 317.989 97.282C317.251 98.465 316.305 99.4398 315.15 100.206C314.005 100.964 312.798 101.593 311.53 102.095C310.356 102.795 309.282 103.666 308.307 104.707C307.342 105.748 306.66 106.912 306.263 108.199C305.865 109.486 306.015 110.586 306.564 112.015C306.961 112.933 307.506 113.501 308.196 113.719C308.887 113.927 309.626 113.903 310.411 113.648C311.206 113.392 311.949 113.018 312.64 112.526C314.116 111.182 315.295 109.422 316.101 107.503Z" fill="#FF0000"/>
<path d="M346.808 78.4573H351.181V115.673H346.808V111.513C345.228 113.217 343.525 114.422 341.348 115.084C339.171 115.738 336.957 115.794 334.704 115.255C332.792 114.763 331.094 113.878 329.608 112.6C328.131 111.313 327.01 109.761 326.243 107.944C325.514 106.136 325.211 104.267 325.335 102.336C325.467 100.405 326.021 98.5928 326.996 96.8986C328.008 95.1951 329.333 93.8133 330.971 92.7532C332.608 91.6838 334.411 91.0307 336.379 90.7941C338.386 90.5954 340.312 90.8462 342.157 91.5465C344.012 92.2469 345.445 93.3132 346.808 94.7896V78.4573ZM338.793 115.013C340.459 114.862 341.987 114.408 343.378 113.651C344.779 112.884 345.805 111.863 346.808 110.633V95.6698C345.616 94.2312 344.358 93.1507 342.683 92.3841C341.008 91.6081 339.233 91.2484 337.359 91.3052C335.419 92.3179 333.848 93.7328 332.646 95.55C331.207 97.8214 330.493 100.263 330.502 102.875C330.512 105.488 331.184 107.901 332.518 110.116C333.852 112.33 335.778 113.972 338.296 115.042C338.466 115.042 338.632 115.032 338.793 115.013Z" fill="#FF0000"/>
<path d="M378.478 98.7158C379.5 101.517 379.536 104.178 378.656 106.942C377.786 109.696 376.125 111.92 373.673 113.614C371.355 115.1 368.856 115.786 366.178 115.673C363.509 115.569 361.076 114.679 358.88 113.004C356.723 111.253 355.284 109.071 354.565 106.459C353.855 103.847 354.013 101.356 354.968 98.7442C355.877 96.4444 357.306 94.5751 359.256 93.1366C361.205 91.6885 363.42 90.8698 365.9 90.6805C368.682 90.5386 371.214 91.1964 373.495 92.6539C375.776 94.1114 377.437 96.132 378.478 98.7158ZM371.019 114.338C372.41 113.751 373.389 112.805 373.957 111.499C374.535 110.193 374.828 108.773 374.837 107.24C374.847 105.707 374.7 104.306 374.397 103.038C373.915 100.937 373.112 99.0471 371.919 97.1258C370.736 95.2045 369.193 93.695 367.291 92.5971C366.383 92.086 365.441 91.7926 364.466 91.7169C363.491 91.6412 362.54 91.8589 361.612 92.3699C360.884 92.8148 360.297 93.411 359.852 94.1587C359.407 94.8969 359.09 95.673 358.901 96.4869C358.399 98.5975 358.35 100.615 358.824 102.782C359.297 104.94 360.087 106.932 361.195 108.759C361.838 109.847 362.666 110.912 363.679 111.953C364.692 112.994 365.827 113.775 367.086 114.296C368.345 114.807 369.656 114.821 371.019 114.338Z" fill="#FF0000"/>
<path d="M400.079 115.681L388.353 101.768C387.558 102.715 386.999 103.405 386.677 103.841V115.709H382.291V78.4573H386.677V102.918C387.009 102.492 387.43 101.972 387.941 101.356C388.925 100.211 389.933 99.1275 390.965 98.1054C392.744 96.3544 394.485 94.9017 396.189 93.747C398.337 92.299 400.372 91.3667 402.294 90.9503C403.032 90.7988 403.751 90.7231 404.451 90.7231V95.2093C404.451 95.2093 404.125 95.1051 403.472 94.8969C402.819 94.6887 401.962 94.5373 400.902 94.4426C399.842 94.3385 398.678 94.4237 397.41 94.6982C396.142 94.9632 394.869 95.55 393.591 96.4586C392.777 97.1589 392.034 97.8451 391.362 98.5171C391.353 98.5265 391.348 98.5313 391.348 98.5313L405.814 115.681H400.079Z" fill="#FF0000"/>
<circle cx="312.873" cy="84.8536" r="2.32597" fill="#FF0000"/>
<path d="M-121.612 29.444C-121.527 30.2768 -121.612 31.105 -121.868 31.9284C-122.114 32.7423 -122.488 33.4805 -122.989 34.143C-123.983 35.4113 -125.218 36.282 -126.695 36.7552C-128.171 37.219 -129.685 37.3467 -131.238 37.1385C-132.809 36.9114 -134.299 36.4429 -135.709 35.733C-137.12 35.0138 -138.454 34.1904 -139.713 33.2628L-137.839 30.4519C-135.728 31.7769 -133.504 32.8748 -131.167 33.7455C-130.031 34.1904 -128.871 34.5547 -127.688 34.8387C-127.149 34.9712 -126.586 35.0516 -125.999 35.08C-125.412 35.0989 -124.859 34.9996 -124.338 34.7819C-123.959 34.4412 -123.628 34.0673 -123.344 33.6603C-123.136 32.8369 -123.259 32.0703 -123.713 31.3605C-124.168 30.6507 -124.764 30.0213 -125.502 29.4724C-126.231 28.9234 -126.903 28.4739 -127.518 28.1237C-128.947 27.2814 -130.39 26.6056 -131.848 25.8011C-133.239 25.0345 -134.621 24.2537 -135.993 23.4587C-136.722 23.0328 -137.314 22.498 -137.768 21.8545C-138.213 21.2109 -138.478 20.4632 -138.563 19.6114C-138.714 18.0876 -138.435 16.6491 -137.725 15.2957C-136.779 13.7719 -135.44 12.7923 -133.708 12.357C-132.004 11.9973 -130.334 12.092 -128.696 12.6409C-127.059 13.1898 -125.545 13.8041 -124.153 14.7789C-124.295 14.9871 -124.437 15.1953 -124.579 15.4035C-124.958 15.9619 -125.341 16.5203 -125.729 17.0787C-126.761 16.1891 -127.882 15.5796 -129.094 14.9549C-129.832 14.5574 -130.637 14.2404 -131.507 14.0038C-132.369 13.7577 -133.23 13.6725 -134.091 13.7482C-134.943 13.8239 -135.728 14.1457 -136.448 14.7136C-136.902 15.0827 -137.238 15.537 -137.456 16.0765C-137.673 16.6065 -137.697 17.1601 -137.527 17.7375C-137.328 18.2959 -137.006 18.7785 -136.561 19.1855C-136.116 19.5925 -135.638 19.9285 -135.127 20.1935V20.2077C-133.698 20.927 -132.208 21.5232 -130.655 21.9964C-129.226 22.4318 -127.84 22.9713 -126.496 23.6148C-125.294 24.2206 -124.234 24.8774 -123.316 25.8806C-122.388 26.8838 -121.82 28.0716 -121.612 29.444Z" fill="#FF0000"/>
<path d="M-96.1686 15.9169C-94.0486 18.0748 -92.8466 20.6633 -92.5626 23.6824C-92.3828 26.3514 -92.9554 28.8074 -94.2804 31.0504C-95.596 33.284 -97.4652 34.964 -99.8881 36.0902C-102.387 37.1692 -104.933 37.4342 -107.526 36.8852C-110.119 36.3363 -112.343 35.0681 -114.198 33.0806V49.4271H-118.559V12.2116H-114.198V16.357C-112.58 14.625 -110.692 13.4514 -108.534 12.8362C-106.366 12.2116 -104.19 12.1548 -102.003 12.6659C-99.8076 13.177 -97.8627 14.2606 -96.1686 15.9169ZM-104.97 36.6013C-104.838 36.6013 -104.705 36.6013 -104.573 36.6013C-102.633 35.5792 -101.062 34.1595 -99.8597 32.3423C-98.4211 30.0709 -97.7065 27.6291 -97.716 25.0169C-97.7255 22.4047 -98.3974 19.996 -99.7319 17.7908C-101.066 15.5762 -102.992 13.9294 -105.51 12.8504C-109.031 13.0776 -111.927 14.5398 -114.198 17.2372V32.2004C-113.053 33.5916 -111.676 34.6753 -110.067 35.4514C-108.449 36.218 -106.75 36.6013 -104.97 36.6013Z" fill="#FF0000"/>
<path d="M-69.3734 32.5451C-69.345 33.0845 -69.3493 33.553 -69.0276 33.9505C-68.7058 34.3386 -68.2325 34.4616 -67.6079 34.3196C-67.6552 34.4048 -67.7546 34.5846 -67.906 34.8591C-68.048 35.1241 -68.2136 35.4222 -68.4029 35.7535C-68.5827 36.0942 -68.7531 36.4065 -68.914 36.6905C-69.0654 36.9649 -69.1601 37.14 -69.1979 37.2157C-70.239 37.2725 -71.0675 37.0202 -71.9004 36.4713C-72.7238 35.9223 -73.3011 35.1557 -73.6324 34.1714C-73.8216 33.3859 -73.8879 32.5814 -73.8311 31.758C-73.8311 31.5593 -73.8311 31.3605 -73.8311 31.1617C-73.8311 28.9092 -73.8311 26.6567 -73.8311 24.4042C-74.1813 26.3444 -74.7539 28.2231 -75.5489 30.0402C-76.2606 31.5893 -77.3869 33.1746 -78.8539 34.5375C-80.0464 35.607 -81.4613 36.3878 -83.0986 36.8799C-84.736 37.3626 -86.3355 37.3342 -87.8971 36.7948C-88.9476 36.3594 -89.7095 35.6969 -90.1827 34.8072C-90.6465 33.9081 -90.9244 32.8875 -90.8676 31.8369C-90.8108 30.7864 -90.5216 30.1112 -90.001 29.2026C-89.4048 28.2183 -88.6713 27.3902 -87.8005 26.7182C-86.9204 26.0368 -85.9692 25.4595 -84.947 24.9862C-83.9154 24.5036 -82.8838 24.0587 -81.8522 23.6518C-81.7481 23.6139 -81.644 23.576 -81.5399 23.5382C-80.5272 23.1501 -79.5192 22.7006 -78.516 22.1895C-77.5128 21.6784 -76.6042 21.0585 -75.7902 20.3298C-74.9668 19.601 -74.328 18.7113 -73.8737 17.6608C-73.9683 16.6008 -74.2854 15.626 -74.8249 14.7363C-75.3643 13.8372 -76.1735 13.2409 -77.2525 12.9475C-77.2525 12.9475 -77.3282 12.9428 -77.4796 12.9333C-77.6311 12.9144 -77.8203 12.8955 -78.0475 12.8766C-78.2652 12.8482 -78.4923 12.8292 -78.7289 12.8198C-78.9561 12.8008 -79.1643 12.7961 -79.3536 12.8056C-80.0918 12.8529 -80.8206 12.9854 -81.5399 13.2031C-82.827 13.6006 -84.0337 14.1732 -85.16 14.9209C-86.4661 15.7632 -87.4911 16.7569 -88.5416 17.9021V14.5375C-87.1314 13.7709 -85.3729 13.0375 -83.7545 12.6778C-82.1266 12.3182 -80.4626 12.1453 -78.8726 12.2116C-77.6328 12.2494 -76.4717 12.4696 -75.2792 12.8198C-74.0772 13.17 -73.003 13.7189 -72.0565 14.4666C-71.1101 15.2143 -70.3246 16.2048 -69.8419 17.4257C-69.5958 18.0977 -69.4538 18.7886 -69.416 19.4984C-69.3687 20.1988 -69.3545 20.9039 -69.3734 21.6137C-69.3734 21.8692 -69.3734 22.1248 -69.3734 22.3803C-69.3734 25.7685 -69.3734 29.1568 -69.3734 32.5451ZM-75.7193 29.0465C-75.0757 27.428 -74.6025 25.7529 -74.2996 24.0209C-73.9873 22.2889 -73.8311 20.5569 -73.8311 18.8249C-74.5693 20.008 -75.5158 20.9828 -76.6704 21.7494C-77.8156 22.5066 -79.0223 23.1359 -80.2906 23.6376C-81.4641 24.3379 -82.5383 25.2087 -83.5132 26.2497C-84.4785 27.2908 -85.16 28.4549 -85.5575 29.7421C-85.955 31.0292 -85.8055 32.1288 -85.2565 33.5579C-84.859 34.476 -84.3148 35.0438 -83.6239 35.2615C-82.933 35.4697 -82.1948 35.4461 -81.4092 35.1905C-80.6142 34.935 -79.8713 34.5612 -79.1804 34.069C-77.7039 32.7251 -76.5256 30.9647 -75.7193 29.0465Z" fill="#FF0000"/>
<path d="M-45.0121 0.000244141H-40.6395V37.2157H-45.0121V33.0561C-46.5926 34.7597 -48.2952 35.9649 -50.4721 36.6274C-52.6489 37.2805 -54.8635 37.3373 -57.1161 36.7978C-59.0279 36.3056 -60.7267 35.4207 -62.2126 34.143C-63.6891 32.8559 -64.8106 31.3037 -65.5772 29.4866C-66.306 27.6789 -66.6088 25.8096 -66.4858 23.8789C-66.3533 21.9482 -65.7996 20.1357 -64.8248 18.4416C-63.8121 16.738 -62.4871 15.3562 -60.8498 14.2962C-59.2124 13.2267 -57.4095 12.5737 -55.4409 12.3371C-53.4344 12.1383 -51.5084 12.3891 -49.6629 13.0895C-47.8078 13.7899 -46.3749 14.8561 -45.0121 16.3326V0.000244141ZM-53.0274 36.5564C-51.3617 36.405 -49.8332 35.9507 -48.4419 35.1936C-47.0412 34.427 -46.0153 33.4063 -45.0121 32.176V17.2128C-46.2046 15.7742 -47.4624 14.6937 -49.1376 13.9271C-50.8128 13.151 -52.5873 12.7914 -54.4613 12.8482C-56.4015 13.8609 -57.9726 15.2758 -59.1746 17.0929C-60.6131 19.3644 -61.3277 21.8062 -61.3182 24.4184C-61.3088 27.0305 -60.6368 29.444 -59.3023 31.6586C-57.9679 33.8733 -56.0418 35.5154 -53.5243 36.5848C-53.354 36.5848 -53.1883 36.5754 -53.0274 36.5564Z" fill="#FF0000"/>
<path d="M-13.3423 20.2588C-12.3202 23.0602 -12.2838 25.7212 -13.164 28.4848C-14.0347 31.239 -15.6957 33.4631 -18.147 35.1572C-20.4658 36.6431 -22.9644 37.3293 -25.6428 37.2157C-28.3118 37.1116 -30.7441 36.222 -32.9398 34.5468C-35.0977 32.7959 -36.5363 30.6143 -37.2556 28.0021C-37.9654 25.39 -37.8078 22.8993 -36.8519 20.2872C-35.9433 17.9873 -34.5142 16.1181 -32.5645 14.6795C-30.6148 13.2315 -28.4002 12.4128 -25.9205 12.2235C-23.138 12.0815 -20.6062 12.7393 -18.3253 14.1968C-16.0444 15.6544 -14.3834 17.675 -13.3423 20.2588ZM-20.8018 35.8812C-19.4105 35.2945 -18.4309 34.348 -17.8631 33.0419C-17.2858 31.7358 -16.9924 30.3162 -16.9829 28.783C-16.9734 27.2497 -17.1201 25.849 -17.423 24.5808C-17.9057 22.4797 -18.7086 20.59 -19.9011 18.6688C-21.0842 16.7475 -22.6269 15.2379 -24.5292 14.1401C-25.4378 13.629 -26.3795 13.3356 -27.3543 13.2599C-28.3292 13.1841 -29.2804 13.4018 -30.2079 13.9129C-30.9366 14.3577 -31.5234 14.954 -31.9682 15.7017C-32.4131 16.4399 -32.7301 17.216 -32.9194 18.0299C-33.421 20.1405 -33.4699 22.1579 -32.9966 24.3252C-32.5234 26.4831 -31.7331 28.4754 -30.6258 30.302C-29.9822 31.3904 -29.1541 32.4551 -28.1414 33.4962C-27.1287 34.5373 -25.993 35.3181 -24.7342 35.8387C-23.4755 36.3497 -22.1646 36.3639 -20.8018 35.8812Z" fill="#FF0000"/>
<path d="M8.25861 37.2237L-3.46775 23.311C-4.26276 24.2575 -4.82116 24.9484 -5.14295 25.3837V37.2521H-9.52969V0.000244141H-5.14295V24.461C-4.81169 24.0351 -4.39053 23.5145 -3.87945 22.8993C-2.89516 21.7541 -1.8872 20.6705 -0.855581 19.6483C0.923724 17.8974 2.66516 16.4446 4.36875 15.29C6.51717 13.8419 8.55202 12.9097 10.4733 12.4932C11.2115 12.3418 11.9308 12.2661 12.6312 12.2661V16.7522C12.6312 16.7522 12.3046 16.6481 11.6516 16.4399C10.9986 16.2317 10.142 16.0802 9.08202 15.9856C8.022 15.8815 6.85789 15.9667 5.58966 16.2411C4.32143 16.5061 3.04848 17.0929 1.77079 18.0015C0.956849 18.7019 0.213895 19.3881 -0.458077 20.06C-0.467541 20.0695 -0.472273 20.0742 -0.472273 20.0742L13.994 37.2237H8.25861Z" fill="#FF0000"/>
<path d="M190.94 29.4437C191.026 30.2766 190.94 31.1047 190.685 31.9281C190.439 32.7421 190.065 33.4803 189.563 34.1428C188.57 35.411 187.335 36.2817 185.858 36.755C184.382 37.2187 182.867 37.3465 181.315 37.1383C179.744 36.9111 178.253 36.4426 176.843 35.7328C175.433 35.0135 174.099 34.1901 172.84 33.2626L174.714 30.4517C176.824 31.7767 179.048 32.8746 181.386 33.7453C182.522 34.1901 183.681 34.5545 184.864 34.8384C185.404 34.9709 185.967 35.0514 186.554 35.0798C187.141 35.0987 187.694 34.9993 188.215 34.7816C188.593 34.4409 188.925 34.0671 189.208 33.6601C189.417 32.8367 189.294 32.0701 188.839 31.3603C188.385 30.6504 187.789 30.021 187.051 29.4721C186.322 28.9232 185.65 28.4736 185.035 28.1234C183.606 27.2811 182.162 26.6053 180.705 25.8009C179.313 25.0343 177.932 24.2534 176.559 23.4584C175.831 23.0325 175.239 22.4978 174.785 21.8542C174.34 21.2106 174.075 20.463 173.99 19.6112C173.838 18.0874 174.118 16.6488 174.827 15.2954C175.774 13.7716 177.113 12.7921 178.845 12.3567C180.549 11.9971 182.219 12.0917 183.856 12.6406C185.494 13.1896 187.008 13.8038 188.399 14.7787C188.257 14.9869 188.115 15.1951 187.973 15.4033C187.595 15.9617 187.212 16.5201 186.823 17.0785C185.792 16.1888 184.67 15.5793 183.459 14.9547C182.721 14.5572 181.916 14.2401 181.045 14.0035C180.184 13.7574 179.323 13.6723 178.462 13.748C177.61 13.8237 176.824 14.1455 176.105 14.7133C175.651 15.0825 175.315 15.5367 175.097 16.0762C174.879 16.6062 174.856 17.1599 175.026 17.7372C175.225 18.2956 175.547 18.7783 175.991 19.1853C176.436 19.5922 176.914 19.9282 177.425 20.1932V20.2074C178.854 20.9267 180.345 21.523 181.897 21.9962C183.326 22.4316 184.713 22.971 186.057 23.6146C187.259 24.2203 188.319 24.8772 189.237 25.8804C190.164 26.8836 190.732 28.0714 190.94 29.4437Z" fill="#FF0000"/>
<path d="M216.384 15.9167C218.504 18.0745 219.706 20.663 219.99 23.6822C220.17 26.3511 219.597 28.8071 218.272 31.0502C216.957 33.2838 215.088 34.9637 212.665 36.09C210.166 37.1689 207.62 37.4339 205.027 36.885C202.434 36.3361 200.21 35.0678 198.355 33.0803V49.4268H193.993V12.2113H198.355V16.3567C199.973 14.6248 201.861 13.4512 204.019 12.836C206.186 12.2113 208.363 12.1546 210.549 12.6656C212.745 13.1767 214.69 14.2604 216.384 15.9167ZM207.582 36.6011C207.715 36.6011 207.847 36.6011 207.98 36.6011C209.92 35.5789 211.491 34.1593 212.693 32.3421C214.132 30.0706 214.846 27.6288 214.837 25.0167C214.827 22.4045 214.155 19.9958 212.821 17.7906C211.486 15.5759 209.56 13.9291 207.043 12.8502C203.522 13.0773 200.626 14.5396 198.355 17.2369V32.2001C199.5 33.5914 200.877 34.6751 202.486 35.4511C204.104 36.2178 205.803 36.6011 207.582 36.6011Z" fill="#FF0000"/>
<path d="M243.179 32.5448C243.208 33.0843 243.203 33.5528 243.525 33.9503C243.847 34.3383 244.32 34.4613 244.945 34.3194C244.898 34.4046 244.798 34.5844 244.647 34.8588C244.505 35.1239 244.339 35.422 244.15 35.7532C243.97 36.094 243.8 36.4063 243.639 36.6902C243.487 36.9647 243.393 37.1398 243.355 37.2155C242.314 37.2723 241.485 37.02 240.652 36.471C239.829 35.9221 239.252 35.1555 238.92 34.1712C238.731 33.3856 238.665 32.5812 238.722 31.7578C238.722 31.559 238.722 31.3603 238.722 31.1615C238.722 28.909 238.722 26.6565 238.722 24.4039C238.371 26.3441 237.799 28.2228 237.004 30.04C236.292 31.5891 235.166 33.1744 233.699 34.5373C232.506 35.6067 231.091 36.3875 229.454 36.8797C227.817 37.3624 226.217 37.334 224.656 36.7945C223.605 36.3592 222.843 35.6966 222.37 34.807C221.906 33.9079 221.628 32.8872 221.685 31.8367C221.742 30.7861 222.031 30.111 222.552 29.2024C223.148 28.2181 223.881 27.3899 224.752 26.718C225.632 26.0365 226.584 25.4592 227.606 24.986C228.637 24.5033 229.669 24.0585 230.701 23.6515C230.805 23.6137 230.909 23.5758 231.013 23.5379C232.026 23.1499 233.034 22.7003 234.037 22.1893C235.04 21.6782 235.949 21.0583 236.762 20.3295C237.586 19.6008 238.225 18.7111 238.679 17.6606C238.584 16.6005 238.267 15.6257 237.728 14.7361C237.188 13.8369 236.379 13.2407 235.3 12.9473C235.3 12.9473 235.225 12.9426 235.073 12.9331C234.922 12.9142 234.732 12.8952 234.505 12.8763C234.288 12.8479 234.06 12.829 233.824 12.8195C233.597 12.8006 233.388 12.7959 233.199 12.8053C232.461 12.8527 231.732 12.9852 231.013 13.2028C229.726 13.6003 228.519 14.1729 227.393 14.9206C226.087 15.7629 225.062 16.7567 224.011 17.9019V14.5373C225.421 13.7707 227.18 13.0372 228.798 12.6776C230.426 12.3179 232.09 12.1451 233.68 12.2113C234.92 12.2492 236.081 12.4693 237.274 12.8195C238.476 13.1697 239.55 13.7186 240.496 14.4663C241.443 15.214 242.228 16.2045 242.711 17.4254C242.957 18.0974 243.099 18.7883 243.137 19.4981C243.184 20.1985 243.198 20.9036 243.179 21.6134C243.179 21.869 243.179 22.1245 243.179 22.3801C243.179 25.7683 243.179 29.1566 243.179 32.5448ZM236.833 29.0462C237.477 27.4278 237.95 25.7526 238.253 24.0206C238.565 22.2886 238.722 20.5567 238.722 18.8247C237.983 20.0077 237.037 20.9826 235.882 21.7492C234.737 22.5063 233.53 23.1357 232.262 23.6373C231.089 24.3377 230.014 25.2084 229.04 26.2495C228.074 27.2906 227.393 28.4547 226.995 29.7418C226.598 31.029 226.747 32.1286 227.296 33.5577C227.694 34.4757 228.238 35.0436 228.929 35.2613C229.62 35.4695 230.358 35.4458 231.143 35.1903C231.938 34.9348 232.681 34.5609 233.372 34.0688C234.849 32.7248 236.027 30.9645 236.833 29.0462Z" fill="#FF0000"/>
<path d="M267.541 0H271.913V37.2155H267.541V33.0559C265.96 34.7595 264.257 35.9647 262.081 36.6272C259.904 37.2802 257.689 37.337 255.437 36.7975C253.525 36.3054 251.826 35.4205 250.34 34.1428C248.864 32.8556 247.742 31.3035 246.976 29.4863C246.247 27.6786 245.944 25.8094 246.067 23.8787C246.199 21.9479 246.753 20.1355 247.728 18.4414C248.741 16.7378 250.066 15.356 251.703 14.296C253.34 13.2265 255.143 12.5735 257.112 12.3368C259.118 12.1381 261.044 12.3889 262.89 13.0893C264.745 13.7896 266.178 14.8559 267.541 16.3323V0ZM259.525 36.5562C261.191 36.4048 262.72 35.9505 264.111 35.1933C265.512 34.4267 266.537 33.4061 267.541 32.1757V17.2125C266.348 15.7739 265.09 14.6935 263.415 13.9269C261.74 13.1508 259.965 12.7911 258.091 12.8479C256.151 13.8606 254.58 15.2755 253.378 17.0927C251.94 19.3641 251.225 21.806 251.234 24.4181C251.244 27.0303 251.916 29.4437 253.25 31.6584C254.585 33.8731 256.511 35.5151 259.028 36.5846C259.199 36.5846 259.364 36.5751 259.525 36.5562Z" fill="#FF0000"/>
<path d="M299.21 20.2585C300.233 23.06 300.269 25.721 299.389 28.4846C298.518 31.2387 296.857 33.4629 294.406 35.157C292.087 36.6429 289.588 37.3291 286.91 37.2155C284.241 37.1114 281.809 36.2217 279.613 34.5465C277.455 32.7956 276.016 30.6141 275.297 28.0019C274.587 25.3897 274.745 22.8991 275.701 20.2869C276.609 17.9871 278.039 16.1179 279.988 14.6793C281.938 13.2312 284.153 12.4126 286.632 12.2233C289.415 12.0813 291.946 12.7391 294.227 14.1966C296.508 15.6541 298.169 17.6748 299.21 20.2585ZM291.751 35.881C293.142 35.2942 294.122 34.3478 294.69 33.0417C295.267 31.7356 295.56 30.3159 295.57 28.7827C295.579 27.2495 295.433 25.8488 295.13 24.5805C294.647 22.4794 293.844 20.5898 292.652 18.6685C291.469 16.7472 289.926 15.2377 288.024 14.1398C287.115 13.6287 286.173 13.3353 285.198 13.2596C284.224 13.1839 283.272 13.4016 282.345 13.9127C281.616 14.3575 281.029 14.9537 280.584 15.7014C280.14 16.4397 279.823 17.2157 279.633 18.0297C279.132 20.1402 279.083 22.1576 279.556 24.325C280.029 26.4829 280.82 28.4751 281.927 30.3017C282.571 31.3902 283.399 32.4549 284.411 33.496C285.424 34.5371 286.56 35.3179 287.819 35.8384C289.077 36.3495 290.388 36.3637 291.751 35.881Z" fill="#FF0000"/>
<path d="M320.811 37.2234L309.085 23.3108C308.29 24.2572 307.732 24.9481 307.41 25.3835V37.2518H303.023V0H307.41V24.4607C307.741 24.0348 308.162 23.5143 308.673 22.8991C309.658 21.7539 310.666 20.6702 311.697 19.6481C313.476 17.8972 315.218 16.4444 316.921 15.2897C319.07 13.8417 321.105 12.9094 323.026 12.493C323.764 12.3416 324.484 12.2659 325.184 12.2659V16.752C325.184 16.752 324.857 16.6479 324.204 16.4397C323.551 16.2314 322.695 16.08 321.635 15.9854C320.575 15.8813 319.411 15.9664 318.142 16.2409C316.874 16.5059 315.601 17.0927 314.324 18.0013C313.51 18.7016 312.767 19.3878 312.095 20.0598C312.085 20.0692 312.08 20.074 312.08 20.074L326.547 37.2234H320.811Z" fill="#FF0000"/>
<circle cx="233.605" cy="6.39652" r="2.32597" fill="#FF0000"/>
<path d="M132.653 68.9913C132.739 69.8242 132.653 70.6523 132.398 71.4757C132.152 72.2897 131.778 73.0279 131.276 73.6904C130.283 74.9586 129.047 75.8293 127.571 76.3026C126.095 76.7663 124.58 76.8941 123.028 76.6859C121.457 76.4587 119.966 75.9902 118.556 75.2804C117.146 74.5611 115.811 73.7377 114.553 72.8102L116.427 69.9993C118.537 71.3243 120.761 72.4222 123.099 73.2929C124.235 73.7377 125.394 74.1021 126.577 74.386C127.117 74.5185 127.68 74.599 128.267 74.6274C128.853 74.6463 129.407 74.5469 129.928 74.3292C130.306 73.9885 130.637 73.6147 130.921 73.2077C131.13 72.3843 131.007 71.6177 130.552 70.9079C130.098 70.198 129.502 69.5687 128.764 69.0197C128.035 68.4708 127.363 68.0212 126.748 67.671C125.318 66.8287 123.875 66.153 122.418 65.3485C121.026 64.5819 119.645 63.8011 118.272 63.006C117.543 62.5802 116.952 62.0454 116.498 61.4018C116.053 60.7583 115.788 60.0106 115.703 59.1588C115.551 57.635 115.83 56.1964 116.54 54.843C117.487 53.3192 118.826 52.3397 120.558 51.9043C122.261 51.5447 123.932 51.6393 125.569 52.1883C127.207 52.7372 128.721 53.3514 130.112 54.3263C129.97 54.5345 129.828 54.7427 129.686 54.9509C129.308 55.5093 128.924 56.0677 128.536 56.6261C127.505 55.7365 126.383 55.1269 125.172 54.5023C124.434 54.1048 123.629 53.7877 122.758 53.5511C121.897 53.3051 121.036 53.2199 120.175 53.2956C119.323 53.3713 118.537 53.6931 117.818 54.261C117.364 54.6301 117.028 55.0844 116.81 55.6238C116.592 56.1538 116.569 56.7075 116.739 57.2848C116.938 57.8432 117.26 58.3259 117.704 58.7329C118.149 59.1398 118.627 59.4758 119.138 59.7408V59.755C120.567 60.4743 122.058 61.0706 123.61 61.5438C125.039 61.9792 126.426 62.5186 127.77 63.1622C128.972 63.7679 130.032 64.4248 130.95 65.428C131.877 66.4312 132.445 67.619 132.653 68.9913Z" fill="#FF0000"/>
<path d="M158.097 55.4643C160.217 57.6221 161.419 60.2106 161.703 63.2298C161.883 65.8987 161.31 68.3548 159.985 70.5978C158.67 72.8314 156.8 74.5113 154.378 75.6376C151.879 76.7165 149.333 76.9815 146.74 76.4326C144.147 75.8837 141.922 74.6154 140.067 72.6279V88.9744H135.706V51.759H140.067V55.9044C141.686 54.1724 143.574 52.9988 145.732 52.3836C147.899 51.759 150.076 51.7022 152.262 52.2132C154.458 52.7243 156.403 53.808 158.097 55.4643ZM149.295 76.1487C149.428 76.1487 149.56 76.1487 149.693 76.1487C151.633 75.1265 153.204 73.7069 154.406 71.8897C155.845 69.6182 156.559 67.1764 156.55 64.5643C156.54 61.9521 155.868 59.5434 154.534 57.3382C153.199 55.1235 151.273 53.4767 148.756 52.3978C145.235 52.6249 142.339 54.0872 140.067 56.7845V71.7477C141.213 73.139 142.59 74.2227 144.199 74.9988C145.817 75.7654 147.516 76.1487 149.295 76.1487Z" fill="#FF0000"/>
<path d="M184.892 72.0924C184.921 72.6319 184.916 73.1004 185.238 73.4979C185.56 73.8859 186.033 74.009 186.658 73.867C186.61 73.9522 186.511 74.132 186.36 74.4065C186.218 74.6715 186.052 74.9696 185.863 75.3008C185.683 75.6416 185.513 75.9539 185.352 76.2378C185.2 76.5123 185.106 76.6874 185.068 76.7631C184.027 76.8199 183.198 76.5676 182.365 76.0186C181.542 75.4697 180.965 74.7031 180.633 73.7188C180.444 72.9332 180.378 72.1288 180.435 71.3054C180.435 71.1066 180.435 70.9079 180.435 70.7091C180.435 68.4566 180.435 66.2041 180.435 63.9515C180.084 65.8917 179.512 67.7704 178.717 69.5876C178.005 71.1367 176.879 72.722 175.412 74.0849C174.219 75.1543 172.804 75.9352 171.167 76.4273C169.53 76.91 167.93 76.8816 166.369 76.3421C165.318 75.9068 164.556 75.2443 164.083 74.3546C163.619 73.4555 163.341 72.4348 163.398 71.3843C163.455 70.3337 163.744 69.6586 164.265 68.75C164.861 67.7657 165.594 66.9376 166.465 66.2656C167.345 65.5841 168.296 65.0068 169.319 64.5336C170.35 64.0509 171.382 63.6061 172.413 63.1991C172.518 63.1613 172.622 63.1234 172.726 63.0855C173.738 62.6975 174.746 62.248 175.75 61.7369C176.753 61.2258 177.661 60.6059 178.475 59.8771C179.299 59.1484 179.938 58.2587 180.392 57.2082C180.297 56.1482 179.98 55.1733 179.441 54.2837C178.901 53.3846 178.092 52.7883 177.013 52.4949C177.013 52.4949 176.937 52.4902 176.786 52.4807C176.635 52.4618 176.445 52.4428 176.218 52.4239C176 52.3955 175.773 52.3766 175.537 52.3671C175.31 52.3482 175.101 52.3435 174.912 52.3529C174.174 52.4003 173.445 52.5328 172.726 52.7504C171.439 53.1479 170.232 53.7205 169.106 54.4682C167.8 55.3106 166.775 56.3043 165.724 57.4495V54.0849C167.134 53.3183 168.893 52.5848 170.511 52.2252C172.139 51.8655 173.803 51.6927 175.393 51.759C176.633 51.7968 177.794 52.017 178.986 52.3671C180.188 52.7173 181.263 53.2662 182.209 54.0139C183.156 54.7616 183.941 55.7522 184.424 56.9731C184.67 57.645 184.812 58.3359 184.85 59.0458C184.897 59.7461 184.911 60.4512 184.892 61.161C184.892 61.4166 184.892 61.6721 184.892 61.9277C184.892 65.3159 184.892 68.7042 184.892 72.0924ZM178.546 68.5938C179.19 66.9754 179.663 65.3002 179.966 63.5682C180.278 61.8363 180.435 60.1043 180.435 58.3723C179.696 59.5553 178.75 60.5302 177.595 61.2968C176.45 62.0539 175.243 62.6833 173.975 63.1849C172.801 63.8853 171.727 64.756 170.752 65.7971C169.787 66.8382 169.106 68.0023 168.708 69.2895C168.311 70.5766 168.46 71.6762 169.009 73.1053C169.407 74.0233 169.951 74.5912 170.642 74.8089C171.333 75.0171 172.071 74.9934 172.856 74.7379C173.651 74.4824 174.394 74.1085 175.085 73.6164C176.562 72.2724 177.74 70.5121 178.546 68.5938Z" fill="#FF0000"/>
<path d="M209.254 39.5476H213.626V76.7631H209.254V72.6035C207.673 74.3071 205.97 75.5123 203.794 76.1748C201.617 76.8278 199.402 76.8846 197.15 76.3452C195.238 75.853 193.539 74.9681 192.053 73.6904C190.577 72.4032 189.455 70.8511 188.688 69.0339C187.96 67.2262 187.657 65.357 187.78 63.4263C187.912 61.4955 188.466 59.6831 189.441 57.989C190.454 56.2854 191.779 54.9036 193.416 53.8436C195.053 52.7741 196.856 52.1211 198.825 51.8844C200.831 51.6857 202.757 51.9365 204.603 52.6369C206.458 53.3372 207.891 54.4035 209.254 55.8799V39.5476ZM201.238 76.1038C202.904 75.9524 204.432 75.4981 205.824 74.7409C207.224 73.9743 208.25 72.9537 209.254 71.7233V56.7601C208.061 55.3215 206.803 54.2411 205.128 53.4745C203.453 52.6984 201.678 52.3387 199.804 52.3955C197.864 53.4082 196.293 54.8231 195.091 56.6403C193.652 58.9118 192.938 61.3536 192.947 63.9657C192.957 66.5779 193.629 68.9913 194.963 71.206C196.298 73.4207 198.224 75.0627 200.741 76.1322C200.912 76.1322 201.077 76.1227 201.238 76.1038Z" fill="#FF0000"/>
<path d="M240.923 59.8061C241.945 62.6076 241.982 65.2686 241.102 68.0322C240.231 70.7863 238.57 73.0105 236.119 74.7046C233.8 76.1905 231.301 76.8767 228.623 76.7631C225.954 76.659 223.522 75.7693 221.326 74.0941C219.168 72.3432 217.729 70.1617 217.01 67.5495C216.3 64.9373 216.458 62.4467 217.414 59.8345C218.322 57.5347 219.751 55.6655 221.701 54.2269C223.651 52.7788 225.865 51.9602 228.345 51.7709C231.128 51.6289 233.659 52.2867 235.94 53.7442C238.221 55.2017 239.882 57.2224 240.923 59.8061ZM233.464 75.4286C234.855 74.8418 235.835 73.8954 236.403 72.5893C236.98 71.2832 237.273 69.8636 237.283 68.3303C237.292 66.7971 237.145 65.3964 236.843 64.1281C236.36 62.027 235.557 60.1374 234.364 58.2161C233.181 56.2949 231.639 54.7853 229.736 53.6874C228.828 53.1763 227.886 52.8829 226.911 52.8072C225.936 52.7315 224.985 52.9492 224.058 53.4603C223.329 53.9051 222.742 54.5014 222.297 55.249C221.853 55.9873 221.536 56.7633 221.346 57.5773C220.845 59.6878 220.796 61.7052 221.269 63.8726C221.742 66.0305 222.532 68.0227 223.64 69.8494C224.283 70.9378 225.112 72.0025 226.124 73.0436C227.137 74.0847 228.273 74.8655 229.531 75.386C230.79 75.8971 232.101 75.9113 233.464 75.4286Z" fill="#FF0000"/>
<path d="M262.524 76.7711L250.798 62.8584C250.003 63.8048 249.444 64.4957 249.123 64.9311V76.7994H244.736V39.5476H249.123V64.0083C249.454 63.5824 249.875 63.0619 250.386 62.4467C251.37 61.3015 252.378 60.2178 253.41 59.1957C255.189 57.4448 256.931 55.992 258.634 54.8373C260.783 53.3893 262.818 52.457 264.739 52.0406C265.477 51.8892 266.196 51.8135 266.897 51.8135V56.2996C266.897 56.2996 266.57 56.1955 265.917 55.9873C265.264 55.779 264.408 55.6276 263.348 55.533C262.288 55.4289 261.124 55.514 259.855 55.7885C258.587 56.0535 257.314 56.6403 256.036 57.5489C255.222 58.2492 254.48 58.9354 253.808 59.6074C253.798 59.6169 253.793 59.6216 253.793 59.6216L268.26 76.7711H262.524Z" fill="#FF0000"/>
<circle cx="175.318" cy="45.9439" r="2.32597" fill="#FF0000"/>
<path d="M113.931 107.901C114.016 108.734 113.931 109.562 113.675 110.385C113.429 111.199 113.055 111.938 112.554 112.6C111.56 113.868 110.325 114.739 108.848 115.212C107.372 115.676 105.858 115.804 104.305 115.596C102.734 115.368 101.244 114.9 99.8335 114.19C98.4233 113.471 97.0888 112.647 95.8301 111.72L97.704 108.909C99.8146 110.234 102.039 111.332 104.376 112.203C105.512 112.647 106.672 113.012 107.855 113.296C108.394 113.428 108.957 113.509 109.544 113.537C110.131 113.556 110.684 113.457 111.205 113.239C111.584 112.898 111.915 112.524 112.199 112.117C112.407 111.294 112.284 110.527 111.83 109.818C111.375 109.108 110.779 108.478 110.041 107.929C109.312 107.38 108.64 106.931 108.025 106.581C106.596 105.738 105.152 105.063 103.695 104.258C102.304 103.492 100.922 102.711 99.5496 101.916C98.8208 101.49 98.2293 100.955 97.775 100.312C97.3302 99.6679 97.0652 98.9202 96.98 98.0684C96.8286 96.5447 97.1078 95.1061 97.8176 93.7527C98.764 92.2289 100.103 91.2494 101.835 90.814C103.539 90.4543 105.209 90.549 106.847 91.0979C108.484 91.6469 109.998 92.2611 111.39 93.2359C111.248 93.4441 111.106 93.6524 110.964 93.8606C110.585 94.419 110.202 94.9774 109.814 95.5358C108.782 94.6461 107.661 94.0366 106.449 93.412C105.711 93.0145 104.906 92.6974 104.036 92.4608C103.174 92.2147 102.313 92.1295 101.452 92.2053C100.6 92.281 99.8146 92.6028 99.0953 93.1706C98.641 93.5397 98.305 93.994 98.0873 94.5335C97.8697 95.0635 97.846 95.6172 98.0164 96.1945C98.2151 96.7529 98.5369 97.2356 98.9817 97.6425C99.4265 98.0495 99.9045 98.3855 100.416 98.6505V98.6647C101.845 99.384 103.335 99.9802 104.887 100.453C106.317 100.889 107.703 101.428 109.047 102.072C110.249 102.678 111.309 103.334 112.227 104.338C113.155 105.341 113.723 106.529 113.931 107.901Z" fill="#FF0000"/>
<path d="M139.374 94.3739C141.494 96.5318 142.696 99.1203 142.98 102.139C143.16 104.808 142.588 107.264 141.263 109.507C139.947 111.741 138.078 113.421 135.655 114.547C133.156 115.626 130.61 115.891 128.017 115.342C125.424 114.793 123.2 113.525 121.345 111.538V127.884H116.984V90.6686H121.345V94.814C122.963 93.082 124.851 91.9085 127.009 91.2933C129.177 90.6686 131.353 90.6118 133.54 91.1229C135.735 91.634 137.68 92.7177 139.374 94.3739ZM130.573 115.058C130.705 115.058 130.838 115.058 130.97 115.058C132.91 114.036 134.481 112.617 135.683 110.799C137.122 108.528 137.836 106.086 137.827 103.474C137.818 100.862 137.146 98.4531 135.811 96.2479C134.477 94.0332 132.551 92.3864 130.033 91.3075C126.512 91.5346 123.616 92.9969 121.345 95.6942V110.657C122.49 112.049 123.867 113.132 125.476 113.908C127.094 114.675 128.793 115.058 130.573 115.058Z" fill="#FF0000"/>
<path d="M166.17 111.002C166.198 111.542 166.194 112.01 166.515 112.408C166.837 112.796 167.31 112.919 167.935 112.777C167.888 112.862 167.788 113.042 167.637 113.316C167.495 113.581 167.329 113.879 167.14 114.211C166.96 114.551 166.79 114.864 166.629 115.147C166.478 115.422 166.383 115.597 166.345 115.673C165.304 115.73 164.475 115.477 163.643 114.928C162.819 114.379 162.242 113.613 161.911 112.628C161.721 111.843 161.655 111.038 161.712 110.215C161.712 110.016 161.712 109.818 161.712 109.619C161.712 107.366 161.712 105.114 161.712 102.861C161.362 104.801 160.789 106.68 159.994 108.497C159.282 110.046 158.156 111.632 156.689 112.995C155.497 114.064 154.082 114.845 152.444 115.337C150.807 115.82 149.208 115.791 147.646 115.252C146.595 114.816 145.833 114.154 145.36 113.264C144.896 112.365 144.619 111.345 144.675 110.294C144.732 109.243 145.021 108.568 145.542 107.66C146.138 106.675 146.872 105.847 147.742 105.175C148.623 104.494 149.574 103.916 150.596 103.443C151.628 102.961 152.659 102.516 153.691 102.109C153.795 102.071 153.899 102.033 154.003 101.995C155.016 101.607 156.024 101.158 157.027 100.647C158.03 100.135 158.939 99.5155 159.753 98.7868C160.576 98.058 161.215 97.1684 161.669 96.1178C161.575 95.0578 161.258 94.083 160.718 93.1933C160.179 92.2942 159.369 91.698 158.29 91.4046C158.29 91.4046 158.215 91.3998 158.063 91.3904C157.912 91.3714 157.723 91.3525 157.495 91.3336C157.278 91.3052 157.051 91.2863 156.814 91.2768C156.587 91.2579 156.379 91.2531 156.189 91.2626C155.451 91.3099 154.722 91.4424 154.003 91.6601C152.716 92.0576 151.509 92.6302 150.383 93.3779C149.077 94.2202 148.052 95.214 147.001 96.3592V92.9946C148.412 92.228 150.17 91.4945 151.788 91.1348C153.416 90.7752 155.08 90.6024 156.67 90.6686C157.91 90.7065 159.071 90.9266 160.264 91.2768C161.466 91.627 162.54 92.1759 163.486 92.9236C164.433 93.6713 165.218 94.6618 165.701 95.8827C165.947 96.5547 166.089 97.2456 166.127 97.9554C166.174 98.6558 166.189 99.3609 166.17 100.071C166.17 100.326 166.17 100.582 166.17 100.837C166.17 104.226 166.17 107.614 166.17 111.002ZM159.824 107.503C160.467 105.885 160.941 104.21 161.243 102.478C161.556 100.746 161.712 99.0139 161.712 97.282C160.974 98.465 160.027 99.4398 158.873 100.206C157.727 100.964 156.521 101.593 155.252 102.095C154.079 102.795 153.005 103.666 152.03 104.707C151.064 105.748 150.383 106.912 149.985 108.199C149.588 109.486 149.738 110.586 150.286 112.015C150.684 112.933 151.228 113.501 151.919 113.719C152.61 113.927 153.348 113.903 154.134 113.648C154.929 113.392 155.672 113.018 156.363 112.526C157.839 111.182 159.017 109.422 159.824 107.503Z" fill="#FF0000"/>
<path d="M190.531 78.4573H194.903V115.673H190.531V111.513C188.95 113.217 187.248 114.422 185.071 115.084C182.894 115.738 180.679 115.794 178.427 115.255C176.515 114.763 174.816 113.878 173.33 112.6C171.854 111.313 170.732 109.761 169.966 107.944C169.237 106.136 168.934 104.267 169.057 102.336C169.19 100.405 169.743 98.5928 170.718 96.8986C171.731 95.1951 173.056 93.8133 174.693 92.7532C176.331 91.6838 178.134 91.0307 180.102 90.7941C182.109 90.5954 184.035 90.8462 185.88 91.5465C187.735 92.2469 189.168 93.3132 190.531 94.7896V78.4573ZM182.516 115.013C184.181 114.862 185.71 114.408 187.101 113.651C188.502 112.884 189.528 111.863 190.531 110.633V95.6698C189.338 94.2312 188.081 93.1507 186.405 92.3841C184.73 91.6081 182.956 91.2484 181.082 91.3052C179.141 92.3179 177.57 93.7328 176.368 95.55C174.93 97.8214 174.215 100.263 174.225 102.875C174.234 105.488 174.906 107.901 176.241 110.116C177.575 112.33 179.501 113.972 182.019 115.042C182.189 115.042 182.355 115.032 182.516 115.013Z" fill="#FF0000"/>
<path d="M222.201 98.7158C223.223 101.517 223.259 104.178 222.379 106.942C221.508 109.696 219.847 111.92 217.396 113.614C215.077 115.1 212.579 115.786 209.9 115.673C207.231 115.569 204.799 114.679 202.603 113.004C200.445 111.253 199.007 109.071 198.287 106.459C197.578 103.847 197.735 101.356 198.691 98.7442C199.6 96.4444 201.029 94.5751 202.978 93.1366C204.928 91.6885 207.143 90.8698 209.622 90.6805C212.405 90.5386 214.937 91.1964 217.218 92.6539C219.499 94.1114 221.16 96.132 222.201 98.7158ZM214.741 114.338C216.132 113.751 217.112 112.805 217.68 111.499C218.257 110.193 218.551 108.773 218.56 107.24C218.57 105.707 218.423 104.306 218.12 103.038C217.637 100.937 216.834 99.0471 215.642 97.1258C214.459 95.2045 212.916 93.695 211.014 92.5971C210.105 92.086 209.163 91.7926 208.189 91.7169C207.214 91.6412 206.263 91.8589 205.335 92.3699C204.606 92.8148 204.02 93.411 203.575 94.1587C203.13 94.8969 202.813 95.673 202.624 96.4869C202.122 98.5975 202.073 100.615 202.546 102.782C203.02 104.94 203.81 106.932 204.917 108.759C205.561 109.847 206.389 110.912 207.402 111.953C208.414 112.994 209.55 113.775 210.809 114.296C212.068 114.807 213.378 114.821 214.741 114.338Z" fill="#FF0000"/>
<path d="M243.802 115.681L232.075 101.768C231.28 102.715 230.722 103.405 230.4 103.841V115.709H226.013V78.4573H230.4V102.918C230.731 102.492 231.152 101.972 231.664 101.356C232.648 100.211 233.656 99.1275 234.687 98.1054C236.467 96.3544 238.208 94.9017 239.912 93.747C242.06 92.299 244.095 91.3667 246.016 90.9503C246.754 90.7988 247.474 90.7231 248.174 90.7231V95.2093C248.174 95.2093 247.848 95.1051 247.195 94.8969C246.542 94.6887 245.685 94.5373 244.625 94.4426C243.565 94.3385 242.401 94.4237 241.133 94.6982C239.864 94.9632 238.591 95.55 237.314 96.4586C236.5 97.1589 235.757 97.8451 235.085 98.5171C235.075 98.5265 235.071 98.5313 235.071 98.5313L249.537 115.681H243.802Z" fill="#FF0000"/>
<circle cx="156.596" cy="84.8536" r="2.32597" fill="#FF0000"/>
</svg>
