<svg width="32" height="32" viewBox="0 0 32 32" fill="none" xmlns="http://www.w3.org/2000/svg">
<g clip-path="url(#clip0_419_2833)">
<path d="M26.116 14.6282C26.116 14.6282 26.538 16.6952 26.633 17.1282H24.778L25.667 14.7112C25.656 14.7282 25.85 14.2052 25.961 13.8832L26.116 14.6282ZM31.999 6.22218V25.7782C31.9988 26.4854 31.7177 27.1636 31.2176 27.6637C30.7175 28.1638 30.0393 28.4449 29.332 28.4452H2.66505C1.9578 28.4449 1.27959 28.1638 0.779486 27.6637C0.279384 27.1636 -0.00168809 26.4854 -0.00195312 25.7782V6.22218C-0.00168809 5.51492 0.279384 4.83672 0.779486 4.33661C1.27959 3.83651 1.9578 3.55544 2.66505 3.55518H29.332C30.0393 3.55544 30.7175 3.83651 31.2176 4.33661C31.7177 4.83672 31.9988 5.51492 31.999 6.22218V6.22218ZM8.47105 20.1782L11.982 11.5562H9.62105L7.43805 17.4452L7.19905 16.2512L6.42105 12.2842C6.29305 11.7342 5.89905 11.5782 5.41005 11.5562H1.81605L1.77705 11.7282C2.60012 11.9301 3.38964 12.2501 4.12105 12.6782L6.11005 20.1782H8.47105ZM13.716 20.1892L15.116 11.5562H12.883L11.489 20.1892H13.716ZM21.488 17.3672C21.499 16.3842 20.899 15.6342 19.616 15.0172C18.833 14.6222 18.355 14.3562 18.355 13.9502C18.366 13.5832 18.761 13.2052 19.638 13.2052C20.2093 13.1891 20.7768 13.3011 21.299 13.5332L21.499 13.6272L21.805 11.7602C21.1667 11.5158 20.4886 11.3914 19.805 11.3932C17.599 11.3932 16.049 12.5712 16.038 14.2482C16.021 15.4872 17.149 16.1762 17.994 16.5922C18.855 17.0142 19.15 17.2922 19.15 17.6642C19.139 18.2422 18.45 18.5082 17.811 18.5082C16.922 18.5082 16.444 18.3692 15.716 18.0472L15.422 17.9082L15.111 19.8472C15.633 20.0862 16.6 20.2972 17.6 20.3082C19.944 20.3132 21.472 19.1522 21.489 17.3642L21.488 17.3672ZM29.332 20.1892L27.532 11.5562H25.804C25.271 11.5562 24.865 11.7122 24.637 12.2732L21.32 20.1902H23.664C23.664 20.1902 24.047 19.1232 24.131 18.8962H26.998C27.065 19.2022 27.265 20.1902 27.265 20.1902L29.332 20.1892Z" fill="black"/>
</g>
<defs>
<clipPath id="clip0_419_2833">
<rect width="32" height="32" fill="white"/>
</clipPath>
</defs>
</svg>
