<svg width="600" height="193" viewBox="0 0 600 193" fill="none" xmlns="http://www.w3.org/2000/svg">
<path d="M70.6564 114.935C70.9889 118.186 70.6564 121.418 69.6589 124.632C68.6984 127.81 67.2391 130.691 65.281 133.277C61.4018 138.228 56.5806 141.627 50.8172 143.474C45.0539 145.284 39.1427 145.783 33.0838 144.97C26.951 144.084 21.1323 142.255 15.6275 139.484C10.1228 136.676 4.91362 133.462 0 129.842L7.31502 118.869C15.5537 124.041 24.2356 128.327 33.3609 131.726C37.7943 133.462 42.32 134.885 46.938 135.993C49.0439 136.51 51.2421 136.824 53.5326 136.935C55.8232 137.009 57.9845 136.621 60.0164 135.771C61.4942 134.441 62.7872 132.982 63.8956 131.393C64.7084 128.179 64.2281 125.187 62.4547 122.416C60.6814 119.645 58.3539 117.188 55.4722 115.045C52.6275 112.903 50.0044 111.148 47.603 109.781C42.0244 106.493 36.3904 103.855 30.7009 100.715C25.2701 97.722 19.8762 94.6741 14.5192 91.5708C11.6745 89.9083 9.36544 87.8209 7.5921 85.3087C5.85571 82.7965 4.82126 79.8778 4.48876 76.5528C3.89765 70.6048 4.98751 64.9892 7.75835 59.7061C11.4528 53.758 16.6805 49.9343 23.4413 48.2348C30.0913 46.831 36.612 47.2004 43.0034 49.3432C49.3948 51.486 55.306 53.8837 60.7368 57.6889C60.1827 58.5017 59.6285 59.3145 59.0743 60.1273C57.5965 62.307 56.1003 64.4867 54.5856 66.6665C50.5586 63.1937 46.1807 60.8145 41.4518 58.3761C38.5701 56.8244 35.4298 55.5868 32.0309 54.6632C28.669 53.7026 25.307 53.3701 21.9451 53.6657C18.62 53.9612 15.5536 55.2174 12.7459 57.434C10.9725 58.8749 9.661 60.6482 8.81127 62.754C7.96155 64.8229 7.86919 66.9842 8.53419 69.2378C9.31002 71.4175 10.5661 73.3017 12.3025 74.8903C14.0389 76.4789 15.9046 77.7905 17.8996 78.8249V78.8803C23.4783 81.6881 29.297 84.0156 35.3559 85.8629C40.9345 87.5623 46.3469 89.6681 51.593 92.1804C56.285 94.5448 60.4228 97.1088 64.0064 101.025C67.627 104.941 69.8436 109.578 70.6564 114.935Z" fill="#FF0000"/>
<path d="M169.977 62.1312C178.252 70.5545 182.944 80.6588 184.053 92.4442C184.754 102.863 182.519 112.45 177.347 121.205C172.212 129.924 164.915 136.482 155.457 140.878C145.704 145.09 135.766 146.125 125.643 143.982C115.52 141.839 106.838 136.888 99.5973 129.13L99.5973 192.939L82.5733 192.939L82.5733 47.6674H99.5973V63.8491C105.915 57.0882 113.285 52.5071 121.709 50.1057C130.169 47.6674 138.666 47.4457 147.2 49.4407C155.771 51.4357 163.364 55.6659 169.977 62.1312ZM135.618 142.873C136.135 142.873 136.653 142.873 137.17 142.873C144.744 138.883 150.876 133.342 155.568 126.248C161.184 117.382 163.973 107.85 163.936 97.6533C163.899 87.4566 161.276 78.0543 156.067 69.4462C150.858 60.8012 143.34 54.3728 133.512 50.1611C119.769 51.0478 108.464 56.7557 99.5973 67.2849V125.694C104.068 131.125 109.443 135.355 115.724 138.385C122.041 141.377 128.673 142.873 135.618 142.873Z" fill="#FF0000"/>
<path d="M274.573 127.04C274.683 129.146 274.666 130.974 275.923 132.526C277.179 134.041 279.026 134.521 281.464 133.967C281.279 134.299 280.892 135.001 280.3 136.073C279.746 137.107 279.1 138.271 278.361 139.564C277.659 140.894 276.994 142.113 276.366 143.221C275.775 144.293 275.405 144.976 275.257 145.272C271.194 145.494 267.959 144.509 264.708 142.366C261.494 140.223 259.241 137.231 257.948 133.388C257.209 130.322 256.95 127.182 257.172 123.967C257.172 123.192 257.172 122.416 257.172 121.64C257.172 112.847 257.172 104.054 257.172 95.2615C255.805 102.835 253.57 110.169 250.466 117.262C247.688 123.309 243.292 129.497 237.565 134.817C232.91 138.992 227.387 142.04 220.996 143.961C214.604 145.845 208.361 145.734 202.265 143.629C198.164 141.929 195.19 139.343 193.343 135.87C191.532 132.361 190.448 128.376 190.669 124.276C190.891 120.175 192.02 117.539 194.052 113.992C196.379 110.15 199.243 106.918 202.642 104.294C206.077 101.634 209.79 99.3809 213.78 97.5336C217.807 95.6495 221.834 93.9131 225.861 92.3245C226.268 92.1767 226.674 92.0289 227.08 91.8811C231.033 90.3664 234.968 88.6115 238.884 86.6165C242.8 84.6215 246.347 82.2016 249.524 79.3569C252.738 76.5122 255.232 73.0394 257.005 68.9386C256.636 64.8008 255.398 60.9955 253.292 57.5227C251.187 54.013 248.028 51.6855 243.816 50.5402C243.816 50.5402 243.521 50.5217 242.93 50.4848C242.338 50.4109 241.6 50.337 240.713 50.2631C239.863 50.1523 238.976 50.0784 238.053 50.0414C237.166 49.9675 236.353 49.9491 235.615 49.986C232.733 50.1707 229.888 50.688 227.08 51.5377C222.056 53.0894 217.345 55.3245 212.949 58.2431C207.851 61.5312 203.85 65.4103 199.749 69.8806V56.7468C205.254 53.7543 212.118 50.8912 218.435 49.4873C224.79 48.0834 231.285 47.4088 237.492 47.6674C242.332 47.8152 246.864 48.6745 251.519 50.0414C256.211 51.4084 260.404 53.5512 264.099 56.4698C267.793 59.3884 270.86 63.255 272.744 68.0208C273.704 70.6439 274.259 73.3408 274.406 76.1117C274.591 78.8456 274.646 81.5979 274.573 84.3688C274.573 85.3663 274.573 86.3638 274.573 87.3613C274.573 100.587 274.573 113.814 274.573 127.04ZM249.801 113.383C252.313 107.065 254.161 100.526 255.343 93.7653C256.562 87.0044 257.172 80.2436 257.172 73.4827C254.29 78.1008 250.596 81.9061 246.088 84.8986C241.618 87.8542 236.908 90.311 231.957 92.269C227.376 95.0029 223.183 98.4018 219.377 102.466C215.609 106.53 212.949 111.074 211.397 116.098C209.846 121.123 210.429 125.415 212.572 130.994C214.124 134.577 216.248 136.794 218.945 137.644C221.642 138.456 224.524 138.364 227.59 137.366C230.694 136.369 233.594 134.91 236.291 132.989C242.054 127.742 246.654 120.871 249.801 113.383Z" fill="#FF0000"/>
<path d="M369.668 0L386.736 0V145.272H369.668V129.035C363.498 135.685 356.852 140.389 348.354 142.975C339.857 145.525 331.212 145.746 322.419 143.64C314.957 141.719 308.325 138.265 302.525 133.277C296.761 128.253 292.384 122.194 289.391 115.101C286.546 108.044 285.364 100.748 285.844 93.2111C286.362 85.6744 288.523 78.5996 292.328 71.9865C296.281 65.3365 301.453 59.9426 307.845 55.8048C314.236 51.63 321.274 49.0809 328.959 48.1573C336.791 47.3814 344.309 48.3605 351.513 51.0943C358.754 53.8282 364.348 57.9904 369.668 63.7538V0ZM338.379 142.698C344.882 142.107 350.848 140.334 356.279 137.378C361.747 134.386 365.752 130.402 369.668 125.599V67.1896C365.013 61.574 360.103 57.3564 353.564 54.3639C347.024 51.3345 340.097 49.9306 332.782 50.1523C325.209 54.1053 319.076 59.6285 314.384 66.7219C308.768 75.5886 305.979 85.1203 306.016 95.317C306.053 105.514 308.676 114.935 313.885 123.58C319.094 132.225 326.613 138.634 336.44 142.809C337.105 142.809 337.751 142.772 338.379 142.698Z" fill="#FF0000"/>
<path d="M493.292 79.0798C497.282 90.0154 497.423 100.403 493.988 111.19C490.589 121.941 484.105 130.623 474.536 137.236C465.485 143.037 455.732 145.715 445.276 145.272C434.858 144.865 425.363 141.393 416.792 134.853C408.369 128.019 402.753 119.503 399.945 109.306C397.174 99.1096 397.79 89.3874 401.521 79.1907C405.068 70.2131 410.647 62.9166 418.257 57.301C425.868 51.6485 434.513 48.4528 444.192 47.7139C455.054 47.1598 464.937 49.7274 473.84 55.4169C482.744 61.1063 489.228 68.994 493.292 79.0798ZM464.173 140.063C469.604 137.772 473.428 134.078 475.645 128.979C477.898 123.881 479.044 118.339 479.081 112.354C479.117 106.369 478.545 100.901 477.363 95.9509C475.478 87.7492 472.344 80.3729 467.689 72.8732C463.071 65.3734 457.049 59.4808 449.623 55.1952C446.076 53.2002 442.401 52.0549 438.595 51.7593C434.79 51.4638 431.077 52.3135 427.456 54.3085C424.612 56.0449 422.321 58.3724 420.585 61.291C418.848 64.1727 417.611 67.2022 416.872 70.3794C414.914 78.618 414.723 86.4931 416.57 94.9534C418.418 103.377 421.502 111.154 425.825 118.284C428.337 122.532 431.57 126.689 435.523 130.753C439.476 134.817 443.909 137.864 448.823 139.896C453.737 141.891 458.853 141.947 464.173 140.063Z" fill="#FF0000"/>
<path d="M577.612 145.303L531.837 90.9944C528.734 94.6889 526.554 97.3859 525.298 99.0853V145.414H508.174V0L525.298 0V95.4832C526.591 93.8207 528.235 91.7888 530.23 89.3874C534.072 84.9171 538.007 80.6869 542.034 76.6969C548.98 69.8622 555.777 64.1912 562.427 59.684C570.814 54.0314 578.757 50.3924 586.257 48.7668C589.138 48.1757 591.946 47.8802 594.68 47.8802V65.3919C594.68 65.3919 593.405 64.9855 590.856 64.1727C588.307 63.3599 584.964 62.7688 580.826 62.3994C576.688 61.993 572.144 62.3255 567.193 63.3969C562.243 64.4313 557.274 66.7219 552.286 70.2686C549.109 73.0025 546.209 75.6809 543.586 78.304C543.549 78.3409 543.53 78.3594 543.53 78.3594L600 145.303H577.612Z" fill="#FF0000"/>
</svg>
