<svg enable-background="new 0 0 28 28" viewBox="0 0 28 28" xmlns="http://www.w3.org/2000/svg"><path d="m7.43 8.87c-.62 0-1.13-.51-1.13-1.13s.51-1.13 1.13-1.13 1.13.51 1.13 1.13c0 .63-.51 1.13-1.13 1.13zm0-1.63c-.28 0-.5.23-.5.5 0 .28.23.5.5.5s.5-.23.5-.5-.22-.5-.5-.5z" fill="#03dac6"/><path d="m21.5 21.38c-.62 0-1.13-.51-1.13-1.13s.51-1.13 1.13-1.13 1.13.51 1.13 1.13c0 .63-.51 1.13-1.13 1.13zm0-1.63c-.28 0-.5.23-.5.5s.23.5.5.5.5-.23.5-.5-.22-.5-.5-.5z" fill="#03dac6"/><g fill="#fff"><path d="m9.06 14.13c-.62 0-1.13-.51-1.13-1.13s.51-1.13 1.13-1.13 1.13.51 1.13 1.13c0 .63-.51 1.13-1.13 1.13zm0-1.63c-.28 0-.5.23-.5.5 0 .28.23.5.5.5.28 0 .5-.23.5-.5.01-.27-.22-.5-.5-.5z"/><path d="m11.44 18.39h-4.75c-1.11 0-2.02-.91-2.02-2.02v-4.75c0-1.11.9-2.02 2.02-2.02h4.75c1.11 0 2.02.9 2.02 2.02v4.75c-.01 1.12-.91 2.02-2.02 2.02zm-4.75-8.15c-.77 0-1.39.62-1.39 1.39v4.75c0 .77.62 1.39 1.39 1.39h4.75c.77 0 1.39-.62 1.39-1.39v-4.75c0-.77-.62-1.39-1.39-1.39z"/><path d="m11.44 18.39h-4.75c-1.11 0-2.02-.91-2.02-2.02v-.51l3.06-1.73.88 1.28 4.84-2.97v3.93c0 1.12-.9 2.02-2.01 2.02zm-6.14-2.16v.15c0 .77.62 1.39 1.39 1.39h4.75c.77 0 1.39-.62 1.39-1.39v-2.81l-4.4 2.69-.89-1.3z"/><path d="m19.11 14.13c-.62 0-1.13-.51-1.13-1.13s.51-1.13 1.13-1.13 1.13.51 1.13 1.13c0 .63-.51 1.13-1.13 1.13zm0-1.63c-.28 0-.5.23-.5.5 0 .28.23.5.5.5.28 0 .5-.23.5-.5.01-.27-.22-.5-.5-.5z"/><path d="m21.49 18.39h-4.75c-1.11 0-2.02-.91-2.02-2.02v-4.75c0-1.11.9-2.02 2.02-2.02h4.75c1.11 0 2.02.9 2.02 2.02v4.75c-.01 1.12-.91 2.02-2.02 2.02zm-4.75-8.15c-.77 0-1.39.62-1.39 1.39v4.75c0 .77.62 1.39 1.39 1.39h4.75c.77 0 1.39-.62 1.39-1.39v-4.75c0-.77-.62-1.39-1.39-1.39z"/><path d="m21.49 18.39h-4.75c-1.11 0-2.02-.91-2.02-2.02v-.51l3.06-1.73.88 1.28 4.84-2.97v3.93c0 1.12-.9 2.02-2.01 2.02zm-6.14-2.16v.15c0 .77.62 1.39 1.39 1.39h4.75c.77 0 1.39-.62 1.39-1.39v-2.81l-4.4 2.69-.89-1.3z"/></g><path d="m3.07 16.11-2.21-1.98 2.2-2.23.45.44-1.74 1.76 1.72 1.55z" fill="#03dac6"/><path d="m24.93 16.11-.42-.46 1.72-1.55-1.74-1.76.45-.44 2.2 2.23z" fill="#03dac6"/></svg>