<svg width="32" height="32" viewBox="0 0 32 32" fill="none" xmlns="http://www.w3.org/2000/svg">
<g clip-path="url(#clip0_419_2831)">
<path d="M26.827 24.5718C26.827 24.9498 26.572 25.2218 26.205 25.2218C25.827 25.2218 25.583 24.9328 25.583 24.5718C25.583 24.2108 25.827 23.9218 26.205 23.9218C26.572 23.9218 26.827 24.2108 26.827 24.5718ZM9.56005 23.9218C9.16505 23.9218 8.93805 24.2108 8.93805 24.5718C8.93805 24.9328 9.16605 25.2218 9.56005 25.2218C9.92105 25.2218 10.165 24.9498 10.165 24.5718C10.159 24.2108 9.92105 23.9218 9.56005 23.9218ZM16.088 23.9058C15.788 23.9058 15.604 24.0998 15.56 24.3888H16.621C16.571 24.0718 16.377 23.9058 16.088 23.9058ZM22.077 23.9218C21.699 23.9218 21.472 24.2108 21.472 24.5718C21.472 24.9328 21.7 25.2218 22.077 25.2218C22.455 25.2218 22.699 24.9498 22.699 24.5718C22.699 24.2108 22.454 23.9218 22.077 23.9218ZM27.96 25.3718C27.96 25.3888 27.977 25.3998 27.977 25.4328C27.977 25.4498 27.96 25.4608 27.96 25.4938C27.943 25.5108 27.943 25.5218 27.932 25.5378C27.915 25.5548 27.904 25.5658 27.871 25.5658C27.854 25.5828 27.843 25.5828 27.81 25.5828C27.793 25.5828 27.782 25.5828 27.749 25.5658C27.732 25.5658 27.721 25.5488 27.705 25.5378C27.688 25.5208 27.677 25.5098 27.677 25.4938C27.66 25.4658 27.66 25.4498 27.66 25.4328C27.66 25.4048 27.66 25.3888 27.677 25.3718C27.677 25.3438 27.694 25.3278 27.705 25.3108C27.722 25.2938 27.733 25.2938 27.749 25.2828C27.777 25.2658 27.793 25.2658 27.81 25.2658C27.838 25.2658 27.854 25.2658 27.871 25.2828C27.899 25.2988 27.915 25.2988 27.932 25.3108C27.949 25.3228 27.943 25.3438 27.96 25.3718ZM27.838 25.4498C27.866 25.4498 27.866 25.4328 27.882 25.4328C27.899 25.4158 27.899 25.4048 27.899 25.3888C27.899 25.3728 27.899 25.3608 27.882 25.3448C27.866 25.3448 27.854 25.3278 27.821 25.3278H27.732V25.5218H27.776V25.4438H27.793L27.854 25.5218H27.898L27.838 25.4498ZM31.999 6.27784V25.8338C31.9988 26.5411 31.7177 27.2193 31.2176 27.7194C30.7175 28.2195 30.0393 28.5006 29.332 28.5008H2.66505C1.9578 28.5006 1.27959 28.2195 0.779486 27.7194C0.279384 27.2193 -0.00168809 26.5411 -0.00195312 25.8338V6.27784C-0.00168809 5.57059 0.279384 4.89238 0.779486 4.39228C1.27959 3.89218 1.9578 3.6111 2.66505 3.61084H29.332C30.0393 3.6111 30.7175 3.89218 31.2176 4.39228C31.7177 4.89238 31.9988 5.57059 31.999 6.27784V6.27784ZM3.55505 14.0328C3.55505 18.2828 7.00505 21.7268 11.249 21.7268C12.7605 21.7225 14.2377 21.2766 15.499 20.4438C11.449 17.1498 11.477 10.9328 15.499 7.63784C14.2389 6.80247 12.7609 6.35628 11.249 6.35484C7.00505 6.34984 3.55505 9.79884 3.55505 14.0328V14.0328ZM15.999 20.0778C19.916 17.0218 19.899 11.0668 15.999 7.99484C12.099 11.0668 12.082 17.0278 15.999 20.0778ZM8.09305 24.3168C8.09305 23.8338 7.77605 23.5168 7.27605 23.4998C7.02005 23.4998 6.74805 23.5778 6.56505 23.8608C6.43205 23.6328 6.20405 23.4998 5.88705 23.4998C5.77186 23.4981 5.65798 23.5245 5.55533 23.5768C5.45267 23.6291 5.36435 23.7056 5.29805 23.7998V23.5558H4.84305V25.5948H5.29805C5.29805 24.5448 5.15905 23.9168 5.79805 23.9168C6.36505 23.9168 6.25405 24.4838 6.25405 25.5948H6.69305C6.69305 24.5778 6.55405 23.9168 7.19305 23.9168C7.76005 23.9168 7.64805 24.4728 7.64805 25.5948H8.10405V24.3168H8.09305ZM10.588 23.5558H10.149V23.7998C10.0713 23.7029 9.97218 23.6254 9.85938 23.5733C9.74658 23.5212 9.62323 23.4961 9.49905 23.4998C8.92705 23.4998 8.48805 23.9558 8.48805 24.5718C8.48805 25.1938 8.92705 25.6438 9.49905 25.6438C9.78805 25.6438 9.99905 25.5378 10.149 25.3438V25.5998H10.588V23.5558ZM12.838 24.9778C12.838 24.1448 11.566 24.5218 11.566 24.1328C11.566 23.8158 12.227 23.8668 12.594 24.0718L12.777 23.7108C12.255 23.3718 11.099 23.3778 11.099 24.1668C11.099 24.9608 12.371 24.6278 12.371 24.9998C12.371 25.3498 11.621 25.3218 11.221 25.0438L11.027 25.3938C11.649 25.8158 12.838 25.7268 12.838 24.9768V24.9778ZM14.805 25.4938L14.683 25.1158C14.472 25.2318 14.005 25.3598 14.005 24.8878V23.9658H14.733V23.5548H14.005V22.9328H13.549V23.5548H13.127V23.9608H13.549V24.8888C13.549 25.8668 14.51 25.6888 14.805 25.4938V25.4938ZM15.543 24.7498H17.071C17.071 23.8498 16.66 23.4938 16.104 23.4938C15.515 23.4938 15.093 23.9328 15.093 24.5658C15.093 25.7048 16.349 25.8938 16.971 25.3548L16.76 25.0218C16.327 25.3778 15.671 25.3438 15.543 24.7498V24.7498ZM18.827 23.5558C18.572 23.4448 18.183 23.4558 17.983 23.7998V23.5558H17.527V25.5948H17.983V24.4448C17.983 23.7998 18.511 23.8838 18.694 23.9778L18.827 23.5558ZM19.416 24.5718C19.416 23.9378 20.061 23.7328 20.566 24.1048L20.777 23.7438C20.132 23.2388 18.96 23.5158 18.96 24.5768C18.96 25.6768 20.204 25.8988 20.777 25.4098L20.566 25.0488C20.055 25.4098 19.416 25.1938 19.416 24.5708V24.5718ZM23.121 23.5558H22.665V23.7998C22.204 23.1888 21.004 23.5338 21.004 24.5718C21.004 25.6388 22.248 25.9438 22.665 25.3438V25.5998H23.121V23.5558ZM24.993 23.5558C24.86 23.4888 24.382 23.3948 24.149 23.7998V23.5558H23.71V25.5948H24.149V24.4448C24.149 23.8338 24.649 23.8728 24.86 23.9778L24.993 23.5558ZM27.232 22.7278H26.793V23.7998C26.337 23.1948 25.132 23.5168 25.132 24.5718C25.132 25.6498 26.382 25.9378 26.793 25.3438V25.5998H27.232V22.7278ZM27.655 18.5558V18.8118H27.699V18.5558H27.804V18.5118H27.548V18.5558H27.655ZM28.021 25.4328C28.021 25.4048 28.021 25.3718 28.005 25.3438C27.988 25.3268 27.977 25.2998 27.961 25.2828C27.945 25.2658 27.917 25.2548 27.9 25.2388C27.872 25.2388 27.839 25.2218 27.811 25.2218C27.794 25.2218 27.767 25.2388 27.733 25.2388C27.7111 25.2512 27.6907 25.2659 27.672 25.2828C27.644 25.2988 27.628 25.3268 27.628 25.3438C27.611 25.3718 27.611 25.4048 27.611 25.4328C27.611 25.4498 27.611 25.4768 27.628 25.5108C27.628 25.5278 27.645 25.5548 27.672 25.5718C27.6889 25.5908 27.7097 25.6058 27.733 25.6158C27.761 25.6318 27.794 25.6318 27.811 25.6318C27.839 25.6318 27.872 25.6318 27.9 25.6158C27.917 25.5988 27.944 25.5878 27.961 25.5718C27.978 25.5558 27.989 25.5278 28.005 25.5108C28.021 25.4778 28.021 25.4498 28.021 25.4328ZM28.199 18.5058H28.121L28.032 18.6998L27.943 18.5058H27.865V18.8058H27.909V18.5778L27.998 18.7718H28.059L28.137 18.5778V18.8058H28.198L28.199 18.5058ZM28.443 14.0328C28.443 9.79884 24.993 6.34984 20.749 6.34984C19.2375 6.35363 17.7602 6.79962 16.499 7.63284C20.505 10.9278 20.566 17.1608 16.499 20.4388C17.7598 21.2728 19.2374 21.7188 20.749 21.7218C24.993 21.7278 28.443 18.2828 28.443 14.0328Z" fill="black"/>
</g>
<defs>
<clipPath id="clip0_419_2831">
<rect width="32" height="32" fill="white"/>
</clipPath>
</defs>
</svg>
