<svg width="390" height="117" viewBox="0 0 390 117" fill="none" xmlns="http://www.w3.org/2000/svg">
<path d="M158.29 26.8447C158.368 27.6041 158.29 28.3591 158.057 29.1098C157.833 29.8519 157.492 30.525 157.035 31.129C156.129 32.2853 155.003 33.0791 153.657 33.5106C152.311 33.9334 150.93 34.0499 149.515 33.8601C148.082 33.653 146.723 33.2258 145.438 32.5787C144.152 31.9228 142.935 31.1721 141.788 30.3265L143.496 27.7637C145.42 28.9717 147.448 29.9727 149.58 30.7666C150.615 31.1721 151.672 31.5043 152.751 31.7632C153.243 31.884 153.756 31.9574 154.291 31.9833C154.826 32.0005 155.331 31.9099 155.805 31.7114C156.15 31.4008 156.453 31.06 156.711 30.6889C156.901 29.9382 156.789 29.2392 156.375 28.5921C155.961 27.9449 155.417 27.3711 154.744 26.8706C154.08 26.3701 153.467 25.9602 152.906 25.641C151.603 24.873 150.287 24.2569 148.958 23.5234C147.69 22.8245 146.43 22.1126 145.179 21.3878C144.514 20.9994 143.975 20.5119 143.561 19.9251C143.155 19.3384 142.914 18.6567 142.836 17.8801C142.698 16.4908 142.953 15.1792 143.6 13.9453C144.463 12.556 145.684 11.6629 147.263 11.266C148.816 10.9381 150.339 11.0244 151.832 11.5249C153.325 12.0253 154.705 12.5854 155.974 13.4741C155.844 13.664 155.715 13.8538 155.585 14.0436C155.24 14.5528 154.891 15.0619 154.537 15.571C153.596 14.7598 152.574 14.2041 151.469 13.6346C150.796 13.2722 150.063 12.9831 149.269 12.7674C148.484 12.5431 147.698 12.4654 146.913 12.5344C146.137 12.6035 145.42 12.8969 144.765 13.4146C144.35 13.7511 144.044 14.1653 143.846 14.6572C143.647 15.1404 143.626 15.6452 143.781 16.1715C143.962 16.6807 144.255 17.1207 144.661 17.4918C145.067 17.8628 145.502 18.1691 145.968 18.4108V18.4237C147.271 19.0795 148.63 19.6231 150.046 20.0546C151.348 20.4515 152.613 20.9434 153.838 21.5301C154.934 22.0824 155.9 22.6812 156.737 23.5959C157.583 24.5106 158.101 25.5935 158.29 26.8447Z" fill="#FF0000"/>
<path d="M181.488 14.5117C183.421 16.4791 184.517 18.8391 184.776 21.5917C184.94 24.0251 184.418 26.2643 183.21 28.3094C182.01 30.3458 180.306 31.8775 178.097 32.9043C175.819 33.888 173.498 34.1296 171.133 33.6291C168.769 33.1287 166.741 31.9724 165.05 30.1603V45.0639H161.074V11.1334H165.05V14.9129C166.526 13.3338 168.247 12.2638 170.214 11.703C172.191 11.1334 174.175 11.0817 176.168 11.5476C178.17 12.0136 179.944 13.0016 181.488 14.5117ZM173.463 33.3703C173.584 33.3703 173.705 33.3703 173.826 33.3703C175.595 32.4383 177.027 31.144 178.123 29.4872C179.435 27.4163 180.086 25.19 180.077 22.8084C180.069 20.4268 179.456 18.2308 178.239 16.2202C177.023 14.201 175.267 12.6996 172.971 11.7159C169.761 11.923 167.121 13.2562 165.05 15.7154V29.3578C166.094 30.6263 167.35 31.6143 168.817 32.3219C170.292 33.0208 171.841 33.3703 173.463 33.3703Z" fill="#FF0000"/>
<path d="M205.918 29.6721C205.944 30.1639 205.94 30.591 206.233 30.9535C206.527 31.3072 206.958 31.4194 207.528 31.29C207.485 31.3676 207.394 31.5316 207.256 31.7818C207.127 32.0234 206.976 32.2953 206.803 32.5973C206.639 32.9079 206.484 33.1927 206.337 33.4515C206.199 33.7018 206.113 33.8614 206.078 33.9305C205.129 33.9822 204.374 33.7522 203.614 33.2517C202.864 32.7512 202.337 32.0523 202.035 31.1549C201.863 30.4387 201.802 29.7052 201.854 28.9545C201.854 28.7733 201.854 28.5921 201.854 28.4109C201.854 26.3572 201.854 24.3035 201.854 22.2498C201.535 24.0187 201.013 25.7316 200.288 27.3883C199.639 28.8007 198.612 30.2461 197.275 31.4886C196.187 32.4637 194.897 33.1756 193.404 33.6243C191.912 34.0644 190.453 34.0385 189.03 33.5466C188.072 33.1497 187.377 32.5457 186.946 31.7346C186.523 30.9148 186.27 29.9843 186.321 29.0264C186.373 28.0686 186.637 27.453 187.111 26.6247C187.655 25.7273 188.324 24.9722 189.118 24.3596C189.92 23.7383 190.787 23.2119 191.719 22.7805C192.66 22.3404 193.6 21.9348 194.541 21.5638C194.636 21.5293 194.731 21.4948 194.826 21.4602C195.749 21.1064 196.668 20.6966 197.583 20.2306C198.497 19.7646 199.326 19.1994 200.068 18.535C200.818 17.8706 201.401 17.0595 201.815 16.1017C201.729 15.1352 201.44 14.2464 200.948 13.4353C200.456 12.6156 199.718 12.0719 198.735 11.8044C198.735 11.8044 198.666 11.8001 198.527 11.7915C198.389 11.7742 198.217 11.757 198.01 11.7397C197.811 11.7138 197.604 11.6966 197.388 11.6879C197.181 11.6707 196.992 11.6664 196.819 11.675C196.146 11.7181 195.481 11.8389 194.826 12.0374C193.652 12.3998 192.552 12.9219 191.525 13.6036C190.334 14.3715 189.4 15.2776 188.442 16.3217V13.2541C189.728 12.5551 191.331 11.8864 192.806 11.5585C194.291 11.2306 195.808 11.073 197.257 11.1334C198.388 11.168 199.446 11.3687 200.534 11.6879C201.63 12.0072 202.609 12.5077 203.472 13.1894C204.335 13.8711 205.051 14.7742 205.491 15.8873C205.715 16.5 205.845 17.1299 205.879 17.777C205.923 18.4156 205.935 19.0584 205.918 19.7056C205.918 19.9386 205.918 20.1716 205.918 20.4046C205.918 23.4937 205.918 26.5829 205.918 29.6721ZM200.132 26.4823C200.719 25.0067 201.151 23.4794 201.427 21.9003C201.712 20.3212 201.854 18.7421 201.854 17.163C201.181 18.2416 200.318 19.1304 199.265 19.8294C198.221 20.5197 197.121 21.0935 195.965 21.5508C194.895 22.1894 193.915 22.9832 193.027 23.9324C192.146 24.8816 191.525 25.943 191.163 27.1165C190.8 28.2901 190.937 29.2926 191.437 30.5955C191.799 31.4326 192.296 31.9503 192.926 32.1488C193.555 32.3386 194.229 32.317 194.945 32.084C195.67 31.8511 196.347 31.5102 196.977 31.0615C198.323 29.8362 199.397 28.2312 200.132 26.4823Z" fill="#FF0000"/>
<path d="M228.129 0H232.116V33.9305H228.129V30.138C226.688 31.6912 225.136 32.7901 223.151 33.3941C221.166 33.9895 219.147 34.0413 217.094 33.5494C215.351 33.1007 213.802 32.2939 212.447 31.129C211.101 29.9554 210.078 28.5403 209.379 26.8835C208.715 25.2354 208.439 23.5312 208.551 21.7709C208.672 20.0106 209.176 18.3581 210.065 16.8135C210.989 15.2603 212.197 14.0005 213.689 13.0341C215.182 12.059 216.826 11.4636 218.621 11.2479C220.45 11.0667 222.206 11.2953 223.889 11.9339C225.58 12.5724 226.887 13.5445 228.129 14.8907V0ZM220.821 33.3294C222.34 33.1913 223.734 32.7771 225.002 32.0868C226.279 31.3879 227.214 30.4573 228.129 29.3355V15.6932C227.042 14.3816 225.895 13.3965 224.368 12.6975C222.84 11.99 221.223 11.6621 219.514 11.7138C217.745 12.6371 216.313 13.9272 215.217 15.5839C213.905 17.6549 213.254 19.8811 213.262 22.2627C213.271 24.6443 213.884 26.8447 215.1 28.8639C216.317 30.8831 218.073 32.3802 220.368 33.3553C220.524 33.3553 220.675 33.3466 220.821 33.3294Z" fill="#FF0000"/>
<path d="M257.003 18.4703C257.935 21.0245 257.968 23.4506 257.166 25.9702C256.372 28.4813 254.858 30.5091 252.623 32.0536C250.509 33.4084 248.231 34.034 245.789 33.9305C243.355 33.8355 241.138 33.0244 239.136 31.4971C237.168 29.9007 235.857 27.9118 235.201 25.5302C234.554 23.1486 234.697 20.8778 235.569 18.4962C236.397 16.3994 237.7 14.6951 239.478 13.3835C241.255 12.0633 243.275 11.3169 245.535 11.1443C248.072 11.0149 250.381 11.6146 252.46 12.9435C254.54 14.2723 256.054 16.1146 257.003 18.4703ZM250.202 32.7138C251.471 32.1788 252.364 31.3159 252.882 30.1251C253.408 28.9343 253.675 27.6399 253.684 26.242C253.693 24.8442 253.559 23.5671 253.283 22.4108C252.843 20.4952 252.111 18.7723 251.023 17.0206C249.945 15.269 248.538 13.8926 246.804 12.8917C245.976 12.4257 245.117 12.1582 244.228 12.0892C243.339 12.0202 242.472 12.2186 241.627 12.6846C240.962 13.0901 240.427 13.6338 240.022 14.3155C239.616 14.9885 239.327 15.6961 239.154 16.4382C238.697 18.3624 238.652 20.2018 239.084 22.1778C239.515 24.1452 240.236 25.9616 241.245 27.627C241.832 28.6193 242.587 29.5901 243.511 30.5393C244.434 31.4885 245.469 32.2003 246.617 32.6749C247.765 33.1409 248.96 33.1538 250.202 32.7138Z" fill="#FF0000"/>
<path d="M276.698 33.9377L266.006 21.2531C265.281 22.116 264.772 22.746 264.479 23.1429V33.9636H260.479V0H264.479V22.3016C264.781 21.9133 265.165 21.4387 265.631 20.8778C266.528 19.8337 267.447 18.8457 268.388 17.9137C270.01 16.3174 271.598 14.9928 273.151 13.9401C275.11 12.6199 276.965 11.7699 278.717 11.3902C279.39 11.2522 280.046 11.1831 280.684 11.1831V15.2733C280.684 15.2733 280.386 15.1784 279.791 14.9885C279.196 14.7987 278.415 14.6606 277.448 14.5743C276.482 14.4794 275.42 14.5571 274.264 14.8073C273.108 15.0489 271.947 15.5839 270.782 16.4123C270.04 17.0508 269.363 17.6764 268.75 18.2891C268.742 18.2977 268.737 18.302 268.737 18.302L281.927 33.9377H276.698Z" fill="#FF0000"/>
<circle cx="196.801" cy="5.83196" r="2.12065" fill="#FF0000"/>
<path d="M105.148 62.9015C105.226 63.6608 105.148 64.4159 104.915 65.1666C104.691 65.9087 104.35 66.5817 103.892 67.1857C102.986 68.342 101.86 69.1359 100.514 69.5673C99.168 69.9902 97.7874 70.1067 96.3723 69.9168C94.9398 69.7097 93.5808 69.2826 92.2951 68.6354C91.0094 67.9796 89.7927 67.2289 88.645 66.3833L90.3536 63.8205C92.2778 65.0285 94.3056 66.0295 96.437 66.8233C97.4724 67.2289 98.5295 67.5611 99.6081 67.82C100.1 67.9408 100.613 68.0141 101.148 68.04C101.683 68.0573 102.188 67.9667 102.663 67.7682C103.008 67.4576 103.31 67.1167 103.569 66.7457C103.759 65.995 103.646 65.296 103.232 64.6488C102.818 64.0017 102.274 63.4278 101.601 62.9274C100.937 62.4269 100.324 62.017 99.7634 61.6977C98.4605 60.9298 97.1445 60.3136 95.8157 59.5802C94.5472 58.8812 93.2874 58.1693 92.0362 57.4445C91.3718 57.0562 90.8325 56.5687 90.4183 55.9819C90.0127 55.3951 89.7711 54.7134 89.6934 53.9368C89.5554 52.5476 89.8099 51.236 90.4571 50.002C91.32 48.6128 92.541 47.7197 94.1201 47.3227C95.6733 46.9948 97.1963 47.0811 98.6891 47.5816C100.182 48.0821 101.563 48.6421 102.831 49.5309C102.702 49.7207 102.572 49.9106 102.443 50.1004C102.098 50.6095 101.748 51.1186 101.394 51.6277C100.454 50.8166 99.4312 50.2609 98.3267 49.6914C97.6537 49.329 96.9202 49.0399 96.1263 48.8242C95.3411 48.5998 94.5559 48.5222 93.7706 48.5912C92.994 48.6602 92.2778 48.9536 91.622 49.4714C91.2078 49.8079 90.9015 50.2221 90.703 50.7139C90.5046 51.1971 90.483 51.7019 90.6383 52.2283C90.8195 52.7374 91.1129 53.1775 91.5185 53.5485C91.924 53.9196 92.3598 54.2259 92.8257 54.4675V54.4805C94.1287 55.1363 95.4878 55.6799 96.9029 56.1113C98.2059 56.5083 99.47 57.0001 100.695 57.5869C101.791 58.1391 102.758 58.738 103.595 59.6527C104.44 60.5673 104.958 61.6503 105.148 62.9015Z" fill="#FF0000"/>
<path d="M128.346 50.5684C130.279 52.5358 131.374 54.8959 131.633 57.6485C131.797 60.0819 131.275 62.3211 130.067 64.3661C128.868 66.4026 127.163 67.9342 124.954 68.9611C122.676 69.9448 120.355 70.1864 117.991 69.6859C115.627 69.1854 113.599 68.0291 111.907 66.2171V81.1206H107.931V47.1902H111.907V50.9697C113.383 49.3906 115.105 48.3206 117.072 47.7597C119.048 47.1902 121.033 47.1384 123.026 47.6044C125.028 48.0704 126.801 49.0584 128.346 50.5684ZM120.321 69.427C120.442 69.427 120.562 69.427 120.683 69.427C122.452 68.4951 123.884 67.2008 124.98 65.544C126.292 63.4731 126.943 61.2468 126.935 58.8652C126.926 56.4836 126.314 54.2875 125.097 52.277C123.88 50.2578 122.124 48.7564 119.829 47.7727C116.619 47.9798 113.978 49.3129 111.907 51.7722V65.4146C112.952 66.683 114.207 67.671 115.674 68.3786C117.15 69.0776 118.698 69.427 120.321 69.427Z" fill="#FF0000"/>
<path d="M152.776 65.7288C152.801 66.2207 152.798 66.6478 153.091 67.0102C153.384 67.364 153.816 67.4762 154.385 67.3468C154.342 67.4244 154.252 67.5884 154.113 67.8386C153.984 68.0802 153.833 68.352 153.66 68.654C153.496 68.9647 153.341 69.2494 153.194 69.5083C153.056 69.7585 152.97 69.9182 152.936 69.9872C151.986 70.039 151.231 69.809 150.472 69.3085C149.721 68.808 149.195 68.109 148.893 67.2116C148.72 66.4954 148.66 65.762 148.711 65.0112C148.711 64.83 148.711 64.6488 148.711 64.4676C148.711 62.4139 148.711 60.3602 148.711 58.3065C148.392 60.0755 147.87 61.7883 147.145 63.4451C146.496 64.8575 145.469 66.3028 144.132 67.5454C143.045 68.5205 141.755 69.2324 140.262 69.6811C138.769 70.1211 137.311 70.0953 135.887 69.6034C134.929 69.2065 134.235 68.6024 133.803 67.7913C133.38 66.9716 133.127 66.041 133.179 65.0832C133.23 64.1254 133.494 63.5098 133.969 62.6814C134.512 61.784 135.181 61.029 135.975 60.4163C136.778 59.795 137.645 59.2687 138.577 58.8372C139.517 58.3972 140.458 57.9916 141.398 57.6205C141.493 57.586 141.588 57.5515 141.683 57.517C142.606 57.1632 143.525 56.7533 144.44 56.2874C145.355 55.8214 146.183 55.2562 146.925 54.5918C147.676 53.9274 148.258 53.1162 148.673 52.1584C148.586 51.192 148.297 50.3032 147.805 49.4921C147.313 48.6723 146.576 48.1287 145.592 47.8612C145.592 47.8612 145.523 47.8569 145.385 47.8482C145.247 47.831 145.074 47.8137 144.867 47.7965C144.669 47.7706 144.462 47.7533 144.246 47.7447C144.039 47.7274 143.849 47.7231 143.676 47.7318C143.003 47.7749 142.339 47.8957 141.683 48.0942C140.51 48.4566 139.409 48.9786 138.383 49.6603C137.192 50.4283 136.257 51.3343 135.299 52.3784V49.3108C136.585 48.6119 138.188 47.9432 139.664 47.6153C141.148 47.2874 142.665 47.1298 144.115 47.1902C145.245 47.2247 146.304 47.4254 147.391 47.7447C148.487 48.064 149.466 48.5645 150.329 49.2461C151.192 49.9278 151.908 50.8309 152.348 51.9441C152.573 52.5567 152.702 53.1866 152.737 53.8338C152.78 54.4723 152.793 55.1152 152.776 55.7624C152.776 55.9954 152.776 56.2283 152.776 56.4613C152.776 59.5505 152.776 62.6397 152.776 65.7288ZM146.99 62.5391C147.577 61.0635 148.008 59.5362 148.284 57.9571C148.569 56.378 148.711 54.7989 148.711 53.2198C148.038 54.2984 147.175 55.1872 146.123 55.8861C145.079 56.5764 143.978 57.1503 142.822 57.6076C141.752 58.2461 140.773 59.04 139.884 59.9892C139.004 60.9384 138.383 61.9997 138.02 63.1733C137.658 64.3468 137.794 65.3493 138.294 66.6523C138.657 67.4893 139.153 68.007 139.783 68.2055C140.413 68.3954 141.086 68.3738 141.802 68.1408C142.527 67.9078 143.204 67.567 143.834 67.1183C145.18 65.893 146.255 64.288 146.99 62.5391Z" fill="#FF0000"/>
<path d="M174.987 36.0568H178.973V69.9872H174.987V66.1948C173.546 67.748 171.993 68.8468 170.008 69.4508C168.024 70.0462 166.005 70.098 163.951 69.6062C162.208 69.1575 160.659 68.3507 159.304 67.1857C157.958 66.0122 156.936 64.5971 156.237 62.9403C155.572 61.2922 155.296 59.5879 155.408 57.8276C155.529 56.0673 156.034 54.4149 156.923 52.8703C157.846 51.3171 159.054 50.0573 160.547 49.0908C162.04 48.1157 163.683 47.5203 165.478 47.3046C167.308 47.1234 169.064 47.3521 170.746 47.9906C172.438 48.6292 173.744 49.6013 174.987 50.9474V36.0568ZM167.679 69.3861C169.197 69.2481 170.591 68.8339 171.859 68.1436C173.136 67.4446 174.072 66.5141 174.987 65.3923V51.7499C173.899 50.4383 172.753 49.4532 171.225 48.7543C169.698 48.0467 168.08 47.7188 166.371 47.7706C164.602 48.6939 163.17 49.9839 162.074 51.6407C160.763 53.7116 160.111 55.9379 160.12 58.3195C160.128 60.7011 160.741 62.9015 161.958 64.9206C163.174 66.9398 164.93 68.4369 167.226 69.412C167.381 69.412 167.532 69.4034 167.679 69.3861Z" fill="#FF0000"/>
<path d="M203.861 54.5271C204.793 57.0812 204.826 59.5073 204.023 62.027C203.229 64.538 201.715 66.5658 199.48 68.1104C197.366 69.4652 195.088 70.0908 192.646 69.9872C190.213 69.8923 187.995 69.0812 185.993 67.5538C184.026 65.9575 182.714 63.9685 182.058 61.5869C181.411 59.2053 181.555 56.9345 182.426 54.5529C183.255 52.4561 184.558 50.7519 186.335 49.4403C188.113 48.1201 190.132 47.3737 192.393 47.2011C194.93 47.0716 197.238 47.6714 199.318 49.0002C201.397 50.3291 202.912 52.1714 203.861 54.5271ZM197.06 68.7705C198.328 68.2355 199.221 67.3726 199.739 66.1818C200.265 64.991 200.533 63.6967 200.542 62.2988C200.55 60.9009 200.416 59.6238 200.14 58.4676C199.7 56.5519 198.968 54.8291 197.881 53.0774C196.802 51.3257 195.396 49.9494 193.661 48.9484C192.833 48.4825 191.974 48.215 191.086 48.1459C190.197 48.0769 189.33 48.2754 188.484 48.7413C187.82 49.1469 187.285 49.6905 186.879 50.3722C186.473 51.0453 186.184 51.7529 186.012 52.4949C185.554 54.4192 185.51 56.2585 185.941 58.2346C186.373 60.202 187.093 62.0184 188.103 63.6838C188.69 64.6761 189.445 65.6468 190.368 66.596C191.291 67.5452 192.327 68.2571 193.474 68.7317C194.622 69.1977 195.817 69.2106 197.06 68.7705Z" fill="#FF0000"/>
<path d="M223.555 69.9945L212.864 57.3099C212.139 58.1728 211.63 58.8027 211.336 59.1996V70.0204H207.337V36.0568H211.336V58.3583C211.638 57.97 212.022 57.4954 212.488 56.9345C213.386 55.8904 214.305 54.9024 215.245 53.9705C216.868 52.3741 218.455 51.0496 220.008 49.9969C221.967 48.6766 223.822 47.8267 225.574 47.447C226.247 47.3089 226.903 47.2399 227.542 47.2399V51.33C227.542 51.33 227.244 51.2351 226.648 51.0453C226.053 50.8554 225.272 50.7174 224.306 50.6311C223.339 50.5362 222.278 50.6138 221.122 50.8641C219.965 51.1057 218.805 51.6407 217.64 52.4691C216.898 53.1076 216.22 53.7332 215.608 54.3459C215.599 54.3545 215.595 54.3588 215.595 54.3588L228.784 69.9945H223.555Z" fill="#FF0000"/>
<circle cx="144.047" cy="41.8885" r="2.12065" fill="#FF0000"/>
<path d="M88.0781 98.3766C88.1557 99.1359 88.0781 99.8909 87.8451 100.642C87.6207 101.384 87.2799 102.057 86.8226 102.661C85.9165 103.817 84.7904 104.611 83.4443 105.042C82.0982 105.465 80.7176 105.582 79.3024 105.392C77.87 105.185 76.511 104.758 75.2252 104.111C73.9395 103.455 72.7228 102.704 71.5752 101.858L73.2837 99.2956C75.208 100.504 77.2358 101.505 79.3671 102.298C80.4026 102.704 81.4597 103.036 82.5383 103.295C83.0301 103.416 83.5436 103.489 84.0786 103.515C84.6136 103.532 85.1183 103.442 85.5929 103.243C85.9381 102.933 86.2401 102.592 86.499 102.221C86.6888 101.47 86.5766 100.771 86.1624 100.124C85.7483 99.4768 85.2046 98.9029 84.5316 98.4025C83.8671 97.902 83.2545 97.4921 82.6936 97.1728C81.3906 96.4048 80.0747 95.7887 78.7459 95.0553C77.4774 94.3563 76.2176 93.6444 74.9664 92.9196C74.3019 92.5313 73.7626 92.0438 73.3484 91.457C72.9429 90.8702 72.7013 90.1885 72.6236 89.4119C72.4856 88.0227 72.7401 86.7111 73.3873 85.4771C74.2502 84.0879 75.4712 83.1948 77.0503 82.7978C78.6035 82.4699 80.1265 82.5562 81.6193 83.0567C83.1121 83.5572 84.4927 84.1172 85.7612 85.006C85.6318 85.1958 85.5023 85.3857 85.3729 85.5755C85.0277 86.0846 84.6783 86.5937 84.3245 87.1028C83.3839 86.2917 82.3614 85.736 81.2569 85.1665C80.5838 84.8041 79.8504 84.515 79.0565 84.2993C78.2713 84.0749 77.486 83.9973 76.7008 84.0663C75.9242 84.1353 75.208 84.4287 74.5522 84.9465C74.138 85.283 73.8317 85.6972 73.6332 86.189C73.4347 86.6722 73.4132 87.177 73.5685 87.7034C73.7497 88.2125 74.0431 88.6526 74.4486 89.0236C74.8542 89.3947 75.29 89.701 75.7559 89.9426V89.9556C77.0589 90.6114 78.418 91.155 79.8331 91.5864C81.1361 91.9834 82.4002 92.4752 83.6255 93.062C84.7214 93.6142 85.6879 94.2131 86.5249 95.1278C87.3705 96.0424 87.8882 97.1254 88.0781 98.3766Z" fill="#FF0000"/>
<path d="M111.276 86.0435C113.209 88.0109 114.305 90.371 114.563 93.1236C114.727 95.557 114.205 97.7962 112.997 99.8412C111.798 101.878 110.094 103.409 107.885 104.436C105.607 105.42 103.285 105.661 100.921 105.161C98.5567 104.661 96.5289 103.504 94.8377 101.692V116.596H90.8614V82.6653H94.8377V86.4448C96.3132 84.8657 98.0347 83.7957 100.002 83.2348C101.978 82.6653 103.963 82.6135 105.956 83.0795C107.958 83.5455 109.731 84.5335 111.276 86.0435ZM103.251 104.902C103.372 104.902 103.493 104.902 103.613 104.902C105.382 103.97 106.815 102.676 107.911 101.019C109.222 98.9481 109.874 96.7219 109.865 94.3403C109.856 91.9587 109.244 89.7626 108.027 87.7521C106.81 85.7329 105.054 84.2315 102.759 83.2478C99.5491 83.4549 96.9086 84.788 94.8377 87.2473V100.89C95.8818 102.158 97.1373 103.146 98.6042 103.854C100.08 104.553 101.629 104.902 103.251 104.902Z" fill="#FF0000"/>
<path d="M135.706 101.204C135.732 101.696 135.728 102.123 136.021 102.485C136.314 102.839 136.746 102.951 137.315 102.822C137.272 102.9 137.182 103.063 137.044 103.314C136.914 103.555 136.763 103.827 136.591 104.129C136.427 104.44 136.271 104.725 136.125 104.983C135.987 105.234 135.9 105.393 135.866 105.462C134.917 105.514 134.161 105.284 133.402 104.784C132.651 104.283 132.125 103.584 131.823 102.687C131.65 101.971 131.59 101.237 131.642 100.486C131.642 100.305 131.642 100.124 131.642 99.9427C131.642 97.889 131.642 95.8353 131.642 93.7816C131.322 95.5506 130.8 97.2634 130.075 98.9202C129.426 100.333 128.4 101.778 127.062 103.02C125.975 103.996 124.685 104.707 123.192 105.156C121.699 105.596 120.241 105.57 118.817 105.079C117.859 104.682 117.165 104.078 116.733 103.266C116.31 102.447 116.057 101.516 116.109 100.558C116.161 99.6005 116.424 98.9849 116.899 98.1565C117.443 97.2591 118.111 96.5041 118.905 95.8914C119.708 95.2701 120.575 94.7438 121.507 94.3123C122.447 93.8722 123.388 93.4667 124.329 93.0956C124.423 93.0611 124.518 93.0266 124.613 92.9921C125.537 92.6383 126.456 92.2284 127.37 91.7625C128.285 91.2965 129.113 90.7313 129.855 90.0669C130.606 89.4024 131.189 88.5913 131.603 87.6335C131.516 86.6671 131.227 85.7783 130.736 84.9672C130.244 84.1474 129.506 83.6038 128.522 83.3363C128.522 83.3363 128.453 83.332 128.315 83.3233C128.177 83.3061 128.004 83.2888 127.797 83.2716C127.599 83.2457 127.392 83.2284 127.176 83.2198C126.969 83.2025 126.779 83.1982 126.607 83.2069C125.933 83.25 125.269 83.3708 124.613 83.5693C123.44 83.9317 122.34 84.4537 121.313 85.1354C120.122 85.9034 119.187 86.8094 118.23 87.8535V84.7859C119.515 84.087 121.119 83.4183 122.594 83.0904C124.078 82.7625 125.595 82.6049 127.045 82.6653C128.175 82.6998 129.234 82.9005 130.321 83.2198C131.417 83.5391 132.397 84.0395 133.259 84.7212C134.122 85.4029 134.839 86.306 135.279 87.4192C135.503 88.0318 135.632 88.6617 135.667 89.3089C135.71 89.9474 135.723 90.5903 135.706 91.2375C135.706 91.4705 135.706 91.7034 135.706 91.9364C135.706 95.0256 135.706 98.1148 135.706 101.204ZM129.92 98.0142C130.507 96.5386 130.938 95.0113 131.214 93.4322C131.499 91.8531 131.642 90.274 131.642 88.6949C130.968 89.7735 130.106 90.6623 129.053 91.3612C128.009 92.0515 126.909 92.6254 125.752 93.0827C124.682 93.7212 123.703 94.5151 122.814 95.4643C121.934 96.4135 121.313 97.4748 120.95 98.6484C120.588 99.8219 120.724 100.824 121.225 102.127C121.587 102.964 122.083 103.482 122.713 103.681C123.343 103.87 124.016 103.849 124.732 103.616C125.457 103.383 126.135 103.042 126.764 102.593C128.111 101.368 129.185 99.7631 129.92 98.0142Z" fill="#FF0000"/>
<path d="M157.917 71.5319H161.903V105.462H157.917V101.67C156.476 103.223 154.923 104.322 152.939 104.926C150.954 105.521 148.935 105.573 146.881 105.081C145.138 104.633 143.589 103.826 142.234 102.661C140.888 101.487 139.866 100.072 139.167 98.4154C138.502 96.7673 138.226 95.063 138.338 93.3027C138.459 91.5424 138.964 89.89 139.853 88.3454C140.776 86.7922 141.984 85.5324 143.477 84.5659C144.97 83.5908 146.614 82.9954 148.408 82.7797C150.238 82.5985 151.994 82.8272 153.676 83.4657C155.368 84.1043 156.674 85.0764 157.917 86.4225V71.5319ZM150.609 104.861C152.128 104.723 153.521 104.309 154.79 103.619C156.067 102.92 157.002 101.989 157.917 100.867V87.225C156.829 85.9134 155.683 84.9283 154.155 84.2294C152.628 83.5218 151.01 83.1939 149.302 83.2457C147.533 84.169 146.1 85.459 145.004 87.1158C143.693 89.1867 143.041 91.413 143.05 93.7946C143.059 96.1762 143.671 98.3766 144.888 100.396C146.105 102.415 147.861 103.912 150.156 104.887C150.311 104.887 150.462 104.878 150.609 104.861Z" fill="#FF0000"/>
<path d="M186.791 90.0022C187.723 92.5563 187.756 94.9824 186.954 97.5021C186.16 100.013 184.645 102.041 182.41 103.586C180.296 104.94 178.018 105.566 175.576 105.462C173.143 105.367 170.925 104.556 168.923 103.029C166.956 101.433 165.644 99.4436 164.988 97.062C164.341 94.6804 164.485 92.4096 165.357 90.028C166.185 87.9312 167.488 86.227 169.266 84.9154C171.043 83.5952 173.062 82.8488 175.323 82.6762C177.86 82.5467 180.168 83.1465 182.248 84.4753C184.327 85.8042 185.842 87.6465 186.791 90.0022ZM179.99 104.246C181.258 103.711 182.151 102.848 182.669 101.657C183.196 100.466 183.463 99.1718 183.472 97.7739C183.48 96.376 183.347 95.0989 183.07 93.9426C182.63 92.027 181.898 90.3042 180.811 88.5525C179.732 86.8008 178.326 85.4245 176.592 84.4235C175.763 83.9576 174.905 83.6901 174.016 83.621C173.127 83.552 172.26 83.7505 171.414 84.2164C170.75 84.622 170.215 85.1656 169.809 85.8473C169.404 86.5204 169.115 87.228 168.942 87.97C168.485 89.8943 168.44 91.7336 168.872 93.7097C169.303 95.6771 170.023 97.4935 171.033 99.1589C171.62 100.151 172.375 101.122 173.298 102.071C174.221 103.02 175.257 103.732 176.405 104.207C177.552 104.673 178.747 104.686 179.99 104.246Z" fill="#FF0000"/>
<path d="M206.485 105.47L195.794 92.785C195.069 93.6479 194.56 94.2778 194.267 94.6747V105.495H190.267V71.5319H194.267V93.8334C194.569 93.4451 194.953 92.9705 195.419 92.4096C196.316 91.3655 197.235 90.3775 198.175 89.4456C199.798 87.8492 201.385 86.5247 202.939 85.472C204.897 84.1517 206.753 83.3018 208.504 82.9221C209.177 82.784 209.833 82.715 210.472 82.715V86.8051C210.472 86.8051 210.174 86.7102 209.579 86.5204C208.983 86.3305 208.202 86.1925 207.236 86.1062C206.269 86.0113 205.208 86.0889 204.052 86.3392C202.895 86.5808 201.735 87.1158 200.57 87.9442C199.828 88.5827 199.151 89.2083 198.538 89.821C198.529 89.8296 198.525 89.8339 198.525 89.8339L211.714 105.47H206.485Z" fill="#FF0000"/>
<circle cx="126.978" cy="77.3638" r="2.12065" fill="#FF0000"/>
<path d="M388.946 62.9015C389.024 63.6608 388.946 64.4159 388.713 65.1666C388.489 65.9087 388.148 66.5817 387.691 67.1857C386.785 68.342 385.659 69.1359 384.312 69.5673C382.966 69.9902 381.586 70.1067 380.171 69.9168C378.738 69.7097 377.379 69.2826 376.093 68.6354C374.808 67.9796 373.591 67.2289 372.443 66.3833L374.152 63.8205C376.076 65.0285 378.104 66.0295 380.235 66.8233C381.271 67.2289 382.328 67.5611 383.406 67.82C383.898 67.9408 384.412 68.0141 384.947 68.04C385.482 68.0573 385.987 67.9667 386.461 67.7682C386.806 67.4576 387.108 67.1167 387.367 66.7457C387.557 65.995 387.445 65.296 387.031 64.6488C386.616 64.0017 386.073 63.4278 385.4 62.9274C384.735 62.4269 384.123 62.017 383.562 61.6977C382.259 60.9298 380.943 60.3136 379.614 59.5802C378.346 58.8812 377.086 58.1693 375.835 57.4445C375.17 57.0562 374.631 56.5687 374.217 55.9819C373.811 55.3951 373.569 54.7134 373.492 53.9368C373.354 52.5476 373.608 51.236 374.255 50.002C375.118 48.6128 376.339 47.7197 377.918 47.3227C379.472 46.9948 380.995 47.0811 382.487 47.5816C383.98 48.0821 385.361 48.6421 386.629 49.5309C386.5 49.7207 386.37 49.9106 386.241 50.1004C385.896 50.6095 385.546 51.1186 385.193 51.6277C384.252 50.8166 383.23 50.2609 382.125 49.6914C381.452 49.329 380.719 49.0399 379.925 48.8242C379.139 48.5998 378.354 48.5222 377.569 48.5912C376.792 48.6602 376.076 48.9536 375.42 49.4714C375.006 49.8079 374.7 50.2221 374.501 50.7139C374.303 51.1971 374.281 51.7019 374.437 52.2283C374.618 52.7374 374.911 53.1775 375.317 53.5485C375.722 53.9196 376.158 54.2259 376.624 54.4675V54.4805C377.927 55.1363 379.286 55.6799 380.701 56.1113C382.004 56.5083 383.268 57.0001 384.494 57.5869C385.59 58.1391 386.556 58.738 387.393 59.6527C388.239 60.5673 388.756 61.6503 388.946 62.9015Z" fill="#FF0000"/>
<path d="M412.144 50.5684C414.077 52.5358 415.173 54.8959 415.432 57.6485C415.596 60.0819 415.074 62.3211 413.865 64.3661C412.666 66.4026 410.962 67.9342 408.753 68.9611C406.475 69.9448 404.154 70.1864 401.789 69.6859C399.425 69.1854 397.397 68.0291 395.706 66.2171V81.1206H391.73V47.1902H395.706V50.9697C397.181 49.3906 398.903 48.3206 400.87 47.7597C402.846 47.1902 404.831 47.1384 406.824 47.6044C408.826 48.0704 410.599 49.0584 412.144 50.5684ZM404.119 69.427C404.24 69.427 404.361 69.427 404.481 69.427C406.25 68.4951 407.683 67.2008 408.779 65.544C410.09 63.4731 410.742 61.2468 410.733 58.8652C410.725 56.4836 410.112 54.2875 408.895 52.277C407.679 50.2578 405.923 48.7564 403.627 47.7727C400.417 47.9798 397.777 49.3129 395.706 51.7722V65.4146C396.75 66.683 398.005 67.671 399.472 68.3786C400.948 69.0776 402.497 69.427 404.119 69.427Z" fill="#FF0000"/>
<path d="M436.574 65.7288C436.6 66.2207 436.596 66.6478 436.889 67.0102C437.183 67.364 437.614 67.4762 438.184 67.3468C438.14 67.4244 438.05 67.5884 437.912 67.8386C437.782 68.0802 437.631 68.352 437.459 68.654C437.295 68.9647 437.139 69.2494 436.993 69.5083C436.855 69.7585 436.768 69.9182 436.734 69.9872C435.785 70.039 435.029 69.809 434.27 69.3085C433.519 68.808 432.993 68.109 432.691 67.2116C432.518 66.4954 432.458 65.762 432.51 65.0112C432.51 64.83 432.51 64.6488 432.51 64.4676C432.51 62.4139 432.51 60.3602 432.51 58.3065C432.19 60.0755 431.668 61.7883 430.944 63.4451C430.295 64.8575 429.268 66.3028 427.93 67.5454C426.843 68.5205 425.553 69.2324 424.06 69.6811C422.567 70.1211 421.109 70.0953 419.685 69.6034C418.728 69.2065 418.033 68.6024 417.601 67.7913C417.179 66.9716 416.925 66.041 416.977 65.0832C417.029 64.1254 417.293 63.5098 417.767 62.6814C418.311 61.784 418.979 61.029 419.773 60.4163C420.576 59.795 421.443 59.2687 422.375 58.8372C423.316 58.3972 424.256 57.9916 425.197 57.6205C425.292 57.586 425.387 57.5515 425.481 57.517C426.405 57.1632 427.324 56.7533 428.238 56.2874C429.153 55.8214 429.981 55.2562 430.724 54.5918C431.474 53.9274 432.057 53.1162 432.471 52.1584C432.385 51.192 432.096 50.3032 431.604 49.4921C431.112 48.6723 430.374 48.1287 429.39 47.8612C429.39 47.8612 429.321 47.8569 429.183 47.8482C429.045 47.831 428.873 47.8137 428.666 47.7965C428.467 47.7706 428.26 47.7533 428.044 47.7447C427.837 47.7274 427.647 47.7231 427.475 47.7318C426.802 47.7749 426.137 47.8957 425.481 48.0942C424.308 48.4566 423.208 48.9786 422.181 49.6603C420.99 50.4283 420.056 51.3343 419.098 52.3784V49.3108C420.383 48.6119 421.987 47.9432 423.462 47.6153C424.946 47.2874 426.464 47.1298 427.913 47.1902C429.044 47.2247 430.102 47.4254 431.189 47.7447C432.285 48.064 433.265 48.5645 434.128 49.2461C434.991 49.9278 435.707 50.8309 436.147 51.9441C436.371 52.5567 436.501 53.1866 436.535 53.8338C436.578 54.4723 436.591 55.1152 436.574 55.7624C436.574 55.9954 436.574 56.2283 436.574 56.4613C436.574 59.5505 436.574 62.6397 436.574 65.7288ZM430.788 62.5391C431.375 61.0635 431.806 59.5362 432.083 57.9571C432.367 56.378 432.51 54.7989 432.51 53.2198C431.837 54.2984 430.974 55.1872 429.921 55.8861C428.877 56.5764 427.777 57.1503 426.62 57.6076C425.55 58.2461 424.571 59.04 423.682 59.9892C422.802 60.9384 422.181 61.9997 421.818 63.1733C421.456 64.3468 421.592 65.3493 422.093 66.6523C422.455 67.4893 422.951 68.007 423.581 68.2055C424.211 68.3954 424.884 68.3738 425.601 68.1408C426.325 67.9078 427.003 67.567 427.633 67.1183C428.979 65.893 430.053 64.288 430.788 62.5391Z" fill="#FF0000"/>
<path d="M458.785 36.0568H462.771V69.9872H458.785V66.1948C457.344 67.748 455.791 68.8468 453.807 69.4508C451.822 70.0462 449.803 70.098 447.749 69.6062C446.006 69.1575 444.457 68.3507 443.103 67.1857C441.757 66.0122 440.734 64.5971 440.035 62.9403C439.371 61.2922 439.094 59.5879 439.207 57.8276C439.327 56.0673 439.832 54.4149 440.721 52.8703C441.644 51.3171 442.852 50.0573 444.345 49.0908C445.838 48.1157 447.482 47.5203 449.277 47.3046C451.106 47.1234 452.862 47.3521 454.545 47.9906C456.236 48.6292 457.542 49.6013 458.785 50.9474V36.0568ZM451.477 69.3861C452.996 69.2481 454.389 68.8339 455.658 68.1436C456.935 67.4446 457.87 66.5141 458.785 65.3923V51.7499C457.698 50.4383 456.551 49.4532 455.024 48.7543C453.496 48.0467 451.878 47.7188 450.17 47.7706C448.401 48.6939 446.968 49.9839 445.873 51.6407C444.561 53.7116 443.909 55.9379 443.918 58.3195C443.927 60.7011 444.539 62.9015 445.756 64.9206C446.973 66.9398 448.729 68.4369 451.024 69.412C451.179 69.412 451.33 69.4034 451.477 69.3861Z" fill="#FF0000"/>
<path d="M487.659 54.5271C488.591 57.0812 488.624 59.5073 487.822 62.027C487.028 64.538 485.513 66.5658 483.279 68.1104C481.164 69.4652 478.886 70.0908 476.444 69.9872C474.011 69.8923 471.793 69.0812 469.791 67.5538C467.824 65.9575 466.512 63.9685 465.857 61.5869C465.209 59.2053 465.353 56.9345 466.225 54.5529C467.053 52.4561 468.356 50.7519 470.134 49.4403C471.911 48.1201 473.93 47.3737 476.191 47.2011C478.728 47.0716 481.036 47.6714 483.116 49.0002C485.196 50.3291 486.71 52.1714 487.659 54.5271ZM480.858 68.7705C482.127 68.2355 483.02 67.3726 483.537 66.1818C484.064 64.991 484.331 63.6967 484.34 62.2988C484.349 60.9009 484.215 59.6238 483.939 58.4676C483.499 56.5519 482.766 54.8291 481.679 53.0774C480.601 51.3257 479.194 49.9494 477.46 48.9484C476.631 48.4825 475.773 48.215 474.884 48.1459C473.995 48.0769 473.128 48.2754 472.282 48.7413C471.618 49.1469 471.083 49.6905 470.677 50.3722C470.272 51.0453 469.983 51.7529 469.81 52.4949C469.353 54.4192 469.308 56.2585 469.74 58.2346C470.171 60.202 470.892 62.0184 471.901 63.6838C472.488 64.6761 473.243 65.6468 474.166 66.596C475.09 67.5452 476.125 68.2571 477.273 68.7317C478.42 69.1977 479.616 69.2106 480.858 68.7705Z" fill="#FF0000"/>
<path d="M507.353 69.9945L496.662 57.3099C495.937 58.1728 495.428 58.8027 495.135 59.1996V70.0204H491.135V36.0568H495.135V58.3583C495.437 57.97 495.821 57.4954 496.287 56.9345C497.184 55.8904 498.103 54.9024 499.044 53.9705C500.666 52.3741 502.254 51.0496 503.807 49.9969C505.766 48.6766 507.621 47.8267 509.372 47.447C510.046 47.3089 510.701 47.2399 511.34 47.2399V51.33C511.34 51.33 511.042 51.2351 510.447 51.0453C509.851 50.8554 509.07 50.7174 508.104 50.6311C507.138 50.5362 506.076 50.6138 504.92 50.8641C503.764 51.1057 502.603 51.6407 501.438 52.4691C500.696 53.1076 500.019 53.7332 499.406 54.3459C499.397 54.3545 499.393 54.3588 499.393 54.3588L512.582 69.9945H507.353Z" fill="#FF0000"/>
<path d="M372.265 98.3766C372.343 99.1359 372.265 99.8909 372.032 100.642C371.808 101.384 371.467 102.057 371.01 102.661C370.104 103.817 368.977 104.611 367.631 105.042C366.285 105.465 364.905 105.582 363.489 105.392C362.057 105.185 360.698 104.758 359.412 104.111C358.127 103.455 356.91 102.704 355.762 101.858L357.471 99.2956C359.395 100.504 361.423 101.505 363.554 102.298C364.59 102.704 365.647 103.036 366.725 103.295C367.217 103.416 367.731 103.489 368.266 103.515C368.801 103.532 369.305 103.442 369.78 103.243C370.125 102.933 370.427 102.592 370.686 102.221C370.876 101.47 370.764 100.771 370.349 100.124C369.935 99.4768 369.392 98.9029 368.719 98.4025C368.054 97.902 367.442 97.4921 366.881 97.1728C365.578 96.4048 364.262 95.7887 362.933 95.0553C361.664 94.3563 360.405 93.6444 359.153 92.9196C358.489 92.5313 357.95 92.0438 357.535 91.457C357.13 90.8702 356.888 90.1885 356.811 89.4119C356.673 88.0227 356.927 86.7111 357.574 85.4771C358.437 84.0879 359.658 83.1948 361.237 82.7978C362.79 82.4699 364.314 82.5562 365.806 83.0567C367.299 83.5572 368.68 84.1172 369.948 85.006C369.819 85.1958 369.689 85.3857 369.56 85.5755C369.215 86.0846 368.865 86.5937 368.511 87.1028C367.571 86.2917 366.548 85.736 365.444 85.1665C364.771 84.8041 364.037 84.515 363.244 84.2993C362.458 84.0749 361.673 83.9973 360.888 84.0663C360.111 84.1353 359.395 84.4287 358.739 84.9465C358.325 85.283 358.019 85.6972 357.82 86.189C357.622 86.6722 357.6 87.177 357.755 87.7034C357.937 88.2125 358.23 88.6526 358.636 89.0236C359.041 89.3947 359.477 89.701 359.943 89.9426V89.9556C361.246 90.6114 362.605 91.155 364.02 91.5864C365.323 91.9834 366.587 92.4752 367.813 93.062C368.908 93.6142 369.875 94.2131 370.712 95.1278C371.558 96.0424 372.075 97.1254 372.265 98.3766Z" fill="#FF0000"/>
<path d="M395.463 86.0435C397.396 88.0109 398.492 90.371 398.75 93.1236C398.914 95.557 398.392 97.7962 397.184 99.8412C395.985 101.878 394.281 103.409 392.072 104.436C389.794 105.42 387.472 105.661 385.108 105.161C382.744 104.661 380.716 103.504 379.025 101.692V116.596H375.048V82.6653H379.025V86.4448C380.5 84.8657 382.222 83.7957 384.189 83.2348C386.165 82.6653 388.15 82.6135 390.143 83.0795C392.145 83.5455 393.918 84.5335 395.463 86.0435ZM387.438 104.902C387.559 104.902 387.68 104.902 387.8 104.902C389.569 103.97 391.002 102.676 392.098 101.019C393.409 98.9481 394.061 96.7219 394.052 94.3403C394.043 91.9587 393.431 89.7626 392.214 87.7521C390.997 85.7329 389.241 84.2315 386.946 83.2478C383.736 83.4549 381.096 84.788 379.025 87.2473V100.89C380.069 102.158 381.324 103.146 382.791 103.854C384.267 104.553 385.816 104.902 387.438 104.902Z" fill="#FF0000"/>
<path d="M419.893 101.204C419.919 101.696 419.915 102.123 420.208 102.485C420.501 102.839 420.933 102.951 421.502 102.822C421.459 102.9 421.369 103.063 421.231 103.314C421.101 103.555 420.95 103.827 420.778 104.129C420.614 104.44 420.458 104.725 420.312 104.983C420.174 105.234 420.087 105.393 420.053 105.462C419.104 105.514 418.348 105.284 417.589 104.784C416.838 104.283 416.312 103.584 416.01 102.687C415.837 101.971 415.777 101.237 415.829 100.486C415.829 100.305 415.829 100.124 415.829 99.9427C415.829 97.889 415.829 95.8353 415.829 93.7816C415.509 95.5506 414.987 97.2634 414.262 98.9202C413.614 100.333 412.587 101.778 411.249 103.02C410.162 103.996 408.872 104.707 407.379 105.156C405.886 105.596 404.428 105.57 403.004 105.079C402.046 104.682 401.352 104.078 400.92 103.266C400.497 102.447 400.244 101.516 400.296 100.558C400.348 99.6005 400.611 98.9849 401.086 98.1565C401.63 97.2591 402.298 96.5041 403.092 95.8914C403.895 95.2701 404.762 94.7438 405.694 94.3123C406.634 93.8722 407.575 93.4667 408.516 93.0956C408.61 93.0611 408.705 93.0266 408.8 92.9921C409.724 92.6383 410.643 92.2284 411.557 91.7625C412.472 91.2965 413.3 90.7313 414.042 90.0669C414.793 89.4024 415.376 88.5913 415.79 87.6335C415.703 86.6671 415.414 85.7783 414.923 84.9672C414.431 84.1474 413.693 83.6038 412.709 83.3363C412.709 83.3363 412.64 83.332 412.502 83.3233C412.364 83.3061 412.191 83.2888 411.984 83.2716C411.786 83.2457 411.579 83.2284 411.363 83.2198C411.156 83.2025 410.966 83.1982 410.794 83.2069C410.12 83.25 409.456 83.3708 408.8 83.5693C407.627 83.9317 406.527 84.4537 405.5 85.1354C404.309 85.9034 403.374 86.8094 402.417 87.8535V84.7859C403.702 84.087 405.306 83.4183 406.781 83.0904C408.265 82.7625 409.782 82.6049 411.232 82.6653C412.362 82.6998 413.421 82.9005 414.508 83.2198C415.604 83.5391 416.584 84.0395 417.446 84.7212C418.309 85.4029 419.026 86.306 419.466 87.4192C419.69 88.0318 419.819 88.6617 419.854 89.3089C419.897 89.9474 419.91 90.5903 419.893 91.2375C419.893 91.4705 419.893 91.7034 419.893 91.9364C419.893 95.0256 419.893 98.1148 419.893 101.204ZM414.107 98.0142C414.694 96.5386 415.125 95.0113 415.401 93.4322C415.686 91.8531 415.829 90.274 415.829 88.6949C415.155 89.7735 414.293 90.6623 413.24 91.3612C412.196 92.0515 411.096 92.6254 409.939 93.0827C408.869 93.7212 407.89 94.5151 407.001 95.4643C406.121 96.4135 405.5 97.4748 405.137 98.6484C404.775 99.8219 404.911 100.824 405.412 102.127C405.774 102.964 406.27 103.482 406.9 103.681C407.53 103.87 408.203 103.849 408.919 103.616C409.644 103.383 410.322 103.042 410.951 102.593C412.298 101.368 413.372 99.7631 414.107 98.0142Z" fill="#FF0000"/>
<path d="M442.104 71.5319H446.09V105.462H442.104V101.67C440.663 103.223 439.11 104.322 437.126 104.926C435.141 105.521 433.122 105.573 431.068 105.081C429.325 104.633 427.776 103.826 426.421 102.661C425.075 101.487 424.053 100.072 423.354 98.4154C422.689 96.7673 422.413 95.063 422.525 93.3027C422.646 91.5424 423.151 89.89 424.04 88.3454C424.963 86.7922 426.171 85.5324 427.664 84.5659C429.157 83.5908 430.801 82.9954 432.595 82.7797C434.425 82.5985 436.181 82.8272 437.863 83.4657C439.555 84.1043 440.861 85.0764 442.104 86.4225V71.5319ZM434.796 104.861C436.315 104.723 437.708 104.309 438.977 103.619C440.254 102.92 441.189 101.989 442.104 100.867V87.225C441.016 85.9134 439.87 84.9283 438.342 84.2294C436.815 83.5218 435.197 83.1939 433.489 83.2457C431.72 84.169 430.287 85.459 429.191 87.1158C427.88 89.1867 427.228 91.413 427.237 93.7946C427.246 96.1762 427.858 98.3766 429.075 100.396C430.292 102.415 432.048 103.912 434.343 104.887C434.498 104.887 434.649 104.878 434.796 104.861Z" fill="#FF0000"/>
<path d="M470.978 90.0022C471.91 92.5563 471.943 94.9824 471.141 97.5021C470.347 100.013 468.832 102.041 466.597 103.586C464.483 104.94 462.205 105.566 459.763 105.462C457.33 105.367 455.112 104.556 453.11 103.029C451.143 101.433 449.831 99.4436 449.176 97.062C448.528 94.6804 448.672 92.4096 449.544 90.028C450.372 87.9312 451.675 86.227 453.453 84.9154C455.23 83.5952 457.249 82.8488 459.51 82.6762C462.047 82.5467 464.355 83.1465 466.435 84.4753C468.514 85.8042 470.029 87.6465 470.978 90.0022ZM464.177 104.246C465.445 103.711 466.339 102.848 466.856 101.657C467.383 100.466 467.65 99.1718 467.659 97.7739C467.667 96.376 467.534 95.0989 467.257 93.9426C466.817 92.027 466.085 90.3042 464.998 88.5525C463.919 86.8008 462.513 85.4245 460.779 84.4235C459.95 83.9576 459.092 83.6901 458.203 83.621C457.314 83.552 456.447 83.7505 455.601 84.2164C454.937 84.622 454.402 85.1656 453.996 85.8473C453.591 86.5204 453.302 87.228 453.129 87.97C452.672 89.8943 452.627 91.7336 453.059 93.7097C453.49 95.6771 454.211 97.4935 455.22 99.1589C455.807 100.151 456.562 101.122 457.485 102.071C458.408 103.02 459.444 103.732 460.592 104.207C461.739 104.673 462.934 104.686 464.177 104.246Z" fill="#FF0000"/>
<path d="M490.672 105.47L479.981 92.785C479.256 93.6479 478.747 94.2778 478.454 94.6747V105.495H474.454V71.5319H478.454V93.8334C478.756 93.4451 479.14 92.9705 479.606 92.4096C480.503 91.3655 481.422 90.3775 482.362 89.4456C483.985 87.8492 485.572 86.5247 487.126 85.472C489.084 84.1517 490.94 83.3018 492.691 82.9221C493.364 82.784 494.02 82.715 494.659 82.715V86.8051C494.659 86.8051 494.361 86.7102 493.766 86.5204C493.17 86.3305 492.389 86.1925 491.423 86.1062C490.456 86.0113 489.395 86.0889 488.239 86.3392C487.083 86.5808 485.922 87.1158 484.757 87.9442C484.015 88.5827 483.338 89.2083 482.725 89.821C482.716 89.8296 482.712 89.8339 482.712 89.8339L495.901 105.47H490.672Z" fill="#FF0000"/>
<path d="M16.1967 26.8447C16.2744 27.6041 16.1967 28.3591 15.9637 29.1098C15.7394 29.8519 15.3986 30.525 14.9412 31.129C14.0352 32.2853 12.9091 33.0791 11.563 33.5106C10.2169 33.9334 8.83623 34.0499 7.42108 33.8601C5.98867 33.653 4.62961 33.2258 3.3439 32.5787C2.05818 31.9228 0.841499 31.1721 -0.306152 30.3265L1.40238 27.7637C3.32664 28.9717 5.35444 29.9727 7.4858 30.7666C8.52127 31.1721 9.57832 31.5043 10.6569 31.7632C11.1488 31.884 11.6622 31.9574 12.1972 31.9833C12.7322 32.0005 13.237 31.9099 13.7116 31.7114C14.0567 31.4008 14.3588 31.06 14.6176 30.6889C14.8075 29.9382 14.6953 29.2392 14.2811 28.5921C13.8669 27.9449 13.3233 27.3711 12.6502 26.8706C11.9858 26.3701 11.3731 25.9602 10.8123 25.641C9.50929 24.873 8.19337 24.2569 6.86451 23.5234C5.59605 22.8245 4.33623 22.1126 3.08503 21.3878C2.4206 20.9994 1.88129 20.5119 1.4671 19.9251C1.06154 19.3384 0.819927 18.6567 0.742266 17.8801C0.604203 16.4908 0.858757 15.1792 1.50593 13.9453C2.36882 12.556 3.58982 11.6629 5.16892 11.266C6.72213 10.9381 8.24514 11.0244 9.73795 11.5249C11.2308 12.0253 12.6114 12.5854 13.8799 13.4741C13.7504 13.664 13.621 13.8538 13.4916 14.0436C13.1464 14.5528 12.7969 15.0619 12.4431 15.571C11.5026 14.7598 10.48 14.2041 9.37554 13.6346C8.70248 13.2722 7.96902 12.9831 7.17515 12.7674C6.38992 12.5431 5.60468 12.4654 4.81945 12.5344C4.04284 12.6035 3.32664 12.8969 2.67084 13.4146C2.25665 13.7511 1.95032 14.1653 1.75185 14.6572C1.55339 15.1404 1.53182 15.6452 1.68714 16.1715C1.86835 16.6807 2.16173 17.1207 2.56729 17.4918C2.97285 17.8628 3.40861 18.1691 3.87458 18.4108V18.4237C5.17755 19.0795 6.53661 19.6231 7.95176 20.0546C9.25473 20.4515 10.5189 20.9434 11.7442 21.5301C12.8401 22.0824 13.8065 22.6812 14.6435 23.5959C15.4892 24.5106 16.0069 25.5935 16.1967 26.8447Z" fill="#FF0000"/>
<path d="M39.3945 14.5117C41.3274 16.4791 42.4232 18.8391 42.6821 21.5917C42.8461 24.0251 42.324 26.2643 41.116 28.3094C39.9165 30.3458 38.2123 31.8775 36.0033 32.9043C33.7253 33.888 31.4041 34.1296 29.0397 33.6291C26.6754 33.1287 24.6476 31.9724 22.9563 30.1603V45.0639H18.9801V11.1334H22.9563V14.9129C24.4319 13.3338 26.1533 12.2638 28.1207 11.703C30.0968 11.1334 32.0814 11.0817 34.0747 11.5476C36.0766 12.0136 37.8499 13.0016 39.3945 14.5117ZM31.3695 33.3703C31.4903 33.3703 31.6112 33.3703 31.732 33.3703C33.5009 32.4383 34.9333 31.144 36.0292 29.4872C37.3408 27.4163 37.9923 25.19 37.9836 22.8084C37.975 20.4268 37.3624 18.2308 36.1457 16.2202C34.929 14.201 33.173 12.6996 30.8777 11.7159C27.6677 11.923 25.0273 13.2562 22.9563 15.7154V29.3578C24.0004 30.6263 25.2559 31.6143 26.7229 32.3219C28.1984 33.0208 29.7473 33.3703 31.3695 33.3703Z" fill="#FF0000"/>
<path d="M63.8244 29.6721C63.8503 30.1639 63.8464 30.591 64.1397 30.9535C64.4331 31.3072 64.8646 31.4194 65.4341 31.29C65.3909 31.3676 65.3003 31.5316 65.1623 31.7818C65.0328 32.0234 64.8818 32.2953 64.7093 32.5973C64.5453 32.9079 64.39 33.1927 64.2433 33.4515C64.1052 33.7018 64.0189 33.8614 63.9844 33.9305C63.0352 33.9822 62.2799 33.7522 61.5205 33.2517C60.7698 32.7512 60.2434 32.0523 59.9414 31.1549C59.7688 30.4387 59.7084 29.7052 59.7602 28.9545C59.7602 28.7733 59.7602 28.5921 59.7602 28.4109C59.7602 26.3572 59.7602 24.3035 59.7602 22.2498C59.4409 24.0187 58.9189 25.7316 58.194 27.3883C57.5451 28.8007 56.5183 30.2461 55.1808 31.4886C54.0936 32.4637 52.8035 33.1756 51.3107 33.6243C49.8179 34.0644 48.3596 34.0385 46.9358 33.5466C45.978 33.1497 45.2834 32.5457 44.8519 31.7346C44.4291 30.9148 44.1758 29.9843 44.2276 29.0264C44.2793 28.0686 44.543 27.453 45.0176 26.6247C45.5612 25.7273 46.23 24.9722 47.0239 24.3596C47.8263 23.7383 48.6936 23.2119 49.6255 22.7805C50.566 22.3404 51.5066 21.9348 52.4472 21.5638C52.5421 21.5293 52.637 21.4948 52.7319 21.4602C53.6552 21.1064 54.5742 20.6966 55.4889 20.2306C56.4035 19.7646 57.2319 19.1994 57.974 18.535C58.7247 17.8706 59.3072 17.0595 59.7214 16.1017C59.6351 15.1352 59.346 14.2464 58.8542 13.4353C58.3623 12.6156 57.6245 12.0719 56.6408 11.8044C56.6408 11.8044 56.5718 11.8001 56.4337 11.7915C56.2957 11.7742 56.1231 11.757 55.916 11.7397C55.7175 11.7138 55.5104 11.6966 55.2947 11.6879C55.0876 11.6707 54.8978 11.6664 54.7252 11.675C54.0521 11.7181 53.3877 11.8389 52.7319 12.0374C51.5584 12.3998 50.4582 12.9219 49.4313 13.6036C48.2405 14.3715 47.306 15.2776 46.3482 16.3217V13.2541C47.6339 12.5551 49.2372 11.8864 50.7127 11.5585C52.1969 11.2306 53.7141 11.073 55.1637 11.1334C56.2941 11.168 57.3527 11.3687 58.44 11.6879C59.5358 12.0072 60.5152 12.5077 61.3781 13.1894C62.241 13.8711 62.9572 14.7742 63.3973 15.8873C63.6217 16.5 63.7511 17.1299 63.7856 17.777C63.8288 18.4156 63.8417 19.0584 63.8244 19.7056C63.8244 19.9386 63.8244 20.1716 63.8244 20.4046C63.8244 23.4937 63.8244 26.5829 63.8244 29.6721ZM58.0387 26.4823C58.6255 25.0067 59.0569 23.4794 59.3331 21.9003C59.6178 20.3212 59.7602 18.7421 59.7602 17.163C59.0871 18.2416 58.2242 19.1304 57.1715 19.8294C56.1274 20.5197 55.0272 21.0935 53.8709 21.5508C52.8009 22.1894 51.8216 22.9832 50.9328 23.9324C50.0526 24.8816 49.4313 25.943 49.0689 27.1165C48.7065 28.2901 48.8428 29.2926 49.3433 30.5955C49.7057 31.4326 50.2019 31.9503 50.8318 32.1488C51.4617 32.3386 52.1348 32.317 52.851 32.084C53.5758 31.8511 54.2532 31.5102 54.8831 31.0615C56.2292 29.8362 57.3035 28.2312 58.0387 26.4823Z" fill="#FF0000"/>
<path d="M86.0354 0H90.0219V33.9305H86.0354V30.138C84.5943 31.6912 83.042 32.7901 81.0573 33.3941C79.0727 33.9895 77.0535 34.0413 74.9998 33.5494C73.2568 33.1007 71.7078 32.2939 70.3531 31.129C69.007 29.9554 67.9845 28.5403 67.2855 26.8835C66.6211 25.2354 66.345 23.5312 66.4571 21.7709C66.5779 20.0106 67.0827 18.3581 67.9715 16.8135C68.8948 15.2603 70.1029 14.0005 71.5957 13.0341C73.0885 12.059 74.7323 11.4636 76.5271 11.2479C78.3565 11.0667 80.1125 11.2953 81.7951 11.9339C83.4864 12.5724 84.7928 13.5445 86.0354 14.8907V0ZM78.7275 33.3294C80.2462 33.1913 81.6398 32.7771 82.9082 32.0868C84.1853 31.3879 85.1207 30.4573 86.0354 29.3355V15.6932C84.9481 14.3816 83.8013 13.3965 82.274 12.6975C80.7467 11.99 79.1288 11.6621 77.4202 11.7138C75.6513 12.6371 74.2189 13.9272 73.123 15.5839C71.8114 17.6549 71.1599 19.8811 71.1685 22.2627C71.1772 24.6443 71.7898 26.8447 73.0065 28.8639C74.2232 30.8831 75.9792 32.3802 78.2745 33.3553C78.4298 33.3553 78.5808 33.3466 78.7275 33.3294Z" fill="#FF0000"/>
<path d="M114.91 18.4703C115.842 21.0245 115.875 23.4506 115.072 25.9702C114.278 28.4813 112.764 30.5091 110.529 32.0536C108.415 33.4084 106.137 34.034 103.695 33.9305C101.262 33.8355 99.0439 33.0244 97.042 31.4971C95.0746 29.9007 93.7629 27.9118 93.1071 25.5302C92.46 23.1486 92.6037 20.8778 93.4753 18.4962C94.3036 16.3994 95.6066 14.6951 97.3842 13.3835C99.1617 12.0633 101.181 11.3169 103.442 11.1443C105.979 11.0149 108.287 11.6146 110.366 12.9435C112.446 14.2723 113.96 16.1146 114.91 18.4703ZM108.109 32.7138C109.377 32.1788 110.27 31.3159 110.788 30.1251C111.314 28.9343 111.582 27.6399 111.59 26.242C111.599 24.8442 111.465 23.5671 111.189 22.4108C110.749 20.4952 110.017 18.7723 108.93 17.0206C107.851 15.269 106.445 13.8926 104.71 12.8917C103.882 12.4257 103.023 12.1582 102.134 12.0892C101.246 12.0202 100.378 12.2186 99.5328 12.6846C98.8684 13.0901 98.3334 13.6338 97.9278 14.3155C97.5222 14.9885 97.2332 15.6961 97.0606 16.4382C96.6033 18.3624 96.5587 20.2018 96.9902 22.1778C97.4216 24.1452 98.1421 25.9616 99.1517 27.627C99.7385 28.6193 100.494 29.5901 101.417 30.5393C102.34 31.4885 103.376 32.2003 104.523 32.6749C105.671 33.1409 106.866 33.1538 108.109 32.7138Z" fill="#FF0000"/>
<path d="M134.604 33.9377L123.913 21.2531C123.188 22.116 122.679 22.746 122.385 23.1429V33.9636H118.386V0H122.385V22.3016C122.687 21.9133 123.071 21.4387 123.537 20.8778C124.435 19.8337 125.354 18.8457 126.294 17.9137C127.916 16.3174 129.504 14.9928 131.057 13.9401C133.016 12.6199 134.871 11.7699 136.623 11.3902C137.296 11.2522 137.952 11.1831 138.59 11.1831V15.2733C138.59 15.2733 138.293 15.1784 137.697 14.9885C137.102 14.7987 136.321 14.6606 135.355 14.5743C134.388 14.4794 133.327 14.5571 132.17 14.8073C131.014 15.0489 129.854 15.5839 128.689 16.4123C127.947 17.0508 127.269 17.6764 126.657 18.2891C126.648 18.2977 126.644 18.302 126.644 18.302L139.833 33.9377H134.604Z" fill="#FF0000"/>
<circle cx="55.0962" cy="5.83196" r="2.12065" fill="#FF0000"/>
<path d="M-36.9454 62.9015C-36.8677 63.6608 -36.9454 64.4159 -37.1783 65.1666C-37.4027 65.9087 -37.7435 66.5817 -38.2009 67.1857C-39.1069 68.342 -40.233 69.1359 -41.5791 69.5673C-42.9252 69.9902 -44.3059 70.1067 -45.721 69.9168C-47.1534 69.7097 -48.5125 69.2826 -49.7982 68.6354C-51.0839 67.9796 -52.3006 67.2289 -53.4482 66.3833L-51.7397 63.8205C-49.8155 65.0285 -47.7876 66.0295 -45.6563 66.8233C-44.6208 67.2289 -43.5638 67.5611 -42.4852 67.82C-41.9933 67.9408 -41.4799 68.0141 -40.9449 68.04C-40.4099 68.0573 -39.9051 67.9667 -39.4305 67.7682C-39.0853 67.4576 -38.7833 67.1167 -38.5245 66.7457C-38.3346 65.995 -38.4468 65.296 -38.861 64.6488C-39.2752 64.0017 -39.8188 63.4278 -40.4919 62.9274C-41.1563 62.4269 -41.7689 62.017 -42.3298 61.6977C-43.6328 60.9298 -44.9487 60.3136 -46.2776 59.5802C-47.546 58.8812 -48.8059 58.1693 -50.0571 57.4445C-50.7215 57.0562 -51.2608 56.5687 -51.675 55.9819C-52.0806 55.3951 -52.3222 54.7134 -52.3998 53.9368C-52.5379 52.5476 -52.2833 51.236 -51.6362 50.002C-50.7733 48.6128 -49.5523 47.7197 -47.9732 47.3227C-46.42 46.9948 -44.8969 47.0811 -43.4041 47.5816C-41.9113 48.0821 -40.5307 48.6421 -39.2622 49.5309C-39.3917 49.7207 -39.5211 49.9106 -39.6505 50.1004C-39.9957 50.6095 -40.3452 51.1186 -40.699 51.6277C-41.6395 50.8166 -42.662 50.2609 -43.7666 49.6914C-44.4396 49.329 -45.1731 49.0399 -45.9669 48.8242C-46.7522 48.5998 -47.5374 48.5222 -48.3226 48.5912C-49.0992 48.6602 -49.8155 48.9536 -50.4713 49.4714C-50.8854 49.8079 -51.1918 50.2221 -51.3902 50.7139C-51.5887 51.1971 -51.6103 51.7019 -51.455 52.2283C-51.2737 52.7374 -50.9804 53.1775 -50.5748 53.5485C-50.1692 53.9196 -49.7335 54.2259 -49.2675 54.4675V54.4805C-47.9645 55.1363 -46.6055 55.6799 -45.1903 56.1113C-43.8874 56.5083 -42.6232 57.0001 -41.3979 57.5869C-40.302 58.1391 -39.3356 58.738 -38.4986 59.6527C-37.6529 60.5673 -37.1352 61.6503 -36.9454 62.9015Z" fill="#FF0000"/>
<path d="M-13.7476 50.5684C-11.8147 52.5358 -10.7188 54.8959 -10.46 57.6485C-10.296 60.0819 -10.8181 62.3211 -12.0261 64.3661C-13.2256 66.4026 -14.9298 67.9342 -17.1388 68.9611C-19.4168 69.9448 -21.738 70.1864 -24.1024 69.6859C-26.4667 69.1854 -28.4945 68.0291 -30.1858 66.2171V81.1206H-34.162V47.1902H-30.1858V50.9697C-28.7102 49.3906 -26.9888 48.3206 -25.0213 47.7597C-23.0453 47.1902 -21.0607 47.1384 -19.0674 47.6044C-17.0654 48.0704 -15.2922 49.0584 -13.7476 50.5684ZM-21.7725 69.427C-21.6517 69.427 -21.5309 69.427 -21.4101 69.427C-19.6412 68.4951 -18.2088 67.2008 -17.1129 65.544C-15.8013 63.4731 -15.1498 61.2468 -15.1585 58.8652C-15.1671 56.4836 -15.7797 54.2875 -16.9964 52.277C-18.2131 50.2578 -19.9691 48.7564 -22.2644 47.7727C-25.4744 47.9798 -28.1148 49.3129 -30.1858 51.7722V65.4146C-29.1417 66.683 -27.8862 67.671 -26.4192 68.3786C-24.9437 69.0776 -23.3948 69.427 -21.7725 69.427Z" fill="#FF0000"/>
<path d="M10.6823 65.7288C10.7082 66.2207 10.7043 66.6478 10.9977 67.0102C11.291 67.364 11.7225 67.4762 12.292 67.3468C12.2488 67.4244 12.1582 67.5884 12.0202 67.8386C11.8907 68.0802 11.7397 68.352 11.5672 68.654C11.4032 68.9647 11.2479 69.2494 11.1012 69.5083C10.9631 69.7585 10.8768 69.9182 10.8423 69.9872C9.89314 70.039 9.13776 69.809 8.37842 69.3085C7.6277 68.808 7.10133 68.109 6.79931 67.2116C6.62674 66.4954 6.56633 65.762 6.61811 65.0112C6.61811 64.83 6.61811 64.6488 6.61811 64.4676C6.61811 62.4139 6.61811 60.3602 6.61811 58.3065C6.29884 60.0755 5.77678 61.7883 5.05195 63.4451C4.40305 64.8575 3.37621 66.3028 2.03872 67.5454C0.951469 68.5205 -0.338558 69.2324 -1.83137 69.6811C-3.32418 70.1211 -4.78247 70.0953 -6.20625 69.6034C-7.16407 69.2065 -7.8587 68.6024 -8.29015 67.7913C-8.71296 66.9716 -8.96631 66.041 -8.91454 65.0832C-8.86276 64.1254 -8.59906 63.5098 -8.12447 62.6814C-7.58084 61.784 -6.9121 61.029 -6.11824 60.4163C-5.31574 59.795 -4.44853 59.2687 -3.51661 58.8372C-2.57605 58.3972 -1.63549 57.9916 -0.694935 57.6205C-0.600018 57.586 -0.5051 57.5515 -0.410179 57.517C0.513119 57.1632 1.4321 56.7533 2.34677 56.2874C3.26144 55.8214 4.08982 55.2562 4.83191 54.5918C5.58263 53.9274 6.16508 53.1162 6.57928 52.1584C6.49298 51.192 6.20391 50.3032 5.71207 49.4921C5.22021 48.6723 4.48244 48.1287 3.49874 47.8612C3.49874 47.8612 3.42971 47.8569 3.29164 47.8482C3.15358 47.831 2.981 47.8137 2.77391 47.7965C2.57544 47.7706 2.36834 47.7533 2.15262 47.7447C1.94553 47.7274 1.75569 47.7231 1.58311 47.7318C0.910049 47.7749 0.245621 47.8957 -0.410179 48.0942C-1.58372 48.4566 -2.68391 48.9786 -3.71076 49.6603C-4.90155 50.4283 -5.83607 51.3343 -6.79388 52.3784V49.3108C-5.50817 48.6119 -3.90491 47.9432 -2.42936 47.6153C-0.945175 47.2874 0.571968 47.1298 2.02163 47.1902C3.15203 47.2247 4.21062 47.4254 5.29787 47.7447C6.39375 48.064 7.37314 48.5645 8.23603 49.2461C9.09893 49.9278 9.81514 50.8309 10.2552 51.9441C10.4796 52.5567 10.609 53.1866 10.6435 53.8338C10.6867 54.4723 10.6996 55.1152 10.6823 55.7624C10.6823 55.9954 10.6823 56.2283 10.6823 56.4613C10.6823 59.5505 10.6823 62.6397 10.6823 65.7288ZM4.89663 62.5391C5.4834 61.0635 5.91484 59.5362 6.19097 57.9571C6.47573 56.378 6.61811 54.7989 6.61811 53.2198C5.94505 54.2984 5.08215 55.1872 4.02942 55.8861C2.98531 56.5764 1.88512 57.1503 0.728844 57.6076C-0.341148 58.2461 -1.32053 59.04 -2.20932 59.9892C-3.08947 60.9384 -3.71076 61.9997 -4.07317 63.1733C-4.43559 64.3468 -4.29925 65.3493 -3.79877 66.6523C-3.43636 67.4893 -2.94019 68.007 -2.31028 68.2055C-1.68036 68.3954 -1.00731 68.3738 -0.2911 68.1408C0.433731 67.9078 1.1111 67.567 1.74102 67.1183C3.08714 65.893 4.16144 64.288 4.89663 62.5391Z" fill="#FF0000"/>
<path d="M32.8933 36.0568H36.8799V69.9872H32.8933V66.1948C31.4522 67.748 29.8999 68.8468 27.9152 69.4508C25.9306 70.0462 23.9114 70.098 21.8577 69.6062C20.1147 69.1575 18.5658 68.3507 17.211 67.1857C15.8649 66.0122 14.8424 64.5971 14.1434 62.9403C13.479 61.2922 13.2029 59.5879 13.315 57.8276C13.4359 56.0673 13.9406 54.4149 14.8294 52.8703C15.7527 51.3171 16.9608 50.0573 18.4536 49.0908C19.9464 48.1157 21.5902 47.5203 23.385 47.3046C25.2144 47.1234 26.9704 47.3521 28.653 47.9906C30.3443 48.6292 31.6507 49.6013 32.8933 50.9474V36.0568ZM25.5854 69.3861C27.1041 69.2481 28.4977 68.8339 29.7662 68.1436C31.0432 67.4446 31.9786 66.5141 32.8933 65.3923V51.7499C31.806 50.4383 30.6592 49.4532 29.1319 48.7543C27.6046 48.0467 25.9867 47.7188 24.2781 47.7706C22.5092 48.6939 21.0768 49.9839 19.9809 51.6407C18.6693 53.7116 18.0178 55.9379 18.0265 58.3195C18.0351 60.7011 18.6477 62.9015 19.8644 64.9206C21.0811 66.9398 22.8371 68.4369 25.1324 69.412C25.2877 69.412 25.4387 69.4034 25.5854 69.3861Z" fill="#FF0000"/>
<path d="M61.7675 54.5271C62.6994 57.0812 62.7326 59.5073 61.9301 62.027C61.1362 64.538 59.6218 66.5658 57.3869 68.1104C55.2728 69.4652 52.9948 70.0908 50.5528 69.9872C48.1194 69.8923 45.9018 69.0812 43.8999 67.5538C41.9325 65.9575 40.6209 63.9685 39.9651 61.5869C39.3179 59.2053 39.4616 56.9345 40.3332 54.5529C41.1616 52.4561 42.4645 50.7519 44.2421 49.4403C46.0197 48.1201 48.0388 47.3737 50.2996 47.2011C52.8365 47.0716 55.1448 47.6714 57.2244 49.0002C59.3039 50.3291 60.8183 52.1714 61.7675 54.5271ZM54.9665 68.7705C56.235 68.2355 57.1281 67.3726 57.6458 66.1818C58.1722 64.991 58.4397 63.6967 58.4483 62.2988C58.4569 60.9009 58.3232 59.6238 58.047 58.4676C57.607 56.5519 56.8749 54.8291 55.7876 53.0774C54.709 51.3257 53.3025 49.9494 51.5681 48.9484C50.7397 48.4825 49.8811 48.215 48.9923 48.1459C48.1035 48.0769 47.2363 48.2754 46.3907 48.7413C45.7263 49.1469 45.1913 49.6905 44.7857 50.3722C44.3801 51.0453 44.0911 51.7529 43.9185 52.4949C43.4612 54.4192 43.4166 56.2585 43.8481 58.2346C44.2795 60.202 45.0001 62.0184 46.0096 63.6838C46.5964 64.6761 47.3514 65.6468 48.2747 66.596C49.198 67.5452 50.2335 68.2571 51.3812 68.7317C52.5288 69.1977 53.7239 69.2106 54.9665 68.7705Z" fill="#FF0000"/>
<path d="M81.4617 69.9945L70.7704 57.3099C70.0456 58.1728 69.5365 58.8027 69.2431 59.1996V70.0204H65.2436V36.0568H69.2431V58.3583C69.5451 57.97 69.9291 57.4954 70.3951 56.9345C71.2925 55.8904 72.2115 54.9024 73.152 53.9705C74.7743 52.3741 76.362 51.0496 77.9152 49.9969C79.874 48.6766 81.7292 47.8267 83.4809 47.447C84.1539 47.3089 84.8098 47.2399 85.4483 47.2399V51.33C85.4483 51.33 85.1506 51.2351 84.5552 51.0453C83.9598 50.8554 83.1789 50.7174 82.2124 50.6311C81.246 50.5362 80.1846 50.6138 79.0283 50.8641C77.8721 51.1057 76.7115 51.6407 75.5466 52.4691C74.8045 53.1076 74.1271 53.7332 73.5145 54.3459C73.5058 54.3545 73.5015 54.3588 73.5015 54.3588L86.6909 69.9945H81.4617Z" fill="#FF0000"/>
<circle cx="1.95366" cy="41.8885" r="2.12065" fill="#FF0000"/>
<path d="M-54.0152 98.3766C-53.9375 99.1359 -54.0152 99.8909 -54.2482 100.642C-54.4725 101.384 -54.8134 102.057 -55.2707 102.661C-56.1767 103.817 -57.3028 104.611 -58.6489 105.042C-59.9951 105.465 -61.3757 105.582 -62.7908 105.392C-64.2232 105.185 -65.5823 104.758 -66.868 104.111C-68.1537 103.455 -69.3704 102.704 -70.5181 101.858L-68.8095 99.2956C-66.8853 100.504 -64.8575 101.505 -62.7261 102.298C-61.6906 102.704 -60.6336 103.036 -59.555 103.295C-59.0631 103.416 -58.5497 103.489 -58.0147 103.515C-57.4797 103.532 -56.9749 103.442 -56.5003 103.243C-56.1552 102.933 -55.8532 102.592 -55.5943 102.221C-55.4044 101.47 -55.5166 100.771 -55.9308 100.124C-56.345 99.4768 -56.8886 98.9029 -57.5617 98.4025C-58.2261 97.902 -58.8388 97.4921 -59.3997 97.1728C-60.7026 96.4048 -62.0185 95.7887 -63.3474 95.0553C-64.6159 94.3563 -65.8757 93.6444 -67.1269 92.9196C-67.7913 92.5313 -68.3306 92.0438 -68.7448 91.457C-69.1504 90.8702 -69.392 90.1885 -69.4696 89.4119C-69.6077 88.0227 -69.3532 86.7111 -68.706 85.4771C-67.8431 84.0879 -66.6221 83.1948 -65.043 82.7978C-63.4898 82.4699 -61.9668 82.5562 -60.474 83.0567C-58.9811 83.5572 -57.6005 84.1172 -56.3321 85.006C-56.4615 85.1958 -56.5909 85.3857 -56.7204 85.5755C-57.0655 86.0846 -57.415 86.5937 -57.7688 87.1028C-58.7093 86.2917 -59.7319 85.736 -60.8364 85.1665C-61.5094 84.8041 -62.2429 84.515 -63.0368 84.2993C-63.822 84.0749 -64.6072 83.9973 -65.3925 84.0663C-66.1691 84.1353 -66.8853 84.4287 -67.5411 84.9465C-67.9553 85.283 -68.2616 85.6972 -68.4601 86.189C-68.6585 86.6722 -68.6801 87.177 -68.5248 87.7034C-68.3436 88.2125 -68.0502 88.6526 -67.6446 89.0236C-67.2391 89.3947 -66.8033 89.701 -66.3373 89.9426V89.9556C-65.0344 90.6114 -63.6753 91.155 -62.2602 91.5864C-60.9572 91.9834 -59.693 92.4752 -58.4677 93.062C-57.3718 93.6142 -56.4054 94.2131 -55.5684 95.1278C-54.7228 96.0424 -54.205 97.1254 -54.0152 98.3766Z" fill="#FF0000"/>
<path d="M-30.8174 86.0435C-28.8846 88.0109 -27.7887 90.371 -27.5298 93.1236C-27.3659 95.557 -27.8879 97.7962 -29.096 99.8412C-30.2954 101.878 -31.9996 103.409 -34.2086 104.436C-36.4867 105.42 -38.8079 105.661 -41.1722 105.161C-43.5365 104.661 -45.5643 103.504 -47.2556 101.692V116.596H-51.2318V82.6653H-47.2556V86.4448C-45.7801 84.8657 -44.0586 83.7957 -42.0912 83.2348C-40.1151 82.6653 -38.1305 82.6135 -36.1372 83.0795C-34.1353 83.5455 -32.362 84.5335 -30.8174 86.0435ZM-38.8424 104.902C-38.7216 104.902 -38.6008 104.902 -38.48 104.902C-36.711 103.97 -35.2786 102.676 -34.1827 101.019C-32.8711 98.9481 -32.2196 96.7219 -32.2283 94.3403C-32.2369 91.9587 -32.8496 89.7626 -34.0662 87.7521C-35.2829 85.7329 -37.0389 84.2315 -39.3342 83.2478C-42.5442 83.4549 -45.1847 84.788 -47.2556 87.2473V100.89C-46.2115 102.158 -44.956 103.146 -43.4891 103.854C-42.0135 104.553 -40.4646 104.902 -38.8424 104.902Z" fill="#FF0000"/>
<path d="M-6.38748 101.204C-6.3616 101.696 -6.36556 102.123 -6.07217 102.485C-5.77879 102.839 -5.34734 102.951 -4.77783 102.822C-4.82098 102.9 -4.91158 103.063 -5.04964 103.314C-5.17908 103.555 -5.33009 103.827 -5.50266 104.129C-5.66662 104.44 -5.82194 104.725 -5.96863 104.983C-6.10669 105.234 -6.19299 105.393 -6.2275 105.462C-7.17669 105.514 -7.93206 105.284 -8.69141 104.784C-9.44213 104.283 -9.9685 103.584 -10.2705 102.687C-10.4431 101.971 -10.5035 101.237 -10.4517 100.486C-10.4517 100.305 -10.4517 100.124 -10.4517 99.9427C-10.4517 97.889 -10.4517 95.8353 -10.4517 93.7816C-10.771 95.5506 -11.293 97.2634 -12.0179 98.9202C-12.6668 100.333 -13.6936 101.778 -15.0311 103.02C-16.1184 103.996 -17.4084 104.707 -18.9012 105.156C-20.394 105.596 -21.8523 105.57 -23.2761 105.079C-24.2339 104.682 -24.9285 104.078 -25.36 103.266C-25.7828 102.447 -26.0361 101.516 -25.9844 100.558C-25.9326 99.6005 -25.6689 98.9849 -25.1943 98.1565C-24.6507 97.2591 -23.9819 96.5041 -23.1881 95.8914C-22.3856 95.2701 -21.5184 94.7438 -20.5864 94.3123C-19.6459 93.8722 -18.7053 93.4667 -17.7648 93.0956C-17.6698 93.0611 -17.5749 93.0266 -17.48 92.9921C-16.5567 92.6383 -15.6377 92.2284 -14.7231 91.7625C-13.8084 91.2965 -12.98 90.7313 -12.2379 90.0669C-11.4872 89.4024 -10.9047 88.5913 -10.4905 87.6335C-10.5768 86.6671 -10.8659 85.7783 -11.3578 84.9672C-11.8496 84.1474 -12.5874 83.6038 -13.5711 83.3363C-13.5711 83.3363 -13.6401 83.332 -13.7782 83.3233C-13.9162 83.3061 -14.0888 83.2888 -14.2959 83.2716C-14.4944 83.2457 -14.7015 83.2284 -14.9172 83.2198C-15.1243 83.2025 -15.3141 83.1982 -15.4867 83.2069C-16.1598 83.25 -16.8242 83.3708 -17.48 83.5693C-18.6535 83.9317 -19.7537 84.4537 -20.7806 85.1354C-21.9714 85.9034 -22.9059 86.8094 -23.8637 87.8535V84.7859C-22.578 84.087 -20.9747 83.4183 -19.4992 83.0904C-18.015 82.7625 -16.4979 82.6049 -15.0482 82.6653C-13.9178 82.6998 -12.8592 82.9005 -11.7719 83.2198C-10.6761 83.5391 -9.69669 84.0395 -8.83379 84.7212C-7.97089 85.4029 -7.25469 86.306 -6.81461 87.4192C-6.59026 88.0318 -6.46082 88.6617 -6.42631 89.3089C-6.38316 89.9474 -6.37022 90.5903 -6.38748 91.2375C-6.38748 91.4705 -6.38748 91.7034 -6.38748 91.9364C-6.38748 95.0256 -6.38748 98.1148 -6.38748 101.204ZM-12.1732 98.0142C-11.5864 96.5386 -11.155 95.0113 -10.8789 93.4322C-10.5941 91.8531 -10.4517 90.274 -10.4517 88.6949C-11.1248 89.7735 -11.9877 90.6623 -13.0404 91.3612C-14.0845 92.0515 -15.1847 92.6254 -16.341 93.0827C-17.411 93.7212 -18.3904 94.5151 -19.2791 95.4643C-20.1593 96.4135 -20.7806 97.4748 -21.143 98.6484C-21.5054 99.8219 -21.3691 100.824 -20.8686 102.127C-20.5062 102.964 -20.01 103.482 -19.3801 103.681C-18.7502 103.87 -18.0771 103.849 -17.3609 103.616C-16.6361 103.383 -15.9587 103.042 -15.3288 102.593C-13.9827 101.368 -12.9084 99.7631 -12.1732 98.0142Z" fill="#FF0000"/>
<path d="M15.8235 71.5319H19.81V105.462H15.8235V101.67C14.3824 103.223 12.8301 104.322 10.8454 104.926C8.86076 105.521 6.84158 105.573 4.78789 105.081C3.04484 104.633 1.49593 103.826 0.14119 102.661C-1.20493 101.487 -2.22746 100.072 -2.9264 98.4154C-3.59083 96.7673 -3.86696 95.063 -3.75478 93.3027C-3.63397 91.5424 -3.12919 89.89 -2.2404 88.3454C-1.3171 86.7922 -0.109047 85.5324 1.38376 84.5659C2.87657 83.5908 4.52039 82.9954 6.31521 82.7797C8.14455 82.5985 9.90054 82.8272 11.5832 83.4657C13.2745 84.1043 14.5809 85.0764 15.8235 86.4225V71.5319ZM8.51559 104.861C10.0343 104.723 11.4279 104.309 12.6963 103.619C13.9734 102.92 14.9088 101.989 15.8235 100.867V87.225C14.7362 85.9134 13.5894 84.9283 12.0621 84.2294C10.5348 83.5218 8.91684 83.1939 7.20831 83.2457C5.43937 84.169 4.00697 85.459 2.91109 87.1158C1.59949 89.1867 0.947998 91.413 0.956627 93.7946C0.965256 96.1762 1.57791 98.3766 2.79459 100.396C4.01128 102.415 5.76727 103.912 8.06258 104.887C8.2179 104.887 8.3689 104.878 8.51559 104.861Z" fill="#FF0000"/>
<path d="M44.6977 90.0022C45.6296 92.5563 45.6627 94.9824 44.8602 97.5021C44.0664 100.013 42.552 102.041 40.3171 103.586C38.203 104.94 35.925 105.566 33.483 105.462C31.0496 105.367 28.832 104.556 26.83 103.029C24.8626 101.433 23.551 99.4436 22.8952 97.062C22.2481 94.6804 22.3918 92.4096 23.2633 90.028C24.0917 87.9312 25.3947 86.227 27.1723 84.9154C28.9498 83.5952 30.969 82.8488 33.2298 82.6762C35.7667 82.5467 38.075 83.1465 40.1545 84.4753C42.2341 85.8042 43.7485 87.6465 44.6977 90.0022ZM37.8967 104.246C39.1651 103.711 40.0582 102.848 40.576 101.657C41.1023 100.466 41.3698 99.1718 41.3785 97.7739C41.3871 96.376 41.2533 95.0989 40.9772 93.9426C40.5371 92.027 39.8051 90.3042 38.7178 88.5525C37.6392 86.8008 36.2327 85.4245 34.4982 84.4235C33.6699 83.9576 32.8113 83.6901 31.9225 83.621C31.0337 83.552 30.1665 83.7505 29.3209 84.2164C28.6564 84.622 28.1215 85.1656 27.7159 85.8473C27.3103 86.5204 27.0213 87.228 26.8487 87.97C26.3913 89.8943 26.3468 91.7336 26.7783 93.7097C27.2097 95.6771 27.9302 97.4935 28.9398 99.1589C29.5266 100.151 30.2816 101.122 31.2049 102.071C32.1282 103.02 33.1637 103.732 34.3113 104.207C35.459 104.673 36.6541 104.686 37.8967 104.246Z" fill="#FF0000"/>
<path d="M64.3919 105.47L53.7006 92.785C52.9758 93.6479 52.4667 94.2778 52.1733 94.6747V105.495H48.1738V71.5319H52.1733V93.8334C52.4753 93.4451 52.8593 92.9705 53.3253 92.4096C54.2227 91.3655 55.1416 90.3775 56.0822 89.4456C57.7045 87.8492 59.2922 86.5247 60.8454 85.472C62.8042 84.1517 64.6594 83.3018 66.4111 82.9221C67.0841 82.784 67.7399 82.715 68.3785 82.715V86.8051C68.3785 86.8051 68.0808 86.7102 67.4854 86.5204C66.89 86.3305 66.1091 86.1925 65.1426 86.1062C64.1762 86.0113 63.1148 86.0889 61.9585 86.3392C60.8022 86.5808 59.6416 87.1158 58.4767 87.9442C57.7346 88.5827 57.0573 89.2083 56.4446 89.821C56.436 89.8296 56.4317 89.8339 56.4317 89.8339L69.621 105.47H64.3919Z" fill="#FF0000"/>
<path d="M299.996 26.8447C300.073 27.6041 299.996 28.3591 299.763 29.1098C299.538 29.8519 299.197 30.525 298.74 31.129C297.834 32.2853 296.708 33.0791 295.362 33.5106C294.016 33.9334 292.635 34.0499 291.22 33.8601C289.787 33.653 288.428 33.2258 287.143 32.5787C285.857 31.9228 284.64 31.1721 283.493 30.3265L285.201 27.7637C287.125 28.9717 289.153 29.9727 291.285 30.7666C292.32 31.1721 293.377 31.5043 294.456 31.7632C294.948 31.884 295.461 31.9574 295.996 31.9833C296.531 32.0005 297.036 31.9099 297.51 31.7114C297.856 31.4008 298.158 31.06 298.416 30.6889C298.606 29.9382 298.494 29.2392 298.08 28.5921C297.666 27.9449 297.122 27.3711 296.449 26.8706C295.785 26.3701 295.172 25.9602 294.611 25.641C293.308 24.873 291.992 24.2569 290.663 23.5234C289.395 22.8245 288.135 22.1126 286.884 21.3878C286.219 20.9994 285.68 20.5119 285.266 19.9251C284.86 19.3384 284.619 18.6567 284.541 17.8801C284.403 16.4908 284.658 15.1792 285.305 13.9453C286.168 12.556 287.389 11.6629 288.968 11.266C290.521 10.9381 292.044 11.0244 293.537 11.5249C295.03 12.0253 296.41 12.5854 297.679 13.4741C297.549 13.664 297.42 13.8538 297.29 14.0436C296.945 14.5528 296.596 15.0619 296.242 15.571C295.301 14.7598 294.279 14.2041 293.174 13.6346C292.501 13.2722 291.768 12.9831 290.974 12.7674C290.189 12.5431 289.404 12.4654 288.618 12.5344C287.842 12.6035 287.125 12.8969 286.47 13.4146C286.055 13.7511 285.749 14.1653 285.551 14.6572C285.352 15.1404 285.331 15.6452 285.486 16.1715C285.667 16.6807 285.961 17.1207 286.366 17.4918C286.772 17.8628 287.207 18.1691 287.673 18.4108V18.4237C288.976 19.0795 290.335 19.6231 291.751 20.0546C293.054 20.4515 294.318 20.9434 295.543 21.5301C296.639 22.0824 297.605 22.6812 298.442 23.5959C299.288 24.5106 299.806 25.5935 299.996 26.8447Z" fill="#FF0000"/>
<path d="M323.193 14.5117C325.126 16.4791 326.222 18.8391 326.481 21.5917C326.645 24.0251 326.123 26.2643 324.915 28.3094C323.715 30.3458 322.011 31.8775 319.802 32.9043C317.524 33.888 315.203 34.1296 312.839 33.6291C310.474 33.1287 308.446 31.9724 306.755 30.1603V45.0639H302.779V11.1334H306.755V14.9129C308.231 13.3338 309.952 12.2638 311.92 11.703C313.896 11.1334 315.88 11.0817 317.874 11.5476C319.875 12.0136 321.649 13.0016 323.193 14.5117ZM315.168 33.3703C315.289 33.3703 315.41 33.3703 315.531 33.3703C317.3 32.4383 318.732 31.144 319.828 29.4872C321.14 27.4163 321.791 25.19 321.782 22.8084C321.774 20.4268 321.161 18.2308 319.944 16.2202C318.728 14.201 316.972 12.6996 314.677 11.7159C311.467 11.923 308.826 13.2562 306.755 15.7154V29.3578C307.799 30.6263 309.055 31.6143 310.522 32.3219C311.997 33.0208 313.546 33.3703 315.168 33.3703Z" fill="#FF0000"/>
<path d="M347.623 29.6721C347.649 30.1639 347.645 30.591 347.939 30.9535C348.232 31.3072 348.663 31.4194 349.233 31.29C349.19 31.3676 349.099 31.5316 348.961 31.7818C348.832 32.0234 348.681 32.2953 348.508 32.5973C348.344 32.9079 348.189 33.1927 348.042 33.4515C347.904 33.7018 347.818 33.8614 347.783 33.9305C346.834 33.9822 346.079 33.7522 345.319 33.2517C344.569 32.7512 344.042 32.0523 343.74 31.1549C343.568 30.4387 343.507 29.7052 343.559 28.9545C343.559 28.7733 343.559 28.5921 343.559 28.4109C343.559 26.3572 343.559 24.3035 343.559 22.2498C343.24 24.0187 342.718 25.7316 341.993 27.3883C341.344 28.8007 340.317 30.2461 338.98 31.4886C337.892 32.4637 336.602 33.1756 335.11 33.6243C333.617 34.0644 332.158 34.0385 330.735 33.5466C329.777 33.1497 329.082 32.5457 328.651 31.7346C328.228 30.9148 327.975 29.9843 328.026 29.0264C328.078 28.0686 328.342 27.453 328.816 26.6247C329.36 25.7273 330.029 24.9722 330.823 24.3596C331.625 23.7383 332.492 23.2119 333.424 22.7805C334.365 22.3404 335.305 21.9348 336.246 21.5638C336.341 21.5293 336.436 21.4948 336.531 21.4602C337.454 21.1064 338.373 20.6966 339.288 20.2306C340.202 19.7646 341.031 19.1994 341.773 18.535C342.524 17.8706 343.106 17.0595 343.52 16.1017C343.434 15.1352 343.145 14.2464 342.653 13.4353C342.161 12.6156 341.423 12.0719 340.44 11.8044C340.44 11.8044 340.371 11.8001 340.233 11.7915C340.094 11.7742 339.922 11.757 339.715 11.7397C339.516 11.7138 339.309 11.6966 339.094 11.6879C338.886 11.6707 338.697 11.6664 338.524 11.675C337.851 11.7181 337.187 11.8389 336.531 12.0374C335.357 12.3998 334.257 12.9219 333.23 13.6036C332.039 14.3715 331.105 15.2776 330.147 16.3217V13.2541C331.433 12.5551 333.036 11.8864 334.512 11.5585C335.996 11.2306 337.513 11.073 338.963 11.1334C340.093 11.168 341.152 11.3687 342.239 11.6879C343.335 12.0072 344.314 12.5077 345.177 13.1894C346.04 13.8711 346.756 14.7742 347.196 15.8873C347.42 16.5 347.55 17.1299 347.584 17.777C347.628 18.4156 347.641 19.0584 347.623 19.7056C347.623 19.9386 347.623 20.1716 347.623 20.4046C347.623 23.4937 347.623 26.5829 347.623 29.6721ZM341.838 26.4823C342.424 25.0067 342.856 23.4794 343.132 21.9003C343.417 20.3212 343.559 18.7421 343.559 17.163C342.886 18.2416 342.023 19.1304 340.97 19.8294C339.926 20.5197 338.826 21.0935 337.67 21.5508C336.6 22.1894 335.62 22.9832 334.732 23.9324C333.851 24.8816 333.23 25.943 332.868 27.1165C332.505 28.2901 332.642 29.2926 333.142 30.5955C333.505 31.4326 334.001 31.9503 334.631 32.1488C335.261 32.3386 335.934 32.317 336.65 32.084C337.375 31.8511 338.052 31.5102 338.682 31.0615C340.028 29.8362 341.102 28.2312 341.838 26.4823Z" fill="#FF0000"/>
<path d="M369.834 0H373.821V33.9305H369.834V30.138C368.393 31.6912 366.841 32.7901 364.856 33.3941C362.871 33.9895 360.852 34.0413 358.799 33.5494C357.056 33.1007 355.507 32.2939 354.152 31.129C352.806 29.9554 351.783 28.5403 351.084 26.8835C350.42 25.2354 350.144 23.5312 350.256 21.7709C350.377 20.0106 350.882 18.3581 351.77 16.8135C352.694 15.2603 353.902 14.0005 355.395 13.0341C356.887 12.059 358.531 11.4636 360.326 11.2479C362.155 11.0667 363.911 11.2953 365.594 11.9339C367.285 12.5724 368.592 13.5445 369.834 14.8907V0ZM362.526 33.3294C364.045 33.1913 365.439 32.7771 366.707 32.0868C367.984 31.3879 368.92 30.4573 369.834 29.3355V15.6932C368.747 14.3816 367.6 13.3965 366.073 12.6975C364.546 11.99 362.928 11.6621 361.219 11.7138C359.45 12.6371 358.018 13.9272 356.922 15.5839C355.61 17.6549 354.959 19.8811 354.967 22.2627C354.976 24.6443 355.589 26.8447 356.805 28.8639C358.022 30.8831 359.778 32.3802 362.073 33.3553C362.229 33.3553 362.38 33.3466 362.526 33.3294Z" fill="#FF0000"/>
<path d="M398.708 18.4703C399.64 21.0245 399.673 23.4506 398.871 25.9702C398.077 28.4813 396.563 30.5091 394.328 32.0536C392.214 33.4084 389.936 34.034 387.494 33.9305C385.06 33.8355 382.843 33.0244 380.841 31.4971C378.873 29.9007 377.562 27.9118 376.906 25.5302C376.259 23.1486 376.403 20.8778 377.274 18.4962C378.102 16.3994 379.405 14.6951 381.183 13.3835C382.961 12.0633 384.98 11.3169 387.241 11.1443C389.777 11.0149 392.086 11.6146 394.165 12.9435C396.245 14.2723 397.759 16.1146 398.708 18.4703ZM391.907 32.7138C393.176 32.1788 394.069 31.3159 394.587 30.1251C395.113 28.9343 395.381 27.6399 395.389 26.242C395.398 24.8442 395.264 23.5671 394.988 22.4108C394.548 20.4952 393.816 18.7723 392.729 17.0206C391.65 15.269 390.243 13.8926 388.509 12.8917C387.681 12.4257 386.822 12.1582 385.933 12.0892C385.044 12.0202 384.177 12.2186 383.332 12.6846C382.667 13.0901 382.132 13.6338 381.727 14.3155C381.321 14.9885 381.032 15.6961 380.859 16.4382C380.402 18.3624 380.358 20.2018 380.789 22.1778C381.22 24.1452 381.941 25.9616 382.951 27.627C383.537 28.6193 384.292 29.5901 385.216 30.5393C386.139 31.4885 387.174 32.2003 388.322 32.6749C389.47 33.1409 390.665 33.1538 391.907 32.7138Z" fill="#FF0000"/>
<path d="M418.403 33.9377L407.711 21.2531C406.987 22.116 406.477 22.746 406.184 23.1429V33.9636H402.185V0H406.184V22.3016C406.486 21.9133 406.87 21.4387 407.336 20.8778C408.233 19.8337 409.152 18.8457 410.093 17.9137C411.715 16.3174 413.303 14.9928 414.856 13.9401C416.815 12.6199 418.67 11.7699 420.422 11.3902C421.095 11.2522 421.751 11.1831 422.389 11.1831V15.2733C422.389 15.2733 422.092 15.1784 421.496 14.9885C420.901 14.7987 420.12 14.6606 419.153 14.5743C418.187 14.4794 417.126 14.5571 415.969 14.8073C414.813 15.0489 413.652 15.5839 412.487 16.4123C411.745 17.0508 411.068 17.6764 410.455 18.2891C410.447 18.2977 410.442 18.302 410.442 18.302L423.632 33.9377H418.403Z" fill="#FF0000"/>
<circle cx="338.895" cy="5.83196" r="2.12065" fill="#FF0000"/>
<path d="M247.242 62.9015C247.319 63.6608 247.242 64.4159 247.009 65.1666C246.784 65.9087 246.443 66.5817 245.986 67.1857C245.08 68.342 243.954 69.1359 242.608 69.5673C241.262 69.9902 239.881 70.1067 238.466 69.9168C237.034 69.7097 235.675 69.2826 234.389 68.6354C233.103 67.9796 231.886 67.2289 230.739 66.3833L232.447 63.8205C234.372 65.0285 236.399 66.0295 238.531 66.8233C239.566 67.2289 240.623 67.5611 241.702 67.82C242.194 67.9408 242.707 68.0141 243.242 68.04C243.777 68.0573 244.282 67.9667 244.757 67.7682C245.102 67.4576 245.404 67.1167 245.663 66.7457C245.852 65.995 245.74 65.296 245.326 64.6488C244.912 64.0017 244.368 63.4278 243.695 62.9274C243.031 62.4269 242.418 62.017 241.857 61.6977C240.554 60.9298 239.238 60.3136 237.909 59.5802C236.641 58.8812 235.381 58.1693 234.13 57.4445C233.466 57.0562 232.926 56.5687 232.512 55.9819C232.106 55.3951 231.865 54.7134 231.787 53.9368C231.649 52.5476 231.904 51.236 232.551 50.002C233.414 48.6128 234.635 47.7197 236.214 47.3227C237.767 46.9948 239.29 47.0811 240.783 47.5816C242.276 48.0821 243.656 48.6421 244.925 49.5309C244.795 49.7207 244.666 49.9106 244.536 50.1004C244.191 50.6095 243.842 51.1186 243.488 51.6277C242.547 50.8166 241.525 50.2609 240.42 49.6914C239.747 49.329 239.014 49.0399 238.22 48.8242C237.435 48.5998 236.65 48.5222 235.864 48.5912C235.088 48.6602 234.372 48.9536 233.716 49.4714C233.302 49.8079 232.995 50.2221 232.797 50.7139C232.598 51.1971 232.577 51.7019 232.732 52.2283C232.913 52.7374 233.207 53.1775 233.612 53.5485C234.018 53.9196 234.454 54.2259 234.919 54.4675V54.4805C236.222 55.1363 237.582 55.6799 238.997 56.1113C240.3 56.5083 241.564 57.0001 242.789 57.5869C243.885 58.1391 244.851 58.738 245.688 59.6527C246.534 60.5673 247.052 61.6503 247.242 62.9015Z" fill="#FF0000"/>
<path d="M270.439 50.5684C272.372 52.5358 273.468 54.8959 273.727 57.6485C273.891 60.0819 273.369 62.3211 272.161 64.3661C270.961 66.4026 269.257 67.9342 267.048 68.9611C264.77 69.9448 262.449 70.1864 260.085 69.6859C257.72 69.1854 255.693 68.0291 254.001 66.2171V81.1206H250.025V47.1902H254.001V50.9697C255.477 49.3906 257.198 48.3206 259.166 47.7597C261.142 47.1902 263.126 47.1384 265.12 47.6044C267.122 48.0704 268.895 49.0584 270.439 50.5684ZM262.414 69.427C262.535 69.427 262.656 69.427 262.777 69.427C264.546 68.4951 265.978 67.2008 267.074 65.544C268.386 63.4731 269.037 61.2468 269.029 58.8652C269.02 56.4836 268.407 54.2875 267.191 52.277C265.974 50.2578 264.218 48.7564 261.923 47.7727C258.713 47.9798 256.072 49.3129 254.001 51.7722V65.4146C255.045 66.683 256.301 67.671 257.768 68.3786C259.243 69.0776 260.792 69.427 262.414 69.427Z" fill="#FF0000"/>
<path d="M294.869 65.7288C294.895 66.2207 294.891 66.6478 295.185 67.0102C295.478 67.364 295.909 67.4762 296.479 67.3468C296.436 67.4244 296.345 67.5884 296.207 67.8386C296.078 68.0802 295.927 68.352 295.754 68.654C295.59 68.9647 295.435 69.2494 295.288 69.5083C295.15 69.7585 295.064 69.9182 295.029 69.9872C294.08 70.039 293.325 69.809 292.565 69.3085C291.815 68.808 291.288 68.109 290.986 67.2116C290.814 66.4954 290.753 65.762 290.805 65.0112C290.805 64.83 290.805 64.6488 290.805 64.4676C290.805 62.4139 290.805 60.3602 290.805 58.3065C290.486 60.0755 289.964 61.7883 289.239 63.4451C288.59 64.8575 287.563 66.3028 286.226 67.5454C285.138 68.5205 283.848 69.2324 282.356 69.6811C280.863 70.1211 279.405 70.0953 277.981 69.6034C277.023 69.2065 276.328 68.6024 275.897 67.7913C275.474 66.9716 275.221 66.041 275.272 65.0832C275.324 64.1254 275.588 63.5098 276.063 62.6814C276.606 61.784 277.275 61.029 278.069 60.4163C278.871 59.795 279.738 59.2687 280.67 58.8372C281.611 58.3972 282.552 57.9916 283.492 57.6205C283.587 57.586 283.682 57.5515 283.777 57.517C284.7 57.1632 285.619 56.7533 286.534 56.2874C287.448 55.8214 288.277 55.2562 289.019 54.5918C289.77 53.9274 290.352 53.1162 290.766 52.1584C290.68 51.192 290.391 50.3032 289.899 49.4921C289.407 48.6723 288.669 48.1287 287.686 47.8612C287.686 47.8612 287.617 47.8569 287.479 47.8482C287.341 47.831 287.168 47.8137 286.961 47.7965C286.762 47.7706 286.555 47.7533 286.34 47.7447C286.133 47.7274 285.943 47.7231 285.77 47.7318C285.097 47.7749 284.433 47.8957 283.777 48.0942C282.603 48.4566 281.503 48.9786 280.476 49.6603C279.285 50.4283 278.351 51.3343 277.393 52.3784V49.3108C278.679 48.6119 280.282 47.9432 281.758 47.6153C283.242 47.2874 284.759 47.1298 286.209 47.1902C287.339 47.2247 288.398 47.4254 289.485 47.7447C290.581 48.064 291.56 48.5645 292.423 49.2461C293.286 49.9278 294.002 50.8309 294.442 51.9441C294.667 52.5567 294.796 53.1866 294.831 53.8338C294.874 54.4723 294.887 55.1152 294.869 55.7624C294.869 55.9954 294.869 56.2283 294.869 56.4613C294.869 59.5505 294.869 62.6397 294.869 65.7288ZM289.084 62.5391C289.67 61.0635 290.102 59.5362 290.378 57.9571C290.663 56.378 290.805 54.7989 290.805 53.2198C290.132 54.2984 289.269 55.1872 288.216 55.8861C287.172 56.5764 286.072 57.1503 284.916 57.6076C283.846 58.2461 282.866 59.04 281.978 59.9892C281.098 60.9384 280.476 61.9997 280.114 63.1733C279.751 64.3468 279.888 65.3493 280.388 66.6523C280.751 67.4893 281.247 68.007 281.877 68.2055C282.507 68.3954 283.18 68.3738 283.896 68.1408C284.621 67.9078 285.298 67.567 285.928 67.1183C287.274 65.893 288.348 64.288 289.084 62.5391Z" fill="#FF0000"/>
<path d="M317.08 36.0568H321.067V69.9872H317.08V66.1948C315.639 67.748 314.087 68.8468 312.102 69.4508C310.118 70.0462 308.098 70.098 306.045 69.6062C304.302 69.1575 302.753 68.3507 301.398 67.1857C300.052 66.0122 299.029 64.5971 298.33 62.9403C297.666 61.2922 297.39 59.5879 297.502 57.8276C297.623 56.0673 298.128 54.4149 299.016 52.8703C299.94 51.3171 301.148 50.0573 302.641 49.0908C304.133 48.1157 305.777 47.5203 307.572 47.3046C309.401 47.1234 311.157 47.3521 312.84 47.9906C314.531 48.6292 315.838 49.6013 317.08 50.9474V36.0568ZM309.772 69.3861C311.291 69.2481 312.685 68.8339 313.953 68.1436C315.23 67.4446 316.166 66.5141 317.08 65.3923V51.7499C315.993 50.4383 314.846 49.4532 313.319 48.7543C311.792 48.0467 310.174 47.7188 308.465 47.7706C306.696 48.6939 305.264 49.9839 304.168 51.6407C302.856 53.7116 302.205 55.9379 302.213 58.3195C302.222 60.7011 302.835 62.9015 304.051 64.9206C305.268 66.9398 307.024 68.4369 309.319 69.412C309.475 69.412 309.626 69.4034 309.772 69.3861Z" fill="#FF0000"/>
<path d="M345.955 54.5271C346.886 57.0812 346.92 59.5073 346.117 62.027C345.323 64.538 343.809 66.5658 341.574 68.1104C339.46 69.4652 337.182 70.0908 334.74 69.9872C332.306 69.8923 330.089 69.0812 328.087 67.5538C326.119 65.9575 324.808 63.9685 324.152 61.5869C323.505 59.2053 323.649 56.9345 324.52 54.5529C325.349 52.4561 326.652 50.7519 328.429 49.4403C330.207 48.1201 332.226 47.3737 334.487 47.2011C337.024 47.0716 339.332 47.6714 341.411 49.0002C343.491 50.3291 345.005 52.1714 345.955 54.5271ZM339.154 68.7705C340.422 68.2355 341.315 67.3726 341.833 66.1818C342.359 64.991 342.627 63.6967 342.635 62.2988C342.644 60.9009 342.51 59.6238 342.234 58.4676C341.794 56.5519 341.062 54.8291 339.975 53.0774C338.896 51.3257 337.49 49.9494 335.755 48.9484C334.927 48.4825 334.068 48.215 333.179 48.1459C332.291 48.0769 331.423 48.2754 330.578 48.7413C329.913 49.1469 329.378 49.6905 328.973 50.3722C328.567 51.0453 328.278 51.7529 328.106 52.4949C327.648 54.4192 327.604 56.2585 328.035 58.2346C328.467 60.202 329.187 62.0184 330.197 63.6838C330.783 64.6761 331.538 65.6468 332.462 66.596C333.385 67.5452 334.421 68.2571 335.568 68.7317C336.716 69.1977 337.911 69.2106 339.154 68.7705Z" fill="#FF0000"/>
<path d="M365.649 69.9945L354.957 57.3099C354.233 58.1728 353.724 58.8027 353.43 59.1996V70.0204H349.431V36.0568H353.43V58.3583C353.732 57.97 354.116 57.4954 354.582 56.9345C355.479 55.8904 356.398 54.9024 357.339 53.9705C358.961 52.3741 360.549 51.0496 362.102 49.9969C364.061 48.6766 365.916 47.8267 367.668 47.447C368.341 47.3089 368.997 47.2399 369.635 47.2399V51.33C369.635 51.33 369.338 51.2351 368.742 51.0453C368.147 50.8554 367.366 50.7174 366.399 50.6311C365.433 50.5362 364.372 50.6138 363.215 50.8641C362.059 51.1057 360.898 51.6407 359.734 52.4691C358.991 53.1076 358.314 53.7332 357.701 54.3459C357.693 54.3545 357.689 54.3588 357.689 54.3588L370.878 69.9945H365.649Z" fill="#FF0000"/>
<circle cx="285.752" cy="41.8885" r="2.12065" fill="#FF0000"/>
<path d="M230.172 98.3766C230.249 99.1359 230.172 99.8909 229.939 100.642C229.714 101.384 229.374 102.057 228.916 102.661C228.01 103.817 226.884 104.611 225.538 105.042C224.192 105.465 222.811 105.582 221.396 105.392C219.964 105.185 218.605 104.758 217.319 104.111C216.033 103.455 214.817 102.704 213.669 101.858L215.377 99.2956C217.302 100.504 219.33 101.505 221.461 102.298C222.496 102.704 223.553 103.036 224.632 103.295C225.124 103.416 225.637 103.489 226.172 103.515C226.707 103.532 227.212 103.442 227.687 103.243C228.032 102.933 228.334 102.592 228.593 102.221C228.783 101.47 228.67 100.771 228.256 100.124C227.842 99.4768 227.298 98.9029 226.625 98.4025C225.961 97.902 225.348 97.4921 224.787 97.1728C223.484 96.4048 222.168 95.7887 220.84 95.0553C219.571 94.3563 218.311 93.6444 217.06 92.9196C216.396 92.5313 215.856 92.0438 215.442 91.457C215.037 90.8702 214.795 90.1885 214.717 89.4119C214.579 88.0227 214.834 86.7111 215.481 85.4771C216.344 84.0879 217.565 83.1948 219.144 82.7978C220.697 82.4699 222.22 82.5562 223.713 83.0567C225.206 83.5572 226.586 84.1172 227.855 85.006C227.726 85.1958 227.596 85.3857 227.467 85.5755C227.121 86.0846 226.772 86.5937 226.418 87.1028C225.478 86.2917 224.455 85.736 223.351 85.1665C222.678 84.8041 221.944 84.515 221.15 84.2993C220.365 84.0749 219.58 83.9973 218.795 84.0663C218.018 84.1353 217.302 84.4287 216.646 84.9465C216.232 85.283 215.925 85.6972 215.727 86.189C215.528 86.6722 215.507 87.177 215.662 87.7034C215.843 88.2125 216.137 88.6526 216.542 89.0236C216.948 89.3947 217.384 89.701 217.85 89.9426V89.9556C219.153 90.6114 220.512 91.155 221.927 91.5864C223.23 91.9834 224.494 92.4752 225.719 93.062C226.815 93.6142 227.782 94.2131 228.619 95.1278C229.464 96.0424 229.982 97.1254 230.172 98.3766Z" fill="#FF0000"/>
<path d="M253.37 86.0435C255.302 88.0109 256.398 90.371 256.657 93.1236C256.821 95.557 256.299 97.7962 255.091 99.8412C253.892 101.878 252.187 103.409 249.978 104.436C247.7 105.42 245.379 105.661 243.015 105.161C240.65 104.661 238.623 103.504 236.931 101.692V116.596H232.955V82.6653H236.931V86.4448C238.407 84.8657 240.128 83.7957 242.096 83.2348C244.072 82.6653 246.057 82.6135 248.05 83.0795C250.052 83.5455 251.825 84.5335 253.37 86.0435ZM245.345 104.902C245.465 104.902 245.586 104.902 245.707 104.902C247.476 103.97 248.908 102.676 250.004 101.019C251.316 98.9481 251.967 96.7219 251.959 94.3403C251.95 91.9587 251.337 89.7626 250.121 87.7521C248.904 85.7329 247.148 84.2315 244.853 83.2478C241.643 83.4549 239.002 84.788 236.931 87.2473V100.89C237.976 102.158 239.231 103.146 240.698 103.854C242.174 104.553 243.722 104.902 245.345 104.902Z" fill="#FF0000"/>
<path d="M277.8 101.204C277.825 101.696 277.821 102.123 278.115 102.485C278.408 102.839 278.84 102.951 279.409 102.822C279.366 102.9 279.275 103.063 279.137 103.314C279.008 103.555 278.857 103.827 278.684 104.129C278.52 104.44 278.365 104.725 278.218 104.983C278.08 105.234 277.994 105.393 277.96 105.462C277.01 105.514 276.255 105.284 275.496 104.784C274.745 104.283 274.219 103.584 273.917 102.687C273.744 101.971 273.684 101.237 273.735 100.486C273.735 100.305 273.735 100.124 273.735 99.9427C273.735 97.889 273.735 95.8353 273.735 93.7816C273.416 95.5506 272.894 97.2634 272.169 98.9202C271.52 100.333 270.493 101.778 269.156 103.02C268.069 103.996 266.779 104.707 265.286 105.156C263.793 105.596 262.335 105.57 260.911 105.079C259.953 104.682 259.258 104.078 258.827 103.266C258.404 102.447 258.151 101.516 258.203 100.558C258.254 99.6005 258.518 98.9849 258.993 98.1565C259.536 97.2591 260.205 96.5041 260.999 95.8914C261.801 95.2701 262.669 94.7438 263.601 94.3123C264.541 93.8722 265.482 93.4667 266.422 93.0956C266.517 93.0611 266.612 93.0266 266.707 92.9921C267.63 92.6383 268.549 92.2284 269.464 91.7625C270.379 91.2965 271.207 90.7313 271.949 90.0669C272.7 89.4024 273.282 88.5913 273.696 87.6335C273.61 86.6671 273.321 85.7783 272.829 84.9672C272.337 84.1474 271.6 83.6038 270.616 83.3363C270.616 83.3363 270.547 83.332 270.409 83.3233C270.271 83.3061 270.098 83.2888 269.891 83.2716C269.693 83.2457 269.486 83.2284 269.27 83.2198C269.063 83.2025 268.873 83.1982 268.7 83.2069C268.027 83.25 267.363 83.3708 266.707 83.5693C265.533 83.9317 264.433 84.4537 263.406 85.1354C262.216 85.9034 261.281 86.8094 260.323 87.8535V84.7859C261.609 84.087 263.212 83.4183 264.688 83.0904C266.172 82.7625 267.689 82.6049 269.139 82.6653C270.269 82.6998 271.328 82.9005 272.415 83.2198C273.511 83.5391 274.49 84.0395 275.353 84.7212C276.216 85.4029 276.932 86.306 277.372 87.4192C277.597 88.0318 277.726 88.6617 277.761 89.3089C277.804 89.9474 277.817 90.5903 277.8 91.2375C277.8 91.4705 277.8 91.7034 277.8 91.9364C277.8 95.0256 277.8 98.1148 277.8 101.204ZM272.014 98.0142C272.601 96.5386 273.032 95.0113 273.308 93.4322C273.593 91.8531 273.735 90.274 273.735 88.6949C273.062 89.7735 272.199 90.6623 271.147 91.3612C270.103 92.0515 269.002 92.6254 267.846 93.0827C266.776 93.7212 265.797 94.5151 264.908 95.4643C264.028 96.4135 263.406 97.4748 263.044 98.6484C262.682 99.8219 262.818 100.824 263.318 102.127C263.681 102.964 264.177 103.482 264.807 103.681C265.437 103.87 266.11 103.849 266.826 103.616C267.551 103.383 268.228 103.042 268.858 102.593C270.204 101.368 271.279 99.7631 272.014 98.0142Z" fill="#FF0000"/>
<path d="M300.01 71.5319H303.997V105.462H300.01V101.67C298.569 103.223 297.017 104.322 295.032 104.926C293.048 105.521 291.029 105.573 288.975 105.081C287.232 104.633 285.683 103.826 284.328 102.661C282.982 101.487 281.96 100.072 281.261 98.4154C280.596 96.7673 280.32 95.063 280.432 93.3027C280.553 91.5424 281.058 89.89 281.947 88.3454C282.87 86.7922 284.078 85.5324 285.571 84.5659C287.064 83.5908 288.707 82.9954 290.502 82.7797C292.332 82.5985 294.088 82.8272 295.77 83.4657C297.461 84.1043 298.768 85.0764 300.01 86.4225V71.5319ZM292.703 104.861C294.221 104.723 295.615 104.309 296.883 103.619C298.16 102.92 299.096 101.989 300.01 100.867V87.225C298.923 85.9134 297.776 84.9283 296.249 84.2294C294.722 83.5218 293.104 83.1939 291.395 83.2457C289.626 84.169 288.194 85.459 287.098 87.1158C285.786 89.1867 285.135 91.413 285.144 93.7946C285.152 96.1762 285.765 98.3766 286.982 100.396C288.198 102.415 289.954 103.912 292.25 104.887C292.405 104.887 292.556 104.878 292.703 104.861Z" fill="#FF0000"/>
<path d="M328.885 90.0022C329.817 92.5563 329.85 94.9824 329.047 97.5021C328.253 100.013 326.739 102.041 324.504 103.586C322.39 104.94 320.112 105.566 317.67 105.462C315.237 105.367 313.019 104.556 311.017 103.029C309.05 101.433 307.738 99.4436 307.082 97.062C306.435 94.6804 306.579 92.4096 307.45 90.028C308.279 87.9312 309.582 86.227 311.359 84.9154C313.137 83.5952 315.156 82.8488 317.417 82.6762C319.954 82.5467 322.262 83.1465 324.342 84.4753C326.421 85.8042 327.936 87.6465 328.885 90.0022ZM322.084 104.246C323.352 103.711 324.245 102.848 324.763 101.657C325.289 100.466 325.557 99.1718 325.565 97.7739C325.574 96.376 325.44 95.0989 325.164 93.9426C324.724 92.027 323.992 90.3042 322.905 88.5525C321.826 86.8008 320.42 85.4245 318.685 84.4235C317.857 83.9576 316.998 83.6901 316.11 83.621C315.221 83.552 314.354 83.7505 313.508 84.2164C312.843 84.622 312.308 85.1656 311.903 85.8473C311.497 86.5204 311.208 87.228 311.036 87.97C310.578 89.8943 310.534 91.7336 310.965 93.7097C311.397 95.6771 312.117 97.4935 313.127 99.1589C313.714 100.151 314.469 101.122 315.392 102.071C316.315 103.02 317.351 103.732 318.498 104.207C319.646 104.673 320.841 104.686 322.084 104.246Z" fill="#FF0000"/>
<path d="M348.579 105.47L337.888 92.785C337.163 93.6479 336.654 94.2778 336.36 94.6747V105.495H332.361V71.5319H336.36V93.8334C336.662 93.4451 337.046 92.9705 337.512 92.4096C338.41 91.3655 339.329 90.3775 340.269 89.4456C341.891 87.8492 343.479 86.5247 345.032 85.472C346.991 84.1517 348.846 83.3018 350.598 82.9221C351.271 82.784 351.927 82.715 352.565 82.715V86.8051C352.565 86.8051 352.268 86.7102 351.672 86.5204C351.077 86.3305 350.296 86.1925 349.33 86.1062C348.363 86.0113 347.302 86.0889 346.146 86.3392C344.989 86.5808 343.829 87.1158 342.664 87.9442C341.922 88.5827 341.244 89.2083 340.632 89.821C340.623 89.8296 340.619 89.8339 340.619 89.8339L353.808 105.47H348.579Z" fill="#FF0000"/>
<circle cx="269.071" cy="77.3638" r="2.12065" fill="#FF0000"/>
</svg>
