<svg width="240" height="78" viewBox="0 0 240 78" fill="none" xmlns="http://www.w3.org/2000/svg">
<path d="M28.2626 45.9738C28.3956 47.2743 28.2626 48.5673 27.8636 49.853C27.4793 51.1239 26.8956 52.2765 26.1124 53.311C24.5607 55.2912 22.6322 56.6508 20.3269 57.3897C18.0215 58.1138 15.6571 58.3133 13.2335 57.9882C10.7804 57.6335 8.45291 56.902 6.25101 55.7937C4.04912 54.6706 1.96545 53.3849 0 51.9367L2.92601 47.5476C6.22146 49.6165 9.69425 51.3308 13.3444 52.6903C15.1177 53.3849 16.928 53.9538 18.7752 54.3972C19.6175 54.6041 20.4968 54.7297 21.4131 54.774C22.3293 54.8036 23.1938 54.6484 24.0066 54.3085C24.5977 53.7765 25.1149 53.1928 25.5582 52.5573C25.8833 51.2717 25.6912 50.0747 24.9819 48.9663C24.2726 47.858 23.3416 46.8753 22.1889 46.0181C21.051 45.161 20.0018 44.4591 19.0412 43.9123C16.8098 42.5971 14.5561 41.5419 12.2804 40.2858C10.108 39.0888 7.95046 37.8697 5.80768 36.6283C4.66979 35.9633 3.74618 35.1284 3.03684 34.1235C2.34228 33.1186 1.9285 31.9511 1.7955 30.6211C1.55906 28.2419 1.99501 25.9957 3.10334 23.8824C4.58112 21.5032 6.67218 19.9737 9.37652 19.2939C12.0365 18.7324 14.6448 18.8802 17.2014 19.7373C19.7579 20.5944 22.1224 21.5535 24.2947 23.0756C24.0731 23.4007 23.8514 23.7258 23.6297 24.0509C23.0386 24.9228 22.4401 25.7947 21.8342 26.6666C20.2234 25.2775 18.4723 24.3258 16.5807 23.3504C15.428 22.7298 14.1719 22.2347 12.8124 21.8653C11.4676 21.4811 10.1228 21.3481 8.77802 21.4663C7.44802 21.5845 6.22146 22.0869 5.09835 22.9736C4.38901 23.5499 3.8644 24.2593 3.52451 25.1016C3.18462 25.9292 3.14767 26.7937 3.41368 27.6951C3.72401 28.567 4.22645 29.3207 4.92101 29.9561C5.61557 30.5916 6.36185 31.1162 7.15985 31.53V31.5521C9.3913 32.6753 11.7188 33.6063 14.1424 34.3451C16.3738 35.0249 18.5388 35.8673 20.6372 36.8722C22.514 37.8179 24.1691 38.8435 25.6026 40.41C27.0508 41.9764 27.9375 43.831 28.2626 45.9738Z" fill="#FF0000"/>
<path d="M67.9907 24.8525C71.3009 28.2218 73.1777 32.2635 73.621 36.9777C73.9018 41.145 73.0077 44.9799 70.9388 48.4822C68.8847 51.9698 65.9661 54.5928 62.183 56.3514C58.2816 58.0361 54.3064 58.4498 50.2573 57.5927C46.2082 56.7356 42.7354 54.7554 39.8389 51.652V77.1757H33.0293V19.067H39.8389V25.5396C42.3659 22.8353 45.3141 21.0028 48.6834 20.0423C52.0676 19.067 55.4665 18.9783 58.8801 19.7763C62.3086 20.5743 65.3454 22.2663 67.9907 24.8525ZM54.2473 57.1494C54.4542 57.1494 54.6611 57.1494 54.868 57.1494C57.8974 55.5534 60.3505 53.3367 62.2273 50.4994C64.4735 46.9527 65.5893 43.14 65.5745 39.0613C65.5597 34.9827 64.5105 31.2217 62.4268 27.7785C60.3431 24.3205 57.3359 21.7491 53.405 20.0645C47.9076 20.4191 43.3856 22.7023 39.8389 26.914V50.2777C41.627 52.45 43.7772 54.1421 46.2894 55.3539C48.8164 56.5509 51.4691 57.1494 54.2473 57.1494Z" fill="#FF0000"/>
<path d="M109.829 50.8159C109.873 51.6582 109.867 52.3897 110.369 53.0104C110.871 53.6163 111.61 53.8084 112.586 53.5867C112.512 53.7197 112.357 54.0005 112.12 54.4291C111.899 54.8428 111.64 55.3083 111.344 55.8256C111.064 56.3576 110.798 56.8452 110.546 57.2886C110.31 57.7171 110.162 57.9905 110.103 58.1087C108.477 58.1974 107.184 57.8034 105.883 56.9463C104.598 56.0892 103.696 54.8922 103.179 53.3553C102.883 52.1288 102.78 50.8727 102.869 49.587C102.869 49.2766 102.869 48.9663 102.869 48.656C102.869 45.1389 102.869 41.6217 102.869 38.1046C102.322 41.1341 101.428 44.0675 100.186 46.9048C99.0752 49.3236 97.3166 51.7989 95.0261 53.9269C93.1641 55.5968 90.9548 56.816 88.3982 57.5844C85.8417 58.3381 83.3442 58.2938 80.9059 57.4514C79.2655 56.7717 78.0759 55.7372 77.337 54.3481C76.6129 52.9442 76.179 51.3505 76.2677 49.7102C76.3564 48.0699 76.808 47.0156 77.6208 45.597C78.5518 44.0601 79.6971 42.767 81.0566 41.7178C82.4309 40.6538 83.9161 39.7523 85.5121 39.0135C87.1229 38.2598 88.7337 37.5652 90.3445 36.9298C90.507 36.8707 90.6696 36.8116 90.8321 36.7524C92.4134 36.1466 93.9872 35.4446 95.5536 34.6466C97.1201 33.8486 98.5388 32.8807 99.8097 31.7428C101.095 30.6049 102.093 29.2158 102.802 27.5754C102.654 25.9203 102.159 24.3982 101.317 23.0091C100.475 21.6052 99.2112 20.6742 97.5265 20.2161C97.5265 20.2161 97.4083 20.2087 97.1718 20.1939C96.9354 20.1644 96.6398 20.1348 96.2852 20.1052C95.9453 20.0609 95.5906 20.0314 95.2211 20.0166C94.8665 19.987 94.5414 19.9796 94.2458 19.9944C93.0931 20.0683 91.9553 20.2752 90.8321 20.6151C88.8224 21.2357 86.9382 22.1298 85.1796 23.2972C83.1403 24.6125 81.5398 26.1641 79.8995 27.9522V22.6987C82.1014 21.5017 84.8471 20.3565 87.3741 19.7949C89.9159 19.2334 92.5141 18.9635 94.9968 19.067C96.9327 19.1261 98.7457 19.4698 100.608 20.0166C102.484 20.5634 104.162 21.4205 105.64 22.5879C107.117 23.7554 108.344 25.302 109.098 27.2083C109.482 28.2575 109.703 29.3363 109.763 30.4447C109.836 31.5382 109.859 32.6392 109.829 33.7475C109.829 34.1465 109.829 34.5455 109.829 34.9445C109.829 40.235 109.829 45.5254 109.829 50.8159ZM99.9205 45.3531C100.925 42.8261 101.664 40.2105 102.137 37.5061C102.625 34.8018 102.869 32.0974 102.869 29.3931C101.716 31.2403 100.238 32.7624 98.4353 33.9594C96.6472 35.1417 94.763 36.1244 92.7828 36.9076C90.9504 38.0012 89.2731 39.3607 87.751 40.9863C86.2436 42.6119 85.1796 44.4295 84.559 46.4393C83.9383 48.4491 84.1718 50.166 85.0289 52.3974C85.6496 53.8309 86.4993 54.7175 87.5781 55.0574C88.6568 55.3825 89.8095 55.3456 91.0361 54.9466C92.2774 54.5476 93.4375 53.9639 94.5162 53.1954C96.8216 51.097 98.6614 48.3483 99.9205 45.3531Z" fill="#FF0000"/>
<path d="M147.867 0H154.694V58.1088H147.867V51.6139C145.399 54.2739 142.741 56.1557 139.342 57.1902C135.943 58.2098 132.485 58.2985 128.968 57.4562C125.983 56.6877 123.33 55.306 121.01 53.311C118.705 51.3012 116.953 48.8776 115.756 46.0403C114.619 43.2177 114.146 40.2991 114.338 37.2845C114.545 34.2698 115.409 31.4398 116.931 28.7946C118.512 26.1346 120.581 23.977 123.138 22.3219C125.694 20.652 128.51 19.6324 131.583 19.2629C134.716 18.9526 137.724 19.3442 140.605 20.4377C143.502 21.5313 145.739 23.1962 147.867 25.5015V0ZM135.352 57.0793C137.953 56.8429 140.339 56.1336 142.512 54.9513C144.699 53.7543 146.301 52.1607 147.867 50.2396V26.8758C146.005 24.6296 144.041 22.9426 141.425 21.7456C138.81 20.5338 136.039 19.9722 133.113 20.0609C130.083 21.6421 127.63 23.8514 125.754 26.6888C123.507 30.2354 122.392 34.0481 122.406 38.1268C122.421 42.2055 123.47 45.9738 125.554 49.4318C127.638 52.8898 130.645 55.4538 134.576 57.1237C134.842 57.1237 135.101 57.1089 135.352 57.0793Z" fill="#FF0000"/>
<path d="M197.317 31.6319C198.913 36.0062 198.969 40.1611 197.595 44.4762C196.235 48.7765 193.642 52.2493 189.815 54.8946C186.194 57.2147 182.293 58.2861 178.111 58.1087C173.943 57.9462 170.145 56.5571 166.717 53.9414C163.347 51.2075 161.101 47.8012 159.978 43.7225C158.87 39.6439 159.116 35.7549 160.609 31.6763C162.027 28.0853 164.259 25.1666 167.303 22.9204C170.347 20.6594 173.805 19.3811 177.677 19.0856C182.022 18.8639 185.975 19.891 189.536 22.1667C193.098 24.4425 195.691 27.5976 197.317 31.6319ZM185.669 56.0251C187.842 55.1088 189.371 53.6311 190.258 51.5917C191.159 49.5524 191.617 47.3357 191.632 44.9417C191.647 42.5477 191.418 40.3606 190.945 38.3804C190.191 35.0997 188.938 32.1492 187.076 29.1493C185.228 26.1494 182.82 23.7923 179.849 22.0781C178.431 21.2801 176.96 20.822 175.438 20.7037C173.916 20.5855 172.431 20.9254 170.983 21.7234C169.845 22.418 168.928 23.349 168.234 24.5164C167.539 25.6691 167.044 26.8809 166.749 28.1518C165.966 31.4472 165.889 34.5972 166.628 37.9814C167.367 41.3507 168.601 44.4614 170.33 47.3135C171.335 49.013 172.628 50.6755 174.209 52.3011C175.79 53.9266 177.564 55.1458 179.529 55.9586C181.495 56.7566 183.541 56.7787 185.669 56.0251Z" fill="#FF0000"/>
<path d="M231.045 58.1212L212.735 36.3978C211.494 37.8756 210.622 38.9543 210.119 39.6341V58.1655H203.27V0H210.119V38.1933C210.636 37.5283 211.294 36.7155 212.092 35.7549C213.629 33.9668 215.203 32.2748 216.814 30.6788C219.592 27.9449 222.311 25.6765 224.971 23.8736C228.326 21.6126 231.503 20.157 234.503 19.5067C235.655 19.2703 236.778 19.1521 237.872 19.1521V26.1568C237.872 26.1568 237.362 25.9942 236.342 25.6691C235.323 25.344 233.985 25.1075 232.33 24.9598C230.675 24.7972 228.858 24.9302 226.877 25.3588C224.897 25.7725 222.909 26.6888 220.914 28.1074C219.644 29.201 218.483 30.2724 217.434 31.3216C217.419 31.3364 217.412 31.3438 217.412 31.3438L240 58.1212H231.045Z" fill="#FF0000"/>
<circle cx="94.8807" cy="9.98751" r="3.6318" fill="#FF0000"/>
</svg>
