<svg width="765" height="288" viewBox="0 0 765 288" fill="none" xmlns="http://www.w3.org/2000/svg">
<path d="M155.54 46V9.008H141.204V0.879997H179.86V9.008H165.524V46H155.54ZM185.104 22.32C185.872 17.6267 187.344 13.6373 189.52 10.352C191.738 7.024 194.576 4.50666 198.032 2.8C201.488 1.05067 205.413 0.175999 209.808 0.175999C214.714 0.175999 218.725 1.24267 221.84 3.376C224.997 5.46666 227.194 8.34666 228.432 12.016C229.712 15.6427 229.968 19.8027 229.2 24.496C228.474 29.1893 226.981 33.2 224.72 36.528C222.501 39.8133 219.664 42.3307 216.208 44.08C212.794 45.8293 208.89 46.704 204.496 46.704C199.589 46.704 195.557 45.6587 192.4 43.568C189.285 41.4347 187.109 38.5333 185.872 34.864C184.634 31.1947 184.378 27.0133 185.104 22.32ZM195.472 22.96C194.96 26.2027 195.002 28.9547 195.6 31.216C196.197 33.4773 197.306 35.2267 198.928 36.464C200.592 37.6587 202.704 38.256 205.264 38.256C209.061 38.256 212.09 36.9547 214.352 34.352C216.656 31.7493 218.149 28.2507 218.832 23.856C219.344 20.6133 219.28 17.8613 218.64 15.6C218.042 13.3387 216.912 11.6107 215.248 10.416C213.626 9.22133 211.514 8.624 208.912 8.624C205.114 8.624 202.106 9.904 199.888 12.464C197.669 15.024 196.197 18.5227 195.472 22.96ZM254.233 46V0.879997H263.961V37.872H280.217V0.879997H289.945V37.872H306.137V0.879997H315.865V46H254.233ZM323.702 23.408C323.702 18.7147 324.576 14.64 326.326 11.184C328.118 7.68533 330.678 4.976 334.006 3.056C337.334 1.136 341.28 0.175999 345.846 0.175999C350.411 0.175999 354.358 1.136 357.686 3.056C361.014 4.976 363.574 7.68533 365.366 11.184C367.2 14.64 368.118 18.6933 368.118 23.344C368.118 28.08 367.2 32.1973 365.366 35.696C363.574 39.152 361.014 41.8613 357.686 43.824C354.358 45.744 350.411 46.704 345.846 46.704C341.28 46.704 337.334 45.744 334.006 43.824C330.72 41.8613 328.182 39.1307 326.39 35.632C324.598 32.1333 323.702 28.0587 323.702 23.408ZM334.134 23.408C334.134 28.0587 335.094 31.7067 337.014 34.352C338.976 36.9547 341.92 38.256 345.846 38.256C349.686 38.256 352.608 36.9547 354.614 34.352C356.619 31.7067 357.622 28.0587 357.622 23.408C357.622 18.7147 356.619 15.088 354.614 12.528C352.651 9.92533 349.728 8.624 345.846 8.624C341.92 8.624 338.976 9.92533 337.014 12.528C335.094 15.088 334.134 18.7147 334.134 23.408ZM391.423 46L398.591 0.879997H408.447L405.439 19.568H412.223L410.175 20.656L425.983 0.879997H437.311L419.263 22.576L415.551 19.888C418.495 20.4 420.799 21.4453 422.463 23.024C424.17 24.6027 425.514 26.8427 426.495 29.744L431.999 46H421.759L417.727 33.2C417.087 31.152 416.106 29.7227 414.783 28.912C413.503 28.0587 411.796 27.632 409.663 27.632H404.223L401.279 46H391.423ZM436.861 46L444.029 0.879997H464.125C469.458 0.879997 473.319 2.224 475.709 4.912C478.098 7.55733 478.93 11.1413 478.205 15.664C477.821 18.1813 476.903 20.4213 475.453 22.384C474.045 24.304 472.125 25.7973 469.693 26.864C467.261 27.9307 464.338 28.464 460.925 28.464H449.597L446.845 46H436.861ZM450.877 20.72H460.669C463.101 20.72 464.957 20.2293 466.237 19.248C467.559 18.2667 468.37 16.8373 468.669 14.96C469.01 12.912 468.647 11.3547 467.581 10.288C466.557 9.17866 464.829 8.624 462.397 8.624H452.733L450.877 20.72ZM469.923 46L497.828 0.879997H506.083L519.908 46H510.18L506.66 33.456L510.18 36.208H483.364L487.78 33.456L480.356 46H469.923ZM500.644 11.376L489.252 30.96L487.908 28.528H508.068L506.212 30.96L500.9 11.376H500.644ZM545.209 46.704C539.961 46.704 535.694 45.6587 532.409 43.568C529.123 41.4347 526.841 38.5333 525.561 34.864C524.281 31.1947 524.003 27.0133 524.729 22.32C525.497 17.6267 527.011 13.6373 529.273 10.352C531.577 7.024 534.542 4.48533 538.169 2.736C541.838 0.986665 546.019 0.133333 550.713 0.175999C553.657 0.218665 556.302 0.645331 558.649 1.456C561.038 2.224 563.022 3.29066 564.601 4.656L561.209 12.592C559.459 11.2693 557.753 10.3307 556.089 9.776C554.467 9.22133 552.526 8.944 550.265 8.944C546.211 8.944 542.862 10.1387 540.217 12.528C537.571 14.9173 535.865 18.352 535.097 22.832C534.627 25.904 534.734 28.5707 535.417 30.832C536.099 33.0933 537.358 34.8427 539.193 36.08C541.07 37.3173 543.502 37.936 546.489 37.936C548.494 37.936 550.478 37.616 552.441 36.976C554.446 36.336 556.451 35.248 558.457 33.712L561.145 41.584C559.011 43.2053 556.558 44.464 553.785 45.36C551.054 46.256 548.195 46.704 545.209 46.704ZM560.048 46L587.953 0.879997H596.208L610.033 46H600.305L596.785 33.456L600.305 36.208H573.489L577.905 33.456L570.481 46H560.048ZM590.769 11.376L579.377 30.96L578.033 28.528H598.193L596.337 30.96L591.025 11.376H590.769ZM542.483 126V80.88H563.283C568.232 80.88 572.051 81.9253 574.739 84.016C577.427 86.1067 578.771 88.9653 578.771 92.592C578.771 95.28 577.96 97.5627 576.339 99.44C574.76 101.317 572.584 102.576 569.811 103.216V102.192C573.054 102.747 575.55 103.984 577.299 105.904C579.091 107.781 579.987 110.235 579.987 113.264C579.987 117.275 578.558 120.411 575.699 122.672C572.883 124.891 568.979 126 563.987 126H542.483ZM552.019 118.576H562.771C565.246 118.576 567.144 118.107 568.467 117.168C569.79 116.229 570.451 114.736 570.451 112.688C570.451 110.597 569.79 109.104 568.467 108.208C567.144 107.269 565.246 106.8 562.771 106.8H552.019V118.576ZM552.019 99.44H561.491C564.094 99.44 566.014 98.9707 567.251 98.032C568.488 97.0933 569.107 95.6853 569.107 93.808C569.107 91.9733 568.488 90.5867 567.251 89.648C566.014 88.7093 564.094 88.24 561.491 88.24H552.019V99.44ZM581.108 126L601.845 80.88H610.101L631.093 126H620.981L615.541 113.456L619.444 116.208H592.629L596.597 113.456L591.157 126H581.108ZM605.941 91.376L597.685 110.96L595.957 108.528H616.117L614.645 110.96L606.197 91.376H605.941ZM634.983 126V80.88H644.711V117.872H660.967V80.88H670.695V117.872H686.887V80.88H696.615V126H634.983ZM700.483 126L721.22 80.88H729.476L750.468 126H740.356L734.916 113.456L738.819 116.208H712.004L715.972 113.456L710.532 126H700.483ZM725.316 91.376L717.06 110.96L715.332 108.528H735.492L734.02 110.96L725.572 91.376H725.316ZM758.744 135.216L754.968 132.208C756.461 130.715 757.528 129.307 758.168 127.984C758.808 126.661 759.128 125.232 759.128 123.696L761.176 126H754.136V115.76H764.504V122.352C764.504 124.784 764.077 127.003 763.224 129.008C762.371 131.013 760.877 133.083 758.744 135.216ZM8.48 206L14.368 169.008H0.0320001L1.312 160.88H39.968L38.688 169.008H24.352L18.464 206H8.48ZM39.4515 183.408C39.4515 178.715 40.3262 174.64 42.0755 171.184C43.8675 167.685 46.4275 164.976 49.7555 163.056C53.0835 161.136 57.0302 160.176 61.5955 160.176C66.1608 160.176 70.1075 161.136 73.4355 163.056C76.7635 164.976 79.3235 167.685 81.1155 171.184C82.9502 174.64 83.8675 178.693 83.8675 183.344C83.8675 188.08 82.9502 192.197 81.1155 195.696C79.3235 199.152 76.7635 201.861 73.4355 203.824C70.1075 205.744 66.1608 206.704 61.5955 206.704C57.0302 206.704 53.0835 205.744 49.7555 203.824C46.4702 201.861 43.9315 199.131 42.1395 195.632C40.3475 192.133 39.4515 188.059 39.4515 183.408ZM49.8835 183.408C49.8835 188.059 50.8435 191.707 52.7635 194.352C54.7262 196.955 57.6702 198.256 61.5955 198.256C65.4355 198.256 68.3582 196.955 70.3635 194.352C72.3688 191.707 73.3715 188.059 73.3715 183.408C73.3715 178.715 72.3688 175.088 70.3635 172.528C68.4008 169.925 65.4782 168.624 61.5955 168.624C57.6702 168.624 54.7262 169.925 52.7635 172.528C50.8435 175.088 49.8835 178.715 49.8835 183.408ZM109.733 206V160.88H119.717V206H109.733ZM169.129 206.704C164.222 206.704 159.998 205.744 156.457 203.824C152.915 201.904 150.206 199.216 148.329 195.76C146.494 192.261 145.577 188.144 145.577 183.408C145.577 178.672 146.494 174.576 148.329 171.12C150.206 167.664 152.915 164.976 156.457 163.056C159.998 161.136 164.222 160.176 169.129 160.176C172.243 160.176 175.166 160.645 177.897 161.584C180.67 162.523 182.953 163.824 184.745 165.488L181.673 173.296C179.71 171.76 177.747 170.651 175.785 169.968C173.822 169.243 171.689 168.88 169.385 168.88C165.289 168.88 162.067 170.011 159.721 172.272C157.417 174.491 156.137 177.648 155.881 181.744L153.385 179.184H176.104V186.864H153.257L155.817 184.496C156.073 188.976 157.374 192.347 159.721 194.608C162.067 196.869 165.289 198 169.385 198C171.689 198 173.822 197.659 175.785 196.976C177.747 196.251 179.71 195.099 181.673 193.52L184.745 201.392C182.953 203.013 180.67 204.315 177.897 205.296C175.166 206.235 172.243 206.704 169.129 206.704ZM124.486 286L131.654 240.88H141.638L138.758 258.992H159.43L162.31 240.88H172.358L165.19 286H155.142L158.15 267.248H137.414L134.47 286H124.486ZM169.048 286L196.953 240.88H205.208L219.033 286H209.305L205.785 273.456L209.305 276.208H182.489L186.905 273.456L179.481 286H169.048ZM199.769 251.376L188.377 270.96L187.033 268.528H207.193L205.337 270.96L200.025 251.376H199.769ZM222.923 286L230.091 240.88H239.819L233.931 277.872H250.187L256.075 240.88H265.803L259.915 277.872H276.107L281.995 240.88H291.723L284.555 286H222.923ZM288.486 286L316.39 240.88H324.646L338.47 286H328.742L325.222 273.456L328.742 276.208H301.926L306.342 273.456L298.918 286H288.486ZM319.206 251.376L307.814 270.96L306.47 268.528H326.63L324.774 270.96L319.462 251.376H319.206ZM384.807 286.704C379.986 286.704 375.847 285.744 372.391 283.824C368.935 281.904 366.268 279.216 364.391 275.76C362.556 272.261 361.639 268.144 361.639 263.408C361.639 258.672 362.556 254.576 364.391 251.12C366.268 247.664 368.935 244.976 372.391 243.056C375.847 241.136 379.986 240.176 384.807 240.176C387.922 240.176 390.759 240.624 393.319 241.52C395.879 242.373 398.055 243.632 399.847 245.296L396.711 253.168C394.748 251.632 392.871 250.544 391.079 249.904C389.33 249.264 387.346 248.944 385.127 248.944C380.903 248.944 377.66 250.203 375.399 252.72C373.18 255.195 372.071 258.757 372.071 263.408C372.071 268.059 373.18 271.643 375.399 274.16C377.66 276.677 380.903 277.936 385.127 277.936C387.346 277.936 389.33 277.616 391.079 276.976C392.871 276.336 394.748 275.248 396.711 273.712L399.847 281.584C398.055 283.205 395.879 284.464 393.319 285.36C390.759 286.256 387.922 286.704 384.807 286.704ZM406.796 286V240.88H416.012V272.24H414.412L438.86 240.88H446.284V286H437.004V254.64H438.604L414.092 286H406.796ZM454.269 287.152L449.532 279.984C451.581 279.003 453.394 277.893 454.973 276.656C456.594 275.376 457.981 273.84 459.133 272.048C460.327 270.256 461.351 268.059 462.205 265.456C463.058 262.853 463.783 259.717 464.381 256.048L466.749 240.88H500.669L493.501 286H483.581L489.469 248.944H474.557L473.149 258.096C472.509 262.277 471.613 265.947 470.461 269.104C469.309 272.261 467.922 274.971 466.301 277.232C464.722 279.493 462.909 281.435 460.861 283.056C458.855 284.677 456.658 286.043 454.269 287.152ZM499.921 286L520.657 240.88H528.913L549.905 286H539.793L534.353 273.456L538.257 276.208H511.441L515.409 273.456L509.969 286H499.921ZM524.753 251.376L516.497 270.96L514.769 268.528H534.929L533.457 270.96L525.009 251.376H524.753Z" fill="#FF0000"/>
</svg>
