<svg enable-background="new 0 0 28 28" viewBox="0 0 28 28" xmlns="http://www.w3.org/2000/svg"><path d="m7.41 9.02c-.76 0-1.38-.62-1.38-1.38s.62-1.38 1.38-1.38 1.38.62 1.38 1.38-.62 1.38-1.38 1.38zm0-2c-.34 0-.62.28-.62.62s.28.62.62.62.62-.28.62-.62-.28-.62-.62-.62z" fill="#03dac6"/><path d="m21.59 21.75c-.76 0-1.38-.62-1.38-1.38s.62-1.38 1.38-1.38 1.38.62 1.38 1.38-.62 1.38-1.38 1.38zm0-2c-.34 0-.62.28-.62.62s.28.62.62.62.62-.28.62-.62-.28-.62-.62-.62z" fill="#03dac6"/><path d="m25.06 17.92h-22.12c-.93 0-1.68-.76-1.68-1.68v-3.89c0-.93.76-1.68 1.68-1.68h22.11c.93 0 1.68.76 1.68 1.68v3.89c.01.92-.75 1.68-1.67 1.68zm-22.12-6.49c-.51 0-.92.41-.92.92v3.89c0 .51.41.92.92.92h22.11c.51 0 .92-.41.92-.92v-3.89c0-.51-.41-.92-.92-.92z" fill="#fff"/><path d="m7.53 16.51c-.08 0-.16-.02-.23-.06l-.89-.47-.89.47c-.16.09-.37.07-.52-.04s-.23-.3-.2-.48l.17-.99-.72-.7c-.13-.13-.18-.33-.13-.51.06-.18.21-.31.4-.34l.99-.14.44-.9c.08-.17.25-.28.44-.28s.36.11.44.28l.44.9.99.14c.19.03.34.16.4.34s.01.38-.13.51l-.72.7.17.99c.03.19-.04.37-.2.48-.05.06-.15.1-.25.1zm-2.34-2.44.61.6-.14.84.76-.4.76.4-.14-.84.61-.6-.85-.12-.38-.77-.38.77zm-.4-.38c.01 0 .01 0 0 0z" fill="#03dac6"/><path d="m15.12 16.51c-.08 0-.16-.02-.23-.06l-.89-.47-.89.47c-.16.09-.37.07-.52-.04s-.23-.3-.2-.48l.17-.99-.72-.7c-.13-.13-.18-.33-.13-.51.06-.18.21-.31.4-.34l.99-.14.44-.9c.08-.17.25-.28.44-.28s.36.11.44.28l.44.9.99.14c.19.03.34.16.4.34.06.18.01.38-.13.51l-.72.7.17.99c.03.19-.04.37-.2.48-.05.06-.15.1-.25.1zm-2.34-2.44.61.6-.14.84.76-.4.76.4-.14-.84.61-.6-.85-.12-.39-.77-.38.77z" fill="#fff"/><path d="m22.7 16.51c-.08 0-.16-.02-.23-.06l-.89-.47-.89.47c-.16.09-.37.07-.52-.04s-.23-.3-.2-.49l.17-.99-.72-.7c-.13-.13-.18-.33-.13-.51.06-.18.21-.31.4-.34l.99-.14.44-.9c.08-.17.25-.28.44-.28s.36.11.44.28l.44.9.99.14c.19.03.34.16.4.34s.01.38-.13.51l-.72.7.17.99c.03.19-.04.37-.2.48-.04.07-.14.11-.25.11zm-2.34-2.44.61.6-.14.84.76-.4.76.4-.14-.84.61-.6-.85-.12-.38-.77-.38.77z" fill="#03dac6"/></svg>