<?xml version="1.0" encoding="utf-8"?>
<!-- Generator: Adobe Illustrator 26.2.1, SVG Export Plug-In . SVG Version: 6.00 Build 0)  -->
<svg version="1.1" id="Layer_1" xmlns="http://www.w3.org/2000/svg" xmlns:xlink="http://www.w3.org/1999/xlink" x="0px" y="0px"
	 viewBox="0 0 28 28" style="enable-background:new 0 0 28 28;" xml:space="preserve">
<style type="text/css">
	.st0{display:none;}
	.st1{display:inline;opacity:0.31;}
	.st2{display:inline;fill:#6200EE;}
	.st3{fill-opacity:7.000000e-02;}
	.st4{fill:#FFFFFF;}
</style>
<g id="Layer_1_00000083794453785502572500000002272637824377884829_" class="st0">
	<g class="st1">
		<path d="M23,22H4.5c-1.5,0-2.8-1.2-2.8-2.8V8.3c0-1.5,1.2-2.8,2.8-2.8H23c1.5,0,2.8,1.2,2.8,2.8v11C25.8,20.8,24.5,22,23,22z
			 M4.5,6.4c-1.1,0-2,0.9-2,2v11c0,1.1,0.9,2,2,2H23c1.1,0,2-0.9,2-2v-11c0-1.1-0.9-2-2-2H4.5z"/>
		<path d="M18.7,4.7c-0.8,0-1.4-0.7-1.4-1.4c0-0.8,0.6-1.4,1.4-1.4c0.8,0,1.4,0.7,1.4,1.4S19.5,4.7,18.7,4.7z M18.7,2.6
			c-0.4,0-0.6,0.3-0.6,0.6s0.3,0.6,0.6,0.6c0.4,0,0.6-0.3,0.6-0.6C19.4,2.9,19.1,2.6,18.7,2.6z"/>
		<path d="M4,25.8c-0.8,0-1.4-0.6-1.4-1.4s0.7-1.4,1.4-1.4c0.8,0,1.4,0.6,1.4,1.4S4.8,25.8,4,25.8z M4,23.7c-0.3,0-0.6,0.3-0.6,0.6
			C3.4,24.7,3.7,25,4,25s0.6-0.3,0.6-0.6C4.7,24,4.4,23.7,4,23.7z"/>
		<g>
			<path d="M12.3,13.4c0,0.1-0.1,0.3-0.1,0.4c0,0.1,0,0.3,0.1,0.4H2.2v-0.8C2.2,13.4,12.3,13.4,12.3,13.4z"/>
			<path d="M25.4,13.4v0.8H15.2c0-0.1,0.1-0.3,0.1-0.4c0-0.1,0-0.3-0.1-0.4C15.2,13.4,25.4,13.4,25.4,13.4z"/>
		</g>
		<path d="M13.8,15.7c-1.1,0-1.9-0.9-1.9-1.9s0.9-1.9,1.9-1.9s1.9,0.9,1.9,1.9S14.8,15.7,13.8,15.7z M13.8,12.7
			c-0.6,0-1.1,0.5-1.1,1.1c0,0.6,0.5,1.1,1.1,1.1c0.6,0,1.1-0.5,1.1-1.1C14.9,13.2,14.4,12.7,13.8,12.7z"/>
		<path d="M11.6,11.8c-0.1,0-0.2-0.1-0.4-0.1c-0.2-0.2-0.2-0.5,0-0.7l0,0l2.1-2.1c0.2-0.2,0.5-0.2,0.7,0l2.1,2.1
			c0.2,0.2,0.2,0.5,0,0.7s-0.5,0.2-0.7,0l-1.8-1.8L12,11.6C11.9,11.7,11.8,11.8,11.6,11.8C11.6,11.8,11.6,11.8,11.6,11.8z
			 M11.4,11.1L11.4,11.1L11.4,11.1z"/>
		<path d="M13.8,18.9c-0.1,0-0.3,0-0.4-0.1l-2.1-2.1c-0.1-0.1-0.1-0.2-0.1-0.4c0-0.1,0.1-0.3,0.1-0.4c0.2-0.2,0.5-0.2,0.7,0l1.8,1.8
			l1.8-1.8c0.1-0.1,0.2-0.1,0.3-0.1c0.1,0,0.3,0.1,0.4,0.1c0.1,0.1,0.1,0.2,0.1,0.4c0,0.1,0,0.3-0.1,0.4l-2.1,2.1
			C14,18.8,13.9,18.9,13.8,18.9L13.8,18.9z M16.1,16.4L16.1,16.4L16.1,16.4z"/>
	</g>
</g>
<g id="Layer_3" class="st0">
	<rect x="-837.6" y="-745.7" class="st2" width="1600" height="1200"/>
</g>
<g>
	<path class="st3" d="M14.5,4.7v2.9c-0.2-0.1-0.4-0.1-0.5-0.1c-0.2,0-0.4,0-0.5,0.1V4.7c0-0.3,0.2-0.5,0.5-0.5
		C14.3,4.1,14.5,4.4,14.5,4.7z"/>
	<path class="st3" d="M14,10.1c0.2,0,0.4,0,0.5-0.1v3c-0.2-0.1-0.4-0.1-0.5-0.1c-0.2,0-0.4,0-0.5,0.1v-3C13.6,10,13.8,10.1,14,10.1z
		"/>
	<path class="st3" d="M14,15.5c0.2,0,0.4,0,0.5-0.1v3c-0.2-0.1-0.4-0.1-0.5-0.1c-0.2,0-0.4,0-0.5,0.1v-3
		C13.6,15.4,13.8,15.5,14,15.5z"/>
	<path class="st3" d="M14,20.9c0.2,0,0.4,0,0.5-0.1v2.5c0,0.3-0.2,0.5-0.5,0.5c-0.3,0-0.5-0.2-0.5-0.5v-2.5
		C13.6,20.9,13.8,20.9,14,20.9z"/>
	<path class="st3" d="M15,4.2c0,0.6-0.5,1-1,1c-0.6,0-1-0.5-1-1c0-0.6,0.5-1,1-1C14.6,3.1,15,3.6,15,4.2z"/>
	<path class="st3" d="M12.2,23.5l1.7,1.7c0.1,0.1,0.2,0.1,0.3,0l1.7-1.7c0.1-0.1,0-0.3-0.1-0.3h-3.3C12.2,23.2,12.1,23.4,12.2,23.5z
		"/>
	<path class="st3" d="M24.3,7.1h-5.9c-0.1,0-0.3,0-0.4,0.1l-1.8,1.6c-0.2,0.2-0.2,0.6,0,0.8l1.8,1.6c0.1,0.1,0.2,0.1,0.4,0.1h5.9
		c0.3,0,0.5-0.2,0.5-0.5V7.7C24.8,7.4,24.6,7.1,24.3,7.1z M18.8,8.1h1.6c0.1,0,0.2,0.1,0.2,0.2c0,0.1-0.1,0.2-0.2,0.2h-1.6
		c-0.1,0-0.2-0.1-0.2-0.2C18.5,8.2,18.6,8.1,18.8,8.1z M23.5,10.4h-4.7c-0.1,0-0.2-0.1-0.2-0.2c0-0.1,0.1-0.2,0.2-0.2h4.7
		c0.1,0,0.2,0.1,0.2,0.2C23.7,10.3,23.6,10.4,23.5,10.4z M23.5,9.4h-4.7c-0.1,0-0.2-0.1-0.2-0.2S18.6,9,18.8,9h4.7
		c0.1,0,0.2,0.1,0.2,0.2S23.6,9.4,23.5,9.4z"/>
	<path class="st3" d="M24.3,16.8h-5.9c-0.1,0-0.3,0-0.4,0.1l-1.8,1.6c-0.2,0.2-0.2,0.6,0,0.8l1.8,1.6c0.1,0.1,0.2,0.1,0.4,0.1h5.9
		c0.3,0,0.5-0.2,0.5-0.5v-3.2C24.8,17,24.6,16.8,24.3,16.8z M18.8,17.7h1.6c0.1,0,0.2,0.1,0.2,0.2c0,0.1-0.1,0.2-0.2,0.2h-1.6
		c-0.1,0-0.2-0.1-0.2-0.2C18.5,17.8,18.6,17.7,18.8,17.7z M23.5,20h-4.7c-0.1,0-0.2-0.1-0.2-0.2c0-0.1,0.1-0.2,0.2-0.2h4.7
		c0.1,0,0.2,0.1,0.2,0.2C23.7,19.9,23.6,20,23.5,20z M23.5,19.1h-4.7c-0.1,0-0.2-0.1-0.2-0.2c0-0.1,0.1-0.2,0.2-0.2h4.7
		c0.1,0,0.2,0.1,0.2,0.2C23.7,19,23.6,19.1,23.5,19.1z"/>
	<path class="st3" d="M11.8,13.6L10,12c-0.1-0.1-0.2-0.1-0.4-0.1H3.7c-0.3,0-0.5,0.2-0.5,0.5v3.2c0,0.3,0.2,0.5,0.5,0.5h5.9
		c0.1,0,0.3,0,0.4-0.1l1.8-1.6C12,14.2,12,13.8,11.8,13.6z M9.2,15.1H4.5c-0.1,0-0.2-0.1-0.2-0.2c0-0.1,0.1-0.2,0.2-0.2h4.7
		c0.1,0,0.2,0.1,0.2,0.2C9.5,15,9.4,15.1,9.2,15.1z M9.2,14.2H4.5c-0.1,0-0.2-0.1-0.2-0.2s0.1-0.2,0.2-0.2h4.7
		c0.1,0,0.2,0.1,0.2,0.2S9.4,14.2,9.2,14.2z M9.2,13.2H7.7c-0.1,0-0.2-0.1-0.2-0.2c0-0.1,0.1-0.2,0.2-0.2h1.6c0.1,0,0.2,0.1,0.2,0.2
		C9.5,13.1,9.4,13.2,9.2,13.2z"/>
	<path class="st3" d="M14.9,19.6c0,0.5-0.4,0.9-0.9,0.9c-0.5,0-0.9-0.4-0.9-0.9c0-0.5,0.4-0.9,0.9-0.9
		C14.5,18.7,14.9,19.1,14.9,19.6z"/>
	<path class="st3" d="M14.9,14.2c0,0.5-0.4,0.9-0.9,0.9c-0.5,0-0.9-0.4-0.9-0.9c0-0.5,0.4-0.9,0.9-0.9
		C14.5,13.2,14.9,13.7,14.9,14.2z"/>
	<path class="st3" d="M14.9,8.8c0,0.5-0.4,0.9-0.9,0.9c-0.5,0-0.9-0.4-0.9-0.9c0-0.5,0.4-0.9,0.9-0.9C14.5,7.8,14.9,8.3,14.9,8.8z"
		/>
	<path class="st4" d="M14.5,4.4v2.9c-0.2-0.1-0.4-0.1-0.5-0.1c-0.2,0-0.4,0-0.5,0.1V4.4c0-0.3,0.2-0.5,0.5-0.5
		C14.3,3.8,14.5,4.1,14.5,4.4z"/>
	<path class="st4" d="M14,9.8c0.2,0,0.4,0,0.5-0.1v3c-0.2-0.1-0.4-0.1-0.5-0.1c-0.2,0-0.4,0-0.5,0.1v-3C13.6,9.7,13.8,9.8,14,9.8z"
		/>
	<path class="st4" d="M14,15.2c0.2,0,0.4,0,0.5-0.1v3C14.4,18,14.2,18,14,18c-0.2,0-0.4,0-0.5,0.1v-3C13.6,15.1,13.8,15.2,14,15.2z"
		/>
	<path class="st4" d="M14,20.6c0.2,0,0.4,0,0.5-0.1V23c0,0.3-0.2,0.5-0.5,0.5c-0.3,0-0.5-0.2-0.5-0.5v-2.5
		C13.6,20.5,13.8,20.6,14,20.6z"/>
	<path class="st4" d="M15,3.9c0,0.6-0.5,1-1,1c-0.6,0-1-0.5-1-1c0-0.6,0.5-1,1-1C14.6,2.8,15,3.3,15,3.9z"/>
	<path class="st4" d="M12.2,23.2l1.7,1.7c0.1,0.1,0.2,0.1,0.3,0l1.7-1.7c0.1-0.1,0-0.3-0.1-0.3h-3.3C12.2,22.8,12.1,23,12.2,23.2z"
		/>
	<path class="st4" d="M24.3,6.8h-5.9c-0.1,0-0.3,0-0.4,0.1l-1.8,1.6c-0.2,0.2-0.2,0.6,0,0.8l1.8,1.6c0.1,0.1,0.2,0.1,0.4,0.1h5.9
		c0.3,0,0.5-0.2,0.5-0.5V7.4C24.8,7.1,24.6,6.8,24.3,6.8z M18.8,7.8h1.6c0.1,0,0.2,0.1,0.2,0.2c0,0.1-0.1,0.2-0.2,0.2h-1.6
		c-0.1,0-0.2-0.1-0.2-0.2C18.5,7.9,18.6,7.8,18.8,7.8z M23.5,10.1h-4.7c-0.1,0-0.2-0.1-0.2-0.2c0-0.1,0.1-0.2,0.2-0.2h4.7
		c0.1,0,0.2,0.1,0.2,0.2S23.6,10.1,23.5,10.1z M23.5,9.1h-4.7c-0.1,0-0.2-0.1-0.2-0.2c0-0.1,0.1-0.2,0.2-0.2h4.7
		c0.1,0,0.2,0.1,0.2,0.2C23.7,9,23.6,9.1,23.5,9.1z"/>
	<path class="st4" d="M24.3,16.5h-5.9c-0.1,0-0.3,0-0.4,0.1l-1.8,1.6c-0.2,0.2-0.2,0.6,0,0.8l1.8,1.6c0.1,0.1,0.2,0.1,0.4,0.1h5.9
		c0.3,0,0.5-0.2,0.5-0.5V17C24.8,16.7,24.6,16.5,24.3,16.5z M18.8,17.4h1.6c0.1,0,0.2,0.1,0.2,0.2c0,0.1-0.1,0.2-0.2,0.2h-1.6
		c-0.1,0-0.2-0.1-0.2-0.2C18.5,17.5,18.6,17.4,18.8,17.4z M23.5,19.7h-4.7c-0.1,0-0.2-0.1-0.2-0.2c0-0.1,0.1-0.2,0.2-0.2h4.7
		c0.1,0,0.2,0.1,0.2,0.2C23.7,19.6,23.6,19.7,23.5,19.7z M23.5,18.8h-4.7c-0.1,0-0.2-0.1-0.2-0.2c0-0.1,0.1-0.2,0.2-0.2h4.7
		c0.1,0,0.2,0.1,0.2,0.2C23.7,18.7,23.6,18.8,23.5,18.8z"/>
	<path class="st4" d="M11.8,13.3L10,11.7c-0.1-0.1-0.2-0.1-0.4-0.1H3.7c-0.3,0-0.5,0.2-0.5,0.5v3.2c0,0.3,0.2,0.5,0.5,0.5h5.9
		c0.1,0,0.3,0,0.4-0.1l1.8-1.6C12,13.9,12,13.5,11.8,13.3z M9.2,14.8H4.5c-0.1,0-0.2-0.1-0.2-0.2c0-0.1,0.1-0.2,0.2-0.2h4.7
		c0.1,0,0.2,0.1,0.2,0.2C9.5,14.7,9.4,14.8,9.2,14.8z M9.2,13.8H4.5c-0.1,0-0.2-0.1-0.2-0.2c0-0.1,0.1-0.2,0.2-0.2h4.7
		c0.1,0,0.2,0.1,0.2,0.2C9.5,13.7,9.4,13.8,9.2,13.8z M9.2,12.9H7.7c-0.1,0-0.2-0.1-0.2-0.2c0-0.1,0.1-0.2,0.2-0.2h1.6
		c0.1,0,0.2,0.1,0.2,0.2C9.5,12.8,9.4,12.9,9.2,12.9z"/>
	<path class="st4" d="M14.9,19.3c0,0.5-0.4,0.9-0.9,0.9c-0.5,0-0.9-0.4-0.9-0.9s0.4-0.9,0.9-0.9C14.5,18.3,14.9,18.8,14.9,19.3z"/>
	<path class="st4" d="M14.9,13.9c0,0.5-0.4,0.9-0.9,0.9c-0.5,0-0.9-0.4-0.9-0.9s0.4-0.9,0.9-0.9C14.5,12.9,14.9,13.3,14.9,13.9z"/>
	<path class="st4" d="M14.9,8.5c0,0.5-0.4,0.9-0.9,0.9c-0.5,0-0.9-0.4-0.9-0.9s0.4-0.9,0.9-0.9C14.5,7.5,14.9,7.9,14.9,8.5z"/>
</g>
</svg>
