<svg width="358" height="39" viewBox="0 0 358 39" fill="none" xmlns="http://www.w3.org/2000/svg">
<g clip-path="url(#clip0_41_5250)">
<path d="M151.044 10.8193L145.001 25.6363L137.708 10.8193H133.507L126.724 25.9715L120.54 10.8193H112.566L125.022 38.9607L127.507 38.9643L135.53 22.3376L143.592 38.9751H146.076L158.582 10.8193H151.044Z" fill="#17449C"/>
<path d="M184.498 26.6421L164.857 26.6277C165.343 28.4375 166.277 29.8326 167.648 30.8168C169.022 31.801 170.724 32.2913 172.753 32.2913C175.502 32.2913 178.099 31.3324 180.544 29.4109L183.701 34.7248C180.389 37.5728 176.661 38.9932 172.524 38.9896C168.123 38.986 164.473 37.5512 161.576 34.6815C158.68 31.8118 157.235 28.2608 157.235 24.0248C157.239 19.8285 158.645 16.2883 161.45 13.4042C164.254 10.5202 167.725 9.07812 171.865 9.07812C175.741 9.08173 178.902 10.3543 181.344 12.8959C183.789 15.4375 185.008 18.5956 185.005 22.3701C185.008 23.7545 184.836 25.1821 184.498 26.6421ZM167.345 16.93C166.14 17.9683 165.311 19.3743 164.857 21.1444L177.612 21.1516C177.577 19.3815 176.975 17.9755 175.808 16.9336C174.642 15.8918 173.233 15.3726 171.576 15.3726C169.963 15.3726 168.55 15.8918 167.345 16.93Z" fill="#17449C"/>
<path d="M213.423 13.3497C215.96 16.1797 217.229 19.7523 217.225 24.064C217.222 28.3757 215.95 31.9447 213.409 34.7747C210.869 37.6011 207.62 39.0143 203.67 39.0143C199.72 39.0107 196.728 37.5867 194.699 34.7351L194.695 38.3149L187.697 38.3113L187.725 0L195.344 0.00360509L195.333 12.5025C197.327 10.2313 200.115 9.09925 203.688 9.09925C207.641 9.10286 210.886 10.5197 213.423 13.3497ZM207.43 29.7456C208.804 28.3036 209.491 26.3893 209.494 24.0027C209.494 21.6558 208.8 19.7595 207.408 18.3139C206.017 16.8682 204.304 16.1472 202.275 16.1436C200.319 16.1436 198.652 16.825 197.278 18.1913C195.904 19.5576 195.217 21.5116 195.213 24.0496C195.213 26.6272 195.907 28.5848 197.299 29.9115C198.691 31.2417 200.347 31.9051 202.264 31.9087C204.332 31.9087 206.055 31.1913 207.43 29.7456Z" fill="#17449C"/>
<path d="M262.409 13.4438C265.341 16.3135 266.806 19.8465 266.803 24.0428C266.799 28.2391 265.33 31.7793 262.395 34.667C259.46 37.5547 255.901 38.9931 251.725 38.9895C247.55 38.9859 244.023 37.5511 241.144 34.6814C238.269 31.8118 236.831 28.2608 236.831 24.0248C236.835 19.8285 238.283 16.2955 241.183 13.4294C244.083 10.5634 247.62 9.13214 251.796 9.13575C255.94 9.13575 259.474 10.5706 262.409 13.4438ZM246.602 18.4549C245.245 19.9366 244.569 21.8113 244.565 24.0825C244.565 26.3537 245.242 28.2103 246.595 29.6559C247.948 31.1016 249.678 31.8226 251.785 31.8262C253.854 31.8262 255.577 31.098 256.951 29.6343C258.325 28.1706 259.012 26.3248 259.016 24.0933C259.019 21.8617 258.332 19.9943 256.958 18.491C255.584 16.9876 253.864 16.2378 251.796 16.2342C249.689 16.2342 247.955 16.9732 246.602 18.4549Z" fill="#17449C"/>
<path d="M269.727 37.9797L277.086 37.9831L277.099 17.9462L283.043 17.9497L283.046 11.5413L277.103 11.5379L277.106 11.1924C277.106 9.64129 277.508 8.54617 278.308 7.90015C279.108 7.25414 280.343 6.93286 282.015 6.93286C282.389 6.93286 282.787 6.95358 283.21 6.99159L283.213 0.579776C282.239 0.355224 281.222 0.241221 280.166 0.241221C276.933 0.237767 274.387 1.09452 272.531 2.80802C270.676 4.52152 269.747 7.09522 269.747 10.5257L269.727 37.9797Z" fill="#17449C"/>
<path d="M285.664 37.9797L293.023 37.9831L293.037 17.9462L298.98 17.9497L298.984 11.5413L293.04 11.5379L293.044 11.1924C293.044 9.64129 293.445 8.54617 294.245 7.90015C295.045 7.25414 296.281 6.93286 297.952 6.93286C298.327 6.93286 298.725 6.95358 299.147 6.99159L299.15 0.579776C298.177 0.355224 297.159 0.241221 296.104 0.241221C292.87 0.237767 290.324 1.09452 288.469 2.80802C286.614 4.52152 285.684 7.09522 285.684 10.5257L285.664 37.9797Z" fill="#17449C"/>
<path d="M227.655 16.1548L227.648 27.8064C227.648 29.4251 228.06 30.5679 228.888 31.2421C229.716 31.9163 230.995 32.2551 232.725 32.2551C233.402 32.2551 234.156 32.1974 234.984 32.0821L234.98 38.6073C233.663 39.0291 232.271 39.2418 230.805 39.2382C227.458 39.2346 224.822 38.3405 222.905 36.5488C220.988 34.7571 220.03 32.0713 220.033 28.4914L220.04 16.1476L220.044 9.56469L220.047 0.0400391L227.665 0.0436441L227.662 9.56829L227.655 16.1548Z" fill="#17449C"/>
<path d="M229.649 10.8877L236.097 10.8913L236.094 17.4742L229.646 17.4706L229.649 10.8877Z" fill="#17449C"/>
<path d="M328.314 26.7385L308.673 26.7241C309.16 28.5339 310.093 29.929 311.464 30.9132C312.838 31.8974 314.54 32.3877 316.57 32.3877C319.318 32.3877 321.915 31.4287 324.361 29.5072L327.518 34.8211C324.205 37.6692 320.477 39.0896 316.341 39.086C311.94 39.0824 308.289 37.6475 305.393 34.7779C302.496 31.9082 301.052 28.3572 301.052 24.1212C301.055 19.9249 302.458 16.3847 305.262 13.497C308.067 10.6129 311.538 9.1709 315.678 9.1709C319.554 9.1745 322.715 10.4471 325.157 12.9887C327.602 15.5303 328.821 18.6883 328.818 22.4629C328.825 23.8508 328.656 25.2749 328.314 26.7385ZM311.165 17.0264C309.959 18.0647 309.131 19.4707 308.677 21.2408L321.432 21.248C321.397 19.4779 320.795 18.0719 319.628 17.03C318.462 15.9881 317.053 15.469 315.396 15.469C313.779 15.469 312.37 15.9881 311.165 17.0264Z" fill="#17449C"/>
<path d="M357.733 26.7571L338.092 26.7426C338.579 28.5524 339.512 29.9476 340.883 30.9318C342.257 31.916 343.959 32.4062 345.989 32.4062C348.737 32.4062 351.334 31.4473 353.78 29.5258L356.937 34.8397C353.625 37.6877 349.897 39.1081 345.76 39.1045C341.359 39.1009 337.708 37.6661 334.812 34.7964C331.915 31.9268 330.471 28.3758 330.471 24.1398C330.474 19.9434 331.877 16.4032 334.681 13.5156C337.486 10.6315 340.957 9.18945 345.097 9.18945C348.973 9.19306 352.134 10.4657 354.576 13.0072C357.021 15.5488 358.24 18.7069 358.237 22.4814C358.244 23.8694 358.071 25.2934 357.733 26.7571ZM340.58 17.0449C339.375 18.0832 338.547 19.4892 338.092 21.2593L350.848 21.2665C350.813 19.4964 350.21 18.0904 349.044 17.0486C347.877 16.0067 346.468 15.4875 344.812 15.4875C343.198 15.4875 341.785 16.0067 340.58 17.0449Z" fill="#17449C"/>
<path d="M77.17 37.0454C77.17 38.252 76.2032 39.2412 75.0239 39.2412H60.0612C58.8819 39.2412 57.915 38.252 57.915 37.0454V21.7368C57.915 20.5302 58.8819 19.541 60.0612 19.541H75.0239C76.2032 19.541 77.17 20.5302 77.17 21.7368V37.0454Z" fill="#07BFDD"/>
<path d="M96.6681 17.7456C96.6681 18.9522 95.7012 19.9414 94.5219 19.9414H79.5592C78.3799 19.9414 77.4131 18.9522 77.4131 17.7456V2.43696C77.4131 1.23039 78.3799 0.241211 79.5592 0.241211H94.5219C95.7012 0.241211 96.6681 1.23039 96.6681 2.43696V17.7456Z" fill="#007FFF"/>
<path d="M38.7257 37.0455C38.7257 38.252 37.7588 39.2412 36.5795 39.2412H21.6168C20.4375 39.2412 19.4707 38.252 19.4707 37.0455V21.7368C19.4707 20.5302 20.4375 19.541 21.6168 19.541H36.5795C37.7588 19.541 38.7257 20.5302 38.7257 21.7368V37.0455Z" fill="#1DA5F8"/>
<path d="M19.255 17.7466C19.255 18.9532 18.2882 19.9424 17.1088 19.9424H2.14613C0.966822 19.9424 0 18.9568 0 17.7466V2.43794C0 1.23136 0.966822 0.242188 2.14613 0.242188H17.1088C18.2882 0.242188 19.255 1.23136 19.255 2.43794V17.7466V17.7466Z" fill="#8CC936"/>
</g>
<defs>
<clipPath id="clip0_41_5250">
<rect width="358" height="39" fill="white"/>
</clipPath>
</defs>
</svg>
