<svg width="30" height="26" viewBox="0 0 30 26" fill="none" xmlns="http://www.w3.org/2000/svg">
<path d="M26.0395 21.4254L23.8313 18.9326C24.6396 18.1312 25.289 17.1757 25.743 16.119C26.2294 14.987 26.481 13.7634 26.4821 12.5263V12.5261C26.4821 7.6243 22.6071 3.62684 17.8259 3.62684C13.0447 3.62684 9.16974 7.62628 9.16974 12.5261V18.3413V18.9572L9.59902 18.5156L12.2457 15.7924L14.7217 18.34L7.51924 25.6436L0.349477 18.3404L2.82592 15.7924L5.47257 18.5156L5.90185 18.9572V18.3413L5.90185 12.5226C5.90185 12.5225 5.90185 12.5223 5.90185 12.5222C5.90682 9.2661 7.16649 6.14621 9.40254 3.84622C11.6383 1.54648 14.6677 0.254101 17.8259 0.25C20.9848 0.254103 24.0147 1.547 26.2506 3.84757C28.4868 6.1484 29.746 9.26929 29.75 12.5261C29.7484 14.2352 29.401 15.925 28.7301 17.4879C28.0934 18.9711 27.1786 20.3089 26.0395 21.4254Z" fill="#FF6565" stroke="white" stroke-width="0.5"/>
</svg>
