<svg enable-background="new 0 0 28 28" viewBox="0 0 28 28" xmlns="http://www.w3.org/2000/svg"><path d="m5.69 20.88c-.76 0-1.38-.62-1.38-1.38s.62-1.38 1.38-1.38 1.38.62 1.38 1.38-.61 1.38-1.38 1.38zm0-2c-.34 0-.62.28-.62.62s.28.62.62.62.62-.28.62-.62-.28-.62-.62-.62z" fill="#03dac6"/><path d="m22.31 8.98c-.76 0-1.38-.62-1.38-1.38s.62-1.38 1.38-1.38 1.38.62 1.38 1.38-.62 1.38-1.38 1.38zm0-2c-.34 0-.62.28-.62.62s.28.62.62.62.62-.28.62-.62-.28-.62-.62-.62z" fill="#03dac6"/><path d="m22.92 15.27c.24-.27.38-.62.38-1 0-.83-.67-1.5-1.5-1.5h-2.92c.29-.88.41-2.04.41-2.54v-.5c0-1.1-.9-2-2-2h-.5c-.23 0-.43.16-.49.38l-.26 1.09c-.38 1.53-1.6 3.21-2.85 3.52-.22-.56-.76-.95-1.4-.95h-3c-.28 0-.5.22-.5.5v9.01c0 .28.22.5.5.5h3c.6 0 1.11-.35 1.36-.86l1.72.57c.56.19 1.15.28 1.74.28h4.2c.83 0 1.5-.67 1.5-1.5 0-.2-.04-.38-.11-.55.64-.17 1.11-.76 1.11-1.45 0-.38-.15-.74-.38-1 .24-.27.38-.62.38-1s-.15-.73-.39-1zm-10.63 5.01c0 .28-.22.5-.5.5h-2.5v-8.01h2.5c.28 0 .5.22.5.5zm8.51-4.51h1c.28 0 .5.22.5.5s-.22.5-.5.5h-1c-.28 0-.5.22-.5.5s.22.5.5.5h1c.28 0 .5.22.5.5s-.22.5-.5.5h-1c-.28 0-.5.22-.5.5s.22.5.5.5.5.22.5.5-.22.5-.5.5h-4.2c-.49 0-.97-.08-1.43-.23l-1.89-.63v-6.2c.79-.15 1.55-.65 2.25-1.46.68-.8 1.23-1.85 1.47-2.82l.18-.71h.11c.55 0 1 .45 1 1v.5c0 .67-.21 1.96-.48 2.54h-1.01c-.28 0-.5.22-.5.5s.22.5.5.5h5.01c.28 0 .5.22.5.5s-.22.5-.5.5h-1c-.28 0-.5.22-.5.5-.01.29.22.51.49.51z" fill="#fff"/><circle cx="10.79" cy="18.5" fill="#03dac6" r=".5"/></svg>