<svg xmlns="http://www.w3.org/2000/svg" viewBox="0 0 150 150"><defs><style>.cls-1{fill:none;stroke-width:4px;}.cls-1,.cls-3{stroke:#fff;}.cls-1,.cls-2,.cls-3{stroke-miterlimit:10;}.cls-2,.cls-4{fill:#03dac6;}.cls-2{stroke:#03dac6;}.cls-3{fill:#fff;}</style></defs><g id="Layer_1" data-name="Layer 1"><path class="cls-1" d="M112.38,63.64c-17-5.94-29.77-16-38-38.85S34.88-2.72,19.64,33.94s-1.12,73.88,16,90c37.47,35.37,81.26,14.49,94.78-9.73S129.41,69.58,112.38,63.64Z"/><path class="cls-2" d="M92.49,104.36h-35a6.46,6.46,0,0,1-6.45-6.45V80.18a6.47,6.47,0,0,1,6.45-6.46h35a6.45,6.45,0,0,1,5.85,3.74,6.35,6.35,0,0,1,.6,2.72V97.91A6.46,6.46,0,0,1,92.49,104.36Zm-35-28.45a4.27,4.27,0,0,0-4.26,4.27V97.91a4.27,4.27,0,0,0,4.26,4.27h35a4.27,4.27,0,0,0,4.26-4.27V80.18a4.21,4.21,0,0,0-.39-1.79,4.27,4.27,0,0,0-3.87-2.48Z"/><path class="cls-3" d="M92.49,104.36h-35a6.46,6.46,0,0,1-6.45-6.45V96l13.73-9.86,5.93,6.52L97.85,76.37l.49,1.09a6.35,6.35,0,0,1,.6,2.72V97.91A6.46,6.46,0,0,1,92.49,104.36ZM53.25,97.15v.76a4.27,4.27,0,0,0,4.26,4.27h35a4.27,4.27,0,0,0,4.26-4.27V80.18a4,4,0,0,0,0-.6L70.29,95.46l-5.83-6.38Z"/><path class="cls-3" d="M72.17,87.29a3.94,3.94,0,1,1,3.94-3.94A3.95,3.95,0,0,1,72.17,87.29Zm0-5.66a1.76,1.76,0,1,0,1.75,1.75A1.76,1.76,0,0,0,72.17,81.63Z"/></g><g id="Layer_3" data-name="Layer 3"><path class="cls-4" d="M20.44,103.85a2.7,2.7,0,1,1,2.69,2.69A2.69,2.69,0,0,1,20.44,103.85Zm3.89,0a1.2,1.2,0,1,0-1.2,1.2A1.2,1.2,0,0,0,24.33,103.85Z"/><path class="cls-4" d="M126.29,64a5,5,0,1,1,5,5A5,5,0,0,1,126.29,64Zm7.24,0a2.23,2.23,0,1,0-2.23,2.23A2.23,2.23,0,0,0,133.53,64Z"/></g></svg>