<svg enable-background="new 0 0 28 28" viewBox="0 0 28 28" xmlns="http://www.w3.org/2000/svg"><path d="m9.54 20.37h-5.05v-.67c.32 0 .56-.09.73-.27.33-.35.28-.96.28-.97v-.03-4.78h-1.56c-.5 0-.81.24-.99.45-.12.14-.32.19-.5.13-.18-.07-.3-.23-.3-.43v-3.16h9.73v3.16c0 .19-.12.36-.3.43s-.37.02-.5-.13c-.18-.2-.49-.45-.99-.45h-1.55v4.81s-.05.61.28.97c.17.18.4.27.73.27v.67zm-3.69-.67h2.34c-.34-.52-.32-1.16-.31-1.28v-5.43h2.22c.48 0 .85.15 1.12.34v-2.02h-8.4v2.02c.27-.19.64-.34 1.12-.34h2.22v5.43c0 .12.03.76-.31 1.28z" fill="#fff"/><path d="m20.88 12.67h-3.36v2.1c0 .08.1.12.16.06.16-.19.46-.42.92-.42h1.4v3.79s.11 1.18-.99 1.18h1.87 1.87c-1.1 0-.99-1.18-.99-1.18v-3.79h1.4c.46 0 .76.23.92.42.05.06.16.02.16-.06v-2.1z" fill="#fff"/><g fill="#03dac6"><path d="m8.54 15.24h12.12v.66h-12.12z" transform="matrix(.421 -.9071 .9071 .421 -5.6776 22.2571)"/><path d="m7.02 9.18c-.66 0-1.2-.54-1.2-1.2s.54-1.2 1.2-1.2 1.2.54 1.2 1.2-.54 1.2-1.2 1.2zm0-1.73c-.29 0-.53.24-.53.53s.24.53.53.53.53-.24.53-.53-.24-.53-.53-.53z"/><path d="m24.65 19.82c-.66 0-1.2-.54-1.2-1.2s.54-1.2 1.2-1.2 1.2.54 1.2 1.2-.54 1.2-1.2 1.2zm0-1.73c-.29 0-.53.24-.53.53s.24.53.53.53.53-.24.53-.53-.24-.53-.53-.53z"/></g></svg>