<svg width="45" height="27" viewBox="0 0 45 27" fill="none" xmlns="http://www.w3.org/2000/svg">
<g clip-path="url(#clip0_615_21130)">
<rect x="0.733154" y="0.128052" width="44" height="26.4" rx="4" fill="#F7931A"/>
<g clip-path="url(#clip1_615_21130)">
<path fill-rule="evenodd" clip-rule="evenodd" d="M16.069 10.665C16.3508 10.665 16.5939 10.7151 16.7983 10.8137C17.0036 10.9133 17.1734 11.0474 17.3092 11.216C17.4434 11.3856 17.5432 11.5838 17.6077 11.8107C17.6717 12.0386 17.7038 12.2832 17.7038 12.5454C17.7038 12.9477 17.6298 13.3281 17.4801 13.6866C17.3305 14.0455 17.1274 14.3569 16.8691 14.6225C16.611 14.8879 16.3063 15.0969 15.9549 15.2513C15.6039 15.4061 15.2226 15.4832 14.813 15.4832C14.76 15.4832 14.6669 15.4819 14.5354 15.4789C14.4039 15.4763 14.2526 15.4629 14.0833 15.44C13.9129 15.4165 13.7328 15.3815 13.5424 15.3346C13.3523 15.2887 13.1717 15.2241 13.0015 15.1422L14.5222 8.78543L15.8841 8.57532L15.3398 10.831C15.4563 10.7788 15.5737 10.7382 15.6909 10.7088C15.8088 10.6803 15.9345 10.665 16.069 10.665V10.665ZM14.9266 14.4085C15.1317 14.4085 15.3249 14.3584 15.5066 14.2597C15.6887 14.1613 15.8458 14.028 15.9774 13.862C16.1089 13.6955 16.2133 13.5076 16.2893 13.2977C16.3652 13.088 16.4036 12.8693 16.4036 12.6415C16.4036 12.3618 16.3568 12.1435 16.263 11.9859C16.1692 11.8287 15.996 11.7499 15.7443 11.7499C15.6618 11.7499 15.5554 11.7654 15.4237 11.7933C15.2915 11.8233 15.1732 11.8848 15.0671 11.9775L14.4873 14.3733C14.5223 14.3791 14.5533 14.3852 14.5796 14.3906C14.6054 14.3964 14.6338 14.4007 14.6623 14.4038C14.6924 14.4072 14.7267 14.4087 14.7682 14.4087C14.8097 14.4087 14.8622 14.4085 14.9266 14.4085V14.4085Z" fill="white"/>
<path fill-rule="evenodd" clip-rule="evenodd" d="M19.1171 15.3612H17.8162L18.9149 10.7619H20.2247L19.1171 15.3612V15.3612ZM19.7501 10.202C19.5684 10.202 19.4039 10.148 19.2578 10.0405C19.1104 9.93336 19.0375 9.76838 19.0375 9.54618C19.0375 9.42396 19.0624 9.30908 19.1119 9.20111C19.1621 9.09314 19.2278 8.99986 19.3101 8.92104C19.3924 8.84265 19.4874 8.78003 19.5955 8.73274C19.7043 8.68631 19.8199 8.66321 19.9432 8.66321C20.1247 8.66321 20.2885 8.71698 20.4351 8.82473C20.5811 8.93292 20.6547 9.09789 20.6547 9.3188C20.6547 9.44145 20.63 9.55676 20.5798 9.66473C20.5301 9.7727 20.4646 9.86556 20.3823 9.94481C20.3009 10.0232 20.2048 10.0856 20.0969 10.1325C19.9882 10.1795 19.8731 10.202 19.7501 10.202V10.202Z" fill="white"/>
<path fill-rule="evenodd" clip-rule="evenodd" d="M21.3642 9.61648L22.7268 9.40637L22.3921 10.7618H23.8513L23.5878 11.8283H22.1373L21.7509 13.4373C21.7153 13.5714 21.6952 13.6967 21.6895 13.8128C21.6832 13.9299 21.698 14.0303 21.7331 14.1147C21.7681 14.1994 21.831 14.2646 21.9222 14.311C22.0129 14.3579 22.1429 14.3814 22.3131 14.3814C22.4533 14.3814 22.59 14.3682 22.7222 14.3417C22.8535 14.316 22.9868 14.2797 23.1216 14.2324L23.2186 15.2298C23.0428 15.294 22.8524 15.3492 22.6473 15.3957C22.442 15.4425 22.1987 15.4652 21.9176 15.4652C21.5135 15.4652 21.2001 15.4058 20.9769 15.2868C20.754 15.167 20.5965 15.0035 20.502 14.7964C20.4089 14.5902 20.3675 14.3522 20.3792 14.0843C20.3914 13.8156 20.4319 13.5332 20.502 13.2358L21.3642 9.61648V9.61648Z" fill="white"/>
<path fill-rule="evenodd" clip-rule="evenodd" d="M23.7938 13.5253C23.7938 13.129 23.8583 12.7556 23.9872 12.4056C24.1157 12.0556 24.3011 11.7496 24.5415 11.4868C24.7812 11.2253 25.0729 11.0182 25.4162 10.8664C25.7581 10.715 26.1407 10.6388 26.5627 10.6388C26.8266 10.6388 27.0625 10.6634 27.27 10.7133C27.4784 10.7634 27.667 10.8284 27.8374 10.9098L27.3888 11.9249C27.2716 11.8776 27.1498 11.836 27.0241 11.798C26.8982 11.7595 26.7446 11.7409 26.5629 11.7409C26.1288 11.7409 25.7854 11.8897 25.53 12.1864C25.2756 12.4836 25.1473 12.8833 25.1473 13.3849C25.1473 13.6822 25.2118 13.9224 25.3411 14.1063C25.4699 14.2901 25.7075 14.3815 26.0528 14.3815C26.2232 14.3815 26.3875 14.3637 26.5451 14.3292C26.7038 14.2942 26.8438 14.2504 26.9673 14.1981L27.0643 15.2385C26.8998 15.3022 26.7183 15.3597 26.5193 15.4098C26.3198 15.4583 26.0824 15.4832 25.8069 15.4832C25.4436 15.4832 25.1358 15.4305 24.8843 15.3262C24.6325 15.2204 24.4243 15.0798 24.2605 14.9019C24.0957 14.7235 23.9774 14.5151 23.9043 14.2761C23.8309 14.0379 23.7938 13.787 23.7938 13.5253H23.7938Z" fill="white"/>
<path fill-rule="evenodd" clip-rule="evenodd" d="M29.5725 15.4837C29.2619 15.4837 28.9924 15.4368 28.7636 15.3438C28.5355 15.2505 28.3466 15.1198 28.1971 14.9503C28.0476 14.7817 27.9353 14.5817 27.8587 14.3515C27.7819 14.1215 27.7452 13.8665 27.7452 13.5873C27.7452 13.2368 27.8019 12.8866 27.916 12.5372C28.0298 12.1874 28.1984 11.873 28.422 11.5933C28.6436 11.3133 28.9168 11.0844 29.2389 10.9058C29.5604 10.7287 29.9304 10.6395 30.3459 10.6395C30.6506 10.6395 30.9191 10.6866 31.1509 10.7797C31.3816 10.873 31.5717 11.0045 31.7222 11.1731C31.8708 11.3426 31.9839 11.5417 32.0599 11.7723C32.1365 12.0019 32.174 12.2576 32.174 12.537C32.174 12.8864 32.1183 13.2366 32.0076 13.5871C31.8967 13.9356 31.7324 14.2509 31.5153 14.531C31.2987 14.8106 31.0278 15.0393 30.7025 15.2172C30.3771 15.3947 30.0001 15.4837 29.5725 15.4837V15.4837ZM30.2226 11.7415C30.0296 11.7415 29.8593 11.7972 29.7132 11.9074C29.5667 12.0186 29.4436 12.1585 29.3444 12.3271C29.2442 12.4964 29.1697 12.6817 29.1196 12.8823C29.0699 13.0838 29.0453 13.274 29.0453 13.455C29.0453 13.7467 29.0927 13.9739 29.1855 14.1376C29.28 14.3002 29.4493 14.382 29.6956 14.382C29.8892 14.382 30.0587 14.3267 30.2057 14.2155C30.3513 14.1052 30.4744 13.9653 30.5744 13.7962C30.6741 13.6277 30.7492 13.442 30.7993 13.241C30.8486 13.0402 30.8735 12.8488 30.8735 12.6683C30.8735 12.3772 30.8264 12.1496 30.7327 11.9862C30.6389 11.8231 30.4687 11.7415 30.2226 11.7415V11.7415Z" fill="white"/>
<path fill-rule="evenodd" clip-rule="evenodd" d="M33.5915 15.3612H32.2896L33.3883 10.7619H34.6989L33.5915 15.3612V15.3612ZM34.2235 10.202C34.042 10.202 33.8775 10.148 33.7316 10.0405C33.5849 9.93336 33.5113 9.76838 33.5113 9.54618C33.5113 9.42396 33.5365 9.30908 33.5862 9.20111C33.6359 9.09314 33.7019 8.99986 33.7842 8.92104C33.866 8.84265 33.9619 8.78003 34.0698 8.73274C34.1779 8.68631 34.2936 8.66321 34.4166 8.66321C34.5985 8.66321 34.7628 8.71698 34.9091 8.82473C35.0556 8.93292 35.1294 9.09789 35.1294 9.3188C35.1294 9.44145 35.1032 9.55676 35.0539 9.66473C35.0046 9.7727 34.9389 9.86556 34.8568 9.94481C34.7743 10.0232 34.6797 10.0856 34.5716 10.1325C34.4627 10.1795 34.3472 10.202 34.2235 10.202V10.202Z" fill="white"/>
<path fill-rule="evenodd" clip-rule="evenodd" d="M35.6358 10.9717C35.7345 10.943 35.8448 10.9084 35.9648 10.8708C36.0853 10.8333 36.2196 10.7983 36.3698 10.7667C36.5185 10.7344 36.6861 10.7082 36.8705 10.6875C37.055 10.6668 37.2649 10.6566 37.4987 10.6566C38.1845 10.6566 38.6577 10.8553 38.9188 11.2517C39.1795 11.6482 39.2248 12.1906 39.0553 12.878L38.4572 15.3613H37.1477L37.7277 12.9302C37.7628 12.7784 37.7908 12.6316 37.8112 12.4882C37.8321 12.3463 37.8308 12.2211 37.8067 12.1127C37.7839 12.0056 37.7292 11.9181 37.6448 11.8501C37.5588 11.783 37.429 11.7497 37.253 11.7497C37.0835 11.7497 36.9109 11.7678 36.7347 11.8028L35.8819 15.3613H34.572L35.6358 10.9717V10.9717Z" fill="white"/>
</g>
<g clip-path="url(#clip2_615_21130)">
<path fill-rule="evenodd" clip-rule="evenodd" d="M20.2796 18.4484L20.0129 18.9302H19.7245C19.9277 18.5657 20.1258 18.2301 20.319 17.9233C20.5122 17.6166 20.7031 17.3269 20.8917 17.0544H21.1502C21.1774 17.1898 21.2023 17.3267 21.225 17.4645C21.2477 17.6026 21.2699 17.7474 21.2916 17.899C21.3134 18.0505 21.3343 18.2114 21.3542 18.381C21.3742 18.5506 21.395 18.7335 21.4168 18.9305H21.1502C21.1411 18.8493 21.1329 18.7676 21.1257 18.6855C21.1184 18.6034 21.1103 18.5244 21.1012 18.4487H20.2796V18.4484ZM21.0766 18.2371C21.0621 18.0911 21.0453 17.9456 21.0263 17.8013C21.0072 17.6569 20.985 17.508 20.9596 17.3546C20.8962 17.4467 20.8173 17.5655 20.7229 17.7106C20.6286 17.8561 20.5216 18.0313 20.4019 18.2371H21.0766V18.2371Z" fill="white"/>
<path fill-rule="evenodd" clip-rule="evenodd" d="M22.381 18.9706C22.2631 18.9706 22.1592 18.9534 22.0695 18.9191C21.9797 18.8849 21.9049 18.8361 21.845 18.773C21.7851 18.71 21.7403 18.6336 21.7103 18.5443C21.6804 18.4549 21.6654 18.3543 21.6654 18.2424C21.6654 18.08 21.6913 17.9249 21.743 17.7769C21.7947 17.6291 21.8681 17.4983 21.9633 17.3846C22.0586 17.2709 22.1733 17.1803 22.3075 17.1124C22.4417 17.0447 22.5911 17.0109 22.7564 17.0109C22.8979 17.0109 23.0108 17.0253 23.0951 17.0542C23.1795 17.083 23.2398 17.1101 23.2761 17.1354L23.1672 17.3519C23.1253 17.3249 23.0688 17.2991 22.9972 17.2748C22.9256 17.2506 22.8408 17.2382 22.7428 17.2382C22.6177 17.2382 22.5052 17.2676 22.4055 17.3264C22.3057 17.3851 22.2214 17.4609 22.1524 17.5538C22.0835 17.6467 22.0309 17.7514 21.9946 17.8678C21.9584 17.9842 21.9402 18.0992 21.9402 18.2129C21.9402 18.5648 22.0935 18.7407 22.4 18.7407C22.4653 18.7407 22.5238 18.736 22.5755 18.727C22.6272 18.7182 22.673 18.7076 22.7129 18.6958C22.7528 18.6841 22.7882 18.6712 22.819 18.6566C22.8498 18.6421 22.877 18.6295 22.9006 18.6187L22.9333 18.8461C22.9115 18.8587 22.8829 18.8722 22.8476 18.8867C22.8122 18.9011 22.7709 18.9146 22.7238 18.9275C22.6766 18.9401 22.624 18.9505 22.566 18.9586C22.5079 18.9667 22.4463 18.9706 22.381 18.9706V18.9706Z" fill="white"/>
<path fill-rule="evenodd" clip-rule="evenodd" d="M23.9096 18.9706C23.7917 18.9706 23.6878 18.9534 23.598 18.9191C23.5083 18.8849 23.4334 18.8361 23.3736 18.773C23.3137 18.71 23.2688 18.6336 23.2389 18.5443C23.209 18.4549 23.194 18.3543 23.194 18.2424C23.194 18.08 23.2199 17.9249 23.2716 17.7769C23.3233 17.6291 23.3967 17.4983 23.4919 17.3846C23.5872 17.2709 23.7019 17.1803 23.8361 17.1124C23.9703 17.0447 24.1197 17.0109 24.285 17.0109C24.4265 17.0109 24.5394 17.0253 24.6237 17.0542C24.7081 17.083 24.7684 17.1101 24.8047 17.1354L24.6958 17.3519C24.6539 17.3249 24.5974 17.2991 24.5258 17.2748C24.4541 17.2506 24.3694 17.2382 24.2714 17.2382C24.1463 17.2382 24.0338 17.2676 23.934 17.3264C23.8343 17.3851 23.75 17.4609 23.681 17.5538C23.6121 17.6467 23.5595 17.7514 23.5232 17.8678C23.487 17.9842 23.4688 18.0992 23.4688 18.2129C23.4688 18.5648 23.6221 18.7407 23.9286 18.7407C23.9939 18.7407 24.0524 18.736 24.1041 18.727C24.1558 18.7182 24.2016 18.7076 24.2415 18.6958C24.2814 18.6841 24.3168 18.6712 24.3476 18.6566C24.3784 18.6421 24.4056 18.6295 24.4292 18.6187L24.4619 18.8461C24.4401 18.8587 24.4115 18.8722 24.3762 18.8867C24.3408 18.9011 24.2995 18.9146 24.2524 18.9275C24.2052 18.9401 24.1526 18.9505 24.0946 18.9586C24.0365 18.9667 23.9749 18.9706 23.9096 18.9706V18.9706Z" fill="white"/>
<path fill-rule="evenodd" clip-rule="evenodd" d="M24.6401 18.93L25.0917 17.0542H26.2045L26.1528 17.2734H25.3012L25.1652 17.8392H25.9215L25.8698 18.053H25.1162L24.9557 18.7107H25.8698L25.8182 18.93H24.6401H24.6401Z" fill="white"/>
<path fill-rule="evenodd" clip-rule="evenodd" d="M26.9921 17.0353C27.2115 17.0353 27.3771 17.0768 27.4886 17.1598C27.6001 17.2428 27.6559 17.3637 27.6559 17.5225C27.6559 17.6452 27.6328 17.7514 27.5865 17.8405C27.5403 17.9299 27.4745 18.0034 27.3893 18.0614C27.304 18.1191 27.2016 18.1617 27.0819 18.1897C26.9622 18.2177 26.8288 18.2319 26.6819 18.2319H26.4942L26.3255 18.9302H26.0616L26.5078 17.0788C26.584 17.0608 26.6647 17.049 26.7499 17.0436C26.8352 17.038 26.9159 17.0353 26.9921 17.0353V17.0353ZM26.9595 17.2573C26.8308 17.2573 26.7528 17.2609 26.7256 17.2681L26.546 18.0125H26.7174C26.7936 18.0125 26.8716 18.0059 26.9514 17.9922C27.0312 17.9787 27.1028 17.9547 27.1663 17.9207C27.2298 17.8864 27.2819 17.839 27.3228 17.7784C27.3636 17.7179 27.384 17.6401 27.384 17.5444C27.384 17.4416 27.3459 17.368 27.2697 17.3236C27.1935 17.2794 27.0901 17.2573 26.9595 17.2573V17.2573Z" fill="white"/>
<path fill-rule="evenodd" clip-rule="evenodd" d="M29.2654 17.0542L29.2137 17.2734H28.6451L28.2451 18.93H27.9812L28.3812 17.2734H27.8126L27.8643 17.0542H29.2654V17.0542Z" fill="white"/>
<path fill-rule="evenodd" clip-rule="evenodd" d="M29.0206 18.93L29.4722 17.0542H30.585L30.5333 17.2734H29.6817L29.5457 17.8392H30.302L30.2503 18.053H29.4967L29.3362 18.7107H30.2503L30.1986 18.93H29.0206H29.0206Z" fill="white"/>
<path fill-rule="evenodd" clip-rule="evenodd" d="M31.3685 17.0353C31.6478 17.0353 31.8564 17.1007 31.9943 17.2315C32.1321 17.3623 32.201 17.5387 32.201 17.7607C32.201 17.9159 32.1765 18.0652 32.1276 18.2084C32.0786 18.3521 32.0024 18.4787 31.899 18.589C31.7956 18.6988 31.6637 18.7866 31.5032 18.8515C31.3427 18.9165 31.1508 18.949 30.9278 18.949C30.8516 18.949 30.769 18.9454 30.6802 18.9381C30.5913 18.9309 30.5133 18.9183 30.4462 18.9002L30.8842 17.0786C30.9604 17.0605 31.0411 17.0488 31.1264 17.0434C31.2116 17.038 31.2923 17.0353 31.3685 17.0353V17.0353ZM31.3467 17.2573C31.2107 17.2573 31.1291 17.2609 31.1019 17.2681L30.7536 18.7135C30.7681 18.7172 30.7926 18.7203 30.8271 18.723C30.8616 18.7257 30.9178 18.7271 30.9958 18.7271C31.1391 18.7271 31.2683 18.7034 31.3835 18.6556C31.4986 18.6078 31.5961 18.541 31.6759 18.455C31.7557 18.3693 31.8174 18.2676 31.8609 18.1494C31.9045 18.0312 31.9262 17.9017 31.9262 17.761C31.9262 17.6022 31.88 17.4786 31.7875 17.3899C31.695 17.3017 31.5481 17.2573 31.3467 17.2573V17.2573Z" fill="white"/>
<path fill-rule="evenodd" clip-rule="evenodd" d="M34.2334 18.93H33.9695L34.179 18.0584H33.3056L33.0961 18.93H32.8322L33.2839 17.0542H33.5478L33.3573 17.8392H34.2309L34.4213 17.0542H34.6852L34.2334 18.93V18.93Z" fill="white"/>
<path fill-rule="evenodd" clip-rule="evenodd" d="M34.6495 18.93L35.1011 17.0542H36.2139L36.162 17.2734H35.3104L35.1744 17.8392H35.9307L35.8788 18.053H35.1252L34.9649 18.7107H35.8788L35.8269 18.93H34.6495H34.6495Z" fill="white"/>
<path fill-rule="evenodd" clip-rule="evenodd" d="M37.0017 17.0353C37.203 17.0353 37.3626 17.0759 37.4805 17.1571C37.5984 17.2383 37.6571 17.3574 37.6571 17.5142C37.6571 17.6729 37.6106 17.8063 37.5172 17.9136C37.4238 18.021 37.2928 18.0981 37.1241 18.1448C37.1459 18.183 37.1713 18.2312 37.2003 18.2899C37.2293 18.3485 37.2592 18.4135 37.2901 18.4848C37.3207 18.5558 37.3508 18.63 37.3798 18.7065C37.4089 18.7834 37.434 18.8576 37.456 18.9298H37.1867C37.1615 18.8612 37.135 18.7918 37.1078 18.7214C37.0808 18.651 37.0529 18.5833 37.025 18.5184C36.9967 18.4534 36.9688 18.3925 36.9404 18.3357C36.9126 18.2788 36.8865 18.2285 36.8629 18.1854C36.8393 18.1872 36.8158 18.1886 36.7922 18.1895C36.7686 18.1904 36.7452 18.1908 36.7214 18.1908H36.5119L36.3351 18.9298H36.0712L36.5176 17.0784C36.5938 17.0603 36.6743 17.0486 36.7598 17.0432C36.8448 17.038 36.9255 17.0353 37.0017 17.0353V17.0353ZM36.9691 17.2573C36.8403 17.2573 36.7623 17.2609 36.7349 17.2681L36.5635 17.9775H36.7242C36.7986 17.9775 36.8748 17.9721 36.9528 17.9613C37.0307 17.9505 37.1019 17.9293 37.1661 17.8977C37.2305 17.8661 37.2831 17.8219 37.3239 17.765C37.3647 17.7082 37.3853 17.6329 37.3853 17.539C37.3853 17.438 37.3468 17.3658 37.2697 17.3225C37.1926 17.279 37.0922 17.2573 36.9691 17.2573V17.2573Z" fill="white"/>
<path fill-rule="evenodd" clip-rule="evenodd" d="M37.6772 18.93L38.1289 17.0542H39.2416L39.1897 17.2734H38.3381L38.2021 17.8392H38.9584L38.9065 18.053H38.1529L37.9926 18.7107H38.9065L38.8546 18.93H37.6772H37.6772Z" fill="white"/>
</g>
<path fill-rule="evenodd" clip-rule="evenodd" d="M9.19328 15.6784C11.1864 15.6784 12.8022 14.0709 12.8022 12.0879C12.8022 10.105 11.1864 8.49744 9.19328 8.49744C7.20014 8.49744 5.58438 10.105 5.58438 12.0879C5.58438 14.0709 7.20014 15.6784 9.19328 15.6784ZM9.99042 10.6698C10.4904 10.8413 10.8562 11.0981 10.7844 11.5761C10.7323 11.926 10.5374 12.0953 10.2783 12.1546C10.6337 12.3387 10.8147 12.6208 10.6423 13.1104C10.4286 13.7184 9.92069 13.7696 9.24512 13.6425L9.08108 14.296L8.68508 14.1977L8.84687 13.5529C8.7442 13.5276 8.63928 13.5004 8.5312 13.4714L8.36873 14.1193L7.97319 14.021L8.137 13.3661C8.10214 13.3572 8.06702 13.3481 8.03164 13.3389L8.03151 13.3389C7.97328 13.3237 7.91435 13.3084 7.85472 13.2936L7.33936 13.1659L7.53612 12.7147C7.53612 12.7147 7.8281 12.7917 7.82404 12.7861C7.93618 12.8137 7.98605 12.7409 8.00568 12.6927L8.26471 11.6591L8.27048 11.6605C8.28306 11.6636 8.29513 11.6666 8.30668 11.6697C8.29066 11.6629 8.27645 11.6591 8.26539 11.6564L8.45019 10.919C8.45515 10.8352 8.42605 10.7297 8.26562 10.6898C8.27171 10.6855 7.97792 10.6186 7.97792 10.6186L8.0833 10.1977L8.62958 10.3333L8.62912 10.3353C8.71126 10.3557 8.79587 10.375 8.88207 10.3946L9.04453 9.74714L9.4403 9.84547L9.28123 10.4801C9.38773 10.5041 9.49468 10.5286 9.5987 10.5544L9.75665 9.92381L10.1527 10.0221L9.99042 10.6698ZM9.87943 12.8389C9.767 13.288 9.06037 13.102 8.73728 13.017L8.73727 13.017C8.70829 13.0094 8.6824 13.0026 8.6603 12.9971L8.87781 12.1297C8.9048 12.1364 8.93777 12.1438 8.97512 12.1521C9.3094 12.2267 9.99451 12.3797 9.87943 12.8389ZM9.04303 11.7498C9.31278 11.8213 9.89976 11.9767 10.0021 11.5691C10.1064 11.1522 9.53617 11.0262 9.25695 10.9646C9.22531 10.9576 9.19741 10.9514 9.17465 10.9457L8.97744 11.7328C8.99622 11.7374 9.01829 11.7433 9.04303 11.7498Z" fill="white"/>
</g>
<defs>
<clipPath id="clip0_615_21130">
<rect width="44" height="26.4" fill="white" transform="translate(0.733154 0.128052)"/>
</clipPath>
<clipPath id="clip1_615_21130">
<rect width="27.28" height="7.48" fill="white" transform="translate(12.932 8.37964)"/>
</clipPath>
<clipPath id="clip2_615_21130">
<rect width="19.8" height="2.2" fill="white" transform="translate(19.4417 16.9103)"/>
</clipPath>
</defs>
</svg>
