<svg width="45" height="27" viewBox="0 0 45 27" fill="none" xmlns="http://www.w3.org/2000/svg">
<g clip-path="url(#clip0_615_21019)">
<rect x="0.733154" y="0.128052" width="44" height="26.4" rx="4" fill="#0069AA"/>
<path fill-rule="evenodd" clip-rule="evenodd" d="M9.33427 15.9606C9.33427 15.4296 9.05685 15.4645 8.79147 15.4589V15.3054C9.02158 15.3166 9.25752 15.3166 9.48824 15.3166C9.7361 15.3166 10.0726 15.3054 10.5099 15.3054C12.0389 15.3054 12.8717 16.3264 12.8717 17.372C12.8717 17.9571 12.5292 19.427 10.4388 19.427C10.1379 19.427 9.86003 19.4153 9.58262 19.4153C9.31712 19.4153 9.05685 19.4208 8.79147 19.427V19.2734C9.14539 19.2377 9.31712 19.2261 9.33427 18.8246V15.9606V15.9606ZM9.91289 18.7299C9.91289 19.1847 10.238 19.2376 10.5272 19.2376C11.803 19.2376 12.2216 18.2754 12.2216 17.3957C12.2216 16.2915 11.5132 15.4945 10.3737 15.4945C10.1311 15.4945 10.0194 15.5118 9.91289 15.5181V18.7299V18.7299Z" fill="white"/>
<path fill-rule="evenodd" clip-rule="evenodd" d="M13.0786 19.2734H13.1904C13.3557 19.2734 13.4739 19.2734 13.4739 19.0781V17.478C13.4739 17.2186 13.3855 17.1827 13.1667 17.065V16.9707C13.4443 16.8873 13.7752 16.7759 13.7985 16.7582C13.8401 16.7344 13.875 16.7281 13.9051 16.7281C13.934 16.7281 13.9462 16.7636 13.9462 16.8113V19.0781C13.9462 19.2734 14.0763 19.2734 14.2419 19.2734H14.3418V19.427C14.141 19.427 13.934 19.4153 13.7222 19.4153C13.5096 19.4153 13.2969 19.4208 13.0786 19.427V19.2734V19.2734ZM13.7103 15.8191C13.5564 15.8191 13.4209 15.6775 13.4209 15.524C13.4209 15.3761 13.5629 15.24 13.7103 15.24C13.8635 15.24 13.9997 15.3644 13.9997 15.524C13.9997 15.6837 13.8695 15.8191 13.7103 15.8191V15.8191Z" fill="white"/>
<path fill-rule="evenodd" clip-rule="evenodd" d="M14.903 17.5136C14.903 17.2955 14.8378 17.2365 14.5607 17.1241V17.012C14.8142 16.9294 15.0561 16.8523 15.3398 16.7281C15.3577 16.7281 15.3749 16.7399 15.3749 16.7871V17.1711C15.712 16.9294 16.0013 16.7281 16.3976 16.7281C16.8988 16.7281 17.0759 17.0943 17.0759 17.5549V19.0781C17.0759 19.2734 17.2061 19.2734 17.3713 19.2734H17.4778V19.427C17.2704 19.427 17.0641 19.4154 16.8517 19.4154C16.639 19.4154 16.4263 19.4208 16.2137 19.427V19.2734H16.3202C16.4856 19.2734 16.6032 19.2734 16.6032 19.0781V17.5495C16.6032 17.2124 16.3976 17.0473 16.0606 17.0473C15.8714 17.0473 15.5703 17.2005 15.3749 17.331V19.0781C15.3749 19.2734 15.5054 19.2734 15.6708 19.2734H15.7768V19.427C15.5703 19.427 15.3636 19.4154 15.1506 19.4154C14.9385 19.4154 14.7257 19.4208 14.5133 19.427V19.2734H14.6198C14.785 19.2734 14.903 19.2734 14.903 19.0781V17.5136" fill="white"/>
<path fill-rule="evenodd" clip-rule="evenodd" d="M17.9265 17.7974C17.9145 17.8506 17.9145 17.939 17.9265 18.1399C17.9613 18.7007 18.3223 19.161 18.7942 19.161C19.1194 19.161 19.3735 18.9838 19.5915 18.7658L19.674 18.8485C19.4023 19.2086 19.0659 19.5158 18.5821 19.5158C17.6429 19.5158 17.454 18.606 17.454 18.2283C17.454 17.0709 18.2333 16.7281 18.6462 16.7281C19.125 16.7281 19.6391 17.0293 19.6446 17.6554C19.6446 17.6913 19.6446 17.7263 19.6391 17.7618L19.5857 17.7974H17.9265V17.7974ZM18.9722 17.6083C19.1194 17.6083 19.1367 17.5314 19.1367 17.4603C19.1367 17.1597 18.9538 16.9175 18.623 16.9175C18.2631 16.9175 18.015 17.1828 17.9442 17.6083H18.9722V17.6083Z" fill="white"/>
<path fill-rule="evenodd" clip-rule="evenodd" d="M19.7808 19.2734H19.9403C20.105 19.2734 20.2232 19.2734 20.2232 19.0781V17.4192C20.2232 17.2365 20.0049 17.2005 19.9162 17.1533V17.065C20.3473 16.8819 20.5836 16.7281 20.6376 16.7281C20.6721 16.7281 20.6899 16.7459 20.6899 16.8053V17.3367H20.7023C20.8494 17.1065 21.0979 16.7281 21.4579 16.7281C21.6054 16.7281 21.7942 16.8285 21.7942 17.0412C21.7942 17.2005 21.6825 17.3429 21.5173 17.3429C21.3336 17.3429 21.3336 17.2005 21.1267 17.2005C21.0265 17.2005 20.6958 17.3367 20.6958 17.6913V19.0781C20.6958 19.2734 20.8138 19.2734 20.9792 19.2734H21.3095V19.427C20.9848 19.4208 20.7377 19.4154 20.4835 19.4154C20.2413 19.4154 19.9932 19.4208 19.7808 19.427V19.2734" fill="white"/>
<path fill-rule="evenodd" clip-rule="evenodd" d="M22.0538 18.606C22.1308 18.9956 22.3665 19.3268 22.7983 19.3268C23.1462 19.3268 23.2759 19.114 23.2759 18.9075C23.2759 18.2103 21.9891 18.435 21.9891 17.4844C21.9891 17.1533 22.2549 16.7283 22.9045 16.7283C23.0931 16.7283 23.347 16.7818 23.5771 16.9L23.6185 17.5018H23.4828C23.4238 17.13 23.2174 16.9175 22.8391 16.9175C22.6029 16.9175 22.3787 17.0531 22.3787 17.3071C22.3787 17.9984 23.7483 17.7854 23.7483 18.7125C23.7483 19.1019 23.4357 19.5158 22.7328 19.5158C22.4968 19.5158 22.2188 19.433 22.0128 19.3149L21.9475 18.6358L22.0538 18.606" fill="white"/>
<path fill-rule="evenodd" clip-rule="evenodd" d="M29.0803 16.3739H28.933C28.8207 15.6837 28.3305 15.4058 27.6696 15.4058C26.9898 15.4058 26.004 15.8602 26.004 17.2773C26.004 18.4705 26.8547 19.3268 27.7638 19.3268C28.3478 19.3268 28.8331 18.9251 28.9509 18.3047L29.0868 18.34L28.9509 19.2024C28.7029 19.3562 28.0355 19.5158 27.6453 19.5158C26.2642 19.5158 25.3904 18.624 25.3904 17.2955C25.3904 16.0847 26.4709 15.2164 27.6283 15.2164C28.1064 15.2164 28.5668 15.3704 29.0216 15.53L29.0803 16.3739" fill="white"/>
<path fill-rule="evenodd" clip-rule="evenodd" d="M29.2935 19.2734H29.4053C29.5712 19.2734 29.689 19.2734 29.689 19.0781V15.79C29.689 15.4058 29.6006 15.3941 29.376 15.329V15.2344C29.612 15.1578 29.8603 15.0517 29.9846 14.9804C30.0487 14.9454 30.0963 14.9153 30.1137 14.9153C30.1499 14.9153 30.1615 14.9512 30.1615 14.9986V19.0781C30.1615 19.2734 30.2915 19.2734 30.4567 19.2734H30.5567V19.427C30.3565 19.427 30.1499 19.4154 29.9371 19.4154C29.7247 19.4154 29.5123 19.4208 29.2935 19.427V19.2734" fill="white"/>
<path fill-rule="evenodd" clip-rule="evenodd" d="M33.0848 19.1019C33.0848 19.2086 33.1493 19.2142 33.2494 19.2142C33.3207 19.2142 33.4089 19.2086 33.4862 19.2086V19.3329C33.2322 19.3562 32.7478 19.4803 32.6354 19.5158L32.6059 19.4978V19.0194C32.252 19.3087 31.9801 19.5158 31.5603 19.5158C31.2415 19.5158 30.911 19.3087 30.911 18.8133V17.3012C30.911 17.1475 30.8876 16.9998 30.5574 16.9707V16.8582C30.7701 16.8524 31.2415 16.8171 31.3185 16.8171C31.384 16.8171 31.384 16.8582 31.384 16.9884V18.5117C31.384 18.689 31.384 19.1963 31.8976 19.1963C32.0981 19.1963 32.3638 19.0432 32.6117 18.8368V17.2479C32.6117 17.1299 32.3284 17.065 32.1162 17.0063V16.9001C32.6471 16.8641 32.9781 16.8171 33.0371 16.8171C33.0848 16.8171 33.0848 16.8582 33.0848 16.9234V19.1019" fill="white"/>
<path fill-rule="evenodd" clip-rule="evenodd" d="M34.2595 17.1533C34.4956 16.953 34.8146 16.7282 35.1393 16.7282C35.8244 16.7282 36.2378 17.3252 36.2378 17.9687C36.2378 18.742 35.6707 19.5158 34.8259 19.5158C34.3894 19.5158 34.1591 19.3737 34.0052 19.3087L33.8286 19.4446L33.7048 19.3799C33.7576 19.0315 33.7874 18.689 33.7874 18.3287V15.79C33.7874 15.4058 33.6985 15.3941 33.4741 15.329V15.2344C33.7105 15.1578 33.9583 15.0517 34.0822 14.9804C34.1474 14.9454 34.1945 14.9153 34.2125 14.9153C34.2476 14.9153 34.2595 14.9513 34.2595 14.9986V17.1533V17.1533ZM34.2595 18.7596C34.2595 18.9838 34.4722 19.3621 34.8677 19.3621C35.4994 19.3621 35.765 18.7419 35.765 18.2162C35.765 17.5786 35.2813 17.0473 34.8209 17.0473C34.6015 17.0473 34.4188 17.1892 34.2595 17.3252V18.7596V18.7596Z" fill="white"/>
<path fill-rule="evenodd" clip-rule="evenodd" d="M8.78491 22.8604H8.83003C8.94557 22.8604 9.06768 22.8445 9.06768 22.6773V20.9941C9.06768 20.8266 8.94557 20.8107 8.83003 20.8107H8.78491V20.7141C8.91018 20.7141 9.10295 20.7269 9.26081 20.7269C9.42135 20.7269 9.61388 20.7141 9.76493 20.7141V20.8107H9.71957C9.60451 20.8107 9.48216 20.8266 9.48216 20.9941V22.6773C9.48216 22.8445 9.60451 22.8604 9.71957 22.8604H9.76493V22.9569C9.61084 22.9569 9.41758 22.9445 9.25753 22.9445C9.09979 22.9445 8.91018 22.9569 8.78491 22.9569V22.8604" fill="white"/>
<path fill-rule="evenodd" clip-rule="evenodd" d="M9.76491 22.9706C9.60948 22.9706 9.4172 22.9577 9.25727 22.9577C9.10001 22.9577 8.91101 22.9706 8.78489 22.9706H8.7709V22.8464H8.82977C8.9464 22.8436 9.05246 22.8343 9.05343 22.6773V20.994C9.05246 20.8368 8.9464 20.8266 8.82977 20.8245H8.7709V20.7001H8.78489C8.91101 20.7001 9.10366 20.7126 9.26079 20.7126C9.4206 20.7126 9.61301 20.7001 9.76491 20.7001H9.77926V20.8245H9.72015C9.6034 20.8266 9.49674 20.8368 9.49613 20.994V22.6773C9.49674 22.8343 9.6034 22.8436 9.72015 22.8464H9.77926V22.9706H9.76491V22.9706ZM9.75098 22.9431L9.75111 22.8748H9.72009C9.60516 22.8748 9.46858 22.8546 9.46785 22.6773V20.994C9.46858 20.8163 9.60516 20.7965 9.72009 20.7965H9.75098V20.7279C9.60273 20.728 9.41653 20.7409 9.26073 20.7409C9.1081 20.7409 8.92335 20.7289 8.79894 20.7279V20.7965H8.82971C8.94427 20.7965 9.0811 20.8163 9.0811 20.994V22.6773C9.0811 22.8546 8.94427 22.8748 8.82971 22.8748H8.79894V22.9431C8.92335 22.942 9.10481 22.9302 9.2572 22.9302C9.41373 22.9302 9.59944 22.9423 9.75098 22.9431V22.9431Z" fill="white"/>
<path fill-rule="evenodd" clip-rule="evenodd" d="M11.9722 22.3236L11.9787 22.3173V21.1128C11.9787 20.8491 11.7953 20.8106 11.699 20.8106H11.6282V20.7141C11.7795 20.7141 11.9272 20.7269 12.078 20.7269C12.2098 20.7269 12.3421 20.7141 12.4733 20.7141V20.8106H12.4255C12.2902 20.8106 12.1391 20.8362 12.1391 21.2186V22.6805C12.1391 22.7931 12.1423 22.9055 12.1581 23.0052H12.036L10.3816 21.1606V22.4847C10.3816 22.7644 10.4359 22.8604 10.6833 22.8604H10.738V22.9569C10.5999 22.9569 10.4618 22.9444 10.3237 22.9444C10.1794 22.9444 10.0314 22.9569 9.88669 22.9569V22.8604H9.93181C10.1534 22.8604 10.2209 22.7093 10.2209 22.453V21.0993C10.2209 20.9195 10.0726 20.8106 9.92865 20.8106H9.88669V20.7141C10.0086 20.7141 10.1341 20.7269 10.2559 20.7269C10.3526 20.7269 10.4458 20.7141 10.5421 20.7141L11.9722 22.3236" fill="white"/>
<path fill-rule="evenodd" clip-rule="evenodd" d="M12.158 23.0186L12.0256 23.0141L10.3951 21.1968V22.4846C10.399 22.764 10.4414 22.8434 10.6833 22.8464H10.7521V22.9706H10.7379C10.5989 22.9706 10.4606 22.9577 10.3236 22.9577C10.1797 22.9577 10.032 22.9706 9.88645 22.9706H9.87234V22.8464H9.9317C10.144 22.8452 10.2047 22.7088 10.207 22.4529V21.0997C10.2064 20.9286 10.0661 20.8245 9.92866 20.8245H9.87234V20.7001H9.88645C10.0093 20.7001 10.135 20.7126 10.2556 20.7126C10.3514 20.7126 10.4442 20.7001 10.5526 20.7051L11.9646 22.2945V21.1127C11.963 20.8576 11.7925 20.8266 11.699 20.8245H11.614V20.7001H11.6282C11.78 20.7001 11.9279 20.7126 12.0779 20.7126C12.2087 20.7126 12.3404 20.7001 12.4732 20.7001H12.4873V20.8245H12.4254C12.2927 20.8279 12.1566 20.8396 12.1527 21.2185V22.6804C12.1527 22.7929 12.1563 22.9051 12.1717 23.0026L12.1746 23.0186H12.158V23.0186ZM12.036 22.9907H12.1423C12.1279 22.894 12.1254 22.7873 12.1254 22.6804V21.2185C12.1254 20.8329 12.287 20.7965 12.4254 20.7963H12.4592V20.7279C12.3326 20.7289 12.2058 20.7406 12.0779 20.7406C11.9308 20.7406 11.7878 20.7289 11.6425 20.7279L11.6422 20.7963H11.699C11.7977 20.7965 11.9924 20.8404 11.9924 21.1127L11.9882 22.3273L11.9819 22.3336L11.9709 22.3439L10.542 20.7279C10.4465 20.7279 10.3536 20.7406 10.2556 20.7406C10.1378 20.7406 10.0172 20.7289 9.90069 20.7279L9.90008 20.7963H9.92866C10.0793 20.7965 10.2344 20.9116 10.2344 21.0997V22.4529C10.2344 22.71 10.1628 22.8742 9.9317 22.875L9.90069 22.8742V22.9431C10.0398 22.942 10.1832 22.9302 10.3236 22.9302C10.4576 22.9302 10.5914 22.942 10.7239 22.9431V22.875H10.6833C10.4305 22.8742 10.3678 22.764 10.3676 22.4846V21.1245L12.036 22.9907V22.9907ZM11.9722 22.3236L11.9823 22.3143L11.9722 22.3236V22.3236ZM11.9646 22.3172V22.316L11.962 22.314L11.9646 22.3172V22.3172Z" fill="white"/>
<path fill-rule="evenodd" clip-rule="evenodd" d="M12.9548 20.8748C12.7135 20.8748 12.7041 20.9329 12.656 21.1671H12.5595C12.5722 21.0771 12.5881 20.9873 12.5981 20.8941C12.611 20.8037 12.6174 20.7141 12.6174 20.6212H12.6944C12.7203 20.7176 12.8006 20.7141 12.8878 20.7141H14.545C14.6322 20.7141 14.7123 20.7109 14.7189 20.6145L14.7956 20.6276C14.7832 20.7141 14.7701 20.8009 14.7607 20.8879C14.7544 20.9746 14.7544 21.0611 14.7544 21.1478L14.6578 21.1836C14.6513 21.0649 14.6353 20.8748 14.4201 20.8748H13.8931V22.5841C13.8931 22.832 14.0057 22.8603 14.1597 22.8603H14.221V22.9569C14.0956 22.9569 13.8706 22.9445 13.6974 22.9445C13.5044 22.9445 13.2793 22.9569 13.1539 22.9569V22.8603H13.2152C13.3922 22.8603 13.4818 22.8445 13.4818 22.5908V20.8748H12.9548" fill="white"/>
<path fill-rule="evenodd" clip-rule="evenodd" d="M14.2211 22.9707C14.0945 22.9707 13.8697 22.958 13.6973 22.958C13.5045 22.958 13.2797 22.9707 13.1537 22.9707H13.14V22.8465H13.215C13.3921 22.8424 13.4633 22.8401 13.4673 22.5909V20.8886H12.9547V20.8605H13.4951V22.5909C13.4951 22.8489 13.3912 22.8749 13.215 22.8751H13.1675V22.943C13.2942 22.9421 13.5107 22.9303 13.6973 22.9303C13.8645 22.9303 14.0792 22.9421 14.2065 22.943V22.8751H14.1596C14.0041 22.8749 13.8791 22.8367 13.8791 22.5842V20.8605H14.4199C14.6355 20.8613 14.664 21.0445 14.6707 21.164L14.7403 21.1384C14.7403 21.0545 14.7407 20.9704 14.7464 20.886C14.7559 20.803 14.7675 20.7213 14.7796 20.639L14.7308 20.6309C14.7158 20.7244 14.6252 20.7294 14.5447 20.7282H12.8709C12.7952 20.7283 12.7129 20.7246 12.6839 20.635H12.6309C12.6304 20.7238 12.6243 20.81 12.6122 20.8956C12.6026 20.9839 12.5878 21.0687 12.5762 21.1538H12.6448C12.687 20.9297 12.7145 20.8573 12.9547 20.8605V20.8886C12.7166 20.8933 12.7219 20.9331 12.6695 21.1705L12.6671 21.1814H12.5433L12.545 21.1648C12.5582 21.0751 12.5745 20.9849 12.5838 20.8916C12.5972 20.8025 12.6033 20.7133 12.6033 20.6213V20.607H12.7053L12.7078 20.6171C12.7294 20.6981 12.7889 20.6987 12.8709 20.7002H14.5447C14.6342 20.6987 14.6994 20.6975 14.7049 20.6135L14.706 20.5983L14.7206 20.6012L14.8114 20.6155L14.8091 20.6298C14.7964 20.716 14.7838 20.8025 14.7741 20.8886C14.7681 20.9747 14.7681 21.061 14.7681 21.1479V21.1576L14.7588 21.1614L14.6451 21.203L14.6443 21.1844C14.6355 21.0635 14.623 20.8886 14.4199 20.8886H13.9071V22.5842C13.9102 22.8265 14.0063 22.8435 14.1596 22.8465H14.2347V22.9707H14.2211" fill="white"/>
<path fill-rule="evenodd" clip-rule="evenodd" d="M14.8983 22.8604H14.9435C15.0588 22.8604 15.1813 22.8445 15.1813 22.6773V20.9941C15.1813 20.8266 15.0588 20.8107 14.9435 20.8107H14.8983V20.7141C15.0936 20.7141 15.4286 20.7269 15.6979 20.7269C15.9683 20.7269 16.302 20.7141 16.5205 20.7141C16.5149 20.8523 16.5179 21.0649 16.5274 21.2059L16.4306 21.2315C16.4151 21.0225 16.3766 20.8559 16.0391 20.8559H15.593V21.6972H15.9746C16.1674 21.6972 16.2094 21.5883 16.2285 21.4146H16.3248C16.3183 21.5402 16.3149 21.6654 16.3149 21.7906C16.3149 21.9129 16.3183 22.0349 16.3248 22.1568L16.2285 22.176C16.2094 21.9835 16.1997 21.8582 15.9778 21.8582H15.593V22.6064C15.593 22.8156 15.7786 22.8156 15.9844 22.8156C16.37 22.8156 16.5402 22.7897 16.6366 22.4239L16.7262 22.446C16.6845 22.6166 16.6462 22.7864 16.6174 22.9569C16.4115 22.9569 16.042 22.9445 15.7534 22.9445C15.4636 22.9445 15.0816 22.9569 14.8983 22.9569V22.8604" fill="white"/>
<path fill-rule="evenodd" clip-rule="evenodd" d="M16.6172 22.9706C16.411 22.9706 16.0413 22.9572 15.7531 22.9572C15.4636 22.9572 15.0817 22.9706 14.8982 22.9706H14.8847V22.8464H14.9434C15.0597 22.8445 15.1655 22.8343 15.167 22.6773V20.994C15.1655 20.837 15.0597 20.8266 14.9434 20.8245H14.8847V20.7001H14.8982C15.0945 20.7001 15.4287 20.7126 15.698 20.7126C15.9681 20.7126 16.3017 20.7001 16.5205 20.7001H16.5347L16.5342 20.7149C16.5322 20.763 16.5308 20.8201 16.5308 20.8806C16.5308 20.9916 16.5342 21.1133 16.5406 21.2048L16.5412 21.2162L16.5304 21.2195L16.4174 21.2491L16.4169 21.2325C16.3979 21.0241 16.3699 20.8724 16.0391 20.8692H15.606L15.6058 21.683H15.9745C16.1598 21.6811 16.1929 21.5864 16.2147 21.4131L16.2155 21.4002H16.339L16.3388 21.415C16.3326 21.5405 16.3288 21.6654 16.3288 21.7905C16.3288 21.912 16.3326 22.034 16.3388 22.1561L16.339 22.1678L16.3274 22.1705L16.2155 22.1927L16.2147 22.1776C16.1925 21.9815 16.191 21.874 15.9778 21.8716H15.606V22.6064C15.6065 22.8017 15.7748 22.8006 15.9843 22.8017C16.3712 22.7994 16.5261 22.7804 16.6229 22.42L16.6262 22.407L16.6397 22.4092L16.7427 22.436L16.7398 22.4492C16.6981 22.6192 16.6598 22.7891 16.6307 22.9592L16.6283 22.9706H16.6172V22.9706ZM16.6053 22.9429C16.6334 22.7804 16.67 22.6181 16.7094 22.4564L16.6462 22.4405C16.55 22.7998 16.3635 22.832 15.9843 22.8295C15.7818 22.8295 15.5794 22.8295 15.5784 22.6063V21.8441H15.9779C16.2023 21.8418 16.2249 21.9771 16.2409 22.1599L16.3103 22.1456C16.3041 22.0272 16.3009 21.9082 16.3009 21.7905C16.3009 21.6699 16.3041 21.5495 16.3103 21.4282H16.2409C16.2228 21.596 16.1704 21.7132 15.9746 21.7111H15.5784V20.8414H16.0392C16.3733 20.8387 16.4286 21.0117 16.4432 21.2138L16.5124 21.1949C16.5068 21.1043 16.503 20.9878 16.503 20.8805C16.503 20.8256 16.5045 20.7734 16.5063 20.7279C16.288 20.7289 15.9622 20.7406 15.698 20.7406C15.434 20.7406 15.109 20.7289 14.9124 20.7279V20.7963H14.9435C15.0578 20.7965 15.1945 20.8163 15.1952 20.994V22.6772C15.1945 22.8546 15.0578 22.8742 14.9435 22.875H14.9124V22.9429C15.0994 22.9423 15.4708 22.9302 15.7531 22.9302C16.0367 22.9302 16.3982 22.9423 16.6053 22.9429V22.9429Z" fill="white"/>
<path fill-rule="evenodd" clip-rule="evenodd" d="M17.1602 21.0544C17.1602 20.8202 17.0315 20.8106 16.9318 20.8106H16.8738V20.7141C16.9767 20.7141 17.1759 20.7269 17.3721 20.7269C17.5645 20.7269 17.7189 20.7141 17.8892 20.7141C18.2935 20.7141 18.6541 20.8232 18.6541 21.2798C18.6541 21.5687 18.4612 21.7452 18.2075 21.8454L18.7566 22.6675C18.8468 22.8034 18.9106 22.8415 19.0684 22.8604V22.9569C18.9621 22.9569 18.8594 22.9445 18.7537 22.9445C18.6541 22.9445 18.5508 22.9569 18.4517 22.9569C18.2041 22.6326 17.9918 22.2857 17.7831 21.9156H17.5714V22.6036C17.5714 22.851 17.6868 22.8604 17.8341 22.8604H17.8924V22.9569C17.7088 22.9569 17.5232 22.9445 17.3397 22.9445C17.1855 22.9445 17.0344 22.9569 16.8738 22.9569V22.8604H16.9318C17.0511 22.8604 17.1602 22.806 17.1602 22.6873V21.0544V21.0544ZM17.5714 21.7997H17.7284C18.0501 21.7997 18.2233 21.678 18.2233 21.2986C18.2233 21.0129 18.0401 20.8298 17.7538 20.8298C17.6574 20.8298 17.6162 20.8396 17.5714 20.8428V21.7997V21.7997Z" fill="white"/>
<path fill-rule="evenodd" clip-rule="evenodd" d="M19.0684 22.9706C18.9606 22.9706 18.8585 22.9577 18.7528 22.9577C18.6549 22.9577 18.5521 22.9706 18.4402 22.9653C18.1937 22.6417 17.9825 22.2968 17.775 21.93H17.5851V22.6029C17.5886 22.8449 17.6856 22.843 17.8341 22.8464H17.9062V22.9706H17.892C17.7083 22.9706 17.5216 22.9577 17.3396 22.9577C17.1861 22.9577 17.0351 22.9706 16.8738 22.9706H16.8598V22.8464H16.9318C17.0473 22.8456 17.145 22.7952 17.1455 22.6872V21.0544C17.143 20.8266 17.0315 20.8277 16.9318 20.8245H16.8598V20.7001H16.8738C16.9777 20.7001 17.1761 20.7126 17.372 20.7126C17.5638 20.7126 17.7179 20.7001 17.8892 20.7001C18.2943 20.7009 18.6671 20.8125 18.668 21.2792C18.668 21.5692 18.4764 21.7504 18.2286 21.8515L18.7681 22.6597C18.858 22.793 18.9139 22.8264 19.0702 22.8464L19.0819 22.8483V22.9706H19.0684V22.9706ZM17.5713 21.9017H17.7908L17.7948 21.9089C18.004 22.278 18.2151 22.625 18.4517 22.9431C18.5494 22.9431 18.6527 22.9302 18.7528 22.9302C18.8553 22.9302 18.9546 22.9414 19.0543 22.9429V22.8723C18.9037 22.854 18.8329 22.8085 18.7453 22.6753L18.1859 21.8389L18.2017 21.8325C18.4534 21.7334 18.6398 21.5617 18.6399 21.2792C18.6398 20.8335 18.2931 20.7301 17.8892 20.7279C17.72 20.7279 17.5655 20.7409 17.372 20.7409C17.1833 20.7409 16.9926 20.7289 16.8875 20.7279V20.7963H16.9318C17.0315 20.7965 17.1734 20.813 17.1734 21.0543V22.6872C17.1734 22.8161 17.0527 22.8748 16.9318 22.875H16.8875V22.9429C17.042 22.9423 17.1886 22.9302 17.3396 22.9302C17.519 22.9302 17.7004 22.9423 17.8781 22.9429V22.875H17.8341C17.6878 22.8748 17.557 22.8566 17.557 22.6029V21.9017H17.5713V21.9017ZM17.5713 21.8135H17.5571V20.8297L17.5693 20.8287C17.6134 20.8252 17.6567 20.8163 17.7538 20.8163C18.0465 20.8163 18.237 21.0064 18.2373 21.2994C18.2364 21.683 18.0525 21.8134 17.7284 21.8135H17.5713V21.8135ZM17.7284 21.7861C18.0464 21.783 18.2067 21.6727 18.2099 21.2994C18.2079 21.0187 18.0336 20.8445 17.7538 20.8433C17.6671 20.8433 17.6261 20.8514 17.5851 20.8554V21.7861H17.7284V21.7861Z" fill="white"/>
<path fill-rule="evenodd" clip-rule="evenodd" d="M21.2497 22.3236L21.2553 22.3173V21.1128C21.2553 20.8491 21.0727 20.8106 20.9763 20.8106H20.9059V20.7141C21.0569 20.7141 21.2042 20.7269 21.3556 20.7269C21.4877 20.7269 21.6185 20.7141 21.7511 20.7141V20.8106H21.7027C21.5677 20.8106 21.4168 20.8362 21.4168 21.2186V22.6805C21.4168 22.7931 21.42 22.9055 21.4358 23.0052H21.3142L19.6596 21.1606V22.4847C19.6596 22.7644 19.7139 22.8604 19.9613 22.8604H20.016V22.9569C19.8779 22.9569 19.7395 22.9444 19.6015 22.9444C19.4564 22.9444 19.3089 22.9569 19.1644 22.9569V22.8604H19.209C19.4309 22.8604 19.4987 22.7093 19.4987 22.453V21.0993C19.4987 20.9195 19.3507 20.8106 19.2062 20.8106H19.1644V20.7141C19.286 20.7141 19.4123 20.7269 19.5341 20.7269C19.6296 20.7269 19.7232 20.7141 19.8198 20.7141L21.2497 22.3236" fill="white"/>
<path fill-rule="evenodd" clip-rule="evenodd" d="M21.4357 23.0186L21.3038 23.0141L19.673 21.197V22.4845C19.6767 22.7643 19.7191 22.8434 19.9613 22.8464H20.0294V22.9706H20.0154C19.8766 22.9706 19.7386 22.9572 19.601 22.9572C19.4576 22.9572 19.3091 22.9706 19.1643 22.9706H19.15V22.8464H19.2091C19.4213 22.8456 19.4821 22.7088 19.4842 22.4521V21.0992C19.4838 20.928 19.3437 20.8245 19.2063 20.8245H19.15V20.7001H19.1643C19.2871 20.7001 19.4128 20.7126 19.5341 20.7126C19.6284 20.7126 19.7215 20.7001 19.8292 20.7042L21.2417 22.2945V21.1127C21.2409 20.8576 21.0698 20.826 20.9764 20.8245H20.8916V20.7001H20.9056C21.0574 20.7001 21.2055 20.7126 21.3557 20.7126C21.4866 20.7126 21.6182 20.7001 21.7506 20.7001H21.7648V20.8245H21.7028C21.5702 20.8277 21.4337 20.8396 21.4305 21.2185V22.6804C21.4305 22.7929 21.4333 22.9043 21.4497 23.0028L21.4513 23.0186H21.4357V23.0186ZM21.314 22.9907H21.4194C21.4053 22.8946 21.4025 22.7873 21.4025 22.6804V21.2185C21.4027 20.8329 21.5652 20.7971 21.7027 20.7963H21.7366V20.7279C21.6101 20.7289 21.4831 20.7406 21.3556 20.7406C21.208 20.7406 21.0648 20.7289 20.9195 20.7279V20.7963H20.9763C21.0753 20.7971 21.2699 20.8404 21.2699 21.1127L21.2653 22.3273L21.2594 22.3336L21.2493 22.3441L19.8198 20.7279C19.7242 20.7279 19.6311 20.7406 19.534 20.7406C19.4148 20.7406 19.2948 20.7289 19.178 20.7279V20.7963H19.2062C19.3574 20.7971 19.512 20.9111 19.512 21.0992V22.4521C19.512 22.71 19.4394 22.8742 19.209 22.875L19.178 22.8748V22.943C19.3168 22.942 19.4599 22.9302 19.6009 22.9302C19.7357 22.9302 19.8692 22.942 20.002 22.943V22.875H19.9613C19.7084 22.8748 19.6454 22.7643 19.6447 22.4845V21.125L21.314 22.9907V22.9907ZM21.2494 22.3236L21.2599 22.3143L21.2494 22.3236V22.3236ZM21.2418 22.3172V22.3164L21.2394 22.314L21.2418 22.3172V22.3172Z" fill="white"/>
<path fill-rule="evenodd" clip-rule="evenodd" d="M22.2677 22.4976C22.2353 22.6065 22.1965 22.6909 22.1965 22.7479C22.1965 22.8446 22.3319 22.8605 22.4376 22.8605H22.4735V22.957C22.3444 22.9501 22.2133 22.9446 22.084 22.9446C21.9684 22.9446 21.8533 22.9501 21.7373 22.957V22.8605H21.7569C21.8819 22.8605 21.9883 22.7865 22.036 22.6515L22.5501 21.1772C22.5921 21.058 22.6499 20.8975 22.6695 20.7783C22.7717 20.7431 22.9007 20.6793 22.9615 20.6402C22.9715 20.637 22.9775 20.6337 22.9872 20.6337C22.9969 20.6337 23.0029 20.6337 23.0099 20.6438C23.0194 20.6692 23.0288 20.6981 23.0388 20.7238L23.6302 22.4045C23.6688 22.5166 23.7069 22.6354 23.7481 22.7324C23.7872 22.8225 23.8547 22.8605 23.9611 22.8605H23.9804V22.957C23.8356 22.9501 23.6907 22.9446 23.5372 22.9446C23.3797 22.9446 23.2185 22.9501 23.0547 22.957V22.8605H23.0901C23.1635 22.8605 23.2897 22.8478 23.2897 22.7674C23.2897 22.7259 23.2606 22.6391 23.2247 22.5358L23.0996 22.1633H22.3703L22.2677 22.4976V22.4976ZM22.7367 21.0742H22.7301L22.4315 21.9836H23.0318L22.7367 21.0742V21.0742Z" fill="white"/>
<path fill-rule="evenodd" clip-rule="evenodd" d="M23.9794 22.9706C23.835 22.9644 23.6902 22.9572 23.5372 22.9572C23.3797 22.9572 23.2194 22.9644 23.0554 22.9706L23.0406 22.9713V22.8458H23.0901C23.1645 22.8458 23.275 22.8292 23.2752 22.7673C23.2759 22.7307 23.2471 22.6426 23.2117 22.5404L23.0894 22.1769H22.3807L22.2807 22.5017C22.2484 22.6109 22.2093 22.6958 22.2099 22.7481C22.211 22.8265 22.3309 22.8458 22.4376 22.8458H22.487V22.9713L22.4724 22.9706C22.344 22.9644 22.2129 22.9572 22.0843 22.9572C21.9696 22.9572 21.8535 22.9644 21.7384 22.9706L21.7234 22.9713V22.8458H21.7568C21.8762 22.8456 21.9759 22.7774 22.0224 22.6469L22.537 21.1721C22.5784 21.0531 22.6368 20.8933 22.6645 20.7649C22.7654 20.7307 22.8947 20.6659 22.9563 20.6271C22.9653 20.6239 22.9742 20.6198 22.9871 20.6198C22.995 20.6193 23.0123 20.6214 23.0227 20.6382C23.0318 20.6646 23.0421 20.6934 23.0518 20.7193L23.6434 22.3997C23.6812 22.5122 23.7196 22.6309 23.7617 22.7262C23.7989 22.8118 23.8579 22.8456 23.9611 22.8458H23.9936V22.9713L23.9794 22.9706V22.9706ZM23.0688 22.942C23.2277 22.9364 23.3838 22.9302 23.5373 22.9302C23.6862 22.9302 23.8263 22.9364 23.966 22.942V22.8748H23.9612C23.851 22.8755 23.7753 22.8322 23.7359 22.7374C23.694 22.6404 23.655 22.5211 23.617 22.4086L23.0255 20.728C23.0157 20.7024 23.0066 20.6737 22.9982 20.6508C22.9951 20.6476 22.9958 20.6476 22.9932 20.6476H22.9872C22.9807 20.6476 22.9768 20.6496 22.9686 20.6517C22.9068 20.6918 22.778 20.7552 22.6824 20.7802C22.6628 20.9019 22.6049 21.0625 22.5632 21.1816L22.0491 22.656C22.0002 22.7956 21.8872 22.875 21.7569 22.8748H21.7515V22.942C21.8617 22.9364 21.9728 22.9302 22.0844 22.9302C22.2087 22.9302 22.3354 22.9364 22.4584 22.942V22.8748H22.4377C22.3327 22.8733 22.1865 22.8619 22.1829 22.748C22.1831 22.6843 22.2225 22.6021 22.254 22.4935L22.2677 22.4975L22.254 22.4931L22.3598 22.1498H23.109L23.2377 22.5313C23.2738 22.6347 23.303 22.7203 23.303 22.7672C23.2983 22.8656 23.163 22.8729 23.0902 22.8748H23.0688V22.942V22.942ZM22.4119 21.9973L22.7195 21.0598H22.7368V21.0741L22.7334 21.075L22.7368 21.0741V21.0598H22.7464L23.0518 21.9973H22.4119V21.9973ZM22.4504 21.9692H23.0129L22.7333 21.1082L22.4504 21.9692V21.9692ZM22.7228 21.0782L22.7302 21.0759L22.7228 21.0782V21.0782Z" fill="white"/>
<path fill-rule="evenodd" clip-rule="evenodd" d="M24.1216 20.8748C23.8807 20.8748 23.8709 20.9329 23.8225 21.1671H23.726C23.7386 21.0771 23.755 20.9873 23.765 20.8941C23.7775 20.8037 23.7837 20.7141 23.7837 20.6212H23.8614C23.8866 20.7176 23.9671 20.7141 24.0538 20.7141H25.712C25.7984 20.7141 25.8786 20.7109 25.885 20.6145L25.9618 20.6276C25.9499 20.7141 25.9371 20.8009 25.927 20.8879C25.92 20.9746 25.92 21.0611 25.92 21.1478L25.824 21.1836C25.8183 21.0649 25.8021 20.8748 25.5864 20.8748H25.0595V22.5841C25.0595 22.832 25.1721 22.8603 25.3261 22.8603H25.3875V22.9569C25.262 22.9569 25.0375 22.9445 24.8636 22.9445C24.6712 22.9445 24.4457 22.9569 24.3204 22.9569V22.8603H24.3816C24.5587 22.8603 24.6483 22.8445 24.6483 22.5908V20.8748H24.1216" fill="white"/>
<path fill-rule="evenodd" clip-rule="evenodd" d="M25.3875 22.9707C25.2613 22.9707 25.0361 22.958 24.8634 22.958C24.6714 22.958 24.4464 22.9707 24.3206 22.9707H24.3063V22.8465H24.3816C24.5588 22.8424 24.6298 22.8401 24.6341 22.5909L24.6339 20.8886H24.1216V20.8605H24.6622V22.5909C24.6622 22.8489 24.5581 22.8743 24.3816 22.8749H24.3343V22.9432C24.4613 22.9421 24.6771 22.9303 24.8634 22.9303C25.0313 22.9303 25.2463 22.9421 25.3732 22.9432V22.8749H25.326C25.1712 22.8743 25.046 22.8371 25.0458 22.5842V20.8605H25.5864C25.8023 20.8613 25.8304 21.0445 25.8366 21.164L25.9064 21.1384C25.9064 21.0545 25.9069 20.9704 25.9134 20.8864C25.9221 20.8036 25.9342 20.7213 25.9459 20.6394L25.8974 20.6309C25.8827 20.7244 25.7919 20.7296 25.712 20.7282H24.0374C23.9617 20.729 23.8797 20.7246 23.8505 20.6348H23.798C23.7972 20.7237 23.7909 20.81 23.7783 20.8956C23.7695 20.9843 23.754 21.0693 23.7418 21.1538H23.8108C23.853 20.9297 23.8809 20.857 24.1216 20.8605V20.8886C23.8833 20.8927 23.8886 20.9331 23.8361 21.1705L23.8338 21.1814H23.7098L23.7117 21.1655C23.7252 21.0751 23.741 20.9849 23.7504 20.8923C23.7635 20.8025 23.7695 20.7133 23.7695 20.6213V20.607H23.8715L23.8742 20.6171C23.8967 20.6981 23.9552 20.6987 24.0374 20.7002H25.712C25.8009 20.6987 25.8657 20.6975 25.8715 20.6137L25.872 20.5983L25.8869 20.6012L25.9781 20.6155L25.9759 20.6298C25.9627 20.716 25.9505 20.8025 25.9408 20.8886C25.9342 20.9747 25.9342 21.0612 25.9342 21.1479V21.1576L25.9249 21.1614L25.8111 21.203L25.8107 21.1844C25.8023 21.0635 25.7895 20.8886 25.5864 20.8886H25.0734V22.5842C25.0767 22.8265 25.1729 22.8435 25.326 22.8465H25.4009V22.9707H25.3875" fill="white"/>
<path fill-rule="evenodd" clip-rule="evenodd" d="M26.0808 22.8604H26.1258C26.2416 22.8604 26.3632 22.8445 26.3632 22.6773V20.9941C26.3632 20.8266 26.2416 20.8107 26.1258 20.8107H26.0808V20.7141C26.2062 20.7141 26.3986 20.7269 26.5558 20.7269C26.7169 20.7269 26.9097 20.7141 27.061 20.7141V20.8107H27.0159C26.8998 20.8107 26.7777 20.8266 26.7777 20.9941V22.6773C26.7777 22.8445 26.8998 22.8604 27.0159 22.8604H27.061V22.9569C26.9067 22.9569 26.7137 22.9445 26.5533 22.9445C26.3955 22.9445 26.2062 22.9569 26.0808 22.9569V22.8604" fill="white"/>
<path fill-rule="evenodd" clip-rule="evenodd" d="M27.0611 22.9706C26.9058 22.9706 26.7136 22.9572 26.5533 22.9572C26.3961 22.9572 26.2063 22.9706 26.0808 22.9706H26.0671V22.8464H26.1259C26.2417 22.8445 26.3485 22.8343 26.3492 22.6773V20.994C26.3485 20.837 26.2417 20.8266 26.1259 20.8245H26.0671V20.7001H26.0808C26.2063 20.7001 26.3996 20.7126 26.5559 20.7126C26.716 20.7126 26.9088 20.7001 27.0611 20.7001H27.0745V20.8245H27.0161C26.8985 20.8266 26.7928 20.837 26.7917 20.994V22.6773C26.7928 22.8343 26.8985 22.8445 27.0161 22.8464H27.0745V22.9706H27.0611V22.9706ZM27.0465 22.9429V22.8748H27.0161C26.9008 22.8748 26.7645 22.8546 26.7645 22.6772V20.994C26.7645 20.8163 26.9008 20.7965 27.0161 20.7963H27.0465V20.7279C26.8984 20.7289 26.7123 20.7406 26.5559 20.7406C26.4034 20.7406 26.2195 20.7289 26.0948 20.7279V20.7963H26.1259C26.24 20.7965 26.377 20.8163 26.3773 20.994V22.6772C26.377 22.8546 26.24 22.8748 26.1259 22.8748H26.0948V22.9429C26.2186 22.9414 26.4003 22.9302 26.5533 22.9302C26.7091 22.9302 26.895 22.942 27.0465 22.9429V22.9429Z" fill="white"/>
<path fill-rule="evenodd" clip-rule="evenodd" d="M28.3421 20.666C29.0271 20.666 29.5731 21.0906 29.5731 21.775C29.5731 22.514 29.0428 23.0053 28.3587 23.0053C27.6772 23.0053 27.157 22.5425 27.157 21.8516C27.157 21.1836 27.6741 20.666 28.3421 20.666M28.3906 22.8638C29.0142 22.8638 29.1229 22.314 29.1229 21.8455C29.1229 21.3759 28.8697 20.8075 28.336 20.8075C27.7739 20.8075 27.6067 21.3088 27.6067 21.739C27.6067 22.314 27.8703 22.8638 28.3906 22.8638" fill="white"/>
<path fill-rule="evenodd" clip-rule="evenodd" d="M27.1426 21.8515C27.144 21.1758 27.6671 20.6531 28.3421 20.652V20.6801C27.6815 20.6801 27.1706 21.1906 27.1699 21.8515C27.1712 22.5347 27.684 22.9905 28.3588 22.9907C29.036 22.9905 29.5586 22.5063 29.5595 21.7744C29.5589 21.0986 29.0216 20.6807 28.3421 20.6801V20.652C29.0319 20.6527 29.5856 21.0814 29.5868 21.7744C29.5861 22.5212 29.0495 23.0175 28.3588 23.0187C27.6716 23.0175 27.144 22.5501 27.1426 21.8515M27.5927 21.7389C27.5937 21.3065 27.7623 20.793 28.336 20.793C28.8816 20.7942 29.136 21.3733 29.1371 21.8454C29.136 22.3139 29.0259 22.8769 28.3909 22.8769V22.8496C29.0018 22.8491 29.1079 22.3139 29.1089 21.8454C29.1089 21.38 28.8583 20.8222 28.336 20.8214C27.7848 20.822 27.622 21.3109 27.6205 21.7389C27.6208 22.3112 27.882 22.8488 28.3909 22.8496V22.8769C27.8576 22.8764 27.5937 22.3173 27.5927 21.7389" fill="white"/>
<path fill-rule="evenodd" clip-rule="evenodd" d="M31.7382 22.3236L31.7449 22.3173V21.1128C31.7449 20.8491 31.5611 20.8106 31.4648 20.8106H31.3949V20.7141C31.5454 20.7141 31.6936 20.7269 31.8441 20.7269C31.9762 20.7269 32.1079 20.7141 32.2398 20.7141V20.8106H32.1915C32.0568 20.8106 31.9052 20.8362 31.9052 21.2186V22.6805C31.9052 22.7931 31.9086 22.9055 31.9249 23.0052H31.8027L30.1476 21.1606V22.4847C30.1476 22.7644 30.2025 22.8604 30.4494 22.8604H30.5045V22.9569C30.3662 22.9569 30.2283 22.9444 30.0901 22.9444C29.9454 22.9444 29.7975 22.9569 29.6529 22.9569V22.8604H29.698C29.9201 22.8604 29.9871 22.7093 29.9871 22.453V21.0993C29.9871 20.9195 29.8398 20.8106 29.6945 20.8106H29.6529V20.7141C29.775 20.7141 29.9001 20.7269 30.0225 20.7269C30.1187 20.7269 30.2114 20.7141 30.3082 20.7141L31.7382 22.3236" fill="white"/>
<path fill-rule="evenodd" clip-rule="evenodd" d="M31.925 23.0186L31.7921 23.0141L30.1615 21.197V22.4846C30.1653 22.7643 30.2077 22.843 30.449 22.8458H30.5182V22.9706H30.5046C30.3655 22.9706 30.2276 22.9577 30.0901 22.9577C29.9461 22.9577 29.7982 22.9706 29.6525 22.9706H29.6394V22.8458H29.6979C29.9096 22.8452 29.9707 22.7088 29.9733 22.4529V21.0992C29.9731 20.928 29.8327 20.8245 29.6946 20.8245H29.6394V20.7001H29.6525C29.7757 20.7001 29.901 20.7126 30.0224 20.7126C30.1177 20.7126 30.21 20.7001 30.319 20.7051L31.7308 22.2945V21.1127C31.7297 20.8576 31.5586 20.8266 31.4648 20.8245H31.3802V20.7001H31.3949C31.5458 20.7001 31.6941 20.7126 31.8438 20.7126C31.9752 20.7126 32.1064 20.7001 32.2399 20.7001H32.2534V20.8245H32.1914C32.0589 20.8279 31.9222 20.8401 31.9195 21.2185V22.6804C31.9195 22.7929 31.9221 22.9051 31.9377 23.0028L31.9405 23.0186H31.925V23.0186ZM31.8027 22.9907H31.908C31.8944 22.894 31.8912 22.7873 31.8912 22.6804V21.2185C31.8912 20.8323 32.0535 20.7971 32.1914 20.7963H32.2262V20.7279C32.0986 20.7289 31.9722 20.7406 31.8438 20.7406C31.6975 20.7406 31.5539 20.7289 31.4084 20.7279V20.7963H31.4648C31.5641 20.7971 31.7581 20.841 31.7581 21.1127L31.7547 22.3273L31.7485 22.3336L31.7382 22.3441L30.3084 20.7279C30.2132 20.7279 30.1197 20.7406 30.0224 20.7406C29.904 20.7406 29.7833 20.7289 29.6664 20.7279V20.7963H29.6947C29.8457 20.7971 30.0009 20.9111 30.0009 21.0992V22.4529C30.0009 22.71 29.9291 22.8742 29.6979 22.875L29.6664 22.8748V22.943C29.8059 22.942 29.949 22.9302 30.0902 22.9302C30.2242 22.9302 30.3574 22.942 30.4905 22.943V22.875H30.4491C30.197 22.8748 30.1337 22.7643 30.1337 22.4846V21.1245L31.8027 22.9907V22.9907ZM31.7382 22.3236L31.7484 22.3143L31.7382 22.3236V22.3236ZM31.7308 22.3172V22.3164L31.7283 22.314L31.7308 22.3172V22.3172Z" fill="white"/>
<path fill-rule="evenodd" clip-rule="evenodd" d="M32.756 22.4976C32.7245 22.6065 32.6857 22.6909 32.6857 22.7479C32.6857 22.8446 32.821 22.8605 32.9264 22.8605H32.9622V22.957C32.8336 22.9501 32.7017 22.9446 32.5731 22.9446C32.4574 22.9446 32.3419 22.9501 32.2267 22.957V22.8605H32.2449C32.3709 22.8605 32.4773 22.7865 32.5243 22.6515L33.0395 21.1772C33.0809 21.058 33.1391 20.8975 33.1576 20.7783C33.2608 20.7431 33.389 20.6793 33.4509 20.6402C33.4599 20.637 33.4664 20.6337 33.4763 20.6337C33.4857 20.6337 33.4918 20.6337 33.4983 20.6438C33.5081 20.6692 33.5177 20.6981 33.5274 20.7238L34.1186 22.4045C34.1569 22.5166 34.1957 22.6354 34.2377 22.7324C34.2762 22.8225 34.3436 22.8605 34.4495 22.8605H34.4694V22.957C34.3245 22.9501 34.1798 22.9446 34.0255 22.9446C33.8683 22.9446 33.7074 22.9501 33.5433 22.957V22.8605H33.579C33.6524 22.8605 33.7784 22.8478 33.7784 22.7674C33.7784 22.7259 33.7496 22.6391 33.7137 22.5358L33.5885 22.1633H32.8592L32.756 22.4976V22.4976ZM33.2259 21.0742H33.2194L32.9199 21.9836H33.5217L33.2259 21.0742V21.0742Z" fill="white"/>
<path fill-rule="evenodd" clip-rule="evenodd" d="M34.4679 22.9707C34.323 22.965 34.1788 22.9578 34.0255 22.9578C33.8688 22.9578 33.7077 22.965 33.544 22.9707L33.5298 22.9714V22.8465H33.5787C33.6534 22.8465 33.764 22.8292 33.7642 22.7673C33.765 22.7307 33.7359 22.643 33.6998 22.5405L33.578 22.177H32.8687L32.7694 22.5017C32.7371 22.6118 32.6991 22.6958 32.6995 22.7479C32.6995 22.8266 32.82 22.8465 32.9262 22.8465H32.9753V22.9714L32.9609 22.9707C32.8325 22.965 32.701 22.9578 32.573 22.9578C32.4578 22.9578 32.3425 22.965 32.2266 22.9707L32.2126 22.9714V22.8465H32.2449C32.3647 22.8459 32.4649 22.7773 32.512 22.6469L33.0258 21.1722C33.067 21.0532 33.125 20.8934 33.1533 20.7655C33.2542 20.7304 33.3832 20.666 33.4458 20.6272C33.454 20.624 33.463 20.6201 33.4762 20.6201C33.4844 20.6194 33.5013 20.6215 33.5112 20.639C33.5209 20.6643 33.5304 20.6935 33.5409 20.7194L34.1317 22.3998C34.1704 22.5123 34.2087 22.631 34.2504 22.7268C34.2882 22.8118 34.3464 22.8457 34.4491 22.8465H34.4823V22.9714L34.4679 22.9707V22.9707ZM33.5571 22.9423C33.716 22.9365 33.8723 22.9303 34.0256 22.9303C34.1749 22.9303 34.3146 22.9365 34.4549 22.9421L34.4545 22.8748H34.4492C34.3403 22.8751 34.2645 22.8323 34.2244 22.7375C34.1821 22.6405 34.1439 22.5212 34.1053 22.409L33.5141 20.7281C33.5047 20.7025 33.4944 20.6738 33.4869 20.6515C33.4842 20.6477 33.4845 20.6477 33.4825 20.6477H33.4762C33.4693 20.6477 33.4657 20.6499 33.4581 20.6521C33.3952 20.6914 33.2666 20.7559 33.1718 20.7803C33.1518 20.902 33.0935 21.0623 33.0521 21.1816L32.5375 22.6561C32.4886 22.7957 32.3764 22.8751 32.2449 22.8748H32.2402V22.9421C32.3508 22.9365 32.4613 22.9303 32.573 22.9303C32.6975 22.9303 32.8246 22.9365 32.948 22.9421V22.8748H32.9262C32.8218 22.8734 32.6753 22.8623 32.6712 22.7479C32.672 22.6844 32.7116 22.6024 32.7431 22.4936L32.756 22.4976L32.7431 22.4932L32.8488 22.1499H33.5977L33.7267 22.5314C33.7621 22.6348 33.7914 22.7204 33.7914 22.7673C33.7868 22.8657 33.6517 22.873 33.5787 22.8748H33.5571V22.9423V22.9423ZM32.9005 21.9973L33.209 21.0599H33.2257V21.0742L33.2221 21.0751L33.2257 21.0742V21.0599H33.2354L33.5392 21.9973H32.9005V21.9973ZM32.9393 21.9693H33.5014L33.2219 21.1088L32.9393 21.9693V21.9693ZM33.2124 21.0783L33.2187 21.076L33.2124 21.0783V21.0783Z" fill="white"/>
<path fill-rule="evenodd" clip-rule="evenodd" d="M35.2786 22.6418C35.2786 22.771 35.3679 22.809 35.471 22.8224C35.6025 22.832 35.7472 22.832 35.8955 22.8156C36.0302 22.7994 36.1459 22.7228 36.2035 22.6418C36.2546 22.5713 36.2836 22.4813 36.3033 22.4107H36.3962C36.3608 22.5939 36.3159 22.774 36.2774 22.9569C35.9952 22.9569 35.7116 22.9445 35.4293 22.9445C35.1463 22.9445 34.8638 22.9569 34.5811 22.9569V22.8604H34.6256C34.7415 22.8604 34.8673 22.8445 34.8673 22.6453V20.9941C34.8673 20.8266 34.7415 20.8106 34.6256 20.8106H34.5811V20.7141C34.7511 20.7141 34.9185 20.7269 35.0885 20.7269C35.2527 20.7269 35.413 20.7141 35.5773 20.7141V20.8106H35.4966C35.3744 20.8106 35.2786 20.814 35.2786 20.9842V22.6418" fill="white"/>
<path fill-rule="evenodd" clip-rule="evenodd" d="M36.2774 22.9706C35.994 22.9706 35.711 22.9577 35.4292 22.9577C35.1466 22.9577 34.8638 22.9706 34.5805 22.9706H34.567V22.8464H34.6256C34.7417 22.8436 34.852 22.8355 34.8534 22.6453V20.9934C34.852 20.837 34.7422 20.8266 34.6256 20.8245H34.567V20.7001H34.5805C34.7516 20.7001 34.9188 20.7126 35.0882 20.7126C35.2518 20.7126 35.4119 20.7001 35.5773 20.7001H35.5901V20.8245H35.4965C35.3718 20.8277 35.2945 20.8221 35.2917 20.9842V22.6417C35.2925 22.7619 35.3712 22.794 35.4717 22.8084C35.5282 22.8123 35.5881 22.8143 35.6499 22.8143C35.7284 22.8143 35.81 22.8107 35.8931 22.8019C36.024 22.7864 36.1366 22.7107 36.1922 22.6341C36.2418 22.5654 36.2698 22.4773 36.2892 22.4074L36.2919 22.3968H36.413L36.4102 22.4137C36.3739 22.5974 36.3296 22.7766 36.2907 22.9598L36.2881 22.9706H36.2774V22.9706ZM36.2657 22.9429C36.3029 22.7683 36.3449 22.5977 36.3797 22.4244H36.3134C36.2937 22.4943 36.265 22.5806 36.2146 22.6505C36.1545 22.7337 36.0356 22.8122 35.8962 22.8295C35.8122 22.838 35.7286 22.8424 35.6499 22.8424C35.5877 22.8424 35.5276 22.8396 35.4691 22.8355C35.3646 22.824 35.2636 22.7792 35.2637 22.6417V20.9842C35.2637 20.8055 35.3767 20.7963 35.4966 20.7963H35.5627V20.7279C35.4045 20.7289 35.2482 20.7409 35.0883 20.7409C34.9223 20.7409 34.7594 20.7289 34.595 20.7279V20.7963H34.6257C34.7402 20.7963 34.8804 20.8163 34.8804 20.9934V22.6453C34.8804 22.8532 34.7408 22.8748 34.6257 22.8748H34.595V22.9429C34.8725 22.9423 35.1503 22.9302 35.4293 22.9302C35.7087 22.9302 35.9876 22.9423 36.2657 22.9429V22.9429Z" fill="white"/>
<path fill-rule="evenodd" clip-rule="evenodd" d="M36.357 20.623C36.5508 20.623 36.6954 20.7719 36.6954 20.9621C36.6954 21.1522 36.5508 21.2995 36.357 21.2995C36.1636 21.2995 36.0187 21.1522 36.0187 20.9621C36.0187 20.7719 36.1636 20.623 36.357 20.623V20.623ZM36.357 21.2366C36.5088 21.2366 36.6247 21.1076 36.6247 20.9621C36.6247 20.8164 36.5101 20.6864 36.357 20.6864C36.2047 20.6864 36.0889 20.8164 36.0889 20.9621C36.0889 21.1076 36.2047 21.2366 36.357 21.2366V21.2366ZM36.1887 21.1406V21.1241C36.2301 21.1182 36.2379 21.1193 36.2379 21.094V20.8432C36.2379 20.8079 36.2343 20.7958 36.1901 20.7977V20.7804H36.3633C36.4227 20.7804 36.4776 20.8089 36.4776 20.8704C36.4776 20.9207 36.4445 20.958 36.3975 20.9725L36.4533 21.0501C36.4792 21.0851 36.5087 21.1182 36.5277 21.1299V21.1406H36.4619C36.4303 21.1406 36.4023 21.0742 36.3403 20.985H36.3028V21.0971C36.3028 21.1193 36.3106 21.1182 36.3522 21.1241V21.1406H36.1887V21.1406ZM36.3028 20.9622H36.3427C36.3864 20.9622 36.4065 20.9292 36.4065 20.8758C36.4065 20.822 36.3754 20.803 36.3405 20.803H36.3028V20.9622V20.9622Z" fill="white"/>
<path fill-rule="evenodd" clip-rule="evenodd" d="M16.2888 9.37099C16.2888 6.36562 18.7251 3.92932 21.7304 3.92932C24.7357 3.92932 27.172 6.36562 27.172 9.37099C27.172 12.3764 24.7357 14.8128 21.7304 14.8128C18.7251 14.8128 16.2888 12.3764 16.2888 9.37099" fill="#0069AA"/>
<path fill-rule="evenodd" clip-rule="evenodd" d="M25.0213 9.26376C25.0192 7.87023 24.1481 6.68176 22.9207 6.21109V12.3162C24.1481 11.8449 25.0192 10.6575 25.0213 9.26376V9.26376ZM20.5792 12.3149V6.21162C19.3529 6.68375 18.4832 7.87053 18.4799 9.26369C18.4832 10.6565 19.3529 11.8431 20.5792 12.3149V12.3149ZM21.7506 4.10348C18.9007 4.10457 16.5919 6.4139 16.5914 9.26372C16.5919 12.1132 18.9007 14.4221 21.7506 14.4226C24.6004 14.4221 26.9097 12.1132 26.9104 9.26372C26.9097 6.4139 24.6004 4.10457 21.7506 4.10348V4.10348ZM21.7379 14.9096C18.6194 14.9245 16.0528 12.398 16.0528 9.32261C16.0528 5.9615 18.6194 3.63672 21.7379 3.63733H23.1993C26.2809 3.63672 29.0934 5.9604 29.0934 9.32261C29.0934 12.3969 26.2809 14.9096 23.1993 14.9096H21.7379V14.9096Z" fill="white"/>
</g>
<defs>
<clipPath id="clip0_615_21019">
<rect width="44" height="26.4" fill="white" transform="translate(0.733154 0.128052)"/>
</clipPath>
</defs>
</svg>
