<svg width="36" height="37" viewBox="0 0 36 37" fill="none" xmlns="http://www.w3.org/2000/svg">
<g clip-path="url(#clip0_615_21197)">
<ellipse cx="18" cy="18.3603" rx="18" ry="17.9991" fill="#1877F2"/>
<path d="M18.0001 6.65948C11.5748 6.65948 6.30008 11.5407 6.30008 17.5869C6.30008 20.8081 7.83083 23.6701 10.2001 25.6636V30.0583L14.5271 27.9498C15.6269 28.2729 16.7774 28.5143 18.0001 28.5143C24.4253 28.5143 29.7001 23.633 29.7001 17.5869C29.7001 11.5407 24.4253 6.65948 18.0001 6.65948ZM18.0001 8.5599C23.4201 8.5599 27.7501 12.6135 27.7501 17.5869C27.7501 22.5603 23.4201 26.6138 18.0001 26.6138C16.835 26.6138 15.7225 26.3981 14.6792 26.0494L14.2834 25.9306L12.1501 26.9702V24.8322L11.7845 24.5348C9.62093 22.8729 8.25008 20.3824 8.25008 17.5869C8.25008 12.6135 12.5801 8.5599 18.0001 8.5599ZM16.9032 14.588L11.023 20.6456L16.2938 17.795L19.097 20.7349L24.9167 14.5871L19.7668 17.4092L16.9032 14.588Z" fill="white"/>
</g>
<defs>
<clipPath id="clip0_615_21197">
<rect width="36" height="36" fill="white" transform="translate(0 0.360352)"/>
</clipPath>
</defs>
</svg>
