<svg width="16" height="16" viewBox="0 0 16 16" fill="none" xmlns="http://www.w3.org/2000/svg">
<ellipse cx="8" cy="8.0001" rx="8" ry="7.99961" fill="#1877F2"/>
<path d="M8.00005 2.79956C5.14438 2.79956 2.80005 4.96899 2.80005 7.65618C2.80005 9.08782 3.48038 10.3598 4.53338 11.2458V13.1991L6.45652 12.2619C6.94532 12.4055 7.45665 12.5128 8.00005 12.5128C10.8557 12.5128 13.2 10.3434 13.2 7.65618C13.2 4.96899 10.8557 2.79956 8.00005 2.79956ZM8.00005 3.64419C10.4089 3.64419 12.3334 5.44578 12.3334 7.65618C12.3334 9.86657 10.4089 11.6682 8.00005 11.6682C7.48222 11.6682 6.98778 11.5723 6.52412 11.4173L6.34818 11.3645L5.40005 11.8265V10.8763L5.23755 10.7441C4.27598 10.0055 3.66672 8.89863 3.66672 7.65618C3.66672 5.44578 5.59115 3.64419 8.00005 3.64419ZM7.51255 6.32335L4.89912 9.01561L7.24172 7.74866L8.48755 9.0553L11.0741 6.32293L8.78525 7.5772L7.51255 6.32335Z" fill="white"/>
</svg>
