<svg width="70" height="70" viewBox="0 0 70 70" fill="none" xmlns="http://www.w3.org/2000/svg">
<g clip-path="url(#clip0_615_17980)">
<path d="M26.3519 59.7644C26.2354 59.8223 26.1135 59.8692 25.9878 59.9045H25.9303C26.09 59.8624 26.2443 59.8029 26.3903 59.7271L26.3519 59.7644Z" fill="#56779C"/>
<path d="M25.1445 59.9792H24.9337H24.7804C24.9563 60.0199 25.1362 60.0419 25.317 60.0446L25.1445 59.9792Z" fill="#56779C"/>
<path d="M25.614 59.9699H25.3649C25.526 59.9656 25.6864 59.9468 25.844 59.9138L25.614 59.9699Z" fill="#56779C"/>
<path d="M9.70709 52.4626C9.76556 52.516 9.82982 52.5629 9.89874 52.6027C9.82982 52.5629 9.76556 52.516 9.70709 52.4626V52.4626Z" fill="#56779C"/>
<path d="M58.0507 41.5828C58.0543 41.6106 58.0543 41.639 58.0507 41.6668C58.0525 41.6823 58.0525 41.698 58.0507 41.7135C58.0555 41.6701 58.0555 41.6261 58.0507 41.5828Z" fill="#56779C"/>
<path d="M9.67835 52.444C9.6432 52.3962 9.61119 52.3463 9.58252 52.2946C9.61119 52.3463 9.6432 52.3962 9.67835 52.444V52.444Z" fill="#56779C"/>
<path d="M9.58252 52.2946C9.55248 52.2518 9.52982 52.2045 9.51544 52.1545C9.52982 52.2045 9.55248 52.2518 9.58252 52.2946Z" fill="#56779C"/>
<path d="M24.7228 59.9139L24.4928 59.8485C24.4161 59.8485 24.3395 59.7831 24.2628 59.7365C24.4158 59.8209 24.5804 59.8838 24.7515 59.9232L24.7228 59.9139Z" fill="#56779C"/>
<path d="M52.4161 54.096C52.5215 54.04 52.5598 53.9839 52.5598 53.9466C52.5598 53.9092 52.5598 53.8532 52.4257 53.7972L47.8165 51.1824C47.6527 51.1042 47.4719 51.0657 47.2895 51.0704C47.1027 51.0638 46.9175 51.1057 46.7529 51.1918L40.0451 54.9271C39.9397 54.9831 39.8918 55.0392 39.8918 55.0765C39.8918 55.1139 39.8918 55.1699 40.0356 55.2259L44.6831 57.8313C44.8431 57.9204 45.0261 57.9625 45.2101 57.9527C45.3969 57.9603 45.5824 57.9183 45.7467 57.8313L52.4161 54.096Z" fill="#007695"/>
<path d="M52.5503 53.5358L47.9123 50.9304C47.71 50.8265 47.4847 50.7722 47.2559 50.7722C47.0272 50.7722 46.8019 50.8265 46.5996 50.9304L39.8918 54.6657C39.5277 54.8711 39.5181 55.2073 39.8918 55.4128L44.501 58.0182C44.7039 58.1252 44.9315 58.1799 45.1622 58.1769C45.3958 58.1786 45.6262 58.1241 45.833 58.0182L52.5407 54.2828C52.924 54.0961 52.9144 53.7412 52.5503 53.5358ZM44.6831 57.8314L40.0739 55.226C39.9685 55.17 39.9301 55.1139 39.9301 55.0766C39.9301 55.0392 39.9301 54.9832 40.0835 54.9272L46.7912 51.1918C46.9559 51.1057 47.1411 51.0638 47.3278 51.0704C47.5102 51.0658 47.691 51.1043 47.8549 51.1825L52.464 53.7972C52.5598 53.8533 52.5982 53.9093 52.5982 53.9466C52.5982 53.984 52.5982 54.04 52.4544 54.0961L45.7467 57.8314C45.5824 57.9184 45.3969 57.9603 45.2101 57.9528C45.0261 57.9626 44.8431 57.9204 44.6831 57.8314Z" fill="#232323"/>
<path d="M3.30604 53.1062C3.40862 53.3292 3.58375 53.513 3.80433 53.6292L28.3546 67.5432C28.4219 67.583 28.4924 67.6174 28.5654 67.646C28.6414 67.6837 28.7218 67.7119 28.805 67.73L28.9487 67.7767H29.0158H29.2171H29.4279H29.8782H30.1657H30.2903H30.434C30.6258 67.7359 30.81 67.6666 30.9802 67.5713L69.4347 45.9064L69.6168 45.7943L69.6743 45.7383C69.6743 45.7383 69.6743 45.6916 69.7413 45.6636C69.7674 45.6251 69.7898 45.5845 69.8084 45.5422C69.8084 45.5422 69.8084 45.5422 69.8084 45.5422C69.813 45.5018 69.813 45.4611 69.8084 45.4208V46.5414C69.8084 46.5414 69.8084 46.6161 69.8084 46.6441C69.8084 46.6721 69.8084 46.7001 69.8084 46.7281C69.7992 46.7724 69.7795 46.814 69.7509 46.8495L69.6838 46.9242L69.6168 46.9896H69.5593L69.3772 47.111L30.9898 68.6918C30.8185 68.785 30.6347 68.8541 30.4436 68.8973H30.2999H30.1657C30.0733 68.9069 29.9802 68.9069 29.8878 68.8973L29.7058 69.0374H29.4854H29.2841C29.2174 69.0471 29.1496 69.0471 29.0829 69.0374H29.0158C28.9632 69.023 28.9119 69.0042 28.8625 68.9813C28.7843 68.9574 28.7075 68.9294 28.6325 68.8973C28.5654 68.8973 28.4792 68.8973 28.4217 68.8133L3.83307 56.1598C3.68684 56.0912 3.56088 55.9875 3.46702 55.8585C3.37316 55.7295 3.31447 55.5793 3.29645 55.4221C3.29645 54.5817 3.29645 53.7506 3.29645 52.9101C3.28591 52.9754 3.28917 53.0422 3.30604 53.1062V53.1062Z" fill="#0A1D23"/>
<path d="M27.3485 54.5443L31.469 56.8789L28.7475 58.4197L24.6271 56.0758L27.3485 54.5443Z" fill="#00586F"/>
<path d="M40.9554 46.887L45.0759 49.2215L42.3545 50.753L38.234 48.4184L40.9554 46.887Z" fill="#00586F"/>
<path d="M23.9563 56.4587L28.0672 58.7653L26.3902 59.6991C26.2443 59.775 26.09 59.8345 25.9303 59.8766H25.8153C25.6577 59.9096 25.4973 59.9283 25.3362 59.9326V59.9326C25.1554 59.9298 24.9755 59.9079 24.7995 59.8672V59.8672C24.6284 59.8278 24.4639 59.7649 24.3108 59.6804L21.254 57.9529L23.9563 56.4587Z" fill="#00586F"/>
<path d="M37.5538 48.8105L41.6743 51.1358L38.9529 52.6673L34.8324 50.3327L37.5538 48.8105Z" fill="#00586F"/>
<path d="M19.8166 54.124L23.3238 56.1131L20.6024 57.6446L20.5928 57.6539L17.076 55.6648H17.0952L19.8166 54.124Z" fill="#00586F"/>
<path d="M15.6865 51.7896L19.2032 53.7786L16.4722 55.3101L16.4626 55.3194L12.9554 53.3304L12.9746 53.321L15.6865 51.7896Z" fill="#00586F"/>
<path d="M44.3573 44.9819L48.4777 47.3165L45.7659 48.8387L41.6359 46.5041L44.3573 44.9819Z" fill="#00586F"/>
<path d="M51.1608 41.1438L55.2908 43.4784L52.5694 45.0098L48.4393 42.6753L51.1608 41.1438Z" fill="#00586F"/>
<path d="M30.7501 52.6393L34.8706 54.9645L32.1492 56.496L28.0287 54.1614L30.7501 52.6393Z" fill="#00586F"/>
<path d="M47.7591 43.0581L51.8892 45.3927L49.1582 46.9242L45.0377 44.5896L47.7591 43.0581Z" fill="#00586F"/>
<path d="M40.2944 41.9096L36.7872 39.9205L39.5087 38.389L43.0254 40.3781L40.2944 41.9096Z" fill="#00586F"/>
<path d="M43.6002 36.0918L46.3025 34.5697L49.8097 36.5588L47.1074 38.0809L43.6002 36.0918Z" fill="#00586F"/>
<path d="M33.4907 45.7383L29.9835 43.7493L32.7049 42.2178L36.2121 44.2068L33.4907 45.7383Z" fill="#00586F"/>
<path d="M30.0891 47.6433L26.5819 45.6636L29.3033 44.1321L32.8105 46.1211L30.0891 47.6433Z" fill="#00586F"/>
<path d="M23.2854 51.4814L19.7782 49.4923L22.4996 47.9608L26.0068 49.9499L23.2854 51.4814Z" fill="#00586F"/>
<path d="M39.5757 37.6607L36.0685 35.6716L38.7899 34.1401L42.2971 36.1292L39.5757 37.6607Z" fill="#00586F"/>
<path d="M36.9021 43.8147L33.3949 41.835L36.1067 40.3035L39.6139 42.2925L36.9021 43.8147Z" fill="#00586F"/>
<path d="M47.7208 38.4264L50.4231 36.9043L53.9399 38.8934L51.228 40.4155L47.7208 38.4264Z" fill="#00586F"/>
<path d="M19.8838 53.3958L16.3766 51.4161L19.098 49.8752L22.6052 51.8643L19.8838 53.3958Z" fill="#00586F"/>
<path d="M26.7351 54.1988L24.0137 55.7303L20.4969 53.7505L23.2184 52.2097L26.7351 54.1988Z" fill="#00586F"/>
<path d="M36.1738 39.575L32.6666 37.5859L35.3881 36.0544L38.8952 38.0342L36.1738 39.575Z" fill="#00586F"/>
<path d="M43.6385 40.7236L47.1457 42.7127L44.4243 44.2442L40.9171 42.2551L43.6385 40.7236Z" fill="#00586F"/>
<path d="M26.6872 49.5669L23.1801 47.5779L25.9015 46.0464L29.4087 48.0354L26.6872 49.5669Z" fill="#00586F"/>
<path d="M26.6202 50.3047L30.137 52.2844L27.4156 53.8159L23.8988 51.8268L26.6202 50.3047Z" fill="#00586F"/>
<path d="M33.4236 46.4761L36.9404 48.4558L34.219 49.9873L30.7118 47.9982L33.4236 46.4761Z" fill="#00586F"/>
<path d="M30.0314 48.3811L33.5386 50.3702L30.8172 51.9016L27.3004 49.9126L30.0314 48.3811Z" fill="#00586F"/>
<path d="M39.4703 33.7573L41.1089 32.8235C41.4385 32.6603 41.8029 32.5752 42.1726 32.5752C42.5423 32.5752 42.9067 32.6603 43.2362 32.8235L45.6798 34.2055L42.9775 35.7277L39.4703 33.7573Z" fill="#00586F"/>
<path d="M40.2369 42.6379L43.7441 44.627L41.0227 46.1585L37.5155 44.1694L40.2369 42.6379Z" fill="#00586F"/>
<path d="M9.89873 50.3608L11.5661 49.427L15.0733 51.4161L12.3518 52.9756L9.9179 51.5935C9.84898 51.5537 9.78472 51.5068 9.72625 51.4534V51.4534C9.67427 51.4041 9.62622 51.3511 9.58251 51.2947V51.2947C9.55248 51.2518 9.52982 51.2045 9.51544 51.1546C9.51544 51.1546 9.51544 51.0986 9.51544 51.0612C9.49629 50.9201 9.52295 50.7767 9.5917 50.651C9.66044 50.5254 9.76781 50.424 9.89873 50.3608V50.3608Z" fill="#00586F"/>
<path d="M58.0218 41.7415C57.9799 41.8549 57.907 41.955 57.811 42.031C57.7496 42.085 57.6821 42.132 57.6098 42.1711L55.9808 43.1049L51.8507 40.7703L54.5625 39.2482L57.6098 41.0224C57.7311 41.075 57.8359 41.158 57.9133 41.263C57.9908 41.3681 58.0382 41.4913 58.0506 41.6201V41.6201C58.0465 41.6616 58.0368 41.7024 58.0218 41.7415Z" fill="#00586F"/>
<path d="M19.165 49.1468L15.6578 47.1577L18.3697 45.6262L21.8769 47.6153L19.165 49.1468Z" fill="#00586F"/>
<path d="M15.7536 51.0611L12.2465 49.072L14.9679 47.5405L18.4847 49.5296L15.7536 51.0611Z" fill="#00586F"/>
<path d="M25.9685 45.3088L22.4613 43.3291L25.1731 41.7976L28.6899 43.7867L25.9685 45.3088Z" fill="#00586F"/>
<path d="M22.5669 47.2325L19.0597 45.2434L21.7811 43.7119L25.2883 45.701L22.5669 47.2325Z" fill="#00586F"/>
<path d="M29.3703 43.4037L25.8632 41.4147L28.5846 39.8832L32.0918 41.8722L29.3703 43.4037Z" fill="#00586F"/>
<path d="M34.152 50.7156L38.2724 53.0502L35.551 54.5817L31.4305 52.2471L34.152 50.7156Z" fill="#00586F"/>
<path d="M36.8351 44.5522L40.3423 46.5413L37.6208 48.0728L34.1136 46.0837L36.8351 44.5522Z" fill="#00586F"/>
<path d="M32.7722 41.48L29.265 39.5002L31.9864 37.9688L35.4936 39.9578L32.7722 41.48Z" fill="#00586F"/>
<path d="M40.1986 38.0061L42.9105 36.4746L46.4272 38.4637L43.7058 39.9952L40.1986 38.0061Z" fill="#00586F"/>
<path d="M44.319 40.3408L47.0404 38.8093L50.5476 40.7984L47.8262 42.3299L44.319 40.3408Z" fill="#00586F"/>
<path d="M51.8411 40.7611L54.553 39.2389L53.9397 38.8934L51.2279 40.4155L47.7207 38.4265L50.4229 36.9043L49.8288 36.5495L47.1266 38.0716L43.6002 36.0919L46.3025 34.5698L45.6796 34.2242L42.9773 35.7464L39.4702 33.7573L38.7898 34.1402L42.297 36.1293L39.5756 37.6607L36.0684 35.6717L35.388 36.0545L38.8952 38.0436L36.1738 39.5751L32.6666 37.586L31.9862 37.9689L35.4551 39.958L32.772 41.4801L29.2648 39.5004L28.5845 39.8833L32.0916 41.8723L29.3702 43.4038L25.8726 41.4147L25.1923 41.7976L28.6899 43.824L25.9684 45.3088L22.4613 43.3291L21.7809 43.712L25.2881 45.6917L22.5667 47.2232L19.0595 45.2341L18.3791 45.617L21.8863 47.606L19.1649 49.1469L15.6577 47.1578L14.9773 47.5407L18.4845 49.5297L15.7631 51.0612L12.2559 49.0722L11.5756 49.455L15.0827 51.4441L12.3517 52.9756L12.9746 53.3211L15.696 51.7896L19.1649 53.7787L16.4722 55.3102L17.0855 55.6557L19.8165 54.0962L23.3237 56.0852L20.6023 57.6447L21.2155 57.9996L23.9561 56.4588L28.067 58.7653L28.7474 58.3825L24.6269 56.0385L27.3483 54.5071L31.4688 56.8416L32.1491 56.4588L28.0287 54.1242L30.7501 52.602L34.8706 54.9273L35.5509 54.5444L31.4305 52.2285L34.1519 50.697L38.2723 53.0316L38.9527 52.6487L34.8322 50.3608L37.5537 48.8294L41.6741 51.1639L42.3545 50.7811L38.234 48.4465L40.9554 46.915L45.0759 49.2496L45.7658 48.8667L41.6358 46.5321L44.3572 45.01L48.4777 47.3446L49.158 46.9524L45.0376 44.5898L47.759 43.0583L51.889 45.3929L52.5694 45.01L48.4394 42.6754L51.1608 41.1439L55.2908 43.4785L55.9712 43.0956L51.8411 40.7611ZM40.9171 42.2552L43.6385 40.7237L47.1457 42.7128L44.4243 44.2443L40.9171 42.2552ZM37.5153 44.1229L40.2463 42.6381L43.7535 44.6271L41.0225 46.1586L37.5153 44.1229ZM34.1135 46.0839L36.835 44.5524L40.3422 46.5415L37.6207 48.073L34.1135 46.0839ZM30.7118 47.9516L33.4236 46.4201L36.9404 48.4932L34.219 49.9873L30.7118 47.9516ZM27.3004 49.8659L30.0314 48.3344L33.5386 50.3608L30.8172 51.8923L27.3004 49.8659ZM23.8986 51.7336L26.6201 50.2114L30.1368 52.1912L27.4154 53.816L23.8986 51.7336ZM20.4968 53.6012L23.2183 52.2285L26.735 54.2176L24.0136 55.7491L20.4968 53.6012ZM22.605 51.7336L19.8836 53.2651L16.3764 51.276L19.0978 49.7445L22.605 51.7336ZM26.0068 49.8659L23.2853 51.4814L19.7782 49.4924L22.4996 47.9609L26.0068 49.8659ZM29.4086 47.9516L26.6871 49.483L23.1799 47.5594L25.8726 46.0465L29.4086 47.9516ZM32.8103 46.0839L30.0889 47.6527L26.5817 45.6917L29.3031 44.1602L32.8103 46.0839ZM36.2121 44.1695L33.5386 45.7384L30.0314 43.7493L32.7528 42.2178L36.2121 44.1695ZM39.6139 42.3019L36.902 43.824L33.3949 41.8443L36.1067 40.3128L39.6139 42.3019ZM43.0253 40.4342L40.2942 41.9564L36.7871 39.9673L39.5181 38.4358L43.0253 40.4342ZM46.4175 38.5199L43.7056 39.9953L40.2463 38.0063L42.9678 36.4748L46.4175 38.5199ZM50.5475 40.8544L47.8261 42.3299L44.3189 40.3408L47.0403 38.8094L50.5475 40.8544Z" fill="#0A1D23"/>
<path d="M9.46741 51.0706C9.46741 51.0706 9.46741 51.1359 9.46741 51.1639C9.49727 51.214 9.53623 51.2583 9.5824 51.2947C9.61792 51.3405 9.65632 51.3842 9.69739 51.4254V51.4254C9.75586 51.4788 9.82012 51.5257 9.88904 51.5655L12.323 52.9476L12.9458 53.2931L16.453 55.2821L17.0663 55.6277L20.5831 57.6167L21.1964 57.9716L24.2628 59.6992C24.3394 59.6992 24.4161 59.7739 24.4927 59.8112L24.7227 59.8766H24.7802H24.9335H25.1443H25.3647H25.6139H25.8151H25.9301H25.9876C26.1133 59.8413 26.2352 59.7944 26.3517 59.7365L28.0287 58.8027L28.709 58.4198L31.4688 56.8977L32.1491 56.5148L34.8706 54.9833L35.5509 54.6004L38.2723 53.069L38.9527 52.6861L41.6741 51.1546L42.3545 50.7717L45.0376 49.2216L45.7275 48.8387L48.4393 47.3166L49.1197 46.9243L51.8507 45.3929L52.5311 45.01L55.2525 43.4785L55.9328 43.0956L57.5619 42.1618C57.6342 42.1228 57.7017 42.0758 57.7631 42.0217V42.0217C57.8065 41.9861 57.8451 41.9453 57.8781 41.9003C57.9041 41.8619 57.9265 41.8213 57.9452 41.7789V41.7789C57.9475 41.7635 57.9475 41.7477 57.9452 41.7322C57.9498 41.7044 57.9498 41.676 57.9452 41.6482V42.6381C57.9452 42.6381 57.9452 42.6381 57.9452 42.6941C57.9498 42.7219 57.9498 42.7503 57.9452 42.7781V42.7781C57.9338 42.8188 57.9143 42.8569 57.8877 42.8902V42.8902C57.8572 42.9371 57.8182 42.9783 57.7727 43.0116V43.0116C57.7113 43.0656 57.6438 43.1126 57.5714 43.1517L26.3996 60.7451H26.3517L25.9972 60.8758H25.9301H25.8151H25.6139C25.5309 60.8804 25.4477 60.8804 25.3647 60.8758H25.1923H24.9814H24.8377H24.7802C24.7015 60.8535 24.6246 60.8254 24.5502 60.7917C24.4684 60.7694 24.3883 60.7413 24.3107 60.7077L9.93695 52.5647C9.81504 52.513 9.70973 52.4302 9.63214 52.325C9.55455 52.2198 9.50756 52.0961 9.49615 51.967V50.9959C9.49615 50.9959 9.46741 51.0519 9.46741 51.0706Z" fill="#0A1D23"/>
<path d="M1.10205 23.3357C1.09789 23.2829 1.09789 23.2298 1.10205 23.177C1.09729 23.1335 1.09729 23.0897 1.10205 23.0462V23.0462V22.9061V22.7847V22.71C1.10205 22.71 1.10205 22.6353 1.10205 22.598C1.10745 22.5639 1.10745 22.5293 1.10205 22.4953C1.10564 22.4611 1.10564 22.4267 1.10205 22.3925L1.15955 22.2898C1.15955 22.2898 1.15955 22.2244 1.20746 22.1964C1.20746 22.1964 1.20746 22.1964 1.20746 22.1497L1.27454 22.047C1.29113 22.0095 1.31377 21.9748 1.34161 21.9443L1.41827 21.8603C1.56538 21.7356 1.73412 21.6376 1.91656 21.5708V21.5708V21.5241L2.05072 21.412C2.15182 21.3179 2.26447 21.2364 2.3861 21.1692L40.8789 -0.514344C40.9425 -0.549759 41.01 -0.577958 41.0801 -0.598389V-0.598389H41.2047H41.3101H41.3868H41.6168H41.7126H41.7797L42.1055 -0.411622L42.278 -0.308901L42.7283 -0.0567665H42.7858H42.7187H42.6613H42.5942H42.5175H42.3642H42.278H42.1821L42.163 -0.0661048H42.1055C42.0413 -0.0458191 41.9801 -0.017572 41.9234 0.01794V0.01794L37.7838 2.40855L3.45934 21.7202C3.33924 21.7896 3.22685 21.871 3.12395 21.963V21.963C3.08713 21.9926 3.05486 22.0272 3.02813 22.0657L2.97063 22.1124C2.93036 22.1518 2.89498 22.1957 2.86523 22.2431L2.74065 22.3458C2.712 22.3778 2.68635 22.4122 2.66399 22.4486L2.59692 22.5513V22.598C2.59526 22.6322 2.59526 22.6665 2.59692 22.7007C2.57719 22.7299 2.56111 22.7612 2.549 22.7941C2.54558 22.8189 2.54558 22.844 2.549 22.8688V22.8688C2.55066 22.903 2.55066 22.9373 2.549 22.9715C2.549 22.9715 2.549 23.0462 2.549 23.0836C2.55312 23.1208 2.55312 23.1584 2.549 23.1956V23.317V23.4571C2.549 23.5038 2.549 23.5412 2.549 23.5878C2.54438 23.6407 2.54438 23.6938 2.549 23.7466L2.61608 46.8309V51.416C2.60456 51.5742 2.63459 51.7327 2.70333 51.8765C2.77207 52.0203 2.87725 52.1446 3.00896 52.2378C1.91656 52.0137 1.1308 51.5841 0.383365 51.1639C0.256257 51.0714 0.154697 50.9496 0.0877975 50.8094C0.0208985 50.6693 -0.00924692 50.5151 6.61166e-05 50.3608L1.10205 23.3357Z" fill="#004253"/>
<path d="M2.21368 47.0177L2.14661 23.9333C2.14661 23.84 2.15619 23.7466 2.22327 23.5598C2.26046 23.3444 2.32483 23.1342 2.41492 22.9341C2.46283 22.8314 2.56824 22.7287 2.56824 22.6353L2.74072 22.3738C2.79927 22.292 2.86329 22.214 2.93237 22.1404L2.98986 22.0937C3.03216 22.0478 3.07694 22.0042 3.12402 21.963C3.22691 21.871 3.33931 21.7896 3.45941 21.7202L37.7838 2.40853L41.9139 0.12998C42.1103 0.0148041 42.3363 -0.0434981 42.5655 -0.0381097C42.6657 -0.0332987 42.7636 -0.00783607 42.853 0.0365968C42.9861 0.130633 43.0922 0.256484 43.161 0.402042C43.2298 0.547599 43.259 0.707964 43.2458 0.867707L43.3225 28.5278C43.2982 28.9228 43.1913 29.3088 43.0084 29.6621C42.8255 30.0153 42.5704 30.3285 42.2588 30.5822C42.1797 30.6435 42.0965 30.6997 42.0097 30.7503L3.52648 52.3405C3.37255 52.4335 3.19884 52.491 3.01861 52.5086C2.53949 52.5086 2.21368 52.1818 2.21368 51.5748V47.0177Z" fill="#007695"/>
<path d="M40.9843 4.13605C40.9741 4.08163 40.9581 4.02842 40.9364 3.97729C40.9581 4.02842 40.9741 4.08163 40.9843 4.13605Z" fill="white"/>
<path d="M39.8535 3.73455L38.7899 4.34154L5.50036 23.0649C5.16636 23.2786 4.88838 23.5657 4.6887 23.903C4.48901 24.2403 4.37317 24.6185 4.35046 25.0072L4.41754 46.8495V48.0635C4.40652 48.1504 4.40652 48.2382 4.41754 48.325C4.41214 48.2442 4.41214 48.163 4.41754 48.0822V48.0075L38.627 28.7612C39.0146 28.5195 39.3371 28.1907 39.5672 27.8023C39.7973 27.4139 39.9284 26.9774 39.9494 26.5294L39.8823 3.74389C40.3518 3.49176 40.7447 3.58514 40.9172 3.94934C40.7543 3.56646 40.3422 3.46374 39.8535 3.73455Z" fill="#F2C53D"/>
<path d="M4.42712 48.0076L38.6366 28.7613C39.0242 28.5196 39.3466 28.1908 39.5767 27.8024C39.8069 27.414 39.9379 26.9775 39.959 26.5295L39.8823 3.72531C40.3327 3.46384 40.7543 3.55722 40.9268 3.94943C40.9485 4.00055 40.9645 4.05377 40.9747 4.10818C40.9851 4.19192 40.9851 4.27658 40.9747 4.36032L41.0418 27.4353C41.0209 27.8222 40.9068 28.1988 40.7087 28.5346C40.5106 28.8705 40.234 29.1561 39.9015 29.3683L5.57702 48.7267C5.02124 49.0442 4.56128 48.8574 4.44629 48.3251C4.44089 48.2443 4.44089 48.1632 4.44629 48.0823L4.42712 48.0076Z" fill="#00AED6"/>
<path style="mix-blend-mode:overlay" opacity="0.16" d="M42.0191 30.7503L3.60293 52.3685C3.50578 52.4377 3.42599 52.5274 3.36956 52.6309C3.31312 52.7344 3.28152 52.849 3.27713 52.9662V52.9662C3.26781 53.0312 3.26781 53.0972 3.27713 53.1623V53.1623C3.37603 53.3899 3.55186 53.5778 3.77541 53.6946L28.364 67.5993C28.5479 67.7058 28.7487 67.7816 28.9582 67.8234C29.1782 67.8724 29.4032 67.8975 29.6289 67.8982V67.8982C29.8318 67.8948 30.0339 67.873 30.2326 67.8328H30.3764C30.5674 67.7896 30.7513 67.7205 30.9226 67.6273L69.4441 45.9625C69.5188 45.9224 69.5894 45.8755 69.6549 45.8224V45.8224C69.7156 45.7791 69.7676 45.7253 69.8083 45.6636V45.6636C69.8476 45.6086 69.8798 45.549 69.9041 45.4862C70.0191 45.15 69.8466 44.7952 69.3962 44.5524L44.913 30.5729C44.5036 30.3747 44.0526 30.2715 43.5954 30.2715C43.1382 30.2715 42.6872 30.3747 42.2778 30.5729L42.0191 30.7503Z" fill="url(#paint0_linear_615_17980)"/>
<path d="M3.83313 53.6198L10.2151 57.0003C12.352 58.1209 14.4505 59.2882 16.5682 60.4368L22.9023 63.9013L26.0549 65.6569L27.6264 66.5907L28.4218 67.0296C28.6434 67.1725 28.8903 67.2738 29.15 67.3285H29.1021L29.6483 67.3845H30.0125H30.1849H30.2329C30.2329 67.3845 30.1274 67.3845 30.1849 67.3845H30.2808C30.2808 67.3845 30.7503 67.2164 30.7886 67.1791L31.4211 66.8149L33.9221 65.3861C35.5895 64.4336 37.2664 63.4998 38.9529 62.5846L49.0433 56.9816C50.7202 56.0478 52.4259 55.1139 54.1124 54.1801L59.2199 51.2946C60.9064 50.3607 62.6121 49.4829 64.3177 48.5771L69.4252 45.8877V45.9437L49.3499 57.2711L39.2883 62.9395L34.2575 65.741L31.7469 67.1697L31.124 67.5152C30.9027 67.6277 30.6719 67.7214 30.4341 67.7954C30.1849 67.8514 29.955 67.8514 29.7058 67.8888L28.968 67.8141C28.6714 67.7427 28.3895 67.6227 28.1343 67.4592L27.3485 67.011L25.777 66.1238L22.634 64.3682L16.3478 60.8103L3.83313 53.6758V53.6198Z" fill="#007695"/>
<g style="mix-blend-mode:multiply">
<g style="mix-blend-mode:multiply" opacity="0.02">
<path d="M56.6613 41.1438C56.6613 44.7204 50.6147 47.6246 43.1595 47.6246C35.7044 47.6246 29.7057 44.7577 29.7057 41.1438C29.7057 37.5299 35.7044 34.6724 43.1212 34.6724C50.5381 34.6724 56.6613 37.5672 56.6613 41.1438Z" fill="#FCFCFC"/>
</g>
<g style="mix-blend-mode:multiply" opacity="0.04">
<path d="M56.4696 41.1438C56.4696 44.6737 50.5093 47.5592 43.1212 47.5592C35.7331 47.5592 29.8016 44.7017 29.8016 41.1718C29.8016 37.6419 35.8002 34.7657 43.1212 34.7657C50.4422 34.7657 56.4696 37.6233 56.4696 41.1438Z" fill="#F9F9F9"/>
</g>
<g style="mix-blend-mode:multiply" opacity="0.06">
<path d="M56.278 41.1439C56.278 44.6271 50.4039 47.4379 43.1595 47.4379C35.9152 47.4379 30.0316 44.6364 30.0316 41.1439C30.0316 37.6513 35.9056 34.8499 43.1595 34.8499C50.4135 34.8499 56.278 37.67 56.278 41.1439Z" fill="#F6F6F6"/>
</g>
<g style="mix-blend-mode:multiply" opacity="0.08">
<path d="M56.0863 41.1439C56.0863 44.571 50.3368 47.3539 43.15 47.3539C35.9631 47.3539 30.2136 44.5524 30.2136 41.1439C30.2136 37.7354 35.9631 34.9432 43.15 34.9432C50.3368 34.9432 56.0863 37.7167 56.0863 41.1439Z" fill="#F3F3F3"/>
</g>
<g style="mix-blend-mode:multiply" opacity="0.1">
<path d="M43.15 47.2604C50.1887 47.2604 55.8947 44.5219 55.8947 41.1438C55.8947 37.7657 50.1887 35.0272 43.15 35.0272C36.1113 35.0272 30.4053 37.7657 30.4053 41.1438C30.4053 44.5219 36.1113 47.2604 43.15 47.2604Z" fill="#F0F0F0"/>
</g>
<g style="mix-blend-mode:multiply" opacity="0.12">
<path d="M43.15 47.167C50.0881 47.167 55.7126 44.4703 55.7126 41.1438C55.7126 37.8173 50.0881 35.1206 43.15 35.1206C36.2118 35.1206 30.5873 37.8173 30.5873 41.1438C30.5873 44.4703 36.2118 47.167 43.15 47.167Z" fill="#EDEDED"/>
</g>
<g style="mix-blend-mode:multiply" opacity="0.14">
<path d="M43.15 47.0737C49.9823 47.0737 55.5209 44.4188 55.5209 41.1438C55.5209 37.8689 49.9823 35.214 43.15 35.214C36.3177 35.214 30.779 37.8689 30.779 41.1438C30.779 44.4188 36.3177 47.0737 43.15 47.0737Z" fill="#EAEAEA"/>
</g>
<g style="mix-blend-mode:multiply" opacity="0.16">
<path d="M55.3293 41.1438C55.3293 44.3749 49.8769 46.9896 43.15 46.9896C36.4231 46.9896 30.9611 44.3749 30.9611 41.1438C30.9611 37.9128 36.4135 35.3074 43.1212 35.3074C49.829 35.3074 55.3293 37.9221 55.3293 41.1438Z" fill="#E7E7E7"/>
</g>
<g style="mix-blend-mode:multiply" opacity="0.18">
<path d="M55.1377 41.1438C55.1377 44.3282 49.7715 46.8962 43.15 46.8962C36.5285 46.8962 31.1527 44.3282 31.1527 41.1438C31.1527 37.9595 36.5189 35.4194 43.1212 35.4194C49.7236 35.4194 55.1377 37.9688 55.1377 41.1438Z" fill="#E4E4E4"/>
</g>
<g style="mix-blend-mode:multiply" opacity="0.2">
<path d="M43.1404 46.8029C49.6605 46.8029 54.946 44.2693 54.946 41.1439C54.946 38.0185 49.6605 35.4849 43.1404 35.4849C36.6203 35.4849 31.3348 38.0185 31.3348 41.1439C31.3348 44.2693 36.6203 46.8029 43.1404 46.8029Z" fill="#E1E1E1"/>
</g>
<g style="mix-blend-mode:multiply" opacity="0.22">
<path d="M54.7639 41.1439C54.7639 44.2255 49.5606 46.7469 43.1404 46.7469C36.7201 46.7469 31.5264 44.2535 31.5264 41.1439C31.5264 38.0342 36.7297 35.5409 43.1404 35.5409C49.5511 35.5409 54.7639 38.0716 54.7639 41.1439Z" fill="#DEDEDE"/>
</g>
<g style="mix-blend-mode:multiply" opacity="0.24">
<path d="M54.6202 41.1438C54.6202 44.1788 49.4552 46.6254 43.1212 46.6254C36.7872 46.6254 31.7181 44.1788 31.7181 41.1438C31.7181 38.1089 36.8351 35.6622 43.1212 35.6622C49.4073 35.6622 54.6202 38.1182 54.6202 41.1438Z" fill="#DBDBDB"/>
</g>
<g style="mix-blend-mode:multiply" opacity="0.25">
<path d="M54.3806 41.1438C54.3806 44.1227 49.3498 46.5414 43.1404 46.5414C36.9309 46.5414 31.9001 44.1227 31.9001 41.1438C31.9001 38.1649 36.9309 35.7556 43.1212 35.7556C49.3115 35.7556 54.3806 38.1649 54.3806 41.1438Z" fill="#D8D8D8"/>
</g>
<g style="mix-blend-mode:multiply" opacity="0.27">
<path d="M43.1404 46.448C49.2424 46.448 54.189 44.0733 54.189 41.1439C54.189 38.2145 49.2424 35.8397 43.1404 35.8397C37.0384 35.8397 32.0918 38.2145 32.0918 41.1439C32.0918 44.0733 37.0384 46.448 43.1404 46.448Z" fill="#D5D5D5"/>
</g>
<g style="mix-blend-mode:multiply" opacity="0.29">
<path d="M43.1404 46.3547C49.1418 46.3547 54.0069 44.0217 54.0069 41.1439C54.0069 38.2661 49.1418 35.9331 43.1404 35.9331C37.139 35.9331 32.2739 38.2661 32.2739 41.1439C32.2739 44.0217 37.139 46.3547 43.1404 46.3547Z" fill="#D2D2D2"/>
</g>
<g style="mix-blend-mode:multiply" opacity="0.31">
<path d="M43.1404 46.2613C49.036 46.2613 53.8153 43.9701 53.8153 41.1439C53.8153 38.3176 49.036 36.0265 43.1404 36.0265C37.2448 36.0265 32.4655 38.3176 32.4655 41.1439C32.4655 43.9701 37.2448 46.2613 43.1404 46.2613Z" fill="#CFCFCF"/>
</g>
<g style="mix-blend-mode:multiply" opacity="0.33">
<path d="M53.6619 41.1439C53.6619 43.9454 48.9665 46.1772 43.1212 46.1772C37.2759 46.1772 32.638 43.9267 32.638 41.1439C32.638 38.3611 37.3717 36.1199 43.1212 36.1199C48.8707 36.1199 53.6619 38.3704 53.6619 41.1439Z" fill="#CCCCCC"/>
</g>
<g style="mix-blend-mode:multiply" opacity="0.35">
<path d="M43.1308 46.0838C48.82 46.0838 53.432 43.8721 53.432 41.1438C53.432 38.4156 48.82 36.2039 43.1308 36.2039C37.4416 36.2039 32.8297 38.4156 32.8297 41.1438C32.8297 43.8721 37.4416 46.0838 43.1308 46.0838Z" fill="#C9C9C9"/>
</g>
<g style="mix-blend-mode:multiply" opacity="0.37">
<path d="M53.2403 41.1438C53.2403 43.8239 48.7174 45.9998 43.1308 45.9998C37.5442 45.9998 33.0213 43.8239 33.0213 41.1438C33.0213 38.4637 37.5442 36.2972 43.1212 36.2972C48.6982 36.2972 53.2403 38.4731 53.2403 41.1438Z" fill="#C6C6C6"/>
</g>
<g style="mix-blend-mode:multiply" opacity="0.39">
<path d="M53.0487 41.1438C53.0487 43.7772 48.612 45.9064 43.1308 45.9064C37.6496 45.9064 33.213 43.8239 33.213 41.1438C33.213 38.4637 37.6496 36.3533 43.1212 36.3533C48.5928 36.3533 53.0487 38.5198 53.0487 41.1438Z" fill="#C3C3C3"/>
</g>
<g style="mix-blend-mode:multiply" opacity="0.41">
<path d="M52.857 41.1439C52.857 43.7213 48.5066 45.813 43.1308 45.813C37.755 45.813 33.395 43.7213 33.395 41.1439C33.395 38.5665 37.755 36.4747 43.1308 36.4747C48.5066 36.4747 52.857 38.5665 52.857 41.1439Z" fill="#C0C0C0"/>
</g>
<g style="mix-blend-mode:multiply" opacity="0.43">
<path d="M43.1308 45.7197C48.4019 45.7197 52.675 43.671 52.675 41.1439C52.675 38.6168 48.4019 36.5681 43.1308 36.5681C37.8597 36.5681 33.5867 38.6168 33.5867 41.1439C33.5867 43.671 37.8597 45.7197 43.1308 45.7197Z" fill="#BDBDBD"/>
</g>
<g style="mix-blend-mode:multiply" opacity="0.45">
<path d="M43.1212 45.6263C48.2865 45.6263 52.4737 43.6194 52.4737 41.1439C52.4737 38.6683 48.2865 36.6615 43.1212 36.6615C37.956 36.6615 33.7687 38.6683 33.7687 41.1439C33.7687 43.6194 37.956 45.6263 43.1212 45.6263Z" fill="#BABABA"/>
</g>
<g style="mix-blend-mode:multiply" opacity="0.47">
<path d="M52.2917 41.1439C52.2917 43.5719 48.1904 45.5422 43.1212 45.5422C38.0521 45.5422 33.9604 43.5719 33.9604 41.1439C33.9604 38.7159 38.0617 36.7549 43.1212 36.7549C48.1808 36.7549 52.2917 38.7159 52.2917 41.1439Z" fill="#B7B7B7"/>
</g>
<g style="mix-blend-mode:multiply" opacity="0.49">
<path d="M52.1 41.1438C52.1 43.5251 48.085 45.4488 43.1212 45.4488C38.1575 45.4488 34.1425 43.5251 34.1425 41.1438C34.1425 38.7626 38.1671 36.8389 43.1212 36.8389C48.0754 36.8389 52.1 38.7719 52.1 41.1438Z" fill="#B4B4B4"/>
</g>
<g style="mix-blend-mode:multiply" opacity="0.51">
<path d="M51.9084 41.1438C51.9084 43.4784 47.9796 45.3647 43.1212 45.3647C38.2629 45.3647 34.3341 43.4971 34.3341 41.1438C34.3341 38.7906 38.2629 36.9323 43.1212 36.9323C47.9796 36.9323 51.9084 38.8186 51.9084 41.1438Z" fill="#B1B1B1"/>
</g>
<g style="mix-blend-mode:multiply" opacity="0.53">
<path d="M51.7455 41.1438C51.7455 43.4224 47.9125 45.2714 43.1212 45.2714C38.33 45.2714 34.497 43.4037 34.497 41.1438C34.497 38.884 38.33 37.0256 43.1212 37.0256C47.9125 37.0256 51.7455 38.8653 51.7455 41.1438Z" fill="#AEAEAE"/>
</g>
<g style="mix-blend-mode:multiply" opacity="0.55">
<path d="M51.5347 41.1439C51.5347 43.3758 47.7687 45.1781 43.1212 45.1781C38.4737 45.1781 34.7078 43.3758 34.7078 41.1439C34.7078 38.912 38.4737 37.1097 43.1212 37.1097C47.7687 37.1097 51.5347 38.9214 51.5347 41.1439Z" fill="#ABABAB"/>
</g>
<g style="mix-blend-mode:multiply" opacity="0.57">
<path d="M51.343 41.1439C51.343 43.329 47.6633 45.094 43.1212 45.094C38.5791 45.094 34.8899 43.329 34.8899 41.1439C34.8899 38.9587 38.5791 37.2031 43.1212 37.2031C47.6633 37.2031 51.343 38.9681 51.343 41.1439Z" fill="#A8A8A8"/>
</g>
<g style="mix-blend-mode:multiply" opacity="0.59">
<path d="M51.1514 41.1438C51.1514 43.273 47.5579 45.0006 43.1117 45.0006C38.6654 45.0006 35.0815 43.273 35.0815 41.1438C35.0815 39.0147 38.675 37.2871 43.1212 37.2871C47.5675 37.2871 51.1514 39.0147 51.1514 41.1438Z" fill="#A5A5A5"/>
</g>
<g style="mix-blend-mode:multiply" opacity="0.61">
<path d="M43.1117 44.9072C47.446 44.9072 50.9597 43.2223 50.9597 41.1438C50.9597 39.0654 47.446 37.3805 43.1117 37.3805C38.7773 37.3805 35.2636 39.0654 35.2636 41.1438C35.2636 43.2223 38.7773 44.9072 43.1117 44.9072Z" fill="#A2A2A2"/>
</g>
<g style="mix-blend-mode:multiply" opacity="0.63">
<path d="M43.1117 44.8138C47.3402 44.8138 50.7681 43.1707 50.7681 41.1438C50.7681 39.117 47.3402 37.4739 43.1117 37.4739C38.8832 37.4739 35.4553 39.117 35.4553 41.1438C35.4553 43.1707 38.8832 44.8138 43.1117 44.8138Z" fill="#9F9F9F"/>
</g>
<g style="mix-blend-mode:multiply" opacity="0.65">
<path d="M50.5764 41.1438C50.5764 43.1236 47.2321 44.7578 43.1212 44.7578C39.0104 44.7578 35.6469 43.1516 35.6469 41.1719C35.6469 39.1921 38.9816 37.5673 43.1212 37.5673C47.2609 37.5673 50.5764 39.1548 50.5764 41.1438Z" fill="#9C9C9C"/>
</g>
<g style="mix-blend-mode:multiply" opacity="0.67">
<path d="M43.1116 44.6364C47.1337 44.6364 50.3943 43.0728 50.3943 41.1439C50.3943 39.215 47.1337 37.6514 43.1116 37.6514C39.0895 37.6514 35.8289 39.215 35.8289 41.1439C35.8289 43.0728 39.0895 44.6364 43.1116 44.6364Z" fill="#999999"/>
</g>
<g style="mix-blend-mode:multiply" opacity="0.69">
<path d="M50.2026 41.1439C50.2026 43.0116 47.0213 44.5524 43.1116 44.5524C39.202 44.5524 36.011 43.0302 36.011 41.1439C36.011 39.2576 39.1924 37.7448 43.1212 37.7448C47.05 37.7448 50.2026 39.2669 50.2026 41.1439Z" fill="#969696"/>
</g>
<g style="mix-blend-mode:multiply" opacity="0.71">
<path d="M50.011 41.1439C50.011 43.0116 46.9159 44.459 43.102 44.459C39.2882 44.459 36.2026 42.9742 36.2026 41.1439C36.2026 39.3136 39.2882 37.8381 43.1212 37.8381C46.9542 37.8381 50.011 39.3136 50.011 41.1439Z" fill="#939393"/>
</g>
<g style="mix-blend-mode:multiply" opacity="0.73">
<path d="M49.8289 41.1438C49.8289 42.9275 46.82 44.3656 43.1212 44.3656C39.4224 44.3656 36.4135 42.8901 36.4135 41.1438C36.4135 39.3976 39.4224 37.9221 43.1212 37.9221C46.82 37.9221 49.8289 39.3696 49.8289 41.1438Z" fill="#909090"/>
</g>
<g style="mix-blend-mode:multiply" opacity="0.75">
<path d="M43.102 44.2722C46.7061 44.2722 49.6277 42.8716 49.6277 41.1438C49.6277 39.4161 46.7061 38.0155 43.102 38.0155C39.498 38.0155 36.5764 39.4161 36.5764 41.1438C36.5764 42.8716 39.498 44.2722 43.102 44.2722Z" fill="#8D8D8D"/>
</g>
<g style="mix-blend-mode:multiply" opacity="0.76">
<path d="M49.4456 41.1438C49.4456 42.8247 46.5709 44.1881 43.102 44.1881C39.6332 44.1881 36.7584 42.8247 36.7584 41.1438C36.7584 39.4629 39.6332 38.1089 43.102 38.1089C46.5709 38.1089 49.4456 39.4723 49.4456 41.1438Z" fill="#8A8A8A"/>
</g>
<g style="mix-blend-mode:multiply" opacity="0.78">
<path d="M49.254 41.1438C49.254 42.778 46.4943 44.0947 43.1021 44.0947C39.7099 44.0947 36.9501 42.778 36.9501 41.1438C36.9501 39.5096 39.7003 38.2209 43.1212 38.2209C46.5422 38.2209 49.254 39.519 49.254 41.1438Z" fill="#878787"/>
</g>
<g style="mix-blend-mode:multiply" opacity="0.8">
<path d="M49.0623 41.1439C49.0623 42.7221 46.3888 44.0107 43.102 44.0107C39.8152 44.0107 37.1321 42.7221 37.1321 41.1439C37.1321 39.5657 39.8057 38.2864 43.102 38.2864C46.3984 38.2864 49.0623 39.5657 49.0623 41.1439Z" fill="#848484"/>
</g>
<g style="mix-blend-mode:multiply" opacity="0.82">
<path d="M48.8707 41.1439C48.8707 42.6754 46.2834 43.9454 43.1212 43.9454C39.959 43.9454 37.3717 42.7034 37.3717 41.1439C37.3717 39.5844 39.959 38.3424 43.1212 38.3424C46.2834 38.3424 48.8707 39.6218 48.8707 41.1439Z" fill="#818181"/>
</g>
<g style="mix-blend-mode:multiply" opacity="0.84">
<path d="M48.679 41.1438C48.679 42.6286 46.178 43.8239 43.1212 43.8239C40.0644 43.8239 37.5442 42.6286 37.5442 41.1438C37.5442 39.6591 40.0356 38.4637 43.1212 38.4637C46.2068 38.4637 48.679 39.6684 48.679 41.1438Z" fill="#7E7E7E"/>
</g>
<g style="mix-blend-mode:multiply" opacity="0.86">
<path d="M48.4874 41.1438C48.4874 42.5726 46.0726 43.7399 43.0924 43.7399C40.1123 43.7399 37.6975 42.5726 37.6975 41.1438C37.6975 39.7151 40.1123 38.5571 43.0924 38.5571C46.0726 38.5571 48.4874 39.7151 48.4874 41.1438Z" fill="#7B7B7B"/>
</g>
<g style="mix-blend-mode:multiply" opacity="0.88">
<path d="M48.3054 41.1438C48.3054 42.5259 45.9672 43.6465 43.0925 43.6465C40.2178 43.6465 37.8892 42.5259 37.8892 41.1438C37.8892 39.7618 40.2465 38.6505 43.1212 38.6505C45.996 38.6505 48.3054 39.7711 48.3054 41.1438Z" fill="#787878"/>
</g>
<g style="mix-blend-mode:multiply" opacity="0.9">
<path d="M48.1137 41.1438C48.1137 42.4792 45.8618 43.5531 43.0925 43.5531C40.3231 43.5531 38.0713 42.4792 38.0713 41.1438C38.0713 39.8085 40.3231 38.7439 43.0925 38.7439C45.8618 38.7439 48.1137 39.8178 48.1137 41.1438Z" fill="#757575"/>
</g>
<g style="mix-blend-mode:multiply" opacity="0.92">
<path d="M47.9125 41.1439C47.9125 42.4233 45.7468 43.4598 43.1212 43.4598C40.4956 43.4598 38.33 42.4233 38.33 41.1439C38.33 39.8646 40.486 38.828 43.1212 38.828C45.7564 38.828 47.9125 39.8646 47.9125 41.1439Z" fill="#727272"/>
</g>
<g style="mix-blend-mode:multiply" opacity="0.94">
<path d="M43.0925 43.3664C45.6592 43.3664 47.74 42.3714 47.74 41.1439C47.74 39.9164 45.6592 38.9214 43.0925 38.9214C40.5257 38.9214 38.445 39.9164 38.445 41.1439C38.445 42.3714 40.5257 43.3664 43.0925 43.3664Z" fill="#6F6F6F"/>
</g>
<g style="mix-blend-mode:multiply" opacity="0.96">
<path d="M47.5387 41.1439C47.5387 42.3299 45.5456 43.2824 43.0829 43.2824C40.6202 43.2824 38.6366 42.3486 38.6366 41.1439C38.6366 39.9393 40.6298 39.0148 43.1212 39.0148C45.6127 39.0148 47.5387 39.9673 47.5387 41.1439Z" fill="#6C6C6C"/>
</g>
<g style="mix-blend-mode:multiply" opacity="0.98">
<path d="M47.3567 41.1438C47.3567 42.2738 45.4402 43.1889 43.0829 43.1889C40.7256 43.1889 38.8187 42.2551 38.8187 41.1438C38.8187 40.0326 40.7352 39.0988 43.0829 39.0988C45.4306 39.0988 47.3567 40.0139 47.3567 41.1438Z" fill="#696969"/>
</g>
<g style="mix-blend-mode:multiply">
<path d="M47.165 41.1438C47.165 42.2271 45.3348 43.1049 43.0829 43.1049C40.831 43.1049 39.0103 42.2271 39.0103 41.1438C39.0103 40.0606 40.831 39.1548 43.1212 39.1548C45.4114 39.1548 47.165 40.0886 47.165 41.1438Z" fill="#666666"/>
</g>
</g>
<path d="M37.0746 38.2957L46.2642 38.0342L37.0746 38.2957Z" fill="#21BFA2"/>
<path d="M37.0746 38.2957C36.9945 38.2964 36.9157 38.3156 36.8446 38.3517C36.9157 38.3156 36.9945 38.2964 37.0746 38.2957V38.2957Z" fill="#21BFA2"/>
<path d="M36.7488 38.4357C36.7735 38.4008 36.8063 38.372 36.8446 38.3517C36.8063 38.372 36.7735 38.4008 36.7488 38.4357V38.4357Z" fill="#21BFA2"/>
<path d="M36.7466 38.4358C36.7355 38.4719 36.7355 38.5117 36.7466 38.5479C36.7355 38.5117 36.7355 38.4719 36.7466 38.4358V38.4358Z" fill="#21BFA2"/>
<path d="M48.2957 38.3143C48.2957 38.3143 48.2957 38.3143 48.2957 38.3797C48.2782 38.4654 48.2458 38.5475 48.1999 38.6225C48.1196 38.7437 48.0192 38.851 47.9028 38.94L46.9445 39.6684L47.9028 39.8645L48.2286 39.9299C48.2765 39.8337 48.3026 39.7286 48.3053 39.6217V38.2209C48.3053 38.2209 48.2957 38.2957 48.2957 38.3143Z" fill="#198F7A"/>
<path d="M44.4818 39.9579L44.5393 39.9019L44.4818 39.9579Z" fill="#A6E5DA"/>
<path d="M44.4723 39.9952L44.4798 39.9579L44.4723 39.9952Z" fill="#7AD9C7"/>
<path d="M44.4818 39.9579L44.5393 39.9018L46.5804 38.3797L46.6475 38.3236C46.6568 38.3047 46.6617 38.284 46.6617 38.2629C46.6617 38.2419 46.6568 38.2212 46.6475 38.2022C46.6256 38.1571 46.5884 38.1208 46.5421 38.0995C46.4567 38.0549 46.361 38.0324 46.2642 38.0342L37.0746 38.2956C36.9945 38.2964 36.9157 38.3156 36.8446 38.3517C36.8063 38.372 36.7735 38.4008 36.7488 38.4357L44.4818 39.9579Z" fill="#A6E5DA"/>
<path d="M50.9692 40.5275C50.8652 40.4689 50.7518 40.4279 50.6338 40.4061L48.219 39.9299L47.9124 39.8645L46.9541 39.6684L47.9124 38.94C48.0288 38.851 48.1292 38.7437 48.2094 38.6225C48.2554 38.5475 48.2878 38.4654 48.3053 38.3797C48.3053 38.3797 48.3053 38.3797 48.3053 38.3144C48.3127 38.1662 48.2793 38.0187 48.2085 37.8874C48.1378 37.756 48.0322 37.6455 47.9028 37.5673L47.7207 37.4459C47.2482 37.2064 46.7198 37.0905 46.1875 37.1097L36.9979 37.3712C36.6594 37.3524 36.3211 37.4111 36.01 37.5424C35.6988 37.6737 35.4235 37.8741 35.206 38.1276C35.1464 38.2181 35.1092 38.321 35.0976 38.428C35.0859 38.535 35.1001 38.6432 35.1389 38.7439V38.8C35.1778 38.8791 35.2296 38.9517 35.2922 39.0147L35.3497 39.0801C35.442 39.1696 35.5449 39.248 35.6564 39.3136H35.7522L42.6803 42.7407C43.2542 43.0013 43.8948 43.0891 44.5202 42.9929C44.7916 42.9745 45.0558 42.9001 45.2954 42.7745C45.535 42.6489 45.7444 42.475 45.9096 42.2645C45.9793 42.1581 46.0189 42.0357 46.0246 41.9096V40.9758L49.8289 41.7695C50.0298 41.8237 50.242 41.8237 50.4428 41.7694C50.6437 41.7151 50.8256 41.6086 50.9692 41.4614L51.2183 41.0505C51.2309 41.0014 51.2309 40.9501 51.2183 40.9011C51.2138 40.823 51.1885 40.7475 51.1448 40.682C51.1011 40.6165 51.0405 40.5632 50.9692 40.5275V40.5275ZM44.5393 39.9019L44.4818 39.9579V40.0233L44.4244 41.8909V41.9563C44.4022 41.9934 44.3687 42.0228 44.3285 42.0403C44.2549 42.0787 44.1724 42.0979 44.089 42.0964C44.0002 42.0999 43.9118 42.0839 43.8302 42.0497L36.9021 38.6132C36.8606 38.5888 36.8273 38.5531 36.8063 38.5105C36.7923 38.4744 36.7923 38.4345 36.8063 38.3984C36.831 38.3635 36.8638 38.3347 36.9021 38.3144C36.9732 38.2783 37.052 38.2591 37.1321 38.2583L46.3217 37.9969C46.4185 37.9951 46.5142 38.0176 46.5996 38.0622C46.6459 38.0835 46.6832 38.1198 46.705 38.1649C46.7143 38.1839 46.7192 38.2046 46.7192 38.2256C46.7192 38.2467 46.7143 38.2674 46.705 38.2863L46.6379 38.3424L44.5393 39.9019Z" fill="#21BFA2"/>
<path d="M36.7488 38.4358C36.7348 38.4719 36.7348 38.5117 36.7488 38.5478C36.7698 38.5904 36.8031 38.6261 36.8446 38.6506V38.6506L43.7727 42.0871C43.8543 42.1213 43.9427 42.1372 44.0314 42.1338C44.1149 42.1353 44.1974 42.116 44.271 42.0777C44.3112 42.0602 44.3447 42.0308 44.3668 41.9937V41.9283L44.4243 40.0607V39.9953L36.7488 38.4358Z" fill="#7AD9C7"/>
<path d="M51.2375 40.9011C51.2501 40.9502 51.2501 41.0015 51.2375 41.0505L50.9884 41.4614C50.8431 41.612 50.6578 41.7205 50.4532 41.7749C50.2486 41.8292 50.0325 41.8274 49.8289 41.7696L46.0725 41.0225V41.9563C46.0668 42.0824 46.0272 42.2048 45.9576 42.3112C45.7923 42.5217 45.5829 42.6956 45.3433 42.8212C45.1037 42.9468 44.8395 43.0212 44.5681 43.0396C43.9427 43.1358 43.3021 43.048 42.7283 42.7874L35.8001 39.3603H35.7043C35.5928 39.2948 35.4899 39.2164 35.3977 39.1268L35.3402 39.0615C35.2775 38.9984 35.2257 38.9259 35.1868 38.8467V38.7906C35.1723 38.7103 35.1723 38.6282 35.1868 38.5479V39.9206C35.1987 40.0953 35.2607 40.2632 35.3657 40.4052C35.4707 40.5472 35.6146 40.6575 35.781 40.7237L35.8768 40.7797L42.7953 44.2069C43.3751 44.4592 44.0171 44.5435 44.6448 44.4497C44.9161 44.4313 45.1804 44.3569 45.42 44.2313C45.6595 44.1057 45.8689 43.9318 46.0342 43.7213C46.0994 43.6163 46.1388 43.498 46.1492 43.3758V42.4419L49.8672 43.1797C50.068 43.2349 50.2805 43.2353 50.4816 43.181C50.6827 43.1267 50.8646 43.0196 51.0075 42.8715L51.2662 42.4606C51.279 42.4053 51.279 42.3479 51.2662 42.2925V40.8918L51.2375 40.9011Z" fill="#198F7A"/>
<path d="M36.9787 1.68947V0.41012C36.9767 0.162829 36.9084 -0.0796594 36.7806 -0.293323C36.6529 -0.506986 36.47 -0.684409 36.2502 -0.808017C36.0304 -0.931625 35.7813 -0.997128 35.5276 -0.998037C35.2738 -0.998946 35.0242 -0.93523 34.8035 -0.813199L10.119 13.0822C9.52982 13.4137 9.04176 13.892 8.70496 14.468C8.36816 15.044 8.19474 15.697 8.20252 16.36V17.9008V45.9157L8.78705 46.3173L37.0266 29.6764L36.9787 1.68947Z" fill="#198F7A"/>
<path d="M8.80633 46.2799L37.6017 30.0779V2.06299L8.75842 18.293L8.80633 46.2799Z" fill="#D3F2EC"/>
<path d="M37.5633 2.09104V0.811688C37.5652 0.561914 37.499 0.316135 37.3714 0.0994911C37.2438 -0.117153 37.0595 -0.296886 36.8372 -0.421323C36.615 -0.54576 36.3628 -0.610435 36.1065 -0.608732C35.8502 -0.607029 35.599 -0.53901 35.3785 -0.411631L10.6941 13.4838C10.1063 13.8145 9.61915 14.2913 9.28243 14.8655C8.94571 15.4398 8.77148 16.0908 8.77756 16.7522V18.293L37.5633 2.09104Z" fill="#21BFA2"/>
<path d="M36.2218 7.9461L11.2403 22.0843V21.1972L36.2218 7.05896V7.9461Z" fill="#21BFA2"/>
<path d="M36.2218 6.21856L11.2403 20.3568V19.4696L36.2218 5.33142V6.21856Z" fill="#21BFA2"/>
<path d="M32.9159 16.5841L15.4183 26.4267V35.765L32.9446 25.9037L32.9159 16.5841ZM19.6058 27.8928L19.4812 28.1916C19.2428 28.7421 19.0505 29.3105 18.9063 29.8912C18.8069 30.3424 18.7555 30.8024 18.753 31.2639V31.432C18.7361 31.6695 18.6634 31.9 18.5405 32.1057C18.4175 32.3113 18.2476 32.4866 18.0439 32.618C17.6414 32.8421 17.3156 32.6647 17.3156 32.2164V31.955C17.3143 31.5739 17.3626 31.1943 17.4593 30.825C17.57 30.4212 17.7242 30.03 17.9193 29.6577C18.0247 29.4523 18.2259 29.1161 18.523 28.6585C18.8201 28.201 19.05 27.8181 19.1938 27.5379L18.8871 27.8368C18.7902 27.9153 18.6878 27.9871 18.5805 28.0516C18.4096 28.1457 18.2299 28.2239 18.0439 28.285C17.9111 28.3217 17.7827 28.3718 17.6606 28.4344C17.4762 28.5354 17.3314 28.693 17.2485 28.8827C17.1642 29.0937 17.1251 29.3194 17.1335 29.5457V29.8165L16.3478 30.2554V28.0329L17.1431 27.5846V28.0702C17.2312 27.842 17.354 27.628 17.5073 27.4352C17.6523 27.2572 17.8312 27.1082 18.0343 26.9963C18.2731 26.8626 18.537 26.7768 18.8105 26.7442C18.9931 26.7324 19.1734 26.6979 19.3471 26.6415C19.4155 26.601 19.4742 26.5469 19.5196 26.4827C19.5577 26.4173 19.5775 26.3432 19.5771 26.2679V26.2119L20.1808 25.8757V26.0251C20.086 26.6722 19.8922 27.3018 19.6058 27.8928V27.8928ZM20.9569 31.3573V24.6244L21.4744 24.3256V31.0585L20.9569 31.3573ZM25.5853 24.531C25.5374 24.6524 25.4895 24.7551 25.4607 24.8205C25.2277 25.3761 25.0356 25.9472 24.8858 26.5294C24.7807 26.9954 24.7324 27.4718 24.742 27.9488V28.1169C24.7266 28.362 24.6528 28.6002 24.5264 28.8125C24.4 29.0249 24.2244 29.2056 24.0138 29.3402C23.6113 29.5644 23.2855 29.3402 23.2855 28.9294V28.6772C23.2811 28.2966 23.3262 27.9169 23.4196 27.5473C23.5303 27.1435 23.6845 26.7522 23.8796 26.38C23.9818 26.1746 24.183 25.8384 24.4833 25.3715C24.7899 24.9045 25.0103 24.531 25.1541 24.2602C25.0617 24.3661 24.959 24.4631 24.8474 24.5497C24.7523 24.6304 24.6496 24.7023 24.5408 24.7645C24.3733 24.8587 24.1967 24.9369 24.0138 24.9979L23.6305 25.1473C23.4584 25.2363 23.3205 25.3772 23.2376 25.5489C23.1525 25.7597 23.1133 25.9855 23.1226 26.2119V26.4734L22.3272 26.9216V24.6617L23.1226 24.2228V24.6991C23.2129 24.4719 23.3355 24.2581 23.4867 24.0641C23.6343 23.8885 23.8128 23.7399 24.0138 23.6252C24.2532 23.4945 24.5171 23.4119 24.7899 23.3824C24.9734 23.3703 25.1541 23.3326 25.3266 23.2703C25.3991 23.2355 25.4592 23.1802 25.499 23.1116C25.5368 23.0494 25.5567 22.9784 25.5565 22.9061V22.8501L26.1698 22.5139V22.654C26.0747 23.3051 25.8776 23.9382 25.5853 24.531V24.531ZM26.9364 27.9488V21.2159L27.4634 20.9264V27.6593L26.9364 27.9488ZM31.6222 21.1505C31.5743 21.2813 31.5264 21.384 31.4977 21.4494C31.2635 22.0014 31.0714 22.5695 30.9227 23.1489C30.8218 23.5998 30.7736 24.0603 30.779 24.5217V24.6991C30.7651 24.9432 30.6919 25.1807 30.5652 25.3918C30.4386 25.6029 30.2622 25.7816 30.0507 25.9131C29.6578 26.1372 29.332 25.9598 29.332 25.5115V25.2594C29.3277 24.8757 29.3727 24.4929 29.4662 24.1201C29.5769 23.7163 29.731 23.325 29.9261 22.9528C30.0316 22.7567 30.2328 22.4112 30.5394 21.9443C30.8461 21.4774 31.0569 21.1132 31.2006 20.833C31.1057 20.9395 31.0033 21.0394 30.894 21.1319C30.7988 21.2125 30.6961 21.2844 30.5873 21.3466C30.4198 21.4408 30.2433 21.519 30.0603 21.5801C29.9269 21.6149 29.7982 21.6651 29.677 21.7295C29.5073 21.8215 29.3703 21.9615 29.2841 22.1311C29.1987 22.3386 29.1595 22.5614 29.1691 22.7847V23.0556L28.3738 23.4945V21.2906L29.1691 20.8424V21.328C29.2572 21.0997 29.38 20.8857 29.5333 20.693C29.6806 20.5146 29.859 20.3629 30.0603 20.2447C30.3016 20.1183 30.5647 20.036 30.8365 20.0019C31.0193 19.9913 31.1998 19.9568 31.3731 19.8992C31.4436 19.8616 31.503 19.8069 31.5456 19.7405C31.5878 19.6767 31.608 19.6014 31.6031 19.5257V19.479L32.2164 19.1335V19.2735C32.1196 19.9255 31.9191 20.5587 31.6222 21.1505V21.1505Z" fill="#F9F132"/>
<path d="M32.9542 27.6779L34.5449 26.7441V24.9698V15.6315V13.9413L32.9542 14.8751L15.4087 24.6523L13.818 25.5862V25.9317V38.4637L15.4087 37.5299L32.9542 27.6779ZM15.4183 26.4266L32.9159 16.584V25.9223L15.447 35.7462L15.4183 26.4266Z" fill="#E8630B"/>
<path d="M20.1904 25.8757L19.5867 26.2119V26.2679C19.5871 26.3432 19.5673 26.4173 19.5292 26.4827C19.4838 26.5469 19.425 26.601 19.3567 26.6415C19.183 26.6979 19.0027 26.7324 18.8201 26.7442C18.5466 26.7768 18.2827 26.8626 18.0439 26.9963C17.8408 27.1082 17.6619 27.2572 17.5168 27.4352C17.3636 27.628 17.2408 27.842 17.1527 28.0702V27.5846L16.3574 28.0329V30.2367L17.1527 29.8165V29.5457C17.1382 29.3206 17.1708 29.0951 17.2485 28.8827C17.3337 28.7179 17.4671 28.5814 17.6318 28.4905C17.7539 28.4278 17.8824 28.3777 18.0151 28.341C18.2012 28.2799 18.3809 28.2018 18.5517 28.1076C18.659 28.0431 18.7615 27.9714 18.8584 27.8928L19.165 27.5753C19.0213 27.8555 18.7913 28.2196 18.4943 28.6959C18.1972 29.1722 17.996 29.4897 17.8906 29.6951C17.6955 30.0673 17.5413 30.4586 17.4306 30.8624C17.3339 31.2316 17.2856 31.6113 17.2869 31.9923V32.2538C17.2869 32.702 17.6127 32.8795 18.0151 32.6553C18.2256 32.5213 18.4005 32.3405 18.5254 32.1279C18.6503 31.9153 18.7218 31.6768 18.7338 31.432V31.2639C18.7364 30.8024 18.7878 30.3424 18.8871 29.8912C19.0313 29.3105 19.2236 28.7421 19.4621 28.1916L19.5867 27.8928C19.8797 27.3028 20.0799 26.6732 20.1808 26.0251V25.8757H20.1904Z" fill="#F2460B"/>
<path d="M20.9377 24.6244L20.9569 31.3573L21.4744 31.0585L21.4552 24.3256L20.9377 24.6244Z" fill="white"/>
<path d="M26.1794 22.5139L25.5661 22.8501V22.9061C25.5662 22.9784 25.5464 23.0494 25.5086 23.1116C25.4688 23.1802 25.4087 23.2355 25.3361 23.2703C25.1637 23.3326 24.983 23.3703 24.7995 23.3824C24.5267 23.4119 24.2628 23.4944 24.0233 23.6252C23.8223 23.7399 23.6439 23.8885 23.4963 24.0641C23.345 24.2581 23.2224 24.4719 23.1321 24.6991V24.2135L22.3368 24.6524V26.8656L23.1321 26.4173V26.1559C23.1229 25.9295 23.1621 25.7037 23.2471 25.4928C23.3301 25.3211 23.4679 25.1802 23.64 25.0913L24.0233 24.9419C24.2063 24.8808 24.3828 24.8026 24.5503 24.7084C24.6592 24.6462 24.7618 24.5743 24.857 24.4936C24.9686 24.407 25.0713 24.3101 25.1636 24.2042C25.0199 24.475 24.7995 24.8485 24.4928 25.3154C24.1862 25.7823 23.9946 26.1185 23.8892 26.3239C23.694 26.6962 23.5399 27.0874 23.4292 27.4912C23.3357 27.8609 23.2906 28.2405 23.295 28.6212V28.8826C23.295 29.3309 23.6208 29.5177 24.0233 29.2935C24.234 29.1589 24.4095 28.9782 24.5359 28.7658C24.6624 28.5535 24.7362 28.3153 24.7516 28.0702V27.9488C24.7483 27.4711 24.803 26.9946 24.9145 26.5294C25.0643 25.9472 25.2565 25.3761 25.4894 24.8205C25.4894 24.7551 25.5661 24.6524 25.614 24.531C25.912 23.9422 26.1156 23.3123 26.2177 22.6633V22.5233L26.1794 22.5139Z" fill="#F2460B"/>
<path d="M26.9172 21.2532L26.9364 27.9862L27.4634 27.6967L27.4443 20.9637L26.9172 21.2532Z" fill="white"/>
<path d="M32.178 19.1334L31.5647 19.4789V19.5443C31.5696 19.6201 31.5495 19.6953 31.5073 19.7591C31.4647 19.8255 31.4053 19.8802 31.3348 19.9178C31.1614 19.9754 30.9809 20.0099 30.7981 20.0206C30.5264 20.0546 30.2633 20.1369 30.022 20.2634C29.8207 20.3815 29.6423 20.5332 29.4949 20.7116C29.3416 20.9043 29.2189 21.1184 29.1308 21.3466V20.861L28.3354 21.3092V23.5131L29.1308 23.0742V22.8034C29.1212 22.58 29.1604 22.3572 29.2458 22.1497C29.332 21.9802 29.469 21.8401 29.6387 21.7482C29.7599 21.6837 29.8886 21.6336 30.022 21.5987C30.205 21.5377 30.3815 21.4595 30.549 21.3653C30.6578 21.3031 30.7605 21.2312 30.8556 21.1505C30.9649 21.058 31.0674 20.9582 31.1623 20.8517C31.0185 21.1318 30.7981 21.496 30.5011 21.9629C30.204 22.4298 29.9932 22.7754 29.8878 22.9715C29.6927 23.3437 29.5385 23.735 29.4279 24.1388C29.3344 24.5115 29.2893 24.8943 29.2937 25.278V25.5302C29.2937 25.9784 29.6195 26.1558 30.0124 25.9317C30.2239 25.8002 30.4003 25.6215 30.5269 25.4104C30.6536 25.1993 30.7268 24.9619 30.7407 24.7177V24.5403C30.7353 24.0789 30.7835 23.6184 30.8844 23.1676C31.033 22.5881 31.2252 22.02 31.4593 21.468C31.4593 21.4026 31.536 21.2999 31.5839 21.1692C31.8832 20.5808 32.0868 19.9508 32.1876 19.3015V19.1614L32.178 19.1334Z" fill="#F2460B"/>
<path d="M34.5449 28.5651L13.8659 40.2006V41.9842L34.5545 30.3393L34.5449 28.5651Z" fill="#198F7A"/>
<path d="M34.497 10.3461L13.8084 21.9909L13.818 23.7652L34.497 12.1297V10.3461Z" fill="#198F7A"/>
</g>
<defs>
<linearGradient id="paint0_linear_615_17980" x1="3.27713" y1="49.0908" x2="69.9999" y2="49.0908" gradientUnits="userSpaceOnUse">
<stop stop-color="#4C4C4C"/>
<stop offset="0.05" stop-color="#747474"/>
<stop offset="0.11" stop-color="#A5A5A5"/>
<stop offset="0.18" stop-color="#CCCCCC"/>
<stop offset="0.23" stop-color="#E8E8E8"/>
<stop offset="0.28" stop-color="#F9F9F9"/>
<stop offset="0.32" stop-color="white"/>
<stop offset="0.36" stop-color="#F4F4F4"/>
<stop offset="0.44" stop-color="#D7D7D7"/>
<stop offset="0.53" stop-color="#A8A8A8"/>
<stop offset="0.64" stop-color="#676767"/>
<stop offset="0.69" stop-color="#4C4C4C"/>
<stop offset="0.73" stop-color="#616161"/>
<stop offset="0.82" stop-color="#979797"/>
<stop offset="0.94" stop-color="#E8E8E8"/>
<stop offset="0.97" stop-color="#E6E6E6"/>
<stop offset="0.98" stop-color="#D4D4D4"/>
<stop offset="0.99" stop-color="#919191"/>
<stop offset="1" stop-color="#4C4C4C"/>
</linearGradient>
<clipPath id="clip0_615_17980">
<rect width="70" height="70" fill="white"/>
</clipPath>
</defs>
</svg>
