<svg width="142" height="81" viewBox="0 0 142 81" fill="none" xmlns="http://www.w3.org/2000/svg">
<g clip-path="url(#clip0_615_20258)">
<path d="M140.765 40.3013C140.765 50.8297 133.234 60.5605 120.622 67.7158C108.041 74.8544 90.5923 79.3013 71.2648 79.3013C51.9374 79.3013 34.489 74.8544 21.9073 67.7158C9.29596 60.5605 1.76483 50.8297 1.76483 40.3013C1.76483 29.773 9.29596 20.0422 21.9073 12.8868C34.489 5.74828 51.9374 1.30133 71.2648 1.30133C90.5923 1.30133 108.041 5.74828 120.622 12.8868C133.234 20.0422 140.765 29.773 140.765 40.3013Z" stroke="#E0E0E0" stroke-width="2"/>
<path d="M40.3669 53.2656C44.4036 55.979 48.7337 57.6461 53.4528 57.9082V57.1079C48.9221 56.5617 44.5746 55.2118 40.3669 53.2656Z" fill="#FDB927"/>
<path d="M56.3234 24.395L53.6295 47.6955L61.1583 47.2794L62.1252 35.3517L65.786 47.0022L69.5968 46.6875L72.624 36.392L73.8673 46.3779L79.8764 45.9249L76.8373 26.4754L70.4138 26.1286L67.5818 36.8774L64.4737 25.4351L56.3234 24.395Z" fill="#808080"/>
<path d="M80.1528 26.7186L80.3051 45.9455L90.0785 45.1659L90.0642 41.1774H85.8165L85.7819 39.1317L89.6154 39.0969V34.624L85.8165 34.5895L85.7475 32.6824L90.0298 32.8211L89.9606 27.7934L80.1528 26.7186Z" fill="#808080"/>
<path d="M99.7484 34.474L103.168 32.3935C102.37 31.1131 101.857 29.7642 99.7138 28.7182C98.44 28.0244 96.1864 27.7888 94.6372 28.7528C92.3897 29.9558 90.9693 32.5744 90.9764 34.9941C90.8233 37.4228 90.9173 39.8802 92.1506 41.9288C94.2 45.347 97.1366 45.4501 99.9729 44.4253C101.305 43.8578 103.222 41.9881 103.271 39.3284L103.478 35.5836L97.6072 35.4448L97.5726 39.0162L99.403 39.0509C99.2989 39.9002 99.0164 40.4865 97.3999 40.5765C96.7759 40.512 95.2323 40.2832 95.2934 38.2535L95.4314 34.838C95.4663 34.0873 96.5003 32.91 97.8143 32.9485C98.5889 32.9706 99.2918 33.3356 99.7484 34.474V34.474Z" fill="#808080"/>
<path d="M106.819 29.148L103.258 44.1489L106.745 43.9193L107.127 42.0514H109.572L109.842 43.6749L113.004 43.4346L110.54 29.3613L106.819 29.148ZM108.605 34.1109L109.338 38.7536L107.712 38.7215L108.605 34.1109Z" fill="#808080"/>
<path d="M57.4953 23.6113L54.8017 46.9119L62.3302 46.4958L63.2973 34.568L66.9579 46.2183L70.7687 45.9039L73.7959 35.6084L75.0392 45.5943L81.0483 45.141L78.0093 25.6915L71.5857 25.345L68.7537 36.0938L65.6456 24.6514L57.4953 23.6113Z" fill="white"/>
<path d="M81.3249 25.9349L81.4772 45.1618L91.2508 44.3822L91.2365 40.3937H86.9886L86.9542 38.348L90.7875 38.3132V33.8403L86.9886 33.8056L86.9195 31.8985L91.2019 32.0374L91.1329 27.0098L81.3249 25.9349Z" fill="white"/>
<path d="M100.92 33.6903L104.34 31.6099C103.542 30.3295 103.029 28.9803 100.886 27.9346C99.612 27.2406 97.3584 27.0052 95.8092 27.9692C93.5617 29.1722 92.1414 31.7908 92.1486 34.2105C91.9956 36.6392 92.0893 39.0966 93.3229 41.1452C95.3723 44.5634 98.3087 44.6665 101.145 43.6417C102.477 43.0741 104.394 41.2045 104.443 38.5446L104.65 34.8L98.7793 34.6611L98.7449 38.2326L100.575 38.2673C100.471 39.1163 100.188 39.7029 98.5722 39.7928C97.9482 39.7284 96.4044 39.4996 96.4654 37.4697L96.6037 34.0544C96.6383 33.3037 97.6724 32.1264 98.9866 32.1646C99.761 32.187 100.464 32.552 100.92 33.6903V33.6903Z" fill="white"/>
<path d="M107.991 28.3636L104.43 43.3647L107.917 43.1351L108.3 41.2672H110.744L111.015 42.8907L114.176 42.6502L111.712 28.5771L107.991 28.3636ZM109.777 33.3265L110.511 37.9694L108.884 37.9373L109.777 33.3265Z" fill="white"/>
<path d="M58.0816 23.2188L55.3877 46.5195L62.9165 46.1034L63.8834 34.1757L67.5443 45.826L71.355 45.5115L74.3822 35.216L75.6255 45.202L81.6346 44.7487L78.5956 25.2992L72.172 24.9527L69.34 35.7014L66.2319 24.2591L58.0816 23.2188Z" fill="#EE1D25"/>
<path d="M81.911 25.5409L82.0633 44.7681L91.8367 43.9884L91.8224 39.9999H87.5747L87.5401 37.954L91.3736 37.9195V33.4466L87.5747 33.4118L87.5057 31.5048L91.788 31.6436L91.7187 26.6158L81.911 25.5409Z" fill="#EE1D25"/>
<path d="M101.507 33.2985L104.926 31.2181C104.128 29.9377 103.616 28.5885 101.472 27.5426C100.198 26.8488 97.9445 26.6134 96.3953 27.5774C94.1478 28.7804 92.7275 31.399 92.7345 33.8187C92.5814 36.2474 92.6754 38.7045 93.9088 40.7534C95.9581 44.1716 98.8948 44.2747 101.731 43.2499C103.063 42.6823 104.98 40.8127 105.029 38.1527L105.236 34.4079L99.3654 34.2693L99.3307 37.8407L101.161 37.8755C101.057 38.7245 100.775 39.311 99.1583 39.401C98.5341 39.3366 96.9905 39.1077 97.0515 37.0779L97.1896 33.6626C97.2244 32.9119 98.2585 31.7346 99.5727 31.7728C100.347 31.7952 101.05 32.1602 101.507 33.2985V33.2985Z" fill="#EE1D25"/>
<path d="M108.577 27.9708L105.016 42.9719L108.503 42.7423L108.885 40.8744H111.331L111.601 42.4979L114.762 42.2574L112.298 28.1843L108.577 27.9708ZM110.363 32.9337L111.097 37.5766L109.47 37.5445L110.363 32.9337Z" fill="#EE1D25"/>
<path d="M59.6922 33.0905C59.6922 38.6631 55.2546 43.1805 49.7805 43.1805C44.3067 43.1805 39.8691 38.6631 39.8691 33.0905C39.8691 27.5179 44.3067 23.0005 49.7805 23.0005C55.2546 23.0005 59.6922 27.5179 59.6922 33.0905Z" fill="#FDB927"/>
<path d="M59.6922 33.0905C59.6922 38.6631 55.2546 43.1805 49.7805 43.1805C44.3067 43.1805 39.8691 38.6631 39.8691 33.0905C39.8691 27.5179 44.3067 23.0005 49.7805 23.0005C55.2546 23.0005 59.6922 27.5179 59.6922 33.0905Z" fill="url(#paint0_radial_615_20258)"/>
<path d="M60.2783 32.6986C60.2783 38.2712 55.8407 42.7886 50.3667 42.7886C44.8926 42.7886 40.455 38.2712 40.455 32.6986C40.455 27.126 44.8926 22.6086 50.3667 22.6086C55.8407 22.6086 60.2783 27.126 60.2783 32.6986Z" fill="url(#paint1_radial_615_20258)"/>
<path d="M48.6689 33.3062L46.139 32.0322L43.5424 34.1627L44.4977 31.192L40.7918 29.2139L44.8613 29.3413L45.7032 26.6461L46.7671 29.3156L49.6758 29.3078L47.6068 30.9028L48.6689 33.3062Z" fill="#214489"/>
<path d="M53.2867 28.4147L51.1005 27.5937L49.5535 29.3487L49.6315 26.7622L47.2711 25.19L49.7521 25.0054L49.9885 23.1142L51.2766 24.995L53.287 24.9539L52.1021 26.3953L53.2867 28.4147Z" fill="#214489"/>
<path d="M57.5502 29.2558L56.1257 29.026L55.649 30.6332L54.8914 28.7824L53.3083 28.4212L54.7359 27.5419L54.545 25.6766L55.7016 26.984L56.8303 26.1988L56.4539 27.8799L57.5502 29.2558Z" fill="#214489"/>
<path d="M57.484 35.4059L56.5008 33.6151L55.0056 33.8123L56.0697 32.5235L55.5613 30.7166L56.7123 31.5631L57.699 30.3871L57.6695 32.173L59.0029 32.9843L57.5465 33.2387L57.484 35.4059Z" fill="#214489"/>
<path d="M50.263 40.0583L48.4181 38.6527L45.3209 40.9585L46.7235 37.8949L43.8937 35.8001L47.7077 35.8857L48.6484 33.3128L49.5424 35.7962L51.9452 35.8624L49.8743 37.3548L50.263 40.0583Z" fill="#214489"/>
<path d="M57.2531 36.5995L55.2684 36.2581L54.9913 33.9055L53.9357 36.0721L51.9292 35.8561L53.2617 37.5363L52.2986 39.7553L54.1777 38.6274L55.5075 40.0822L55.4179 37.8373L57.2531 36.5995Z" fill="#214489"/>
<path d="M46.8367 44.7526C53.088 47.8498 59.2078 44.5463 60.984 38.8206C57.9568 43.5797 50.6002 45.2871 46.8367 44.7526V44.7526Z" fill="#FDB927"/>
<path d="M39.696 28.7115C40.3388 26.6916 42.2761 24.0991 44.3935 23.4352C43.6899 22.9989 39.9806 20.0384 34.0412 21.024C28.6822 22.2577 29.2512 28.383 30.0311 30.8601C30.0873 29.3783 29.9296 27.3606 30.843 26.1844C31.2945 25.6732 34.0362 24.5066 39.4104 28.4747C39.8401 28.7889 38.4847 27.7434 39.696 28.7115Z" fill="#FDB927"/>
<path d="M38.7426 30.0725C37.1071 28.5346 35.2665 27.3522 32.9909 26.4573C30.2645 38.2722 40.7309 47.1941 47.402 51.6867C41.8514 50.6697 27.511 41.0579 27.6675 27.6051C27.6346 26.6873 28.2558 19.9693 35.5555 19.7483C40.2525 19.8439 42.2343 20.9056 44.1549 21.801" stroke="#FDB927" stroke-width="2.95"/>
<path d="M38.502 30.3376L39.2314 31.0092L39.4341 30.1865L38.9429 29.7717L38.6299 30.0056L38.472 30.1715L38.502 30.3376Z" fill="#FDB927"/>
<path d="M43.9745 22.1123C44.5072 22.4058 45.0294 22.7015 45.5305 23.0019L46.6355 22.7604C45.8374 22.3268 44.8567 21.7072 44.2659 21.4594L44.0346 21.7342L43.9745 22.1123Z" fill="#FDB927"/>
<path d="M45.2816 51.4284C46.5746 51.9704 49.0795 52.5772 51.0989 52.4597C48.9914 52.0222 48.4697 52.0393 46.8679 50.8968L45.9434 51.0082L45.2816 51.4284Z" fill="#FDB927"/>
<path d="M31.6474 26.8286C30.617 30.3276 31.38 34.3866 33.271 38.964C31.0855 35.2202 27.928 31.5318 31.6474 26.8286V26.8286Z" fill="#EE1D25"/>
<path d="M39.2843 24.8965C37.0442 28.9672 36.5373 33.1023 38.6228 37.334C37.4747 33.1882 37.8692 29.0424 39.2843 24.8965Z" fill="#EE1D25"/>
<path d="M113.732 46.3484L113.148 47.9901L112.214 47.5913C111.449 47.4089 111.361 48.3172 111.77 48.3887L112.681 48.6231C113.241 48.804 113.454 49.2338 113.569 49.5144C113.832 50.4438 113.608 50.8298 113.498 51.3434C113.136 52.3251 112.452 52.7478 111.606 52.8913C110.545 53.0496 110.009 52.8383 109.364 52.7035L110.088 50.7337C110.22 51.2439 110.818 51.259 110.976 51.2965C111.329 51.3872 111.611 51.2437 111.747 51.062C111.943 50.7211 111.72 50.4832 111.513 50.4054L110.485 50.1943C109.867 50.0287 109.693 49.2734 109.586 48.8225C109.518 48.2231 109.589 47.6903 109.896 47.1762C110.137 46.7175 110.42 46.4109 110.847 46.0857C111.238 45.8243 111.934 45.7202 112.471 45.809C113.337 45.9889 113.384 46.1687 113.732 46.3484Z" fill="#808080"/>
<path d="M53.9532 48.9577L52.3313 60.8543L57.521 60.1697L57.6477 54.0239L60.3057 59.7235L63.0064 59.3798L64.8935 53.3464L65.8416 58.9997L69.8011 58.4056L67.5925 48.4645L63.0014 48.5323L61.3829 54.6572L59.3146 48.7315L53.9532 48.9577Z" fill="#808080"/>
<path d="M70.838 48.2942L74.9419 47.9973L75.0809 57.6588L71.227 58.214L70.838 48.2942Z" fill="#808080"/>
<path d="M76.5823 47.8786L80.3233 47.6755L80.3618 54.0219L83.2502 53.7306L83.2391 56.582L76.631 57.5226L76.5823 47.8786Z" fill="#808080"/>
<path d="M90.6662 47.1825L93.5112 46.959L93.543 55.1838L90.6662 55.6341V47.1825Z" fill="#808080"/>
<path d="M101.726 52.198C100.705 54.2965 98.3494 55.3108 96.4635 54.4635C94.5776 53.6165 93.8759 51.2287 94.8964 49.1302C95.9168 47.0318 98.2731 46.0177 100.159 46.8647C102.045 47.712 102.746 50.0998 101.726 52.198V52.198Z" fill="#808080"/>
<path d="M84.1109 47.5585L87.2852 47.369L87.3179 53.2932L89.7689 53.0214L89.7594 55.6828L84.1524 56.5612L84.1109 47.5585Z" fill="#808080"/>
<path d="M102.926 46.3661L102.869 53.9479L104.912 53.6714L104.981 49.7075L106.656 53.3718L108.814 53.2334L108.975 46.0665L106.932 46.1818L107.012 50.2376L105.118 46.2394L102.926 46.3661Z" fill="#808080"/>
<path d="M114.51 45.6107L113.926 47.2522L112.991 46.8536C112.226 46.6712 112.139 47.5795 112.547 47.651L113.458 47.8855C114.018 48.0664 114.231 48.4961 114.346 48.7765C114.609 49.706 114.385 50.0921 114.276 50.6057C113.914 51.5872 113.229 52.0099 112.384 52.1536C111.322 52.3117 110.786 52.1006 110.142 51.9659L110.866 49.9961C110.998 50.5063 111.595 50.5211 111.753 50.5588C112.107 50.6495 112.388 50.506 112.524 50.3244C112.72 49.9832 112.498 49.7456 112.29 49.6678L111.263 49.4567C110.644 49.2911 110.471 48.5357 110.364 48.0849C110.295 47.4852 110.366 46.9526 110.673 46.4383C110.915 45.9799 111.198 45.6732 111.624 45.3478C112.016 45.0866 112.712 44.9826 113.248 45.0713C114.114 45.251 114.161 45.431 114.51 45.6107V45.6107Z" fill="white"/>
<path d="M54.6883 48.2621L53.0662 60.1587L58.2559 59.4742L58.3826 53.3284L61.0409 59.0277L63.7413 58.6843L65.6287 52.6506L66.5765 58.3039L70.536 57.7101L68.3275 47.7687L63.7363 47.8365L62.1178 53.9616L60.0495 48.0359L54.6883 48.2621Z" fill="white"/>
<path d="M71.5303 47.5995L75.6344 47.3024L75.7732 56.9641L71.9196 57.5193L71.5303 47.5995Z" fill="white"/>
<path d="M77.2749 47.0114L81.0157 46.8083L81.0544 53.1548L83.9426 52.8637L83.9315 55.7148L77.3236 56.6557L77.2749 47.0114Z" fill="white"/>
<path d="M91.4894 46.3563L94.3342 46.1328L94.3662 54.3574L91.4894 54.8077V46.3563Z" fill="white"/>
<path d="M102.549 51.3719C101.529 53.4701 99.1725 54.4845 97.2866 53.6375C95.4007 52.7902 94.6992 50.4024 95.7197 48.3039C96.7401 46.2057 99.0962 45.1914 100.982 46.0387C102.868 46.8857 103.57 49.2735 102.549 51.3719V51.3719Z" fill="white"/>
<path d="M84.9309 46.7346L88.1053 46.5452L88.138 52.4696L90.5888 52.1977L90.5793 54.8592L84.9723 55.7375L84.9309 46.7346Z" fill="white"/>
<path d="M103.747 45.6271L103.689 53.2086L105.732 52.9321L105.801 48.9685L107.476 52.6325L109.634 52.4944L109.795 45.3275L107.752 45.4428L107.832 49.4986L105.938 45.5004L103.747 45.6271Z" fill="white"/>
<path d="M114.864 45.2993L114.28 46.941L113.346 46.5422C112.581 46.3601 112.493 47.2681 112.902 47.3396L113.813 47.574C114.373 47.7552 114.585 48.1849 114.7 48.4653C114.964 49.3948 114.739 49.7807 114.63 50.2945C114.268 51.276 113.584 51.6987 112.738 51.8422C111.677 52.0005 111.141 51.7892 110.496 51.6547L111.22 49.6846C111.352 50.1948 111.949 50.2099 112.108 50.2476C112.461 50.3381 112.743 50.1946 112.878 50.0129C113.074 49.672 112.852 49.4342 112.645 49.3563L111.617 49.1453C110.998 48.9799 110.825 48.2243 110.718 47.7735C110.649 47.174 110.72 46.6414 111.028 46.1271C111.269 45.6684 111.552 45.3618 111.978 45.0367C112.37 44.7752 113.066 44.6711 113.603 44.7599C114.468 44.9399 114.515 45.1196 114.864 45.2993V45.2993Z" fill="#33337A"/>
<path d="M55.0852 47.9094L53.4631 59.8058L58.6528 59.1214L58.7795 52.9754L61.4378 58.675L64.1383 58.3316L66.0256 52.2979L66.9734 57.9512L70.9329 57.3571L68.7244 47.416L64.1332 47.4838L62.5147 53.6087L60.4464 47.6832L55.0852 47.9094Z" fill="#33337A"/>
<path d="M71.9697 47.3304L76.0738 47.0335L76.2126 56.6953L72.3587 57.2502L71.9697 47.3304Z" fill="#33337A"/>
<path d="M77.7141 46.8288L81.4551 46.6257L81.4936 52.9721L84.382 52.6808L84.3708 55.5321L77.7627 56.473L77.7141 46.8288Z" fill="#33337A"/>
<path d="M91.7981 46.1333L94.643 45.9098L94.6747 54.1345L91.7981 54.5849V46.1333Z" fill="#33337A"/>
<path d="M102.858 51.1493C101.837 53.2475 99.4812 54.2618 97.5953 53.4146C95.7094 52.5676 95.0077 50.1797 96.0282 48.0813C97.0489 45.9831 99.4049 44.9687 101.291 45.8157C103.177 46.663 103.878 49.0508 102.858 51.1493V51.1493Z" fill="#33337A"/>
<path d="M85.2425 46.4666L88.417 46.2772L88.4497 52.2014L90.9004 51.9298L90.9336 54.634L85.2839 55.4696L85.2425 46.4666Z" fill="#33337A"/>
<path d="M104.058 45.3171L104.001 52.8988L106.044 52.6223L106.113 48.6587L107.788 52.3227L109.946 52.1844L110.106 45.0175L108.063 45.1327L108.144 49.1886L106.25 45.1904L104.058 45.3171Z" fill="#33337A"/>
<path d="M99.752 46.6753L99.144 48.6006L96.5249 48.8355L98.6296 50.1032L98.0684 52.4512L99.8455 50.8547L101.483 51.6059L100.875 49.8685L102.325 48.4598L100.547 48.5537L99.752 46.6753Z" fill="white"/>
</g>
<defs>
<radialGradient id="paint0_radial_615_20258" cx="0" cy="0" r="1" gradientUnits="userSpaceOnUse" gradientTransform="translate(45.7895 29.8561) rotate(71.5918) scale(10.5672 11.3086)">
<stop stop-color="#FFF6D5"/>
<stop offset="1" stop-color="#FFF6D5" stop-opacity="0"/>
</radialGradient>
<radialGradient id="paint1_radial_615_20258" cx="0" cy="0" r="1" gradientUnits="userSpaceOnUse" gradientTransform="translate(46.5334 29.89) rotate(75.0572) scale(4.27653 5.12506)">
<stop stop-color="#FFF6D5"/>
<stop offset="1" stop-color="#FFF6D5" stop-opacity="0"/>
</radialGradient>
<clipPath id="clip0_615_20258">
<rect width="141" height="80" fill="white" transform="translate(0.623047 0.301331)"/>
</clipPath>
</defs>
</svg>
