<svg width="45" height="28" viewBox="0 0 45 28" fill="none" xmlns="http://www.w3.org/2000/svg">
<g clip-path="url(#clip0_615_20989)">
<rect x="0.733154" y="0.728027" width="44" height="26.4" rx="4" fill="#000066"/>
<path fill-rule="evenodd" clip-rule="evenodd" d="M37.542 13.9208C37.542 18.7852 33.6146 22.728 28.7688 22.728C23.9239 22.728 19.9959 18.7852 19.9959 13.9208C19.9959 9.05635 23.9239 5.1134 28.7688 5.1134C33.6146 5.1134 37.542 9.05635 37.542 13.9208" fill="#CC0000"/>
<path fill-rule="evenodd" clip-rule="evenodd" d="M21.9916 19.5138C21.7494 19.2189 21.5263 18.9073 21.3234 18.581H24.4327C24.6193 18.282 24.7878 17.9705 24.9382 17.6483H20.8181C20.6777 17.3466 20.5529 17.0354 20.4467 16.7159H25.309C25.6019 15.8377 25.7601 14.8982 25.7601 13.9208C25.7601 13.2809 25.6921 12.6568 25.5632 12.0558H20.1932C20.2611 11.738 20.3468 11.4271 20.4478 11.1231H25.3085C25.2018 10.8037 25.0777 10.4926 24.9374 10.1908H20.819C20.9694 9.86863 21.1383 9.55769 21.3244 9.25803H24.4317C24.229 8.93262 24.0054 8.62154 23.7635 8.32619H21.9927C22.2652 7.99424 22.5612 7.6826 22.8782 7.39408C21.3211 5.97676 19.2543 5.1134 16.9874 5.1134C12.1418 5.1134 8.2139 9.05635 8.2139 13.9208C8.2139 18.7852 12.1418 22.728 16.9874 22.728C19.2545 22.728 21.3213 21.8646 22.8782 20.4479C23.1956 20.1588 23.492 19.8465 23.7645 19.5138H21.9916" fill="#0066CC"/>
<path fill-rule="evenodd" clip-rule="evenodd" d="M22.7532 16.3009C22.3782 16.4006 22.0157 16.4493 21.6324 16.4485C20.4096 16.4474 19.7727 15.8883 19.7727 14.8191C19.7727 13.5699 20.5834 12.6511 21.684 12.6511C22.5842 12.6511 23.1588 13.1662 23.1588 13.9734C23.1588 14.2412 23.1199 14.5021 23.0247 14.871H20.8501C20.7727 15.3932 21.1525 15.6224 21.7991 15.6224C22.1863 15.6224 22.5365 15.5526 22.9244 15.396L22.7532 16.3009V16.3009ZM22.1684 14.1343C22.1684 14.0555 22.2893 13.4949 21.66 13.4828C21.3125 13.4828 21.0633 13.7146 20.9625 14.1343H22.1684V14.1343Z" fill="#000066"/>
<path fill-rule="evenodd" clip-rule="evenodd" d="M23.4899 13.8892C23.4899 14.3506 23.7486 14.6695 24.337 14.9068C24.7866 15.0916 24.8574 15.1452 24.8574 15.3104C24.8574 15.5394 24.6588 15.6444 24.2176 15.6416C23.8863 15.6392 23.5839 15.5987 23.2271 15.4995L23.0692 16.3411C23.3865 16.415 23.8311 16.4392 24.2254 16.4484C25.3997 16.4484 25.9418 16.0625 25.9418 15.2282C25.9418 14.7266 25.7157 14.4316 25.158 14.2117C24.6918 14.0247 24.6372 13.9844 24.6372 13.8151C24.6372 13.6163 24.8219 13.5158 25.182 13.5158C25.4003 13.5158 25.6992 13.5358 25.9828 13.5704L26.1419 12.7241C25.8529 12.6839 25.4146 12.6516 25.1607 12.6516C23.9167 12.6516 23.4862 13.2138 23.4899 13.8892" fill="#000066"/>
<path fill-rule="evenodd" clip-rule="evenodd" d="M19.1766 16.3882H18.2644L18.2862 16.0046C18.008 16.3072 17.6374 16.4482 17.1346 16.4482C16.5395 16.4482 16.1318 16.0397 16.1318 15.4522C16.1318 14.5592 16.8405 14.0441 18.059 14.0441C18.1842 14.0441 18.3436 14.0535 18.5072 14.0721C18.541 13.9525 18.5502 13.901 18.5502 13.8361C18.5502 13.5917 18.3584 13.5017 17.8456 13.5017C17.3401 13.5036 16.999 13.5789 16.6824 13.6642L16.8383 12.845C17.3857 12.7053 17.744 12.6511 18.1496 12.6511C19.0931 12.6511 19.5915 13.0227 19.5915 13.7206C19.5994 13.907 19.5349 14.2808 19.5023 14.4445C19.4654 14.6824 19.2039 16.0625 19.1766 16.3882V16.3882ZM18.3758 14.7589C18.2603 14.7475 18.21 14.744 18.1308 14.744C17.5086 14.744 17.1932 14.93 17.1932 15.297C17.1932 15.5275 17.3471 15.6716 17.5871 15.6716C18.0342 15.6716 18.357 15.2962 18.3758 14.7589V14.7589Z" fill="#000066"/>
<path fill-rule="evenodd" clip-rule="evenodd" d="M27.8639 16.3304C27.5647 16.4126 27.3313 16.4485 27.0791 16.4485C26.5203 16.4485 26.2151 16.1618 26.2151 15.6513C26.1975 15.511 26.3341 14.8629 26.3651 14.6824C26.3959 14.5013 26.88 11.8616 26.88 11.8616H27.9657L27.8015 12.7351H28.3583L28.2071 13.6263H27.6477C27.6477 13.6263 27.3409 15.1736 27.3409 15.2919C27.3409 15.4794 27.454 15.5609 27.714 15.5609C27.8382 15.5609 27.9343 15.5493 28.0085 15.527L27.8639 16.3304" fill="#000066"/>
<path fill-rule="evenodd" clip-rule="evenodd" d="M32.7151 12.6511C31.9193 12.6511 31.2976 12.9803 30.9364 13.5293L31.2499 12.7148C30.6722 12.5019 30.2998 12.8058 29.9633 13.2375C29.9633 13.2375 29.9068 13.3092 29.8505 13.3748V12.7347H28.8311C28.693 13.8644 28.4488 15.0102 28.2579 16.1424L28.2117 16.3887H29.3084C29.4125 15.8141 29.4979 15.3478 29.5831 14.9759C29.816 13.9557 30.2081 13.6439 30.7968 13.782C30.6609 14.075 30.5864 14.4146 30.5864 14.7903C30.5864 15.7023 31.0795 16.4485 32.3045 16.4485C33.5405 16.4485 34.4356 15.7857 34.4356 14.2743C34.4356 13.3628 33.8391 12.6511 32.7151 12.6511V12.6511ZM32.3959 15.562C32.0087 15.568 31.7738 15.2418 31.7738 14.7535C31.7738 14.1751 32.1164 13.5213 32.667 13.5213C33.1113 13.5213 33.2634 13.875 33.2634 14.2518C33.2634 15.0746 32.9274 15.562 32.3959 15.562V15.562Z" fill="#000066"/>
<path fill-rule="evenodd" clip-rule="evenodd" d="M15.6208 16.3886H14.5286L15.1777 12.9558L13.6834 16.3886H12.6878L12.5059 12.976L11.8547 16.3886H10.8639L11.7077 11.9233H13.4145L13.5566 14.4126L14.6379 11.9233H16.4816L15.6208 16.3886" fill="#000066"/>
<path fill-rule="evenodd" clip-rule="evenodd" d="M23.0272 16.0258C22.6525 16.1256 22.2898 16.1743 21.9067 16.1735C20.6839 16.1723 20.047 15.6131 20.047 14.544C20.047 13.2949 20.8576 12.3761 21.958 12.3761C22.8583 12.3761 23.433 12.8912 23.433 13.6982C23.433 13.966 23.3941 14.2264 23.299 14.5959H21.1245C21.047 15.1176 21.4265 15.3473 22.0731 15.3473C22.4604 15.3473 22.8107 15.2774 23.1986 15.1205L23.0272 16.0258V16.0258ZM22.4424 13.8593C22.4424 13.7803 22.5633 13.2198 21.9342 13.2076C21.5868 13.2076 21.3376 13.4395 21.2365 13.8593H22.4424V13.8593Z" fill="white"/>
<path fill-rule="evenodd" clip-rule="evenodd" d="M23.7642 13.614C23.7642 14.0755 24.0228 14.3941 24.611 14.6317C25.061 14.8166 25.1315 14.8701 25.1315 15.0349C25.1315 15.2643 24.9328 15.3692 24.492 15.3666C24.1604 15.3641 23.858 15.3235 23.5015 15.2243L23.3433 16.0657C23.6607 16.1399 24.1056 16.1641 24.4994 16.1734C25.6737 16.1734 26.2161 15.7873 26.2161 14.9528C26.2161 14.4514 25.9898 14.1562 25.4322 13.9366C24.966 13.7497 24.9112 13.7089 24.9112 13.54C24.9112 13.3413 25.0962 13.2404 25.4561 13.2404C25.6745 13.2404 25.9732 13.2608 26.257 13.2954L26.4161 12.4491C26.1271 12.4083 25.6888 12.3765 25.4352 12.3765C24.1909 12.3765 23.7603 12.9384 23.7642 13.614" fill="white"/>
<path fill-rule="evenodd" clip-rule="evenodd" d="M19.4509 16.1131H18.5384L18.5604 15.7295C18.2821 16.0318 17.9118 16.1726 17.4089 16.1726C16.8139 16.1726 16.4058 15.7643 16.4058 15.1768C16.4058 14.284 17.1146 13.7689 18.3332 13.7689C18.4584 13.7689 18.6175 13.7785 18.7814 13.7963C18.8153 13.6771 18.8243 13.626 18.8243 13.561C18.8243 13.316 18.6327 13.2264 18.12 13.2264C17.6143 13.2285 17.2732 13.3038 16.9568 13.3892L17.1123 12.5698C17.6598 12.4301 18.018 12.3761 18.4238 12.3761C19.3674 12.3761 19.8656 12.7473 19.8656 13.4455C19.8738 13.632 19.8089 14.0051 19.7767 14.1693C19.7394 14.4072 19.4781 15.7874 19.4509 16.1131V16.1131ZM18.6501 14.4839C18.5347 14.4719 18.4842 14.4689 18.4049 14.4689C17.783 14.4689 17.4675 14.6545 17.4675 15.0213C17.4675 15.2522 17.6216 15.3965 17.8612 15.3965C18.3086 15.3965 18.6314 15.0207 18.6501 14.4839V14.4839Z" fill="white"/>
<path fill-rule="evenodd" clip-rule="evenodd" d="M28.1381 16.0551C27.8387 16.1375 27.6055 16.1734 27.3531 16.1734C26.7943 16.1734 26.4894 15.8865 26.4894 15.376C26.4717 15.2357 26.6082 14.5877 26.6392 14.4071C26.6702 14.2261 27.1543 11.5863 27.1543 11.5863H28.2398L28.0758 12.4595H28.6327L28.4812 13.351H27.922C27.922 13.351 27.6149 14.8983 27.6149 15.0161C27.6149 15.2043 27.7282 15.2853 27.9882 15.2853C28.1124 15.2853 28.2084 15.2741 28.283 15.2516L28.1381 16.0551" fill="white"/>
<path fill-rule="evenodd" clip-rule="evenodd" d="M33.5378 13.976C33.5378 14.7995 33.2014 15.287 32.67 15.287C32.2827 15.2925 32.0479 14.9667 32.0479 14.4784C32.0479 13.9 32.3906 13.2461 32.941 13.2461C33.3854 13.2461 33.5378 13.5998 33.5378 13.976V13.976ZM34.7098 13.9991C34.7098 13.0877 34.1131 12.3761 32.9895 12.3761C31.6967 12.3761 30.8606 13.241 30.8606 14.5152C30.8606 15.4272 31.3537 16.1735 32.5789 16.1735C33.8149 16.1735 34.7098 15.5107 34.7098 13.9991V13.9991Z" fill="white"/>
<path fill-rule="evenodd" clip-rule="evenodd" d="M29.1051 12.4591C28.9672 13.5892 28.7229 14.7348 28.5321 15.8669L28.486 16.1136H29.5825C29.9777 13.9268 30.1104 13.304 30.9386 13.5232L31.337 12.4887C30.7592 12.2758 30.3875 12.5798 30.0509 13.0118C30.0813 12.8174 30.1384 12.6296 30.1247 12.4591H29.1051" fill="white"/>
<path fill-rule="evenodd" clip-rule="evenodd" d="M15.8949 16.1135H14.803L15.4519 12.6807L13.9575 16.1135H12.9619L12.7798 12.7007L12.1287 16.1135H11.138L11.9817 11.6481H13.6886L13.7787 14.4125L14.9802 11.6481H16.7557L15.8949 16.1135" fill="white"/>
</g>
<defs>
<clipPath id="clip0_615_20989">
<rect width="44" height="26.4" fill="white" transform="translate(0.733154 0.728027)"/>
</clipPath>
</defs>
</svg>
