<svg width="45" height="28" viewBox="0 0 45 28" fill="none" xmlns="http://www.w3.org/2000/svg">
<g clip-path="url(#clip0_615_20951)">
<rect x="0.733154" y="0.728027" width="44" height="26.4" rx="4" fill="#000066"/>
<path fill-rule="evenodd" clip-rule="evenodd" d="M25.4298 14.1416C25.4298 18.8841 21.5857 22.728 16.8434 22.728C12.101 22.728 8.25659 18.8841 8.25659 14.1416C8.25659 9.39933 12.101 5.55493 16.8434 5.55493C21.5857 5.55493 25.4298 9.39933 25.4298 14.1416" fill="#CC0000"/>
<path fill-rule="evenodd" clip-rule="evenodd" d="M28.3714 5.55493C26.1522 5.55493 24.1309 6.39665 22.6068 7.77749C22.2967 8.05893 22.0073 8.36289 21.7401 8.68652H23.475C23.7119 8.97501 23.9302 9.27829 24.1296 9.59595H21.0854C20.9033 9.88783 20.7377 10.1911 20.5906 10.5054H24.624C24.7619 10.7997 24.8832 11.1029 24.9877 11.4144H20.2269C20.1279 11.7105 20.0443 12.0139 19.9775 12.3233H25.2368C25.3628 12.9095 25.4298 13.5177 25.4298 14.1416C25.4298 15.0949 25.2744 16.0125 24.9877 16.8694H20.2269C20.3314 17.1807 20.4527 17.4842 20.5903 17.779H24.624C24.4767 18.0924 24.3119 18.396 24.1287 18.6883H21.0854C21.2839 19.005 21.5026 19.3087 21.7401 19.5967H23.4744C23.2078 19.9206 22.9181 20.2246 22.6071 20.506C24.1311 21.8869 26.1522 22.728 28.3714 22.728C33.1136 22.728 36.9578 18.8841 36.9578 14.1416C36.9578 9.39974 33.1136 5.55493 28.3714 5.55493" fill="#FF9900"/>
<path fill-rule="evenodd" clip-rule="evenodd" d="M14.838 15.0818C14.7402 15.0706 14.697 15.0671 14.6299 15.0671C14.1015 15.0671 13.8343 15.2484 13.8343 15.6065C13.8343 15.827 13.9647 15.9672 14.1682 15.9672C14.548 15.9672 14.8217 15.6057 14.838 15.0818V15.0818ZM15.5162 16.66C15.3919 16.66 14.7435 16.66 14.7435 16.66L14.7613 16.2929C14.5257 16.5828 14.2113 16.7212 13.7843 16.7212C13.2792 16.7212 12.9328 16.3269 12.9328 15.7538C12.9328 14.8912 13.5352 14.3882 14.5693 14.3882C14.6753 14.3882 14.8107 14.3979 14.9494 14.4155C14.9781 14.2985 14.9857 14.2488 14.9857 14.1857C14.9857 13.9512 14.8235 13.8633 14.388 13.8633C13.9319 13.8587 13.5558 13.9723 13.4012 14.023C13.411 13.9641 13.5305 13.2264 13.5305 13.2264C13.9949 13.0898 14.3013 13.0388 14.6461 13.0388C15.4467 13.0388 15.8708 13.3981 15.8698 14.0774C15.8714 14.2597 15.8412 14.4837 15.7944 14.7793C15.7135 15.2922 15.5398 16.3923 15.5162 16.66V16.66Z" fill="#000066"/>
<path fill-rule="evenodd" clip-rule="evenodd" d="M12.5427 16.66H11.6104L12.1447 13.3121L10.9521 16.66H10.3169L10.2384 13.3308L9.67712 16.66H8.8046L9.53342 12.3046H10.874L10.955 14.7425L11.7728 12.3046H13.2637L12.5427 16.66" fill="#000066"/>
<path fill-rule="evenodd" clip-rule="evenodd" d="M29.5231 15.0818C29.4253 15.0706 29.3827 15.0671 29.3156 15.0671C28.7868 15.0671 28.5199 15.2484 28.5199 15.6065C28.5199 15.827 28.6498 15.9672 28.8539 15.9672C29.2334 15.9672 29.5072 15.6057 29.5231 15.0818V15.0818ZM30.2017 16.66C30.0771 16.66 29.4293 16.66 29.4293 16.66L29.4468 16.2929C29.2112 16.5828 28.897 16.7212 28.4702 16.7212C27.9645 16.7212 27.6184 16.3269 27.6184 15.7538C27.6184 14.8912 28.2211 14.3882 29.2549 14.3882C29.3608 14.3882 29.4959 14.3979 29.6347 14.4155C29.6636 14.2985 29.6711 14.2488 29.6711 14.1857C29.6711 13.9512 29.5088 13.8633 29.0734 13.8633C28.6173 13.8587 28.2413 13.9723 28.0862 14.023C28.0965 13.9641 28.2163 13.2264 28.2163 13.2264C28.6804 13.0898 28.9871 13.0388 29.3313 13.0388C30.1325 13.0388 30.556 13.3981 30.5552 14.0774C30.5568 14.2597 30.5268 14.4837 30.4797 14.7793C30.3991 15.2922 30.225 16.3923 30.2017 16.66V16.66Z" fill="#000066"/>
<path fill-rule="evenodd" clip-rule="evenodd" d="M19.659 16.6061C19.4037 16.6864 19.205 16.7212 18.9892 16.7212C18.5128 16.7212 18.2526 16.4474 18.2526 15.943C18.246 15.7864 18.3212 15.3745 18.3803 14.9989C18.4343 14.668 18.7847 12.5818 18.7847 12.5818H19.7111L19.6029 13.1179H20.1627L20.0364 13.9693H19.4747C19.3671 14.6427 19.2136 15.4819 19.2119 15.5931C19.2119 15.7758 19.3093 15.8556 19.5312 15.8556C19.6374 15.8556 19.7196 15.8447 19.7825 15.8222L19.659 16.6061" fill="#000066"/>
<path fill-rule="evenodd" clip-rule="evenodd" d="M22.4999 16.5775C22.1816 16.6748 21.8748 16.7223 21.5492 16.7212C20.5118 16.7198 19.9711 16.1784 19.9711 15.141C19.9711 13.9303 20.6589 13.0388 21.5929 13.0388C22.3568 13.0388 22.8449 13.5379 22.8449 14.3203C22.8449 14.5805 22.8115 14.8339 22.7305 15.1916H20.8853C20.823 15.7055 21.1517 15.9195 21.691 15.9195C22.0223 15.9195 22.3216 15.8511 22.6542 15.6968L22.4999 16.5775V16.5775ZM21.9792 14.4777C21.9845 14.4038 22.0773 13.8454 21.5477 13.8454C21.2529 13.8454 21.0417 14.0704 20.956 14.4777H21.9792V14.4777Z" fill="#000066"/>
<path fill-rule="evenodd" clip-rule="evenodd" d="M16.0753 14.2378C16.0753 14.6855 16.2924 14.9945 16.785 15.2266C17.1624 15.4043 17.2211 15.4568 17.2211 15.6176C17.2211 15.8381 17.0545 15.9382 16.6858 15.9382C16.4075 15.9382 16.1488 15.8945 15.8504 15.7981C15.8504 15.7981 15.7282 16.5791 15.7224 16.6164C15.9342 16.6623 16.1231 16.7051 16.6924 16.7212C17.676 16.7212 18.1303 16.3467 18.1303 15.5373C18.1303 15.0506 17.9403 14.765 17.4732 14.5501C17.0826 14.3708 17.0374 14.3306 17.0374 14.1654C17.0374 13.9739 17.1925 13.8761 17.4936 13.8761C17.6766 13.8761 17.9265 13.8956 18.1635 13.9291L18.2961 13.1076C18.0548 13.0692 17.6887 13.0388 17.4757 13.0388C16.433 13.0388 16.0719 13.5834 16.0753 14.2378" fill="#000066"/>
<path fill-rule="evenodd" clip-rule="evenodd" d="M27.0337 13.1324C27.2926 13.1324 27.5344 13.1997 27.8667 13.3675L28.0194 12.4223C27.8823 12.3685 27.4018 12.0536 26.9947 12.0536C26.3711 12.0536 25.8432 12.3635 25.4726 12.8739C24.9315 12.6948 24.7088 13.0568 24.4363 13.4177L24.1941 13.4742C24.2124 13.3555 24.2291 13.2375 24.2238 13.118H23.3673C23.2506 14.2145 23.0434 15.3248 22.8812 16.4218L22.8388 16.6601H23.7714C23.9271 15.6486 24.0121 15.0012 24.064 14.5626L24.4152 14.368C24.4679 14.1725 24.6317 14.1068 24.9612 14.1148C24.9182 14.3458 24.8948 14.5891 24.8948 14.8408C24.8948 15.9998 25.5209 16.7213 26.524 16.7213C26.7825 16.7213 27.0045 16.6873 27.3482 16.5937L27.5116 15.6012C27.2025 15.7531 26.9494 15.8246 26.7199 15.8246C26.178 15.8246 25.85 15.4244 25.85 14.7634C25.85 13.8042 26.3374 13.1324 27.0337 13.1324" fill="#000066"/>
<path fill-rule="evenodd" clip-rule="evenodd" d="M34.926 12.3046L34.7188 13.5629C34.4644 13.2276 34.1905 12.9847 33.8291 12.9847C33.3587 12.9847 32.9306 13.3413 32.6503 13.8664C32.2599 13.7854 31.8564 13.6477 31.8564 13.6477L31.8562 13.6511C31.8872 13.3576 31.9004 13.179 31.8973 13.1179H31.0409C30.9246 14.2145 30.7171 15.3247 30.5551 16.4217L30.5122 16.66H31.4451C31.5711 15.8426 31.6673 15.163 31.7382 14.6248C32.0571 14.3366 32.2167 14.086 32.5382 14.1023C32.3956 14.4472 32.3124 14.8442 32.3124 15.2516C32.3124 16.1368 32.7599 16.7212 33.4378 16.7212C33.7795 16.7212 34.0417 16.6033 34.2973 16.3303L34.2534 16.6597H35.1354L35.8455 12.3046H34.926V12.3046ZM33.7603 15.8418C33.443 15.8418 33.2823 15.6065 33.2823 15.1435C33.2823 14.4472 33.5826 13.9537 34.0053 13.9537C34.3257 13.9537 34.4994 14.1974 34.4994 14.6474C34.4994 15.3496 34.1941 15.8418 33.7603 15.8418V15.8418Z" fill="#000066"/>
<path fill-rule="evenodd" clip-rule="evenodd" d="M12.8108 16.4014H11.8787L12.4129 13.0535L11.2206 16.4014H10.5851L10.5067 13.0729L9.94531 16.4014H9.07278L9.80161 12.0464H11.1421L11.1796 14.7424L12.0841 12.0464H13.5319L12.8108 16.4014" fill="white"/>
<path fill-rule="evenodd" clip-rule="evenodd" d="M15.1064 14.8237C15.0087 14.8123 14.9656 14.8092 14.8984 14.8092C14.37 14.8092 14.1027 14.9902 14.1027 15.348C14.1027 15.5683 14.2332 15.7093 14.4369 15.7093C14.8166 15.7093 15.0903 15.3478 15.1064 14.8237V14.8237ZM15.7843 16.4015C15.6601 16.4015 15.0121 16.4015 15.0121 16.4015L15.0297 16.0347C14.7941 16.3244 14.4797 16.4629 14.0527 16.4629C13.5475 16.4629 13.2012 16.068 13.2012 15.4951C13.2012 14.6324 13.8037 14.13 14.8378 14.13C14.9435 14.13 15.079 14.1397 15.2178 14.1576C15.2465 14.0403 15.2541 13.9905 15.2541 13.9272C15.2541 13.6928 15.0919 13.6056 14.6564 13.6056C14.2002 13.6001 13.8242 13.7137 13.6695 13.7643C13.6794 13.7057 13.7988 12.9679 13.7988 12.9679C14.2633 12.8317 14.5697 12.7803 14.9145 12.7803C15.715 12.7803 16.1389 13.14 16.1382 13.819C16.1397 14.001 16.1097 14.2261 16.0628 14.5208C15.9817 15.0334 15.8081 16.1341 15.7843 16.4015V16.4015Z" fill="white"/>
<path fill-rule="evenodd" clip-rule="evenodd" d="M28.2875 12.1637L28.1348 13.1088C27.802 12.9415 27.5608 12.8738 27.3022 12.8738C26.6062 12.8738 26.118 13.5464 26.118 14.5058C26.118 15.1668 26.4461 15.5661 26.9881 15.5661C27.2177 15.5661 27.4713 15.4952 27.7797 15.3428L27.6159 16.3353C27.2728 16.4288 27.0506 16.463 26.7923 16.463C25.7885 16.463 25.1634 15.7413 25.1634 14.5826C25.1634 13.0256 26.0276 11.9375 27.263 11.9375C27.6701 11.9375 28.1508 12.11 28.2875 12.1637" fill="white"/>
<path fill-rule="evenodd" clip-rule="evenodd" d="M29.7913 14.8237C29.6941 14.8123 29.6509 14.8092 29.5838 14.8092C29.0557 14.8092 28.7882 14.9902 28.7882 15.348C28.7882 15.5683 28.9186 15.7093 29.1222 15.7093C29.5017 15.7093 29.7757 15.3478 29.7913 14.8237V14.8237ZM30.4698 16.4015C30.3457 16.4015 29.6975 16.4015 29.6975 16.4015L29.715 16.0347C29.4794 16.3244 29.165 16.4629 28.7384 16.4629C28.2327 16.4629 27.8868 16.068 27.8868 15.4951C27.8868 14.6324 28.4887 14.13 29.5231 14.13C29.6288 14.13 29.764 14.1397 29.9027 14.1576C29.9316 14.0403 29.9392 13.9905 29.9392 13.9272C29.9392 13.6928 29.7773 13.6056 29.3416 13.6056C28.8858 13.6001 28.5099 13.7137 28.3549 13.7643C28.3647 13.7057 28.4842 12.9679 28.4842 12.9679C28.9487 12.8317 29.2549 12.7803 29.5997 12.7803C30.4001 12.7803 30.8245 13.14 30.8234 13.819C30.8253 14.001 30.795 14.2261 30.7481 14.5208C30.6673 15.0334 30.4936 16.1341 30.4698 16.4015V16.4015Z" fill="white"/>
<path fill-rule="evenodd" clip-rule="evenodd" d="M19.9271 16.3478C19.6722 16.4281 19.4731 16.463 19.2576 16.463C18.781 16.463 18.5208 16.189 18.5208 15.6852C18.5143 15.5281 18.5896 15.1169 18.6489 14.7409C18.7025 14.4096 19.053 12.3237 19.053 12.3237H19.9796L19.8712 12.8597H20.347L20.2202 13.7108H19.743C19.6354 14.3849 19.4819 15.2235 19.48 15.3348C19.48 15.518 19.5779 15.5973 19.7994 15.5973C19.9057 15.5973 19.9878 15.5868 20.0509 15.5637L19.9271 16.3478" fill="white"/>
<path fill-rule="evenodd" clip-rule="evenodd" d="M22.7685 16.3196C22.45 16.4172 22.1426 16.4632 21.8174 16.4629C20.7799 16.4622 20.2396 15.9201 20.2396 14.8829C20.2396 13.6718 20.9273 12.7803 21.8606 12.7803C22.6252 12.7803 23.1131 13.2794 23.1131 14.0627C23.1131 14.3223 23.0791 14.5757 22.9991 14.9335H21.1536C21.0911 15.4474 21.4201 15.6618 21.959 15.6618C22.2905 15.6618 22.5897 15.5931 22.9227 15.4384L22.7685 16.3196V16.3196ZM22.2476 14.2192C22.2527 14.1451 22.3459 13.587 21.8164 13.587C21.5214 13.587 21.3101 13.8124 21.2242 14.2192H22.2476V14.2192Z" fill="white"/>
<path fill-rule="evenodd" clip-rule="evenodd" d="M16.3434 13.9793C16.3434 14.4278 16.5608 14.7361 17.0535 14.9685C17.4309 15.146 17.4893 15.1985 17.4893 15.3594C17.4893 15.5802 17.3228 15.6798 16.9539 15.6798C16.6759 15.6798 16.4171 15.6367 16.1185 15.5405C16.1185 15.5405 15.9964 16.321 15.9907 16.3578C16.2024 16.4042 16.3914 16.4465 16.9605 16.4629C17.9443 16.4629 18.3986 16.0885 18.3986 15.2791C18.3986 14.7922 18.2084 14.5067 17.7415 14.2923C17.3507 14.1125 17.3058 14.0728 17.3058 13.9072C17.3058 13.7158 17.4607 13.6172 17.7621 13.6172C17.9447 13.6172 18.1948 13.6376 18.4318 13.671L18.5645 12.8496C18.3231 12.8115 17.9572 12.7803 17.744 12.7803C16.7011 12.7803 16.3403 13.325 16.3434 13.9793" fill="white"/>
<path fill-rule="evenodd" clip-rule="evenodd" d="M35.4036 16.4014H34.5219L34.5656 16.0718C34.3098 16.345 34.0478 16.4629 33.7061 16.4629C33.0287 16.4629 32.5805 15.8791 32.5805 14.993C32.5805 13.8149 33.2754 12.8219 34.0973 12.8219C34.4588 12.8219 34.7325 12.9695 34.9874 13.305L35.1942 12.0464H36.1136L35.4036 16.4014V16.4014ZM34.0284 15.5831C34.4627 15.5831 34.7675 15.0912 34.7675 14.3896C34.7675 13.9395 34.5939 13.695 34.2736 13.695C33.8507 13.695 33.5506 14.1886 33.5506 14.8852C33.5506 15.3487 33.7114 15.5831 34.0284 15.5831V15.5831Z" fill="white"/>
<path fill-rule="evenodd" clip-rule="evenodd" d="M31.3095 12.8597C31.1929 13.956 30.9856 15.0662 30.8234 16.1633L30.781 16.4015H31.7133C32.0469 14.2355 32.1271 13.8128 32.6503 13.8656C32.7335 13.4223 32.8886 13.0341 33.0041 12.8384C32.6137 12.757 32.3956 12.9776 32.1098 13.3969C32.1326 13.2155 32.1738 13.0395 32.166 12.8597H31.3095" fill="white"/>
<path fill-rule="evenodd" clip-rule="evenodd" d="M23.636 12.8597C23.5189 13.956 23.3112 15.0662 23.1494 16.1633L23.107 16.4015H24.0397C24.3733 14.2355 24.4533 13.8128 24.9757 13.8656C25.0594 13.4223 25.2148 13.0341 25.33 12.8384C24.94 12.757 24.7215 12.9776 24.4363 13.3969C24.4588 13.2155 24.5002 13.0395 24.4921 12.8597H23.636" fill="white"/>
</g>
<defs>
<clipPath id="clip0_615_20951">
<rect width="44" height="26.4" fill="white" transform="translate(0.733154 0.728027)"/>
</clipPath>
</defs>
</svg>
