<svg width="96" height="94" viewBox="0 0 96 94" fill="none" xmlns="http://www.w3.org/2000/svg">
<path d="M19.9512 58.4623C23.6157 60.8615 27.5465 62.3354 31.8304 62.5672V61.8596C27.7176 61.3766 23.7709 60.1831 19.9512 58.4623Z" fill="#FDB927"/>
<path d="M34.4363 32.9362L31.9908 53.5375L38.8253 53.1696L39.7031 42.6236L43.0264 52.9245L46.4857 52.6463L49.2338 43.5435L50.3624 52.3726L55.8174 51.972L53.0586 34.7756L47.2274 34.469L44.6565 43.9726L41.8351 33.8558L34.4363 32.9362Z" fill="#808080"/>
<path d="M56.0683 34.9906L56.2066 51.9903L65.0787 51.301L65.0657 47.7745H61.2097L61.1783 45.9658L64.6583 45.9351V41.9803L61.2097 41.9498L61.147 40.2636L65.0345 40.3862L64.9716 35.941L56.0683 34.9906Z" fill="#808080"/>
<path d="M73.8569 41.8476L76.9607 40.0081C76.2368 38.8761 75.7713 37.6834 73.8254 36.7586C72.6691 36.1452 70.6233 35.9368 69.217 36.7892C67.1767 37.8528 65.8874 40.1681 65.8937 42.3075C65.7548 44.4548 65.8401 46.6276 66.9597 48.4389C68.8201 51.4611 71.4859 51.5523 74.0607 50.6462C75.2698 50.1443 77.0101 48.4913 77.0546 46.1397L77.2428 42.8287L71.9131 42.7059L71.8817 45.8636L73.5433 45.8944C73.4488 46.6452 73.1924 47.1636 71.7249 47.2432C71.1585 47.1862 69.7572 46.9838 69.8126 45.1893L69.938 42.1695C69.9696 41.5057 70.9083 40.4648 72.1011 40.4988C72.8043 40.5184 73.4424 40.8411 73.8569 41.8476V41.8476Z" fill="#808080"/>
<path d="M80.2756 37.1386L77.0427 50.4018L80.2079 50.1988L80.5553 48.5473H82.775L83.0201 49.9827L85.89 49.7703L83.6532 37.3272L80.2756 37.1386ZM81.8968 41.5266L82.5625 45.6315L81.0861 45.6031L81.8968 41.5266Z" fill="#808080"/>
<path d="M35.5002 32.2433L33.0549 52.8447L39.8892 52.4768L40.7672 41.9308L44.0902 52.2315L47.5496 51.9535L50.2976 42.8506L51.4262 51.6798L56.8812 51.279L54.1224 34.0826L48.2912 33.7762L45.7204 43.2798L42.8989 33.163L35.5002 32.2433Z" fill="white"/>
<path d="M57.1323 34.2977L57.2706 51.2974L66.1429 50.6081L66.1299 47.0816H62.2737L62.2425 45.2729L65.7223 45.2422V41.2874L62.2737 41.2567L62.211 39.5705L66.0985 39.6933L66.0358 35.2481L57.1323 34.2977Z" fill="white"/>
<path d="M74.9208 41.1548L78.0246 39.3153C77.3008 38.1833 76.8353 36.9904 74.8896 36.0658C73.733 35.4522 71.6873 35.244 70.2809 36.0964C68.2407 37.16 66.9513 39.4753 66.9579 41.6147C66.8189 43.762 66.904 45.9348 68.0239 47.746C69.8843 50.7683 72.5499 50.8594 75.1247 49.9534C76.334 49.4515 78.0741 47.7985 78.1187 45.4467L78.3067 42.1359L72.9771 42.0131L72.9459 45.1708L74.6075 45.2016C74.5127 45.9522 74.2564 46.4708 72.7891 46.5504C72.2227 46.4934 70.8212 46.291 70.8766 44.4963L71.0021 41.4767C71.0336 40.8129 71.9722 39.772 73.1653 39.8058C73.8683 39.8256 74.5066 40.1483 74.9208 41.1548V41.1548Z" fill="white"/>
<path d="M81.3395 36.4451L78.1066 49.7084L81.272 49.5055L81.6194 47.8539H83.8389L84.0841 49.2894L86.9541 49.0767L84.7171 36.6339L81.3395 36.4451ZM82.9607 40.8331L83.6267 44.9381L82.1502 44.9097L82.9607 40.8331Z" fill="white"/>
<path d="M36.0324 31.8962L33.5869 52.4978L40.4214 52.1299L41.2992 41.5839L44.6224 51.8845L48.0818 51.6065L50.8298 42.5037L51.9585 51.3328L57.4135 50.932L54.6546 33.7356L48.8234 33.4292L46.2526 42.9329L43.4311 32.816L36.0324 31.8962Z" fill="#EE1D25"/>
<path d="M57.6643 33.9493L57.8026 50.9492L66.6748 50.2599L66.6618 46.7334H62.8058L62.7743 44.9245L66.2543 44.894V40.9392L62.8058 40.9085L62.7431 39.2223L66.6306 39.3451L66.5677 34.8997L57.6643 33.9493Z" fill="#EE1D25"/>
<path d="M75.4529 40.8083L78.5567 38.9689C77.8328 37.8368 77.3674 36.6439 75.4214 35.7191C74.2651 35.1057 72.2194 34.8976 70.813 35.7499C68.7728 36.8136 67.4834 39.1288 67.4898 41.2682C67.3508 43.4156 67.4361 45.5881 68.5557 47.3996C70.4161 50.4218 73.0819 50.513 75.6567 49.6069C76.8658 49.1051 78.6062 47.452 78.6506 45.1002L78.8388 41.7892L73.5092 41.6666L73.4777 44.8243L75.1393 44.8551C75.0448 45.6057 74.7884 46.1243 73.3212 46.2039C72.7545 46.1469 71.3533 45.9446 71.4087 44.1498L71.534 41.1302C71.5657 40.4664 72.5043 39.4256 73.6974 39.4593C74.4003 39.4791 75.0384 39.8018 75.4529 40.8083V40.8083Z" fill="#EE1D25"/>
<path d="M81.8717 36.0977L78.6388 49.3611L81.804 49.1581L82.1514 47.5066H84.371L84.6162 48.942L87.4861 48.7294L85.2492 36.2865L81.8717 36.0977ZM83.4928 40.4857L84.1586 44.5908L82.6822 44.5624L83.4928 40.4857Z" fill="#EE1D25"/>
<path d="M37.4945 40.6244C37.4945 45.5515 33.4661 49.5456 28.4968 49.5456C23.5277 49.5456 19.4993 45.5515 19.4993 40.6244C19.4993 35.6974 23.5277 31.7032 28.4968 31.7032C33.4661 31.7032 37.4945 35.6974 37.4945 40.6244Z" fill="#FDB927"/>
<path d="M37.4945 40.6244C37.4945 45.5515 33.4661 49.5456 28.4968 49.5456C23.5277 49.5456 19.4993 45.5515 19.4993 40.6244C19.4993 35.6974 23.5277 31.7032 28.4968 31.7032C33.4661 31.7032 37.4945 35.6974 37.4945 40.6244Z" fill="url(#paint0_radial_615_20282)"/>
<path d="M38.0266 40.2779C38.0266 45.205 33.9982 49.1991 29.0289 49.1991C24.0596 49.1991 20.0312 45.205 20.0312 40.2779C20.0312 35.3509 24.0596 31.3568 29.0289 31.3568C33.9982 31.3568 38.0266 35.3509 38.0266 40.2779Z" fill="url(#paint1_radial_615_20282)"/>
<path d="M27.4877 40.8151L25.1911 39.6886L22.834 41.5724L23.7012 38.9458L20.337 37.1968L24.0312 37.3095L24.7955 34.9265L25.7612 37.2867L28.4018 37.2798L26.5236 38.6901L27.4877 40.8151Z" fill="#214489"/>
<path d="M31.6797 36.4902L29.6951 35.7643L28.2907 37.3161L28.3615 35.0292L26.2188 33.6391L28.471 33.4759L28.6856 31.8038L29.8549 33.4667L31.6799 33.4304L30.6043 34.7047L31.6797 36.4902Z" fill="#214489"/>
<path d="M35.55 37.234L34.2569 37.0308L33.8241 38.4518L33.1363 36.8153L31.6992 36.496L32.9952 35.7186L32.8219 34.0694L33.8718 35.2253L34.8965 34.531L34.5548 36.0174L35.55 37.234Z" fill="#214489"/>
<path d="M35.4899 42.6716L34.5974 41.0882L33.2401 41.2626L34.206 40.123L33.7445 38.5255L34.7893 39.2739L35.6851 38.2341L35.6583 39.8132L36.8687 40.5305L35.5466 40.7554L35.4899 42.6716Z" fill="#214489"/>
<path d="M28.9348 46.785L27.26 45.5422L24.4484 47.581L25.7217 44.8722L23.1529 43.0201L26.6151 43.0958L27.4691 40.8209L28.2807 43.0166L30.4619 43.0751L28.5819 44.3947L28.9348 46.785Z" fill="#214489"/>
<path d="M35.2803 43.727L33.4786 43.4251L33.2271 41.345L32.2688 43.2606L30.4474 43.0697L31.6569 44.5552L30.7827 46.5172L32.4885 45.52L33.6956 46.8062L33.6143 44.8214L35.2803 43.727Z" fill="#214489"/>
<path d="M25.8244 50.9355C31.4993 53.6739 37.0548 50.7532 38.6671 45.6907C35.9191 49.8985 29.2409 51.4081 25.8244 50.9355V50.9355Z" fill="#FDB927"/>
<path d="M19.3422 36.7527C19.9258 34.9668 21.6844 32.6745 23.6066 32.0875C22.9678 31.7018 19.6006 29.0842 14.2089 29.9557C9.34409 31.0464 9.86059 36.4622 10.5686 38.6523C10.6196 37.3423 10.4765 35.5583 11.3056 34.5183C11.7155 34.0663 14.2043 33.0349 19.083 36.5433C19.473 36.8211 18.2426 35.8967 19.3422 36.7527Z" fill="#FDB927"/>
<path d="M18.4767 37.956C16.9921 36.5962 15.3212 35.5508 13.2554 34.7596C10.7805 45.2058 20.2817 53.0942 26.3376 57.0664C21.2988 56.1672 8.28089 47.6688 8.42294 35.7744C8.39303 34.963 8.95702 29.0232 15.5835 28.8278C19.8474 28.9123 21.6465 29.851 23.3899 30.6427" stroke="#FDB927" stroke-width="2.95"/>
<path d="M18.2584 38.1904L18.9204 38.7843L19.1045 38.0569L18.6586 37.6901L18.3745 37.8969L18.2311 38.0435L18.2584 38.1904Z" fill="#FDB927"/>
<path d="M23.2262 30.918C23.7097 31.1775 24.1838 31.4389 24.6387 31.7045L25.6418 31.491C24.9173 31.1076 24.027 30.5597 23.4907 30.3406L23.2808 30.5836L23.2262 30.918Z" fill="#FDB927"/>
<path d="M24.4128 56.838C25.5865 57.3173 27.8604 57.8537 29.6936 57.7499C27.7804 57.363 27.3068 57.3781 25.8527 56.368L25.0135 56.4665L24.4128 56.838Z" fill="#FDB927"/>
<path d="M12.0358 35.0879C11.1005 38.1815 11.7931 41.7703 13.5097 45.8175C11.5257 42.5074 8.65938 39.2463 12.0358 35.0879V35.0879Z" fill="#EE1D25"/>
<path d="M18.9685 33.3797C16.935 36.9788 16.4748 40.6349 18.368 44.3764C17.3257 40.7108 17.6839 37.0453 18.9685 33.3797Z" fill="#EE1D25"/>
<path d="M86.5511 52.3464L86.0209 53.798L85.1729 53.4454C84.4785 53.2841 84.3987 54.0872 84.7698 54.1504L85.5968 54.3577C86.1049 54.5176 86.2982 54.8976 86.4027 55.1457C86.6417 55.9675 86.4383 56.3087 86.3389 56.7628C86.0102 57.6308 85.389 58.0045 84.6214 58.1314C83.6579 58.2714 83.1713 58.0845 82.586 57.9654L83.2432 56.2238C83.3633 56.6749 83.9053 56.6882 84.0491 56.7213C84.3699 56.8015 84.6256 56.6747 84.7487 56.5141C84.9266 56.2126 84.7248 56.0023 84.5368 55.9335L83.6038 55.7469C83.042 55.6005 82.8846 54.9326 82.7874 54.534C82.7252 54.004 82.7898 53.5329 83.0684 53.0783C83.2876 52.6728 83.5447 52.4017 83.9317 52.1142C84.2872 51.8831 84.9191 51.791 85.4059 51.8695C86.1922 52.0286 86.2347 52.1875 86.5511 52.3464Z" fill="#808080"/>
<path d="M32.2847 54.6535L30.8123 65.1719L35.5235 64.5667L35.6385 59.1328L38.0514 64.1721L40.5031 63.8683L42.2162 58.5338L43.0768 63.5322L46.6711 63.007L44.6663 54.2174L40.4985 54.2774L39.0292 59.6927L37.1517 54.4535L32.2847 54.6535Z" fill="#808080"/>
<path d="M47.6125 54.0669L51.3379 53.8044L51.4641 62.3467L47.9656 62.8376L47.6125 54.0669Z" fill="#808080"/>
<path d="M52.827 53.6994L56.2231 53.5198L56.258 59.1311L58.8801 58.8735L58.87 61.3945L52.8712 62.2262L52.827 53.6994Z" fill="#808080"/>
<path d="M65.6121 53.0839L68.1948 52.8863L68.2236 60.1583L65.6121 60.5565V53.0839Z" fill="#808080"/>
<path d="M75.652 57.5185C74.7256 59.3738 72.5869 60.2706 70.8749 59.5215C69.1629 58.7726 68.5259 56.6614 69.4523 54.8061C70.3786 52.9507 72.5176 52.0541 74.2296 52.803C75.9416 53.5521 76.5783 55.6633 75.652 57.5185V57.5185Z" fill="#808080"/>
<path d="M59.6614 53.4163L62.543 53.2488L62.5726 58.4868L64.7976 58.2464L64.789 60.5995L59.699 61.3761L59.6614 53.4163Z" fill="#808080"/>
<path d="M76.7419 52.3621L76.6898 59.0656L78.5442 58.8212L78.6067 55.3164L80.1278 58.5563L82.0864 58.4339L82.2322 52.0972L80.3778 52.1991L80.4508 55.7851L78.7318 52.2501L76.7419 52.3621Z" fill="#808080"/>
<path d="M87.2568 51.6943L86.7267 53.1456L85.8784 52.7932C85.1843 52.632 85.1044 53.435 85.4756 53.4982L86.3026 53.7055C86.8107 53.8655 87.004 54.2454 87.1084 54.4933C87.3472 55.3151 87.144 55.6566 87.0446 56.1107C86.7159 56.9785 86.0945 57.3522 85.3272 57.4792C84.3634 57.619 83.8771 57.4324 83.2917 57.3133L83.949 55.5716C84.069 56.0227 84.611 56.0359 84.7548 56.0692C85.0756 56.1494 85.3313 56.0225 85.4545 55.8619C85.6324 55.5602 85.4305 55.3502 85.2423 55.2814L84.3093 55.0947C83.7478 54.9483 83.5903 54.2805 83.4932 53.8818C83.4307 53.3516 83.4954 52.8807 83.7742 52.426C83.9934 52.0207 84.2502 51.7495 84.6374 51.4618C84.993 51.2309 85.6247 51.1389 86.1117 51.2174C86.8978 51.3763 86.9402 51.5354 87.2568 51.6943V51.6943Z" fill="white"/>
<path d="M32.952 54.0385L31.4795 64.557L36.1906 63.9517L36.3056 58.5179L38.7188 63.557L41.1702 63.2534L42.8835 57.9186L43.7439 62.9171L47.3383 62.392L45.3334 53.6022L41.1656 53.6622L39.6964 59.0778L37.8188 53.8385L32.952 54.0385Z" fill="white"/>
<path d="M48.2409 53.4527L51.9665 53.1899L52.0925 61.7325L48.5942 62.2233L48.2409 53.4527Z" fill="white"/>
<path d="M53.4558 52.9327L56.8516 52.7532L56.8868 58.3644L59.5086 58.107L59.4985 60.6279L53.5 61.4598L53.4558 52.9327Z" fill="white"/>
<path d="M66.3594 52.3535L68.9419 52.1559L68.9709 59.4277L66.3594 59.8259V52.3535Z" fill="white"/>
<path d="M76.3994 56.7881C75.473 58.6432 73.334 59.54 71.622 58.7912C69.9101 58.042 69.2733 55.9308 70.1996 54.0755C71.126 52.2203 73.2648 51.3235 74.9767 52.0726C76.6887 52.8215 77.3257 54.9327 76.3994 56.7881V56.7881Z" fill="white"/>
<path d="M60.4057 52.6879L63.2875 52.5204L63.3171 57.7586L65.5419 57.5182L65.5333 59.8713L60.4433 60.648L60.4057 52.6879Z" fill="white"/>
<path d="M77.4864 51.7087L77.4343 58.412L79.2885 58.1675L79.3512 54.663L80.8721 57.9026L82.8308 57.7805L82.9765 51.4438L81.1221 51.5458L81.1951 55.1318L79.4761 51.5967L77.4864 51.7087Z" fill="white"/>
<path d="M87.5783 51.4189L87.0482 52.8705L86.2001 52.5179C85.5057 52.3568 85.4259 53.1597 85.7973 53.2229L86.6243 53.4302C87.1324 53.5904 87.3255 53.9703 87.4299 54.2182C87.6689 55.04 87.4655 55.3812 87.3664 55.8355C87.0376 56.7033 86.4163 57.077 85.6489 57.2039C84.6852 57.3439 84.1988 57.157 83.6133 57.0381L84.2707 55.2963C84.3907 55.7474 84.9325 55.7607 85.0763 55.794C85.3973 55.874 85.6528 55.7472 85.776 55.5865C85.9539 55.2851 85.7522 55.0748 85.564 55.006L84.6311 54.8194C84.0693 54.6732 83.9118 54.0051 83.8147 53.6065C83.7524 53.0765 83.8171 52.6056 84.0959 52.1508C84.3149 51.7453 84.5719 51.4742 84.9589 51.1867C85.3145 50.9556 85.9464 50.8636 86.4334 50.942C87.2195 51.1011 87.2619 51.26 87.5783 51.4189V51.4189Z" fill="#33337A"/>
<path d="M33.3123 53.7267L31.8398 64.245L36.5509 63.6399L36.6659 58.2059L39.0791 63.2451L41.5305 62.9415L43.2438 57.6068L44.1042 62.6053L47.6986 62.08L45.6937 53.2904L41.5259 53.3504L40.0567 58.7657L38.1791 53.5267L33.3123 53.7267Z" fill="#33337A"/>
<path d="M48.6398 53.2148L52.3654 52.9523L52.4914 61.4948L48.9929 61.9854L48.6398 53.2148Z" fill="#33337A"/>
<path d="M53.8544 52.7713L57.2505 52.5917L57.2854 58.203L59.9075 57.9454L59.8974 60.4664L53.8986 61.2983L53.8544 52.7713Z" fill="#33337A"/>
<path d="M66.6397 52.1563L69.2222 51.9587L69.251 59.2307L66.6397 59.6289V52.1563Z" fill="#33337A"/>
<path d="M76.6794 56.5912C75.7531 58.4464 73.6143 59.3432 71.9023 58.5941C70.1903 57.8452 69.5534 55.734 70.4797 53.8786C71.4063 52.0235 73.5451 51.1266 75.257 51.8755C76.969 52.6246 77.6058 54.7359 76.6794 56.5912V56.5912Z" fill="#33337A"/>
<path d="M60.6886 52.451L63.5704 52.2835L63.6 57.5215L65.8248 57.2813L65.8549 59.6723L60.7262 60.4111L60.6886 52.451Z" fill="#33337A"/>
<path d="M77.7691 51.4346L77.7172 58.1381L79.5715 57.8936L79.6341 54.3891L81.155 57.6288L83.1137 57.5064L83.2595 51.1697L81.405 51.2717L81.478 54.8577L79.759 51.3226L77.7691 51.4346Z" fill="#33337A"/>
<path d="M73.8601 52.6356L73.3082 54.3378L70.9307 54.5455L72.8412 55.6664L72.3317 57.7424L73.945 56.3308L75.4312 56.995L74.8793 55.4589L76.1955 54.2133L74.582 54.2963L73.8601 52.6356Z" fill="white"/>
<path d="M94.9034 47C94.9034 72.3331 73.9239 92.9054 47.9999 92.9054C22.076 92.9054 1.09653 72.3331 1.09653 47C1.09653 21.6668 22.076 1.09454 47.9999 1.09454C73.9239 1.09454 94.9034 21.6668 94.9034 47Z" stroke="#E0E0E0" stroke-width="2"/>
<defs>
<radialGradient id="paint0_radial_615_20282" cx="0" cy="0" r="1" gradientUnits="userSpaceOnUse" gradientTransform="translate(24.8738 37.7647) rotate(71.1343) scale(9.36824 10.2381)">
<stop stop-color="#FFF6D5"/>
<stop offset="1" stop-color="#FFF6D5" stop-opacity="0"/>
</radialGradient>
<radialGradient id="paint1_radial_615_20282" cx="0" cy="0" r="1" gradientUnits="userSpaceOnUse" gradientTransform="translate(25.5491 37.7947) rotate(74.6764) scale(3.78793 4.6441)">
<stop stop-color="#FFF6D5"/>
<stop offset="1" stop-color="#FFF6D5" stop-opacity="0"/>
</radialGradient>
</defs>
</svg>
