<svg width="16" height="16" viewBox="0 0 16 16" fill="none" xmlns="http://www.w3.org/2000/svg">
<circle cx="8" cy="8" r="8" fill="#1DA1F3"/>
<path d="M11.398 6.50155C11.398 6.57739 11.398 6.65322 11.398 6.71822C11.398 8.96072 9.68634 11.5499 6.56634 11.5499C5.60217 11.5499 4.71384 11.2682 3.95551 10.7916C4.08551 10.8024 4.22634 10.8132 4.35634 10.8132C5.14717 10.8132 5.88384 10.5424 6.46884 10.0874C5.72134 10.0766 5.09301 9.57822 4.88717 8.90655C4.99551 8.92822 5.09301 8.93905 5.21217 8.93905C5.36384 8.93905 5.51551 8.91739 5.65634 8.87405C4.87634 8.72239 4.29134 8.03989 4.29134 7.21655C4.29134 7.20572 4.29134 7.20572 4.29134 7.19489C4.51884 7.32489 4.77884 7.40072 5.06051 7.41155C4.60551 7.10822 4.30217 6.58822 4.30217 5.99239C4.30217 5.67822 4.38884 5.38572 4.52967 5.13655C5.36384 6.16572 6.62051 6.83739 8.02884 6.91322C7.99634 6.79405 7.98551 6.65322 7.98551 6.52322C7.98551 5.58072 8.74384 4.82239 9.68634 4.82239C10.1738 4.82239 10.618 5.02822 10.9213 5.35322C11.3113 5.27739 11.6688 5.13655 12.0047 4.94155C11.8747 5.34239 11.6038 5.66739 11.2572 5.88405C11.6038 5.84072 11.9288 5.75405 12.2322 5.61322C12.0155 5.95989 11.7338 6.26322 11.398 6.50155Z" fill="#FAFBFC"/>
</svg>
