<svg width="45" height="28" viewBox="0 0 45 28" fill="none" xmlns="http://www.w3.org/2000/svg">
<g clip-path="url(#clip0_615_20942)">
<rect x="0.733154" y="0.728027" width="44" height="26.4" rx="4" fill="#26337A"/>
<path fill-rule="evenodd" clip-rule="evenodd" d="M18.9887 18.1286L20.3416 9.73596H22.5041L21.1514 18.1286H18.9887" fill="#FFFFFE"/>
<path fill-rule="evenodd" clip-rule="evenodd" d="M28.9957 9.94197C28.5681 9.77353 27.8956 9.58984 27.0579 9.58984C24.9198 9.58984 23.4148 10.7288 23.4023 12.3596C23.3887 13.566 24.4763 14.2387 25.2962 14.6397C26.1389 15.0507 26.422 15.3137 26.4186 15.6812C26.4128 16.2433 25.746 16.5008 25.1243 16.5008C24.2585 16.5008 23.7985 16.374 23.0873 16.0607L22.8091 15.9271L22.5067 17.8057C23.011 18.0395 23.9458 18.2424 24.916 18.253C27.1882 18.253 28.6647 17.1278 28.682 15.3863C28.6898 14.4297 28.1135 13.7046 26.8655 13.106C26.1098 12.7168 25.646 12.459 25.6513 12.0651C25.6518 11.7163 26.0431 11.3429 26.8901 11.3429C27.5975 11.3315 28.1096 11.4949 28.5086 11.6654L28.7028 11.7613L28.9957 9.94197" fill="#FFFFFE"/>
<path fill-rule="evenodd" clip-rule="evenodd" d="M31.8752 15.1532C32.0544 14.6708 32.7366 12.8073 32.7366 12.8073C32.724 12.8295 32.9149 12.3212 33.0241 12.0066L33.17 12.7304C33.17 12.7304 33.585 14.7336 33.6705 15.1532C33.3338 15.1532 32.2974 15.1532 31.8752 15.1532V15.1532ZM34.5431 9.74463H32.8718C32.3535 9.74463 31.9655 9.89311 31.7384 10.4403L28.5269 18.1316H30.7982C30.7982 18.1316 31.1688 17.097 31.2529 16.8699C31.5007 16.8699 33.7077 16.8742 34.0227 16.8742C34.0876 17.1671 34.2861 18.1316 34.2861 18.1316H36.2933L34.5431 9.74463V9.74463Z" fill="#FFFFFE"/>
<path fill-rule="evenodd" clip-rule="evenodd" d="M17.1745 9.74304L15.0579 15.4648L14.8312 14.3017C14.4367 12.9616 13.2089 11.5091 11.8355 10.7813L13.7719 18.1213L16.0606 18.1199L19.4662 9.74304H17.1745" fill="#FFFFFE"/>
<path fill-rule="evenodd" clip-rule="evenodd" d="M13.093 9.73743H9.60563L9.57693 9.91132C12.2905 10.6065 14.0859 12.2846 14.8311 14.3018L14.0733 10.4455C13.9426 9.91367 13.5626 9.75602 13.093 9.73743" fill="#EC982D"/>
</g>
<defs>
<clipPath id="clip0_615_20942">
<rect width="44" height="26.4" fill="white" transform="translate(0.733154 0.728027)"/>
</clipPath>
</defs>
</svg>
