<svg width="16" height="16" viewBox="0 0 16 16" fill="none" xmlns="http://www.w3.org/2000/svg">
<circle cx="8" cy="8" r="8" fill="#25D366"/>
<path d="M10.1667 8.9534C10.0367 8.91006 9.47333 8.60673 9.34333 8.5634C9.21333 8.52006 9.17 8.52006 9.08333 8.60673C8.96409 8.77413 8.8338 8.93337 8.69333 9.0834C8.60667 9.17006 8.56333 9.17006 8.43333 9.12673C8.07107 9.00479 7.74389 8.79658 7.48 8.52006C7.21134 8.29099 6.99047 8.01122 6.83 7.69673C6.74334 7.56673 6.83 7.5234 6.87333 7.43673C6.94142 7.37339 6.99982 7.30039 7.04667 7.22006C7.09 7.1334 7.13334 7.09006 7.17667 7.0034C7.22 6.91673 7.17667 6.8734 7.17667 6.78673C7.17667 6.70006 6.91667 6.13673 6.78667 5.92006C6.65667 5.7034 6.61334 5.7034 6.52667 5.7034H6.31C6.19646 5.70846 6.08864 5.75467 6.00667 5.8334C5.86421 5.9563 5.75127 6.10973 5.67625 6.28227C5.60123 6.45482 5.56606 6.64205 5.57334 6.83006C5.61305 7.27306 5.77842 7.6955 6.05 8.04773C6.54225 8.8276 7.25165 9.44663 8.091 9.82873C8.39433 9.95873 8.611 10.0021 8.78433 10.0887C9.02231 10.1651 9.27572 10.18 9.521 10.1321C9.8517 10.0438 10.1422 9.84498 10.3443 9.56873C10.3991 9.38585 10.4283 9.19628 10.431 9.0054C10.3425 9.00615 10.2545 8.99149 10.171 8.96206L10.1667 8.9534ZM8 11.9001C7.28013 11.9087 6.57252 11.7134 5.959 11.3367L5.829 11.2501L4.308 11.6401L4.70234 10.1667L4.61567 10.0367C4.21955 9.39771 4.00946 8.6609 4.009 7.90906C4.00815 7.11849 4.24185 6.34544 4.68053 5.68775C5.11921 5.03005 5.74316 4.51729 6.47338 4.21435C7.20361 3.91142 8.0073 3.83193 8.78272 3.98596C9.55814 4.13998 10.2704 4.52059 10.8295 5.0796C11.3885 5.63862 11.7691 6.35092 11.9231 7.12634C12.0771 7.90177 11.9976 8.70545 11.6947 9.43568C11.3918 10.1659 10.879 10.7899 10.2213 11.2285C9.56363 11.6672 8.79057 11.9009 8 11.9001ZM11.3843 4.56806C10.4744 3.691 9.26371 3.19493 8 3.1814C6.7358 3.1814 5.52338 3.6836 4.62946 4.57752C3.73554 5.47144 3.23334 6.68386 3.23334 7.94806C3.23312 8.78769 3.45755 9.61208 3.88334 10.3357L3.18134 12.8187L5.74234 12.1687C6.44754 12.5528 7.24047 12.7469 8.04333 12.7321C8.6693 12.7321 9.28914 12.6088 9.86746 12.3692C10.4458 12.1297 10.9713 11.7786 11.4139 11.3359C11.8565 10.8933 12.2076 10.3678 12.4472 9.78952C12.6867 9.2112 12.81 8.59136 12.81 7.9654C12.7793 6.69601 12.2665 5.48593 11.3757 4.58106" fill="#FAFBFC"/>
</svg>
