<svg xmlns="http://www.w3.org/2000/svg" width="88" height="57" viewBox="0 0 88 57">
    <defs>
        <linearGradient id="prefix__a" x1="12.913%" x2="87.114%" y1="73.775%" y2="26.331%">
            <stop offset="0%" stop-color="#1FADC3"/>
            <stop offset="70.72%" stop-color="#36B98F"/>
        </linearGradient>
        <linearGradient id="prefix__b" x1="47.916%" x2="59.761%" y1="38.082%" y2="13.982%">
            <stop offset="0%" stop-color="#123F06" stop-opacity="0"/>
            <stop offset="100%" stop-color="#123F06"/>
        </linearGradient>
        <linearGradient id="prefix__d" x1="16.025%" x2="73.906%" y1="24.157%" y2="72.02%">
            <stop offset="0%" stop-color="#9FDB57"/>
            <stop offset="100%" stop-color="#71CA5E"/>
        </linearGradient>
        <linearGradient id="prefix__e" x1="12.846%" x2="87.047%" y1="73.818%" y2="26.374%">
            <stop offset="0%" stop-color="#1FADC3"/>
            <stop offset="70.72%" stop-color="#36B98F"/>
        </linearGradient>
        <linearGradient id="prefix__g" x1="16.055%" x2="73.937%" y1="24.182%" y2="72.045%">
            <stop offset="0%" stop-color="#9FDB57"/>
            <stop offset="100%" stop-color="#71CA5E"/>
        </linearGradient>
        <radialGradient id="prefix__c" cx="-348.129%" cy="133.909%" r="497.59%" fx="-348.129%" fy="133.909%" gradientTransform="matrix(1 0 0 .86769 0 .177)">
            <stop offset="41.85%" stop-color="#123F06" stop-opacity="0"/>
            <stop offset="100%" stop-color="#123F06"/>
        </radialGradient>
        <radialGradient id="prefix__f" cx="-347.288%" cy="133.909%" r="497.59%" fx="-347.288%" fy="133.909%" gradientTransform="matrix(1 0 0 .86769 0 .177)">
            <stop offset="41.85%" stop-color="#123F06" stop-opacity="0"/>
            <stop offset="100%" stop-color="#123F06"/>
        </radialGradient>
    </defs>
    <g fill="none" fill-rule="evenodd" transform="translate(.297 .367)">
        <rect width="86" height="55" x=".5" y=".5" fill-rule="nonzero" stroke="#979797" rx="4"/>
        <g>
            <path fill="url(#prefix__a)" d="M1.48 32.639l-.46-.399C-.1 31.28-.296 29.52.724 28.393l11.972-13.799c.954-1.127 2.697-1.326 3.816-.298l.46.398c1.119.962 1.316 2.72.296 3.848L5.296 32.34c-.954 1.128-2.632 1.26-3.816.299z" transform="translate(25.915 11.2)"/>
            <path fill="url(#prefix__b)" d="M11.085 16.983l-.23-.266-1.843 2.123.198.232c3.157 3.185 1.809 6.402 1.085 7.53l.263-.299c.428-.497 1.086-1.26 1.776-2.09.724-1.26 1.744-4.245-1.25-7.23z" opacity=".4" transform="translate(25.915 11.2)"/>
            <path fill="url(#prefix__c)" d="M15.032 21.129l.493-.564c.033-.066.099-.133.132-.2-.527.598-1.086 1.228-1.612 1.858.395-.43.723-.796.987-1.094z" opacity=".4" transform="translate(25.915 11.2)"/>
            <path fill="url(#prefix__d)" d="M17.334 15.026L5.361 1.227C4.408.1 2.664-.1 1.546.93l-.46.398C-.034 2.289-.23 4.047.788 5.174l10.098 11.543.23.266c2.994 3.018 1.974 6.003 1.217 7.264.593-.697 1.185-1.393 1.744-2.024.526-.63 1.085-1.26 1.611-1.857.527-.597 1.02-1.161 1.349-1.526 1.151-1.128 1.316-2.687.296-3.814z" transform="translate(25.915 11.2)"/>
            <g>
                <path fill="url(#prefix__e)" d="M1.546 32.639l-.46-.399C-.034 31.28-.23 29.52.788 28.393l11.973-13.799c.954-1.127 2.697-1.326 3.816-.298l.46.398c1.118.962 1.316 2.72.296 3.848L5.361 32.34c-.953 1.128-2.631 1.26-3.815.299z" transform="translate(25.915 11.2) translate(15.13)"/>
                <path fill="url(#prefix__b)" d="M11.282 16.85l-.23-.265-1.842 2.122.197.233c3.158 3.184 1.81 6.401 1.086 7.529l.263-.298c.427-.498 1.085-1.26 1.776-2.09.723-1.26 1.743-4.246-1.25-7.231z" opacity=".4" transform="translate(25.915 11.2) translate(15.13)"/>
                <path fill="url(#prefix__f)" d="M15.065 21.129l.493-.564c.033-.066.099-.133.131-.2-.526.598-1.085 1.228-1.611 1.858.394-.43.756-.796.987-1.094z" opacity=".4" transform="translate(25.915 11.2) translate(15.13)"/>
                <path fill="url(#prefix__g)" d="M17.367 15.026L5.394 1.227C4.44.1 2.697-.1 1.58.93l-.46.398C0 2.289-.198 4.047.821 5.174L10.92 16.717l.23.266c2.994 3.018 1.974 6.003 1.217 7.264.592-.697 1.184-1.393 1.744-2.024.526-.63 1.085-1.26 1.611-1.857.527-.597 1.02-1.161 1.349-1.526 1.151-1.128 1.316-2.687.296-3.814z" transform="translate(25.915 11.2) translate(15.13)"/>
            </g>
        </g>
    </g>
</svg>
