<svg enable-background="new 0 0 28 28" viewBox="0 0 28 28" xmlns="http://www.w3.org/2000/svg"><path d="m23.07 22.28c-.65 0-1.19-.53-1.19-1.19s.53-1.19 1.19-1.19c.65 0 1.19.53 1.19 1.19s-.53 1.19-1.19 1.19zm0-1.71c-.29 0-.53.24-.53.53s.24.53.53.53.53-.24.53-.53-.24-.53-.53-.53z" fill="#03dac6"/><path d="m5.47 5.46c-.65 0-1.19-.53-1.19-1.19s.53-1.19 1.19-1.19 1.19.53 1.19 1.19-.53 1.19-1.19 1.19zm0-1.71c-.29 0-.53.24-.53.53s.24.53.53.53.53-.24.53-.53-.23-.53-.53-.53z" fill="#03dac6"/><path d="m19.21 19.95h-15.38c-1.27 0-2.3-1.03-2.3-2.3v-9.12c0-1.27 1.03-2.3 2.3-2.3h15.38c1.27 0 2.3 1.03 2.3 2.3v9.12c0 1.27-1.03 2.3-2.3 2.3zm-15.38-13.06c-.91 0-1.64.74-1.64 1.64v9.12c0 .91.74 1.64 1.64 1.64h15.38c.91 0 1.64-.74 1.64-1.64v-9.12c0-.91-.74-1.64-1.64-1.64z" fill="#fff"/><path d="m16.81 17.72h-10.57c-1.07 0-1.95-.87-1.95-1.95v-5.36c0-1.07.87-1.95 1.95-1.95h10.57c.76 0 1.45.44 1.77 1.13.12.25.18.54.18.82v5.36c0 1.08-.88 1.95-1.95 1.95zm-10.57-8.6c-.71 0-1.29.58-1.29 1.29v5.36c0 .71.58 1.29 1.29 1.29h10.57c.71 0 1.29-.58 1.29-1.29v-5.36c0-.19-.04-.37-.12-.54-.21-.46-.67-.75-1.17-.75z" fill="#03dac6"/><g fill="#fff"><path d="m16.81 17.72h-10.57c-1.07 0-1.95-.87-1.95-1.95v-.57l4.15-2.98 1.79 1.97 8.2-4.93.15.33c.12.25.18.54.18.82v5.36c0 1.08-.88 1.95-1.95 1.95zm-11.86-2.18v.23c0 .71.58 1.29 1.29 1.29h10.57c.71 0 1.29-.58 1.29-1.29v-5.36c0-.06 0-.12-.01-.18l-7.99 4.8-1.76-1.93z"/><path d="m10.67 12.56c-.65 0-1.19-.53-1.19-1.19 0-.65.53-1.19 1.19-1.19.65 0 1.19.53 1.19 1.19-.01.66-.54 1.19-1.19 1.19zm0-1.71c-.29 0-.53.24-.53.53s.24.53.53.53.53-.24.53-.53-.24-.53-.53-.53z"/><path d="m24.04 7.58h.66v10.57h-.66z"/><path d="m25.94 9.63-1.56-2.07-1.46 2.06-.53-.38 1.97-2.79 2.11 2.78z"/><path d="m6.33 22.48h10.57v.66h-10.57z"/><path d="m15.24 24.91-.4-.53 2.07-1.56-2.06-1.46.38-.54 2.79 1.98z"/></g></svg>