<svg xmlns="http://www.w3.org/2000/svg" width="24" height="24" viewBox="0 0 24 24">
    <g fill="none" fill-rule="evenodd" stroke="#FFF" stroke-linecap="round" stroke-linejoin="round" stroke-width="1.212"   transform="translate(5.333 5.333)">
        <circle cx="6.667" cy="6.667" r="1.818"/>
        <path d="M11.152 8.485a1 1 0 0 0 .2 1.103l.036.036a1.212 1.212 0 1 1-1.715 1.715l-.037-.036a1 1 0 0 0-1.103-.2 1 1 0 0 0-.606.915v.103a1.212 1.212 0 1 1-2.424 0v-.054a1 1 0 0 0-.655-.915 1 1 0 0 0-1.103.2l-.036.036a1.212 1.212 0 1 1-1.715-1.715l.036-.037a1 1 0 0 0 .2-1.103 1 1 0 0 0-.915-.606h-.103a1.212 1.212 0 0 1 0-2.424h.055a1 1 0 0 0 .915-.655 1 1 0 0 0-.2-1.103l-.037-.036a1.212 1.212 0 1 1 1.716-1.715l.036.036a1 1 0 0 0 1.103.2h.048a1 1 0 0 0 .607-.915v-.103a1.212 1.212 0 0 1 2.424 0v.055a1 1 0 0 0 .606.915 1 1 0 0 0 1.103-.2l.036-.037a1.212 1.212 0 1 1 1.715 1.716l-.036.036a1 1 0 0 0-.2 1.103v.048a1 1 0 0 0 .915.607h.103a1.212 1.212 0 1 1 0 2.424h-.054a1 1 0 0 0-.915.606z"/>
    </g>
</svg>
