<svg id="Layer_1" data-name="Layer 1" xmlns="http://www.w3.org/2000/svg" viewBox="0 0 25.84 21.12"><defs><style>.cls-1{fill:#03dac6;}.cls-2{fill:#fff;}</style></defs><path class="cls-1" d="M21.69,6A1.3,1.3,0,1,1,23,4.74,1.31,1.31,0,0,1,21.69,6Zm0-1.88a.58.58,0,1,0,.58.58A.58.58,0,0,0,21.69,4.16Z" transform="translate(-1.08 -3.44)"/><path class="cls-1" d="M6.35,24.56a1.3,1.3,0,1,1,1.3-1.3A1.3,1.3,0,0,1,6.35,24.56Zm0-1.88a.58.58,0,1,0,.58.58A.58.58,0,0,0,6.35,22.68Z" transform="translate(-1.08 -3.44)"/><path class="cls-2" d="M20.39,20.83H7.68a3.17,3.17,0,0,1-3.16-3.16V10.33A3.17,3.17,0,0,1,7.68,7.17H20.39a3.17,3.17,0,0,1,3.17,3.16v7.34A3.17,3.17,0,0,1,20.39,20.83ZM7.68,7.84a2.5,2.5,0,0,0-2.49,2.49v7.34a2.5,2.5,0,0,0,2.49,2.49H20.39a2.49,2.49,0,0,0,2.49-2.49V10.33a2.49,2.49,0,0,0-2.49-2.49Z" transform="translate(-1.08 -3.44)"/><line class="cls-2" x1="5.99" y1="7.51" x2="11.18" y2="7.51"/><rect class="cls-1" x="5.99" y="6.89" width="5.19" height="1.24"/><line class="cls-2" x1="5.99" y1="10.65" x2="15.54" y2="10.62"/><polygon class="cls-2" points="15.54 11.24 5.99 11.27 5.99 10.03 15.54 10 15.54 11.24"/><circle class="cls-1" cx="11" cy="14.88" r="0.47"/><circle class="cls-1" cx="12.96" cy="14.88" r="0.47"/><circle class="cls-1" cx="14.92" cy="14.88" r="0.47"/><path class="cls-1" d="M26.86,13.94,25,12.05a.2.2,0,0,0-.15-.06.25.25,0,0,0-.14.06.21.21,0,0,0,0,.29l1.75,1.75-1.75,1.74a.23.23,0,0,0,0,.29.2.2,0,0,0,.15.06.2.2,0,0,0,.14-.06l1.89-1.89a.2.2,0,0,0,.06-.14h0A.2.2,0,0,0,26.86,13.94Z" transform="translate(-1.08 -3.44)"/><path class="cls-1" d="M3.32,12.05A.25.25,0,0,0,3.18,12a.2.2,0,0,0-.15.06L1.14,13.94a.2.2,0,0,0-.06.15h0a.2.2,0,0,0,.06.14L3,16.12a.2.2,0,0,0,.14.06.2.2,0,0,0,.15-.06.23.23,0,0,0,0-.29L1.57,14.09l1.75-1.75A.21.21,0,0,0,3.32,12.05Z" transform="translate(-1.08 -3.44)"/></svg>