<?xml version="1.0" encoding="utf-8"?>
<!-- Generator: Adobe Illustrator 26.3.1, SVG Export Plug-In . SVG Version: 6.00 Build 0)  -->
<svg version="1.1" id="Layer_1" xmlns="http://www.w3.org/2000/svg" xmlns:xlink="http://www.w3.org/1999/xlink" x="0px" y="0px"
	 viewBox="0 0 28 28" style="enable-background:new 0 0 28 28;" xml:space="preserve">
<style type="text/css">
	.st0{fill:#FFFFFF;fill-opacity:0.25;}
	.st1{fill:#6B09EB;}
	.st2{fill:#6200EE;}
	.st3{fill:url(#SVGID_1_);}
	.st4{fill:url(#SVGID_00000168809045682095883330000009077403791760334983_);}
</style>
<ellipse class="st0" cx="14" cy="13.8" rx="13.6" ry="13.6"/>
<path class="st1" d="M21.2,3.3c-0.7,0-1.2-0.6-1.2-1.2s0.6-1.2,1.2-1.2c0.7,0,1.2,0.6,1.2,1.2S21.8,3.3,21.2,3.3z M21.2,1.6
	c-0.3,0-0.6,0.2-0.6,0.6s0.2,0.6,0.6,0.6c0.3,0,0.6-0.2,0.6-0.6S21.5,1.6,21.2,1.6z"/>
<path class="st1" d="M9.8,27.8c-0.6,0-1-0.5-1-1c0-0.6,0.5-1,1-1s1,0.5,1,1C10.9,27.4,10.4,27.8,9.8,27.8z M9.8,26.3
	c-0.3,0-0.5,0.2-0.5,0.5s0.2,0.5,0.5,0.5s0.5-0.2,0.5-0.5S10.1,26.3,9.8,26.3z"/>
<path class="st2" d="M16.9,20.5h-8c-0.8,0-1.5-0.7-1.5-1.5v-6.4c0-0.8,0.7-1.5,1.5-1.5h8c0.8,0,1.5,0.7,1.5,1.5V19
	C18.4,19.8,17.8,20.5,16.9,20.5z M8.9,11.9c-0.4,0-0.7,0.3-0.7,0.7V19c0,0.4,0.3,0.7,0.7,0.7h8c0.4,0,0.7-0.3,0.7-0.7v-6.4
	c0-0.4-0.3-0.7-0.7-0.7C16.9,11.9,8.9,11.9,8.9,11.9z"/>
<path class="st2" d="M18,13.8H7.8c-0.2,0-0.4-0.2-0.4-0.4S7.6,13,7.8,13H18c0.2,0,0.4,0.2,0.4,0.4S18.2,13.8,18,13.8z"/>
<linearGradient id="SVGID_1_" gradientUnits="userSpaceOnUse" x1="20.1524" y1="1059.9639" x2="9.914" y2="1064.2896" gradientTransform="matrix(1 0 0 1 0 -1050)">
	<stop  offset="0" style="stop-color:#FF6CDF"/>
	<stop  offset="0.9897" style="stop-color:#EB0CE2"/>
</linearGradient>
<path class="st3" d="M20.2,16.6c-0.2,0-0.4-0.2-0.4-0.4V8.7c0-0.4-0.3-0.7-0.7-0.7h-8c-0.4,0-0.7,0.3-0.7,0.7v0.8
	c0,0.2-0.2,0.4-0.4,0.4S9.6,9.7,9.6,9.5V8.7c0-0.8,0.7-1.5,1.5-1.5h8c0.8,0,1.5,0.7,1.5,1.5v7.5C20.7,16.4,20.5,16.6,20.2,16.6z"/>
<linearGradient id="SVGID_00000076600178209741097600000017840717471823571083_" gradientUnits="userSpaceOnUse" x1="15.3898" y1="1058.3654" x2="14.8855" y2="1060.7799" gradientTransform="matrix(1 0 0 1 0 -1050)">
	<stop  offset="0" style="stop-color:#FF6CDF"/>
	<stop  offset="0.9897" style="stop-color:#EB0CE2"/>
</linearGradient>
<path style="fill:url(#SVGID_00000076600178209741097600000017840717471823571083_);" d="M20.2,9.9H10c-0.2,0-0.4-0.2-0.4-0.4
	S9.8,9.1,10,9.1h10.3c0.2,0,0.4,0.2,0.4,0.4C20.7,9.8,20.5,9.9,20.2,9.9z"/>
</svg>
