<?xml version="1.0" encoding="utf-8"?>
<!-- Generator: Adobe Illustrator 25.2.3, SVG Export Plug-In . SVG Version: 6.00 Build 0)  -->
<svg version="1.1" id="Warstwa" xmlns="http://www.w3.org/2000/svg" xmlns:xlink="http://www.w3.org/1999/xlink" x="0px" y="0px"
	 viewBox="0 0 20.1200008 15.96" style="enable-background:new 0 0 20.1200008 15.96;" xml:space="preserve">
<style type="text/css">
	.st0{fill:#fff;}
</style>
<path class="st0" d="M10.0698242,0.1132812c-4.3481445,0-7.8857422,3.5375977-7.8857422,7.8862305
	c0,4.3481445,3.5375977,7.8862305,7.8857422,7.8862305c4.3491211,0,7.887207-3.5380859,7.887207-7.8862305
	C17.9570312,3.6508789,14.4189453,0.1132812,10.0698242,0.1132812z M12.8479004,9.4603271
	c0.2319336-0.4388428,0.3757324-0.9309692,0.3757324-1.4608154c0-0.5301514-0.1439209-1.022522-0.3759766-1.4614868
	l2.1496582-2.0968018c0.725769,1.0020752,1.1589355,2.229187,1.1589355,3.5582886
	c0,1.3289795-0.4331055,2.5559082-1.1588135,3.5578003L12.8479004,9.4603271z M8.4165039,7.9995117
	c0-0.9121094,0.7416992-1.6538086,1.6533203-1.6538086c0.9121094,0,1.6538086,0.7416992,1.6538086,1.6538086
	s-0.7416992,1.6538086-1.6538086,1.6538086C9.1582031,9.6533203,8.4165039,8.9116211,8.4165039,7.9995117z M13.7382202,3.1543579
	l-2.1507568,2.0978394c-0.4523315-0.2510376-0.9647217-0.4064941-1.5176392-0.4064941
	c-0.5582275,0-1.0753174,0.1581421-1.5306396,0.4136353L6.3901367,3.1629639
	c1.0233154-0.7805786,2.2962036-1.2498779,3.6796875-1.2498779C11.4481812,1.9130859,12.7167358,2.3790283,13.7382202,3.1543579z
	 M5.1344604,4.4521484l2.151062,2.0983887C7.0576782,6.9864502,6.9165039,7.4744263,6.9165039,7.9995117
	c0,0.5247803,0.1411133,1.0125122,0.3688354,1.4483032l-2.151001,2.0985718
	c-0.7207642-0.9998779-1.1504517-2.2227783-1.1504517-3.546875C3.9838867,6.675354,4.4136353,5.4522705,5.1344604,4.4521484z
	 M6.3907471,12.8358765l2.1485596-2.0962524c0.4552612,0.2555542,0.9723511,0.4136963,1.5305176,0.4136963
	c0.5528564,0,1.0651855-0.1555176,1.5175171-0.4065552l2.1502686,2.0976562
	c-1.0214233,0.7749023-2.2897339,1.2405396-3.6677856,1.2405396C8.6866455,14.0849609,7.4139404,13.6159668,6.3907471,12.8358765z"
	/>
</svg>
