<svg enable-background="new 0 0 28 28" viewBox="0 0 28 28" xmlns="http://www.w3.org/2000/svg"><path d="m22.84 21.91h-17.68c-1.46 0-2.65-1.19-2.65-2.65v-10.49c0-1.46 1.19-2.65 2.65-2.65h17.69c1.46 0 2.65 1.19 2.65 2.65v10.49c0 1.46-1.19 2.65-2.66 2.65zm-17.68-15.03c-1.04 0-1.89.85-1.89 1.89v10.49c0 1.04.85 1.89 1.89 1.89h17.69c1.04 0 1.89-.85 1.89-1.89v-10.49c0-1.04-.85-1.89-1.89-1.89z" fill="#fff"/><path d="m18.76 5.26c-.76 0-1.38-.62-1.38-1.38s.62-1.38 1.38-1.38 1.38.62 1.38 1.38-.62 1.38-1.38 1.38zm0-2c-.34 0-.62.28-.62.62s.28.62.62.62.62-.28.62-.62-.28-.62-.62-.62z" fill="#03dac6"/><path d="m4.7 25.5c-.76 0-1.38-.62-1.38-1.38s.62-1.38 1.38-1.38 1.38.62 1.38 1.38-.62 1.38-1.38 1.38zm0-2c-.34 0-.62.28-.62.62s.28.62.62.62.62-.28.62-.62c-.01-.34-.28-.62-.62-.62z" fill="#03dac6"/><path d="m12.62 13.63c-.04.12-.05.25-.05.38s.02.26.05.38h-9.73v-.77h9.73z" fill="#fff"/><path d="m25.11 13.63v.77h-9.73c.04-.12.05-.25.05-.38s-.02-.26-.05-.38h9.73z" fill="#fff"/><g fill="#03dac6"><path d="m14 15.84c-1 0-1.82-.82-1.82-1.82s.82-1.82 1.82-1.82 1.82.82 1.82 1.82-.82 1.82-1.82 1.82zm0-2.88c-.58 0-1.05.47-1.05 1.05s.47 1.05 1.05 1.05 1.05-.47 1.05-1.05-.47-1.05-1.05-1.05z"/><path d="m11.94 12.07c-.12 0-.24-.05-.33-.13-.19-.18-.19-.48-.01-.67l.03-.03 2.04-2.04c.18-.18.5-.18.68 0l2.05 2.05c.19.19.18.49-.01.68-.19.18-.48.18-.66 0l-1.73-1.72-1.72 1.72c-.08.08-.2.13-.34.14.01 0 .01 0 0 0zm-.2-.69c0 .01 0 .01 0 0z"/><path d="m14 18.86c-.12 0-.25-.05-.33-.14l-2.06-2.06c-.09-.1-.14-.22-.14-.34 0-.13.05-.25.15-.33.18-.18.48-.18.66 0l1.72 1.72 1.72-1.72c.08-.09.2-.14.33-.14.13-.01.25.05.34.13.09.09.14.21.15.33 0 .13-.05.25-.13.34l-2.06 2.06c-.1.1-.22.15-.35.15z"/></g></svg>