<svg enable-background="new 0 0 28 28" viewBox="0 0 28 28" xmlns="http://www.w3.org/2000/svg"><path d="m21.18 20.99c-.76 0-1.38-.62-1.38-1.38s.62-1.38 1.38-1.38 1.38.62 1.38 1.38-.62 1.38-1.38 1.38zm0-2c-.34 0-.62.28-.62.62s.28.62.62.62.62-.28.62-.62c0-.35-.28-.62-.62-.62z" fill="#03dac6"/><path d="m6.82 6.79c-.76 0-1.38-.62-1.38-1.38s.62-1.38 1.38-1.38 1.38.62 1.38 1.38-.62 1.38-1.38 1.38zm0-2c-.34 0-.62.28-.62.62s.28.62.62.62.62-.28.62-.62c-.01-.34-.28-.62-.62-.62z" fill="#03dac6"/><path d="m17.27 23.97h-9.18c-.91 0-1.65-.74-1.65-1.65s.74-1.65 1.65-1.65h9.18c.91 0 1.65.74 1.65 1.65s-.74 1.65-1.65 1.65zm-9.18-2.54c-.49 0-.89.4-.89.89s.4.89.89.89h9.18c.49 0 .89-.4.89-.89s-.4-.89-.89-.89z" fill="#fff"/><path d="m12.68 9.97c-.86 0-1.56.7-1.56 1.56s.7 1.56 1.56 1.56 1.56-.7 1.56-1.56c-.01-.87-.7-1.56-1.56-1.56zm0 2.34c-.43 0-.79-.36-.79-.79 0-.44.36-.79.79-.79s.79.35.79.79c0 .43-.36.79-.79.79z" fill="#fff"/><path d="m18.53 11.08-.37-.2v5.48c0 1.14-.93 2.07-2.07 2.07h-6.82c-1.14 0-2.06-.93-2.06-2.07v-6.82c0-1.14.92-2.06 2.06-2.06h6.82c.26 0 .51.05.74.14l.34-.69c-.33-.14-.7-.21-1.08-.21h-6.82c-1.56 0-2.83 1.27-2.83 2.83v6.82c0 1.56 1.27 2.84 2.83 2.84h6.82c1.56 0 2.83-1.27 2.83-2.84v-5.52z" fill="#03dac6"/><g fill="#fff"><path d="m18.53 11.08-.37.23-6.15 3.76-1.27-1.84-3.54 2-.77.43v.69c0 1.56 1.27 2.84 2.83 2.84h6.82c1.56 0 2.83-1.27 2.83-2.84v-5.52zm-.38 5.28c0 1.14-.93 2.07-2.07 2.07h-6.81c-1.14 0-2.06-.93-2.06-2.07v-.25l3.31-1.88 1.28 1.87 6.37-3.9v4.16z"/><path d="m18.92 10.84v.45l-.39-.21z"/><path d="m16.05 11.92c-.12 0-.23-.04-.33-.11-.17-.12-.26-.34-.22-.54l.27-1.6-1.17-1.14c-.15-.15-.21-.37-.14-.57s.24-.35.45-.38l1.61-.23.72-1.46c.09-.19.28-.31.5-.31.21 0 .4.12.5.31l.72 1.46 1.61.23c.21.03.38.17.45.38.07.2.01.42-.14.57l-1.17 1.14.28 1.6c.04.21-.05.42-.22.54s-.4.14-.58.04l-1.44-.76-1.44.76c-.08.05-.17.07-.26.07zm-.6-3.64 1.15 1.12-.27 1.58 1.42-.75 1.42.75-.28-1.58 1.15-1.12-1.58-.23-.71-1.44-.71 1.44zm5.01.07s.01 0 0 0z"/></g></svg>