<svg enable-background="new 0 0 28 28" viewBox="0 0 28 28" xmlns="http://www.w3.org/2000/svg"><path d="m2.41 21.8c-.72 0-1.31-.59-1.31-1.31s.59-1.31 1.31-1.31 1.31.59 1.31 1.31-.59 1.31-1.31 1.31zm0-1.9c-.32 0-.58.26-.58.58s.26.58.58.58.58-.26.58-.58-.26-.58-.58-.58z" fill="#03dac6"/><path d="m19.93 7.3c-.72 0-1.31-.59-1.31-1.31s.59-1.31 1.31-1.31 1.31.59 1.31 1.31-.59 1.31-1.31 1.31zm0-1.89c-.32 0-.58.26-.58.58s.26.58.58.58.58-.26.58-.58-.26-.58-.58-.58z" fill="#03dac6"/><path d="m24.36 23.32h-17c-1.4 0-2.54-1.14-2.54-2.54v-10.09c0-1.4 1.14-2.54 2.54-2.54h17c1.4 0 2.54 1.14 2.54 2.54v10.08c0 1.41-1.14 2.55-2.54 2.55zm-17-14.45c-1 0-1.82.82-1.82 1.82v10.08c0 1 .82 1.82 1.82 1.82h17c1 0 1.82-.82 1.82-1.82v-10.08c0-1-.82-1.82-1.82-1.82z" fill="#fff"/><path d="m21.7 20.85h-11.69c-1.19 0-2.15-.97-2.15-2.16v-5.92c0-1.19.97-2.15 2.15-2.15h11.69c.84 0 1.61.49 1.96 1.25.13.28.2.59.2.91v5.92c0 1.18-.97 2.15-2.16 2.15zm-11.69-9.51c-.79 0-1.43.64-1.43 1.43v5.92c0 .79.64 1.43 1.43 1.43h11.69c.79 0 1.43-.64 1.43-1.43v-5.92c0-.21-.05-.41-.13-.6-.23-.5-.74-.83-1.3-.83z" fill="#03dac6"/><g fill="#fff"><path d="m21.7 20.85h-11.69c-1.19 0-2.15-.97-2.15-2.16v-.63l4.58-3.3 1.98 2.18 9.07-5.45.17.36c.13.28.2.6.2.91v5.92c0 1.2-.97 2.17-2.16 2.17zm-13.11-2.41v.25c0 .79.64 1.43 1.43 1.43h11.68c.79 0 1.43-.64 1.43-1.43v-5.92c0-.07 0-.14-.01-.2l-8.83 5.31-1.94-2.14z"/><path d="m14.91 15.15c-.72 0-1.31-.59-1.31-1.31s.59-1.31 1.31-1.31 1.31.59 1.31 1.31-.59 1.31-1.31 1.31zm0-1.89c-.32 0-.58.26-.58.58s.26.58.58.58.58-.26.58-.58-.26-.58-.58-.58z"/></g></svg>