<svg width="60" height="60" viewBox="0 0 60 60" fill="none" xmlns="http://www.w3.org/2000/svg">
<rect x="4" y="4" width="52" height="52" rx="26" fill="url(#paint0_angular_99_1844)" fill-opacity="0.25"/>
<circle cx="30" cy="30" r="29.5" stroke="url(#paint1_angular_99_1844)"/>
<path d="M30.0007 20.2083C24.0406 20.2083 19.209 25.0398 19.209 30.9999C19.209 36.96 24.0406 41.7916 30.0007 41.7916C35.9607 41.7916 40.7923 36.96 40.7923 30.9999C40.7923 25.0398 35.9607 20.2083 30.0007 20.2083ZM17.459 30.9999C17.459 24.0733 23.0741 18.4583 30.0007 18.4583C36.9272 18.4583 42.5423 24.0733 42.5423 30.9999C42.5423 37.9265 36.9272 43.5416 30.0007 43.5416C23.0741 43.5416 17.459 37.9265 17.459 30.9999Z" fill="#F2994A"/>
<path d="M27.6673 23.1249C28.1506 23.1249 28.5423 23.5167 28.5423 23.9999V25.4583H29.709V23.9999C29.709 23.5167 30.1007 23.1249 30.584 23.1249C31.0672 23.1249 31.459 23.5167 31.459 23.9999V25.4583H31.7507C33.5225 25.4583 34.959 26.8947 34.959 28.6666C34.959 30.4385 33.5225 31.8749 31.7507 31.8749H27.6673C27.1841 31.8749 26.7923 31.4832 26.7923 30.9999V27.2083H25.334C24.8507 27.2083 24.459 26.8165 24.459 26.3333C24.459 25.85 24.8507 25.4583 25.334 25.4583H26.7923V23.9999C26.7923 23.5167 27.1841 23.1249 27.6673 23.1249ZM28.5423 27.2083V30.1249H31.7507C32.556 30.1249 33.209 29.472 33.209 28.6666C33.209 27.8612 32.556 27.2083 31.7507 27.2083H28.5423Z" fill="#F2994A"/>
<path d="M26.7923 30.9999C26.7923 30.5167 27.1841 30.1249 27.6673 30.1249H32.9173C34.6892 30.1249 36.1257 31.5614 36.1257 33.3333C36.1257 35.1051 34.6892 36.5416 32.9173 36.5416H31.459V37.9999C31.459 38.4832 31.0672 38.8749 30.584 38.8749C30.1007 38.8749 29.709 38.4832 29.709 37.9999V36.5416H28.5423V37.9999C28.5423 38.4832 28.1506 38.8749 27.6673 38.8749C27.1841 38.8749 26.7923 38.4832 26.7923 37.9999V36.5416H25.334C24.8507 36.5416 24.459 36.1498 24.459 35.6666C24.459 35.1833 24.8507 34.7916 25.334 34.7916H26.7923V30.9999ZM28.5423 31.8749V34.7916H32.9173C33.7227 34.7916 34.3757 34.1386 34.3757 33.3333C34.3757 32.5279 33.7227 31.8749 32.9173 31.8749H28.5423Z" fill="#F2994A"/>
<defs>
<radialGradient id="paint0_angular_99_1844" cx="0" cy="0" r="1" gradientUnits="userSpaceOnUse" gradientTransform="translate(36 21) rotate(131.216) scale(36.4247 47.8333)">
<stop stop-color="#0C0028"/>
<stop offset="0.853932" stop-color="#0099EF"/>
<stop offset="1" stop-color="#0099EF" stop-opacity="0"/>
</radialGradient>
<radialGradient id="paint1_angular_99_1844" cx="0" cy="0" r="1" gradientUnits="userSpaceOnUse" gradientTransform="translate(30 30) rotate(90) scale(30)">
<stop offset="0.114972" stop-color="#0C0028" stop-opacity="0"/>
<stop offset="0.577126" stop-color="#0099EF"/>
</radialGradient>
</defs>
</svg>
