<svg width="60" height="60" viewBox="0 0 60 60" fill="none" xmlns="http://www.w3.org/2000/svg">
<rect x="4" y="4" width="52" height="52" rx="26" fill="url(#paint0_angular_99_1847)" fill-opacity="0.25"/>
<circle cx="30" cy="30" r="29.5" stroke="url(#paint1_angular_99_1847)"/>
<path fill-rule="evenodd" clip-rule="evenodd" d="M28.7623 19.4522C29.0222 19.3914 29.2957 19.4526 29.5049 19.6183L36.3113 25.0102C36.4495 25.1196 36.5513 25.2683 36.6036 25.4366L37.94 29.7405C38.0139 29.9785 37.9829 30.2366 37.8547 30.4502C37.7265 30.6639 37.5133 30.8127 37.2686 30.8595L30.9013 32.0759C30.6306 32.1277 30.3513 32.0488 30.1476 31.8631L22.7547 25.1233C22.4679 24.8618 22.3876 24.4426 22.5575 24.0937L24.1279 20.868C24.2431 20.6312 24.4589 20.459 24.7153 20.399L28.7623 19.4522ZM25.5191 22.0082L24.4175 24.2711L31.003 30.2749L35.9784 29.3243L35.0126 26.2139L28.7495 21.2525L25.5191 22.0082Z" fill="#F2994A"/>
<path fill-rule="evenodd" clip-rule="evenodd" d="M24.2502 20.6817C24.5647 20.3147 25.117 20.2721 25.484 20.5865L32.0205 26.1866C32.3875 26.501 32.4301 27.0533 32.1157 27.4203C31.8013 27.7873 31.2489 27.8299 30.8819 27.5155L24.3454 21.9154C23.9785 21.601 23.9358 21.0487 24.2502 20.6817Z" fill="#F2994A"/>
<path fill-rule="evenodd" clip-rule="evenodd" d="M36.6254 25.521C36.7221 25.9945 36.4166 26.4567 35.9432 26.5534L32.2234 27.3128L31.6022 31.3496C31.5287 31.8272 31.0819 32.1548 30.6043 32.0813C30.1266 32.0078 29.799 31.561 29.8725 31.0834L30.5865 26.4442C30.6422 26.0823 30.9174 25.7933 31.2763 25.72L35.5931 24.8387C36.0666 24.7421 36.5288 25.0475 36.6254 25.521Z" fill="#F2994A"/>
<path fill-rule="evenodd" clip-rule="evenodd" d="M23.8695 28.2578C23.9791 28.7284 23.6865 29.1988 23.2159 29.3085L20.4753 29.9471L19.364 32.7091L25.3852 38.6075L30.7777 37.5568L29.7473 34.3656C29.5988 33.9057 29.8512 33.4126 30.3111 33.2641C30.7709 33.1156 31.2641 33.368 31.4126 33.8279L32.7462 37.9581C32.8231 38.1963 32.7943 38.456 32.6672 38.6716C32.54 38.8872 32.3266 39.038 32.0809 39.0858L25.2686 40.4131C24.9861 40.4681 24.6946 40.3807 24.4889 40.1793L17.7217 33.55C17.4689 33.3023 17.3901 32.9267 17.5223 32.5983L19.0217 28.8716C19.1282 28.6069 19.3571 28.4108 19.6349 28.346L22.8187 27.6042C23.2894 27.4945 23.7598 27.7871 23.8695 28.2578Z" fill="#F2994A"/>
<path fill-rule="evenodd" clip-rule="evenodd" d="M19.1976 28.5968C19.5297 28.2457 20.0835 28.2303 20.4346 28.5623L26.6841 34.4731C27.0352 34.8051 27.0506 35.3589 26.7186 35.71C26.3865 36.0611 25.8327 36.0766 25.4816 35.7445L19.2321 29.8337C18.881 29.5017 18.8656 28.9479 19.1976 28.5968Z" fill="#F2994A"/>
<path fill-rule="evenodd" clip-rule="evenodd" d="M31.4445 33.9832C31.5138 34.4614 31.1824 34.9054 30.7042 34.9748L26.9112 35.5252L25.9513 39.4619C25.8368 39.9314 25.3634 40.2192 24.8939 40.1047C24.4244 39.9902 24.1366 39.5168 24.2511 39.0473L25.3509 34.5368C25.4355 34.19 25.7221 33.9294 26.0754 33.8781L30.4529 33.2429C30.9311 33.1735 31.3751 33.505 31.4445 33.9832Z" fill="#F2994A"/>
<path fill-rule="evenodd" clip-rule="evenodd" d="M39.8917 31.5887C40.3433 31.4884 40.7949 31.7569 40.9225 32.2015L42.0627 36.1746C42.1304 36.4103 42.096 36.6636 41.9679 36.8728C41.8399 37.082 41.6299 37.2278 41.3892 37.2747L36.0015 38.3256C35.7264 38.3792 35.4423 38.2978 35.2373 38.1067C35.0323 37.9156 34.9313 37.6378 34.9656 37.3597L35.4829 33.1642C35.5282 32.7966 35.8 32.4974 36.1616 32.4171L39.8917 31.5887ZM37.1441 33.9915L36.85 36.3771L40.1173 35.7398L39.4675 33.4755L37.1441 33.9915Z" fill="#F2994A"/>
<defs>
<radialGradient id="paint0_angular_99_1847" cx="0" cy="0" r="1" gradientUnits="userSpaceOnUse" gradientTransform="translate(33.5 24) rotate(131.385) scale(32.5209 42.7068)">
<stop stop-color="#0C0028"/>
<stop offset="0.853932" stop-color="#0099EF"/>
<stop offset="1" stop-color="#0099EF" stop-opacity="0"/>
</radialGradient>
<radialGradient id="paint1_angular_99_1847" cx="0" cy="0" r="1" gradientUnits="userSpaceOnUse" gradientTransform="translate(30 30) rotate(90) scale(30)">
<stop offset="0.114972" stop-color="#0C0028" stop-opacity="0"/>
<stop offset="0.577126" stop-color="#0099EF"/>
</radialGradient>
</defs>
</svg>
