<svg width="60" height="60" viewBox="0 0 60 60" fill="none" xmlns="http://www.w3.org/2000/svg">
<rect x="4" y="4" width="52" height="52" rx="26" fill="url(#paint0_angular_99_1841)" fill-opacity="0.25"/>
<circle cx="30" cy="30" r="29.5" stroke="url(#paint1_angular_99_1841)"/>
<path fill-rule="evenodd" clip-rule="evenodd" d="M17.459 29.9999C17.459 23.0733 23.0741 17.4583 30.0007 17.4583C36.9272 17.4583 42.5423 23.0733 42.5423 29.9999C42.5423 36.9265 36.9272 42.5416 30.0007 42.5416C23.0741 42.5416 17.459 36.9265 17.459 29.9999ZM30.0007 19.2083C24.0406 19.2083 19.209 24.0398 19.209 29.9999C19.209 35.96 24.0406 40.7916 30.0007 40.7916C35.9607 40.7916 40.7923 35.96 40.7923 29.9999C40.7923 24.0398 35.9607 19.2083 30.0007 19.2083Z" fill="#F2994A"/>
<path fill-rule="evenodd" clip-rule="evenodd" d="M26.209 26.4999C26.209 24.4059 27.9066 22.7083 30.0007 22.7083C32.0947 22.7083 33.7923 24.4059 33.7923 26.4999C33.7923 28.594 32.0947 30.2916 30.0007 30.2916C27.9066 30.2916 26.209 28.594 26.209 26.4999ZM30.0007 24.4583C28.8731 24.4583 27.959 25.3724 27.959 26.4999C27.959 27.6275 28.8731 28.5416 30.0007 28.5416C31.1282 28.5416 32.0423 27.6275 32.0423 26.4999C32.0423 25.3724 31.1282 24.4583 30.0007 24.4583Z" fill="#F2994A"/>
<path fill-rule="evenodd" clip-rule="evenodd" d="M27.667 33.7916C25.0403 33.7916 22.89 35.8347 22.7197 38.4178C22.6879 38.9 22.2712 39.2652 21.789 39.2334C21.3068 39.2016 20.9416 38.7849 20.9734 38.3027C21.2041 34.8059 24.1124 32.0416 27.667 32.0416H32.3337C35.8837 32.0416 38.789 34.7985 39.0264 38.2888C39.0592 38.7709 38.695 39.1884 38.2128 39.2212C37.7307 39.254 37.3133 38.8897 37.2805 38.4076C37.1051 35.8293 34.957 33.7916 32.3337 33.7916H27.667Z" fill="#F2994A"/>
<defs>
<radialGradient id="paint0_angular_99_1841" cx="0" cy="0" r="1" gradientUnits="userSpaceOnUse" gradientTransform="translate(37.5 21.5) rotate(133.47) scale(37.0656 48.6749)">
<stop stop-color="#0C0028"/>
<stop offset="0.853932" stop-color="#0099EF"/>
<stop offset="1" stop-color="#0099EF" stop-opacity="0"/>
</radialGradient>
<radialGradient id="paint1_angular_99_1841" cx="0" cy="0" r="1" gradientUnits="userSpaceOnUse" gradientTransform="translate(30 30) rotate(90) scale(30)">
<stop offset="0.114972" stop-color="#0C0028" stop-opacity="0"/>
<stop offset="0.577126" stop-color="#0099EF"/>
</radialGradient>
</defs>
</svg>
