<svg width="62" height="62" viewBox="0 0 62 62" fill="none" xmlns="http://www.w3.org/2000/svg">
<path d="M8.02432 10.7962C10.6299 8.9877 13.6872 8.43005 15.7342 8.43005H52.9445C54.0146 8.43005 54.882 9.2975 54.882 10.3675C54.882 11.4376 54.0146 12.305 52.9445 12.305H15.7342C14.2584 12.305 12.0316 12.7317 10.2338 13.9796C8.54091 15.1546 7.10352 17.1307 7.10352 20.6244C7.10352 24.121 8.5443 26.133 10.2482 27.3387C12.0522 28.6151 14.2777 29.0625 15.7342 29.0625H46.4914C48.5516 29.0625 51.5622 29.6406 54.1142 31.4756C56.7662 33.3825 58.7702 36.5467 58.7702 41.3135C58.7702 46.0793 56.7673 49.2519 54.1194 51.1693C51.5698 53.0156 48.5588 53.608 46.4914 53.608H7.8333C6.76325 53.608 5.8958 52.7405 5.8958 51.6705C5.8958 50.6004 6.76325 49.733 7.8333 49.733H46.4914C47.9468 49.733 50.1064 49.291 51.8467 48.0308C53.4888 46.8417 54.8952 44.8359 54.8952 41.3135C54.8952 37.792 53.4899 35.7995 51.852 34.6217C50.114 33.372 47.954 32.9375 46.4914 32.9375H15.7342C13.668 32.9375 10.6094 32.3412 8.00997 30.5019C5.31046 28.5918 3.22852 25.416 3.22852 20.6244C3.22852 15.8299 5.31385 12.6775 8.02432 10.7962Z" fill="white"/>
<path d="M11.7466 45.1055C12.5115 45.8538 12.525 47.0805 11.7767 47.8454L7.98452 51.7216L11.7552 55.4569C12.5154 56.2099 12.5212 57.4367 11.7682 58.1969C11.0151 58.9571 9.78838 58.9629 9.02817 58.2098L3.88954 53.1195C3.13269 52.3698 3.12311 51.1497 3.86811 50.3882L9.00674 45.1356C9.75503 44.3707 10.9817 44.3572 11.7466 45.1055Z" fill="white"/>
<path d="M47.7832 3.72197C47.0183 4.47027 47.0048 5.69695 47.7531 6.46185L51.5453 10.3381L47.7746 14.0733C47.0144 14.8264 47.0086 16.0531 47.7616 16.8133C48.5147 17.5736 49.7414 17.5793 50.5016 16.8263L55.6403 11.736C56.3971 10.9863 56.4067 9.76614 55.6617 9.00462L50.5231 3.75202C49.7748 2.98713 48.5481 2.97367 47.7832 3.72197Z" fill="white"/>
</svg>
