<svg width="24" height="24" viewBox="0 0 24 24" fill="none" xmlns="http://www.w3.org/2000/svg">
<path d="M19 4H5C4.44771 4 4 4.44771 4 5V19C4 19.5523 4.44771 20 5 20H19C19.5523 20 20 19.5523 20 19V5C20 4.44771 19.5523 4 19 4Z" fill="#F2994A"/>
<path fill-rule="evenodd" clip-rule="evenodd" d="M3.25 5C3.25 4.0335 4.0335 3.25 5 3.25H19C19.9665 3.25 20.75 4.03351 20.75 5V19C20.75 19.9665 19.9665 20.75 19 20.75H5C4.03351 20.75 3.25 19.9665 3.25 19V5ZM5 4.75C4.86193 4.75 4.75 4.86193 4.75 5V19C4.75 19.1381 4.86192 19.25 5 19.25H19C19.1381 19.25 19.25 19.1381 19.25 19V5C19.25 4.86192 19.1381 4.75 19 4.75H5Z" fill="#F2994A"/>
<path d="M15 9H9V15H15V9Z" fill="#0C0028"/>
<path fill-rule="evenodd" clip-rule="evenodd" d="M8.25 9C8.25 8.58579 8.58579 8.25 9 8.25H15C15.4142 8.25 15.75 8.58579 15.75 9V15C15.75 15.4142 15.4142 15.75 15 15.75H9C8.58579 15.75 8.25 15.4142 8.25 15V9ZM9.75 9.75V14.25H14.25V9.75H9.75Z" fill="#0C0028"/>
<path fill-rule="evenodd" clip-rule="evenodd" d="M7.45508 0.25C7.86929 0.25 8.20508 0.585786 8.20508 1V4C8.20508 4.41421 7.86929 4.75 7.45508 4.75C7.04086 4.75 6.70508 4.41421 6.70508 4V1C6.70508 0.585786 7.04086 0.25 7.45508 0.25Z" fill="#F2994A"/>
<path fill-rule="evenodd" clip-rule="evenodd" d="M7.45508 19.25C7.86929 19.25 8.20508 19.5858 8.20508 20V23C8.20508 23.4142 7.86929 23.75 7.45508 23.75C7.04086 23.75 6.70508 23.4142 6.70508 23V20C6.70508 19.5858 7.04086 19.25 7.45508 19.25Z" fill="#F2994A"/>
<path fill-rule="evenodd" clip-rule="evenodd" d="M12 0.25C12.4142 0.25 12.75 0.585786 12.75 1V4C12.75 4.41421 12.4142 4.75 12 4.75C11.5858 4.75 11.25 4.41421 11.25 4V1C11.25 0.585786 11.5858 0.25 12 0.25Z" fill="#F2994A"/>
<path fill-rule="evenodd" clip-rule="evenodd" d="M12 19.25C12.4142 19.25 12.75 19.5858 12.75 20V23C12.75 23.4142 12.4142 23.75 12 23.75C11.5858 23.75 11.25 23.4142 11.25 23V20C11.25 19.5858 11.5858 19.25 12 19.25Z" fill="#F2994A"/>
<path fill-rule="evenodd" clip-rule="evenodd" d="M16.5449 0.25C16.9591 0.25 17.2949 0.585786 17.2949 1V4C17.2949 4.41421 16.9591 4.75 16.5449 4.75C16.1307 4.75 15.7949 4.41421 15.7949 4V1C15.7949 0.585786 16.1307 0.25 16.5449 0.25Z" fill="#F2994A"/>
<path fill-rule="evenodd" clip-rule="evenodd" d="M16.5449 19.25C16.9591 19.25 17.2949 19.5858 17.2949 20V23C17.2949 23.4142 16.9591 23.75 16.5449 23.75C16.1307 23.75 15.7949 23.4142 15.7949 23V20C15.7949 19.5858 16.1307 19.25 16.5449 19.25Z" fill="#F2994A"/>
<path fill-rule="evenodd" clip-rule="evenodd" d="M0.25 7.45459C0.25 7.04038 0.585786 6.70459 1 6.70459H4C4.41421 6.70459 4.75 7.04038 4.75 7.45459C4.75 7.8688 4.41421 8.20459 4 8.20459H1C0.585786 8.20459 0.25 7.8688 0.25 7.45459Z" fill="#F2994A"/>
<path fill-rule="evenodd" clip-rule="evenodd" d="M19.25 7.45459C19.25 7.04038 19.5858 6.70459 20 6.70459H23C23.4142 6.70459 23.75 7.04038 23.75 7.45459C23.75 7.8688 23.4142 8.20459 23 8.20459H20C19.5858 8.20459 19.25 7.8688 19.25 7.45459Z" fill="#F2994A"/>
<path fill-rule="evenodd" clip-rule="evenodd" d="M0.25 12C0.25 11.5858 0.585786 11.25 1 11.25H4C4.41421 11.25 4.75 11.5858 4.75 12C4.75 12.4142 4.41421 12.75 4 12.75H1C0.585786 12.75 0.25 12.4142 0.25 12Z" fill="#F2994A"/>
<path fill-rule="evenodd" clip-rule="evenodd" d="M19.25 12C19.25 11.5858 19.5858 11.25 20 11.25H23C23.4142 11.25 23.75 11.5858 23.75 12C23.75 12.4142 23.4142 12.75 23 12.75H20C19.5858 12.75 19.25 12.4142 19.25 12Z" fill="#F2994A"/>
<path fill-rule="evenodd" clip-rule="evenodd" d="M0.25 16.5454C0.25 16.1312 0.585786 15.7954 1 15.7954H4C4.41421 15.7954 4.75 16.1312 4.75 16.5454C4.75 16.9596 4.41421 17.2954 4 17.2954H1C0.585786 17.2954 0.25 16.9596 0.25 16.5454Z" fill="#F2994A"/>
<path fill-rule="evenodd" clip-rule="evenodd" d="M19.25 16.5454C19.25 16.1312 19.5858 15.7954 20 15.7954H23C23.4142 15.7954 23.75 16.1312 23.75 16.5454C23.75 16.9596 23.4142 17.2954 23 17.2954H20C19.5858 17.2954 19.25 16.9596 19.25 16.5454Z" fill="#F2994A"/>
</svg>
