<svg width="24" height="24" viewBox="0 0 24 24" fill="none" xmlns="http://www.w3.org/2000/svg">
<path d="M12 2.75C10.4812 2.75 9.25 3.98122 9.25 5.5C9.25 7.01878 10.4812 8.25 12 8.25C13.5188 8.25 14.75 7.01878 14.75 5.5C14.75 3.98122 13.5188 2.75 12 2.75ZM7.75 5.5C7.75 3.15279 9.65279 1.25 12 1.25C14.3472 1.25 16.25 3.15279 16.25 5.5C16.25 7.84721 14.3472 9.75 12 9.75C9.65279 9.75 7.75 7.84721 7.75 5.5Z" fill="#F2994A"/>
<path d="M11 13.25C6.35818 13.25 2.75 16.5765 2.75 20.5C2.75 20.9142 2.41421 21.25 2 21.25C1.58579 21.25 1.25 20.9142 1.25 20.5C1.25 15.5869 5.70072 11.75 11 11.75C11.4142 11.75 11.75 12.0858 11.75 12.5C11.75 12.9142 11.4142 13.25 11 13.25Z" fill="#F2994A"/>
<path d="M17.9697 13.4697L12.9697 18.4697C12.829 18.6103 12.75 18.8011 12.75 19V21C12.75 21.4142 13.0858 21.75 13.5 21.75H15.5C15.6989 21.75 15.8897 21.671 16.0303 21.5303L21.0303 16.5303C21.3232 16.2374 21.3232 15.7626 21.0303 15.4697L19.0303 13.4697C18.7374 13.1768 18.2626 13.1768 17.9697 13.4697ZM14.25 19.3107L18.5 15.0607L19.4393 16L15.1893 20.25H14.25V19.3107Z" fill="#F2994A"/>
</svg>
