<svg width="24" height="24" viewBox="0 0 24 24" fill="none" xmlns="http://www.w3.org/2000/svg">
<path d="M17.5004 13.3069L16.9776 13.8447L17.8904 14.732L18.2241 13.5035L17.5004 13.3069ZM7.57351 3.65691L8.09629 3.11913L8.09628 3.11911L7.57351 3.65691ZM5.50346 3.68618L6.04071 4.20951L6.04126 4.20894L5.50346 3.68618ZM5.44401 3.75111L6.01224 4.24062L6.01225 4.24061L5.44401 3.75111ZM5.53381 6.02308L6.06164 5.49026L6.06161 5.49023L5.53381 6.02308ZM10.5459 10.9881L10.018 11.5209L11.0739 10.4555L10.5459 10.9881ZM5.08902 5.57733L4.56094 6.10991L5.08902 5.57733ZM2.72143 5.49678L3.21209 6.06402L3.21209 6.06401L2.72143 5.49678ZM2.56664 7.63538L1.99941 8.12604L1.99959 8.12624L2.56664 7.63538ZM2.63118 7.70543L2.09551 8.23037L2.09588 8.23074L2.63118 7.70543ZM8.12802 13.3068L7.60379 13.8432C7.89783 14.1306 8.36844 14.1277 8.65888 13.8366C8.94932 13.5456 8.9513 13.075 8.66332 12.7815L8.12802 13.3068ZM5.00036 10.25L4.46438 10.7746L4.4702 10.7805L4.47614 10.7863L5.00036 10.25ZM2.68377 10.2098L3.20123 10.7527L3.20125 10.7527L2.68377 10.2098ZM2.62897 12.495L2.08607 13.0125L2.0882 13.0147L2.62897 12.495ZM2.63751 12.5039L3.17644 11.9823L3.17599 11.9818L2.63751 12.5039ZM10.5459 20.2767L11.0274 19.7017L11.0274 19.7017L10.5459 20.2767ZM19.8595 17.1643L19.1768 16.8539V16.8539L19.8595 17.1643ZM22.0883 9.38393L22.8153 9.56849L22.8153 9.56849L22.0883 9.38393ZM20.8932 7.37543L21.0777 6.64849L21.0773 6.64839L20.8932 7.37543ZM20.8587 7.36708L20.6898 8.09782L20.6903 8.09793L20.8587 7.36708ZM18.7753 8.61363L19.4991 8.81025L19.4991 8.81023L18.7753 8.61363ZM15.2351 6.75016C15.4655 7.09436 15.9313 7.18659 16.2755 6.95617C16.6197 6.72574 16.712 6.25991 16.4815 5.9157L15.2351 6.75016ZM13.1675 3.64209L12.7502 4.26532L12.7502 4.26532L13.1675 3.64209ZM12.3472 3.14945L11.9931 3.81059L11.9931 3.81059L12.3472 3.14945ZM11.7697 2.04694C11.3871 1.88829 10.9483 2.06985 10.7896 2.45248C10.631 2.8351 10.8125 3.27389 11.1951 3.43255L11.7697 2.04694ZM3.24155 16.504C3.02944 16.1482 2.56907 16.0318 2.21329 16.2439C1.85751 16.456 1.74104 16.9164 1.95315 17.2721L3.24155 16.504ZM5.14366 19.716L5.59295 19.1155L5.14366 19.716ZM5.93701 20.2509L5.54877 20.8926L5.54882 20.8927L5.93701 20.2509ZM6.45603 21.3822C6.82983 21.5606 7.27752 21.4023 7.45599 21.0285C7.63445 20.6547 7.47609 20.207 7.1023 20.0285L6.45603 21.3822ZM18.0231 12.7691L8.09629 3.11913L7.05074 4.19468L16.9776 13.8447L18.0231 12.7691ZM8.09628 3.11911C7.21954 2.26689 5.81791 2.28666 4.96567 3.16342L6.04126 4.20894C6.31602 3.92628 6.76799 3.91983 7.05075 4.1947L8.09628 3.11911ZM4.96622 3.16285C4.93475 3.19516 4.90463 3.22812 4.87578 3.2616L6.01225 4.24061C6.0217 4.22963 6.03118 4.21929 6.04071 4.20951L4.96622 3.16285ZM4.87579 3.26159C4.04718 4.22344 4.10403 5.6625 5.00602 6.55593L6.06161 5.49023C5.7195 5.15137 5.69791 4.60549 6.01224 4.24062L4.87579 3.26159ZM5.00599 6.55591L10.018 11.5209L11.0737 10.4553L6.06164 5.49026L5.00599 6.55591ZM11.0739 10.4555L5.61709 5.04476L4.56094 6.10991L10.0178 11.5207L11.0739 10.4555ZM5.61709 5.04476C4.69185 4.12734 3.21621 4.07714 2.23078 4.92955L3.21209 6.06401C3.60462 5.72448 4.1924 5.74448 4.56094 6.10991L5.61709 5.04476ZM2.23078 4.92954C1.28419 5.74833 1.18062 7.17947 1.99941 8.12604L3.13388 7.14472C2.85705 6.82469 2.89208 6.34083 3.21209 6.06402L2.23078 4.92954ZM1.99959 8.12624C2.03056 8.16202 2.06255 8.19673 2.09551 8.23037L3.16686 7.1805C3.15533 7.16873 3.14428 7.15674 3.1337 7.14452L1.99959 8.12624ZM2.09588 8.23074L7.59271 13.8321L8.66332 12.7815L3.16649 7.18012L2.09588 8.23074ZM8.65224 12.7705L5.52459 9.71361L4.47614 10.7863L7.60379 13.8432L8.65224 12.7705ZM5.53635 9.72537C4.61817 8.78729 3.11652 8.76116 2.1663 9.6669L3.20125 10.7527C3.55738 10.4132 4.12022 10.423 4.46438 10.7746L5.53635 9.72537ZM2.16632 9.66688C1.22028 10.5686 1.18439 12.0665 2.08607 13.0125L3.17187 11.9776C2.84172 11.6312 2.85489 11.0828 3.20123 10.7527L2.16632 9.66688ZM2.0882 13.0147C2.09165 13.0183 2.09527 13.0221 2.09903 13.0259L3.17599 11.9818C3.17403 11.9798 3.17196 11.9777 3.16974 11.9753L2.0882 13.0147ZM2.09858 13.0255C6.71279 17.7931 9.13233 20.0712 10.0643 20.8517L11.0274 19.7017C10.1624 18.9773 7.79184 16.7512 3.17644 11.9823L2.09858 13.0255ZM10.0643 20.8517C10.9222 21.5702 12.1434 22.0443 13.3345 22.2127C14.5128 22.3794 15.8181 22.2674 16.7821 21.6237L15.9491 20.3762C15.4154 20.7326 14.5381 20.868 13.5446 20.7275C12.5639 20.5889 11.624 20.2013 11.0274 19.7017L10.0643 20.8517ZM16.7821 21.6237C18.3587 20.5711 19.8258 19.0503 20.5422 17.4748L19.1768 16.8539C18.6083 18.1041 17.368 19.4289 15.9491 20.3762L16.7821 21.6237ZM20.5422 17.4748C20.7601 16.9956 21.0554 16.0837 21.4246 14.7949C21.7991 13.4877 22.2628 11.7446 22.8153 9.56849L21.3614 9.19937C20.8105 11.369 20.3511 13.0956 19.9826 14.3819C19.6089 15.6865 19.3414 16.4919 19.1768 16.8539L20.5422 17.4748ZM22.8153 9.56849C23.1418 8.28236 22.3638 6.97502 21.0777 6.64849L20.7086 8.10237C21.1918 8.22504 21.484 8.71621 21.3614 9.19937L22.8153 9.56849ZM21.0773 6.64839C21.0614 6.64437 21.0446 6.64027 21.0271 6.63623L20.6903 8.09793C20.6958 8.09919 20.702 8.10069 20.709 8.10247L21.0773 6.64839ZM21.0276 6.63634C19.7183 6.33373 18.4038 7.12013 18.0515 8.41703L19.4991 8.81023C19.64 8.29143 20.1659 7.97673 20.6898 8.09782L21.0276 6.63634ZM18.0515 8.41702L16.7766 13.1103L18.2241 13.5035L19.4991 8.81025L18.0515 8.41702ZM16.4815 5.9157C16.0983 5.34321 15.6603 4.8106 15.175 4.32535L14.1144 5.38602C14.5307 5.80236 14.9064 6.25925 15.2351 6.75016L16.4815 5.9157ZM15.175 4.32535C14.6898 3.84012 14.1572 3.40211 13.5847 3.01885L12.7502 4.26532C13.2411 4.59395 13.698 4.96967 14.1144 5.38602L15.175 4.32535ZM13.5847 3.01885C13.2998 2.82815 13.0051 2.65099 12.7013 2.4883L11.9931 3.81059C12.2534 3.94998 12.506 4.10181 12.7502 4.26532L13.5847 3.01885ZM12.7013 2.4883C12.3994 2.32657 12.0885 2.17914 11.7697 2.04694L11.1951 3.43255C11.4681 3.54574 11.7344 3.67201 11.9931 3.81059L12.7013 2.4883ZM1.95315 17.2721C2.3059 17.8638 2.71543 18.4187 3.17463 18.9286L4.28932 17.9249C3.89535 17.4874 3.54406 17.0114 3.24155 16.504L1.95315 17.2721ZM3.17463 18.9286C3.63379 19.4386 4.14273 19.9039 4.69438 20.3166L5.59295 19.1155C5.11992 18.7616 4.68333 18.3625 4.28932 17.9249L3.17463 18.9286ZM4.69438 20.3166C4.96889 20.5219 5.254 20.7143 5.54877 20.8926L6.32526 19.6092C6.07263 19.4564 5.82824 19.2915 5.59295 19.1155L4.69438 20.3166ZM5.54882 20.8927C5.84185 21.0699 6.14455 21.2334 6.45603 21.3822L7.1023 20.0285C6.83568 19.9012 6.57638 19.7612 6.32521 19.6092L5.54882 20.8927Z" fill="#F2994A"/>
</svg>
