<svg width="20" height="20" viewBox="0 0 20 20" fill="none" xmlns="http://www.w3.org/2000/svg">
<path d="M15.4012 12.6187C15.2918 11.35 13.9949 10.5015 13.9949 10.5015C13.9949 10.5015 15.648 10.0531 15.8184 8.0937C15.9262 6.8437 15.1387 5.53901 13.1621 4.95776L13.8434 2.38433L12.2215 1.95464L11.5418 4.52183L10.1965 4.16558L10.8762 1.59839L9.25117 1.1687L8.57148 3.73589L5.95898 3.0437L5.5293 4.66401L7.11992 5.08433L5.04492 12.9234L3.4543 12.5L2.99805 14.2187L5.61055 14.9109L4.93086 17.4828L6.56211 17.9218L7.24336 15.35L8.58867 15.7062L7.90117 18.2812L9.53086 18.7078L10.2121 16.1359L10.5887 16.2343C13.7637 17.0312 15.5887 14.8062 15.4012 12.6187ZM9.80898 5.79683C9.80898 5.79683 10.4684 5.96714 11.4152 6.22183C12.3137 6.46401 12.998 7.25776 12.7871 8.15308C12.5762 9.04839 11.6402 9.6187 10.6574 9.37495C9.75586 9.14995 8.9793 8.9312 8.9793 8.9312L9.80898 5.79683ZM9.88242 14.2046C8.94492 13.9765 7.73398 13.6359 7.73398 13.6359L8.59336 10.3812C8.59336 10.3812 9.68711 10.6937 10.6605 10.9281C11.8246 11.2156 12.5355 11.9796 12.2793 13.0031C12.023 14.0265 11.1465 14.5125 9.88242 14.2046Z" fill="#00E741"/>
</svg>
