<svg width="20" height="20" viewBox="0 0 20 20" fill="none" xmlns="http://www.w3.org/2000/svg">
<path d="M15.7816 11.2047C15.2035 9.95474 13.7738 9.46099 13.7738 9.46099C13.7738 9.46099 15.5754 8.53599 15.1801 6.72036C14.9254 5.53599 13.852 4.34536 11.8535 4.31567V2.59692H10.0738V4.31567H8.77852V2.59692H7.00039V4.31567H4.76758V5.93755H5.79883C5.85423 5.93755 5.90909 5.94846 5.96027 5.96966C6.01146 5.99086 6.05796 6.02194 6.09714 6.06111C6.13631 6.10029 6.16739 6.1468 6.18859 6.19798C6.20979 6.24916 6.2207 6.30402 6.2207 6.35942V13.3594C6.2207 13.4837 6.17132 13.603 6.08341 13.6909C5.9955 13.7788 5.87627 13.8282 5.75195 13.8282H5.13789L4.76758 15.5735H7.00039V17.4094H8.77852V15.5735H10.0738V17.4094H11.852V15.5735H12.1957C15.6379 15.5735 16.5629 12.925 15.7816 11.2047ZM10.5895 5.93755C11.4941 5.93755 12.3332 6.52036 12.3566 7.41411C12.3801 8.30786 11.6395 9.07974 10.6566 9.09224C9.75195 9.10317 8.78164 9.09224 8.78164 9.09224V5.93755C8.78164 5.93755 9.64102 5.93755 10.5895 5.93755ZM11.1207 13.8235C10.1832 13.8407 8.77695 13.8235 8.77695 13.8235V10.5422C8.77695 10.5422 10.0754 10.561 11.0441 10.5422C12.2098 10.5235 13.0676 11.0672 13.0754 12.0938C13.0832 13.1204 12.3848 13.8032 11.1207 13.8266V13.8235Z" fill="#FFA800"/>
</svg>
