<svg width="20" height="20" viewBox="0 0 20 20" fill="none" xmlns="http://www.w3.org/2000/svg">
<path d="M10.5773 16.4422H3.99609L4.49766 13.786H9.68672C13.7805 13.786 14.0117 11.1297 14.293 8.96255C14.5305 7.20161 13.5477 6.22192 11.0805 6.22192H5.83516L6.28984 3.56567H12.3242C17.0117 3.56567 17.5086 6.44536 17.5086 7.68286V8.27505C17.5086 12.0391 15.693 16.4422 10.5773 16.4422Z" fill="#083CF5"/>
<path d="M7.83203 11.3265H1.64453L2.05078 9.80623C2.1377 9.47813 2.33075 9.18802 2.59982 8.98113C2.8689 8.77424 3.19887 8.66219 3.53828 8.66248H9.72578L9.31953 10.1844C9.23184 10.5119 9.03854 10.8014 8.7696 11.0079C8.50066 11.2144 8.17111 11.3264 7.83203 11.3265Z" fill="#083CF5"/>
</svg>
