<svg width="20" height="20" viewBox="0 0 20 20" fill="none" xmlns="http://www.w3.org/2000/svg">
<path d="M17.8215 7.72036H16.3371C15.8663 6.41113 15.0031 5.27894 13.8654 4.47813C12.7276 3.67731 11.3706 3.24683 9.9793 3.24536H4.59492V7.72036H2.80273V9.15942H4.59492V10.8407H2.80273V12.2797H4.59492V16.7547H9.9793C11.3706 16.7533 12.7276 16.3228 13.8654 15.522C15.0031 14.7212 15.8663 13.589 16.3371 12.2797H17.8215V10.8407H16.6809C16.7517 10.2825 16.7517 9.7176 16.6809 9.15942H17.8215V7.72036ZM6.03555 4.68755H9.9793C10.9843 4.68828 11.9686 4.97348 12.8183 5.51018C13.668 6.04688 14.3484 6.81315 14.7809 7.72036H6.03086L6.03555 4.68755ZM9.9793 15.3125H6.03555V12.2797H14.7855C14.3528 13.1877 13.6716 13.9544 12.821 14.4912C11.9704 15.0279 10.9851 15.3127 9.9793 15.3125ZM15.2918 10C15.2916 10.2816 15.2691 10.5627 15.2246 10.8407H6.03555V9.15942H15.2277C15.2723 9.43742 15.2947 9.71851 15.2949 10H15.2918Z" fill="#BC8E35"/>
</svg>
