<svg width="17" height="8" viewBox="0 0 17 8" fill="none" xmlns="http://www.w3.org/2000/svg">
<path d="M2.27531 4.25369V6.58407C2.27531 7.08751 2.33033 7.4002 2.44036 7.52212C2.58969 7.69518 2.81565 7.78171 3.11824 7.78171H3.42476V8H0V7.78171H0.300624C0.638581 7.78171 0.880259 7.67158 1.02566 7.45133C1.10425 7.3294 1.14355 7.04032 1.14355 6.58407V1.41593C1.14355 0.912488 1.0905 0.599803 0.984397 0.477876C0.831137 0.304818 0.603213 0.218289 0.300624 0.218289H0V0H2.92961C3.64482 0 4.20874 0.0747296 4.62136 0.224189C5.03398 0.369715 5.38176 0.617503 5.6647 0.967552C5.94764 1.3176 6.08911 1.73255 6.08911 2.21239C6.08911 2.86529 5.87298 3.39626 5.44071 3.80531C5.01237 4.21436 4.40522 4.41888 3.61928 4.41888C3.42672 4.41888 3.21845 4.40511 2.99445 4.37758C2.77046 4.35005 2.53074 4.30875 2.27531 4.25369ZM2.27531 3.9174C2.48359 3.95674 2.66828 3.98623 2.8294 4.0059C2.99052 4.02557 3.12806 4.0354 3.24202 4.0354C3.65072 4.0354 4.00243 3.87807 4.29716 3.56342C4.59582 3.24484 4.74515 2.83383 4.74515 2.33038C4.74515 1.98427 4.67441 1.66372 4.53294 1.36873C4.39147 1.06981 4.19105 0.847591 3.93169 0.702065C3.67233 0.552606 3.3776 0.477876 3.0475 0.477876C2.84709 0.477876 2.58969 0.515241 2.27531 0.589971V3.9174Z" fill="#FF2727"/>
<path d="M11.4591 8L8.37032 1.26844V6.61357C8.37032 7.10521 8.42337 7.412 8.52947 7.53392C8.67487 7.69912 8.90476 7.78171 9.21914 7.78171H9.50208V8H6.71983V7.78171H7.00277C7.34073 7.78171 7.58044 7.67945 7.72191 7.47493C7.80837 7.34907 7.85159 7.06195 7.85159 6.61357V1.38643C7.85159 1.03245 7.8123 0.776795 7.7337 0.619469C7.67869 0.505408 7.57651 0.411013 7.42718 0.336283C7.28178 0.25762 7.046 0.218289 6.71983 0.218289V0H8.98336L11.8835 6.25959L14.7365 0H17V0.218289H16.723C16.3811 0.218289 16.1394 0.320551 15.9979 0.525074C15.9115 0.650934 15.8682 0.938053 15.8682 1.38643V6.61357C15.8682 7.10521 15.9233 7.412 16.0333 7.53392C16.1787 7.69912 16.4086 7.78171 16.723 7.78171H17V8H13.6047V7.78171H13.8877C14.2295 7.78171 14.4693 7.67945 14.6068 7.47493C14.6932 7.34907 14.7365 7.06195 14.7365 6.61357V1.26844L11.6536 8H11.4591Z" fill="#FF2727"/>
</svg>
