<svg width="15" height="14" viewBox="0 0 15 14" fill="none" xmlns="http://www.w3.org/2000/svg">
<path d="M9.06073 4.65752V2.85084H13.0988V0H1.8899V2.85084H5.93927V4.65752C2.54682 4.8236 0 5.51681 0 6.34722C0 7.17763 2.54398 7.86652 5.93927 8.03693V14H9.06073V8.03693C12.4532 7.87229 15 7.17908 15 6.34722C15 5.51537 12.456 4.8236 9.06073 4.65752ZM7.5 7.4968C3.82662 7.4968 0.848468 6.91912 0.848468 6.22302C0.848468 5.62368 3.01788 5.12111 5.93644 4.9868V7.02744C6.43871 7.05055 6.96084 7.06354 7.49716 7.06354C8.03348 7.06354 8.55846 7.05055 9.05789 7.02744V4.9868C11.9764 5.12111 14.1459 5.62368 14.1459 6.22302C14.1515 6.92635 11.1734 7.4968 7.5 7.4968Z" fill="#5ED5A8"/>
</svg>
