<svg width="20" height="20" viewBox="0 0 20 20" fill="none" xmlns="http://www.w3.org/2000/svg">
<path d="M17.7523 3.42346L15.3445 3.45627L11.4836 7.31721C11.0896 7.71032 10.5558 7.93109 9.99922 7.93109C9.44266 7.93109 8.90883 7.71032 8.51484 7.31721L4.65391 3.45627L2.24609 3.42346L7.03047 8.20784C7.81823 8.99444 8.88597 9.43624 9.99922 9.43624C11.1125 9.43624 12.1802 8.99444 12.968 8.20784L17.7523 3.42346Z" fill="white"/>
<path d="M2.24609 16.5765L4.65391 16.5437L8.51484 12.6828C8.90883 12.2896 9.44266 12.0689 9.99922 12.0689C10.5558 12.0689 11.0896 12.2896 11.4836 12.6828L15.3445 16.5437L17.7523 16.5765L12.968 11.7921C12.1802 11.0055 11.1125 10.5637 9.99922 10.5637C8.88597 10.5637 7.81823 11.0055 7.03047 11.7921L2.24609 16.5765Z" fill="white"/>
</svg>
