<svg width="20" height="20" viewBox="0 0 20 20" fill="none" xmlns="http://www.w3.org/2000/svg">
<path d="M4.56719 10.6015C4.47904 9.84094 4.55317 9.07033 4.78468 8.34051C5.01619 7.6107 5.39981 6.93827 5.91025 6.36758C6.42069 5.7969 7.04634 5.34094 7.74592 5.02978C8.4455 4.71862 9.2031 4.55934 9.96875 4.56244C10.8714 4.56145 11.7598 4.78652 12.5531 5.21713L13.9594 4.49994C12.9453 3.76244 11.747 3.31989 10.497 3.22125C9.24705 3.12262 7.99416 3.37176 6.877 3.94109C5.75984 4.51043 4.82199 5.37776 4.16724 6.4471C3.51249 7.51643 3.16637 8.74608 3.16719 9.99994C3.16719 10.2046 3.17656 10.4078 3.19375 10.6078C3.2133 10.8012 3.17374 10.9959 3.08028 11.1664C2.98683 11.3368 2.84388 11.4749 2.67031 11.5624L2.03125 11.8749V13.4015L17.9688 5.37651V3.84994L4.56719 10.6015Z" fill="white"/>
<path d="M17.9688 6.57812L2.03125 14.6062V16.1328L15.3687 9.41406C15.3922 9.60852 15.4047 9.80414 15.4062 10C15.4066 10.9414 15.1625 11.8668 14.6978 12.6855C14.233 13.5042 13.5637 14.1882 12.7552 14.6705C11.9467 15.1528 11.0268 15.4168 10.0856 15.4368C9.1444 15.4568 8.21415 15.2319 7.38594 14.7844L5.97969 15.5016C6.93355 16.196 8.05179 16.6301 9.22436 16.7612C10.3969 16.8922 11.5834 16.7157 12.6671 16.249C13.7507 15.7823 14.6942 15.0415 15.4046 14.0995C16.115 13.1575 16.5679 12.0468 16.7188 10.8766C16.7818 10.3821 16.7912 9.88238 16.7469 9.38594C16.7299 9.1948 16.7711 9.00299 16.865 8.83568C16.959 8.66838 17.1014 8.53339 17.2734 8.44844L17.9688 8.10469V6.57812Z" fill="white"/>
</svg>
