<svg width="113" height="113" viewBox="0 0 113 113" fill="none" xmlns="http://www.w3.org/2000/svg">
<rect x="24" y="24" width="65" height="65" rx="32.5" fill="url(#paint0_angular_99_2396)" fill-opacity="0.25"/>
<g filter="url(#filter0_f_99_2396)">
<circle cx="56.5" cy="56.5" r="16.5" fill="#F2994A"/>
</g>
<circle cx="56.5" cy="56.5" r="37" stroke="url(#paint1_angular_99_2396)"/>
<path d="M69.2975 53.1246H66.7741C65.9736 50.8989 64.5063 48.9742 62.5721 47.6128C60.638 46.2514 58.331 45.5196 55.9658 45.5171H46.8123V53.1246H43.7656V55.571H46.8123V58.4291H43.7656V60.8755H46.8123V68.483H55.9658C58.331 68.4805 60.638 67.7487 62.5721 66.3873C64.5063 65.0259 65.9736 63.1012 66.7741 60.8755H69.2975V58.4291H67.3584C67.4788 57.4802 67.4788 56.5199 67.3584 55.571H69.2975V53.1246ZM49.2614 47.9688H55.9658C57.6743 47.97 59.3476 48.4549 60.7921 49.3673C62.2366 50.2797 63.3933 51.5823 64.1284 53.1246H49.2534L49.2614 47.9688ZM55.9658 66.0313H49.2614V60.8755H64.1364C63.4007 62.419 62.2427 63.7225 60.7967 64.635C59.3506 65.5474 57.6757 66.0316 55.9658 66.0313ZM64.997 57.0001C64.9967 57.4787 64.9585 57.9565 64.8828 58.4291H49.2614V55.571H64.8881C64.9638 56.0436 65.002 56.5214 65.0023 57.0001H64.997Z" fill="white"/>
<defs>
<filter id="filter0_f_99_2396" x="0" y="0" width="113" height="113" filterUnits="userSpaceOnUse" color-interpolation-filters="sRGB">
<feFlood flood-opacity="0" result="BackgroundImageFix"/>
<feBlend mode="normal" in="SourceGraphic" in2="BackgroundImageFix" result="shape"/>
<feGaussianBlur stdDeviation="20" result="effect1_foregroundBlur_99_2396"/>
</filter>
<radialGradient id="paint0_angular_99_2396" cx="0" cy="0" r="1" gradientUnits="userSpaceOnUse" gradientTransform="translate(61.5 48.5) rotate(131.576) scale(41.4397 54.419)">
<stop stop-color="#0C0028"/>
<stop offset="0.853932" stop-color="#0099EF"/>
<stop offset="1" stop-color="#0099EF" stop-opacity="0"/>
</radialGradient>
<radialGradient id="paint1_angular_99_2396" cx="0" cy="0" r="1" gradientUnits="userSpaceOnUse" gradientTransform="translate(56.5 56.5) rotate(90) scale(37.5)">
<stop offset="0.114972" stop-color="#0C0028" stop-opacity="0"/>
<stop offset="0.577126" stop-color="#0099EF"/>
</radialGradient>
</defs>
</svg>
