<svg width="113" height="113" viewBox="0 0 113 113" fill="none" xmlns="http://www.w3.org/2000/svg">
<rect x="24" y="24" width="65" height="65" rx="32.5" fill="url(#paint0_angular_99_2721)" fill-opacity="0.25"/>
<g filter="url(#filter0_f_99_2721)">
<circle cx="56.5" cy="56.5" r="16.5" fill="#F2994A"/>
</g>
<circle cx="56.5" cy="56.5" r="37" stroke="url(#paint1_angular_99_2721)"/>
<path d="M66.7085 44.8333H46.2918C45.4864 44.8333 44.8335 45.4862 44.8335 46.2916V66.7083C44.8335 67.5137 45.4864 68.1666 46.2918 68.1666H66.7085C67.5139 68.1666 68.1668 67.5137 68.1668 66.7083V46.2916C68.1668 45.4862 67.5139 44.8333 66.7085 44.8333Z" fill="#F2994A"/>
<path fill-rule="evenodd" clip-rule="evenodd" d="M43.7397 46.2916C43.7397 44.8821 44.8824 43.7395 46.2918 43.7395H66.7085C68.118 43.7395 69.2606 44.8821 69.2606 46.2916V66.7083C69.2606 68.1178 68.118 69.2603 66.7085 69.2603H46.2918C44.8824 69.2603 43.7397 68.1178 43.7397 66.7083V46.2916ZM46.2918 45.927C46.0905 45.927 45.9272 46.0902 45.9272 46.2916V66.7083C45.9272 66.9096 46.0905 67.0728 46.2918 67.0728H66.7085C66.9099 67.0728 67.0731 66.9096 67.0731 66.7083V46.2916C67.0731 46.0902 66.9099 45.927 66.7085 45.927H46.2918Z" fill="#F2994A"/>
<path d="M60.875 52.125H52.125V60.875H60.875V52.125Z" fill="#4E353E"/>
<path fill-rule="evenodd" clip-rule="evenodd" d="M51.0312 52.125C51.0312 51.5209 51.5209 51.0312 52.125 51.0312H60.875C61.4791 51.0312 61.9688 51.5209 61.9688 52.125V60.875C61.9688 61.4791 61.4791 61.9688 60.875 61.9688H52.125C51.5209 61.9688 51.0312 61.4791 51.0312 60.875V52.125ZM53.2188 53.2188V59.7812H59.7812V53.2188H53.2188Z" fill="#4E353E"/>
<path fill-rule="evenodd" clip-rule="evenodd" d="M49.8711 39.3645C50.4752 39.3645 50.9648 39.8542 50.9648 40.4583V44.8333C50.9648 45.4373 50.4752 45.927 49.8711 45.927C49.267 45.927 48.7773 45.4373 48.7773 44.8333V40.4583C48.7773 39.8542 49.267 39.3645 49.8711 39.3645Z" fill="#F2994A"/>
<path fill-rule="evenodd" clip-rule="evenodd" d="M49.8711 67.073C50.4752 67.073 50.9648 67.5627 50.9648 68.1667V72.5417C50.9648 73.1458 50.4752 73.6355 49.8711 73.6355C49.267 73.6355 48.7773 73.1458 48.7773 72.5417V68.1667C48.7773 67.5627 49.267 67.073 49.8711 67.073Z" fill="#F2994A"/>
<path fill-rule="evenodd" clip-rule="evenodd" d="M56.5 39.3645C57.1041 39.3645 57.5938 39.8542 57.5938 40.4583V44.8333C57.5938 45.4373 57.1041 45.927 56.5 45.927C55.8959 45.927 55.4062 45.4373 55.4062 44.8333V40.4583C55.4062 39.8542 55.8959 39.3645 56.5 39.3645Z" fill="#F2994A"/>
<path fill-rule="evenodd" clip-rule="evenodd" d="M56.5 67.073C57.1041 67.073 57.5938 67.5627 57.5938 68.1667V72.5417C57.5938 73.1458 57.1041 73.6355 56.5 73.6355C55.8959 73.6355 55.4062 73.1458 55.4062 72.5417V68.1667C55.4062 67.5627 55.8959 67.073 56.5 67.073Z" fill="#F2994A"/>
<path fill-rule="evenodd" clip-rule="evenodd" d="M63.1289 39.3645C63.733 39.3645 64.2227 39.8542 64.2227 40.4583V44.8333C64.2227 45.4373 63.733 45.927 63.1289 45.927C62.5248 45.927 62.0352 45.4373 62.0352 44.8333V40.4583C62.0352 39.8542 62.5248 39.3645 63.1289 39.3645Z" fill="#F2994A"/>
<path fill-rule="evenodd" clip-rule="evenodd" d="M63.1289 67.073C63.733 67.073 64.2227 67.5627 64.2227 68.1667V72.5417C64.2227 73.1458 63.733 73.6355 63.1289 73.6355C62.5248 73.6355 62.0352 73.1458 62.0352 72.5417V68.1667C62.0352 67.5627 62.5248 67.073 63.1289 67.073Z" fill="#F2994A"/>
<path fill-rule="evenodd" clip-rule="evenodd" d="M39.3647 49.8713C39.3647 49.2673 39.8544 48.7776 40.4585 48.7776H44.8335C45.4376 48.7776 45.9272 49.2673 45.9272 49.8713C45.9272 50.4754 45.4376 50.9651 44.8335 50.9651H40.4585C39.8544 50.9651 39.3647 50.4754 39.3647 49.8713Z" fill="#F2994A"/>
<path fill-rule="evenodd" clip-rule="evenodd" d="M67.0728 49.8713C67.0728 49.2673 67.5624 48.7776 68.1665 48.7776H72.5415C73.1456 48.7776 73.6353 49.2673 73.6353 49.8713C73.6353 50.4754 73.1456 50.9651 72.5415 50.9651H68.1665C67.5624 50.9651 67.0728 50.4754 67.0728 49.8713Z" fill="#F2994A"/>
<path fill-rule="evenodd" clip-rule="evenodd" d="M39.3647 56.5C39.3647 55.8959 39.8544 55.4062 40.4585 55.4062H44.8335C45.4376 55.4062 45.9272 55.8959 45.9272 56.5C45.9272 57.1041 45.4376 57.5938 44.8335 57.5938H40.4585C39.8544 57.5938 39.3647 57.1041 39.3647 56.5Z" fill="#F2994A"/>
<path fill-rule="evenodd" clip-rule="evenodd" d="M67.0728 56.5C67.0728 55.8959 67.5624 55.4062 68.1665 55.4062H72.5415C73.1456 55.4062 73.6353 55.8959 73.6353 56.5C73.6353 57.1041 73.1456 57.5938 72.5415 57.5938H68.1665C67.5624 57.5938 67.0728 57.1041 67.0728 56.5Z" fill="#F2994A"/>
<path fill-rule="evenodd" clip-rule="evenodd" d="M39.3647 63.1287C39.3647 62.5246 39.8544 62.0349 40.4585 62.0349H44.8335C45.4376 62.0349 45.9272 62.5246 45.9272 63.1287C45.9272 63.7327 45.4376 64.2224 44.8335 64.2224H40.4585C39.8544 64.2224 39.3647 63.7327 39.3647 63.1287Z" fill="#F2994A"/>
<path fill-rule="evenodd" clip-rule="evenodd" d="M67.0728 63.1287C67.0728 62.5246 67.5624 62.0349 68.1665 62.0349H72.5415C73.1456 62.0349 73.6353 62.5246 73.6353 63.1287C73.6353 63.7327 73.1456 64.2224 72.5415 64.2224H68.1665C67.5624 64.2224 67.0728 63.7327 67.0728 63.1287Z" fill="#F2994A"/>
<defs>
<filter id="filter0_f_99_2721" x="0" y="0" width="113" height="113" filterUnits="userSpaceOnUse" color-interpolation-filters="sRGB">
<feFlood flood-opacity="0" result="BackgroundImageFix"/>
<feBlend mode="normal" in="SourceGraphic" in2="BackgroundImageFix" result="shape"/>
<feGaussianBlur stdDeviation="20" result="effect1_foregroundBlur_99_2721"/>
</filter>
<radialGradient id="paint0_angular_99_2721" cx="0" cy="0" r="1" gradientUnits="userSpaceOnUse" gradientTransform="translate(69 43.5) rotate(134.193) scale(50.2096 65.9356)">
<stop stop-color="#0C0028"/>
<stop offset="0.853932" stop-color="#0099EF"/>
<stop offset="1" stop-color="#0099EF" stop-opacity="0"/>
</radialGradient>
<radialGradient id="paint1_angular_99_2721" cx="0" cy="0" r="1" gradientUnits="userSpaceOnUse" gradientTransform="translate(56.5 56.5) rotate(90) scale(37.5)">
<stop offset="0.114972" stop-color="#0C0028" stop-opacity="0"/>
<stop offset="0.577126" stop-color="#0099EF"/>
</radialGradient>
</defs>
</svg>
