<svg width="24" height="24" viewBox="0 0 24 24" fill="none" xmlns="http://www.w3.org/2000/svg">
<path fill-rule="evenodd" clip-rule="evenodd" d="M15.25 8C15.25 7.58579 15.5858 7.25 16 7.25H20.5C21.4665 7.25 22.25 8.03349 22.25 9V20.5C22.25 21.4665 21.4665 22.25 20.5 22.25H9C8.03349 22.25 7.25 21.4665 7.25 20.5V16C7.25 15.5858 7.58579 15.25 8 15.25C8.41421 15.25 8.75 15.5858 8.75 16V20.5C8.75 20.6381 8.86191 20.75 9 20.75H20.5C20.6381 20.75 20.75 20.6381 20.75 20.5V9C20.75 8.86191 20.6381 8.75 20.5 8.75H16C15.5858 8.75 15.25 8.41421 15.25 8Z" fill="#F2994A"/>
<path fill-rule="evenodd" clip-rule="evenodd" d="M3.5 3.25C3.36193 3.25 3.25 3.36193 3.25 3.5V15C3.25 15.1381 3.36193 15.25 3.5 15.25H15C15.1381 15.25 15.25 15.1381 15.25 15V3.5C15.25 3.36193 15.1381 3.25 15 3.25H3.5ZM1.75 3.5C1.75 2.5335 2.5335 1.75 3.5 1.75H15C15.9665 1.75 16.75 2.5335 16.75 3.5V15C16.75 15.9665 15.9665 16.75 15 16.75H3.5C2.5335 16.75 1.75 15.9665 1.75 15V3.5Z" fill="#F2994A"/>
<path fill-rule="evenodd" clip-rule="evenodd" d="M9.51034 1.95041C9.81388 2.23226 9.83145 2.70681 9.5496 3.01034L3.0496 10.0103C2.76775 10.3139 2.2932 10.3315 1.98966 10.0496C1.68613 9.76775 1.66856 9.2932 1.95041 8.98967L8.45041 1.98966C8.73226 1.68613 9.20681 1.66856 9.51034 1.95041Z" fill="#F2994A"/>
<path fill-rule="evenodd" clip-rule="evenodd" d="M14.0068 1.94714C14.3121 2.22703 14.3328 2.70146 14.0529 3.0068L3.05287 15.0068C2.77298 15.3121 2.29855 15.3328 1.99321 15.0529C1.68787 14.773 1.66724 14.2986 1.94714 13.9932L12.9471 1.99321C13.227 1.68787 13.7015 1.66724 14.0068 1.94714Z" fill="#F2994A"/>
<path fill-rule="evenodd" clip-rule="evenodd" d="M16.5045 4.44505C16.811 4.72368 16.8336 5.19802 16.555 5.50451L6.55496 16.5045C6.27633 16.811 5.80199 16.8336 5.4955 16.555C5.18901 16.2763 5.16642 15.802 5.44505 15.4955L15.4451 4.4955C15.7237 4.18901 16.198 4.16642 16.5045 4.44505Z" fill="#F2994A"/>
<path fill-rule="evenodd" clip-rule="evenodd" d="M16.5045 9.94505C16.811 10.2237 16.8336 10.698 16.555 11.0045L11.555 16.5045C11.2763 16.811 10.802 16.8336 10.4955 16.555C10.189 16.2763 10.1664 15.802 10.4451 15.4955L15.4451 9.9955C15.7237 9.68901 16.198 9.66642 16.5045 9.94505Z" fill="#F2994A"/>
</svg>
