<svg width="30" height="30" viewBox="0 0 30 30" fill="none" xmlns="http://www.w3.org/2000/svg">
<path d="M15 1.5625C7.57867 1.5625 1.5625 7.57867 1.5625 15C1.5625 22.4213 7.57867 28.4375 15 28.4375C22.4213 28.4375 28.4375 22.4213 28.4375 15C28.4375 7.57867 22.4213 1.5625 15 1.5625ZM15 9.0625C15.5178 9.0625 15.9375 9.48223 15.9375 10V14.0625H20C20.5178 14.0625 20.9375 14.4822 20.9375 15C20.9375 15.5178 20.5178 15.9375 20 15.9375H15.9375V20C15.9375 20.5178 15.5178 20.9375 15 20.9375C14.4822 20.9375 14.0625 20.5178 14.0625 20V15.9375H10C9.48223 15.9375 9.0625 15.5178 9.0625 15C9.0625 14.4822 9.48223 14.0625 10 14.0625H14.0625V10C14.0625 9.48223 14.4822 9.0625 15 9.0625Z" fill="#413E4A"/>
</svg>
