<svg width="113" height="113" viewBox="0 0 113 113" fill="none" xmlns="http://www.w3.org/2000/svg">
<rect x="24" y="24" width="65" height="65" rx="32.5" fill="url(#paint0_angular_99_2533)" fill-opacity="0.25"/>
<g filter="url(#filter0_f_99_2533)">
<circle cx="56.5" cy="56.5" r="16.5" fill="#F2994A"/>
</g>
<circle cx="56.5" cy="56.5" r="37" stroke="url(#paint1_angular_99_2533)"/>
<path d="M44.5234 56.4492V61.0781C44.5234 62.0781 44.6328 62.6992 44.8516 62.9414C45.1484 63.2852 45.5977 63.457 46.1992 63.457H46.8086V63.8906H40V63.457H40.5977C41.2695 63.457 41.75 63.2383 42.0391 62.8008C42.1953 62.5586 42.2734 61.9844 42.2734 61.0781V50.8125C42.2734 49.8125 42.168 49.1914 41.957 48.9492C41.6523 48.6055 41.1992 48.4336 40.5977 48.4336H40V48H45.8242C47.2461 48 48.3672 48.1484 49.1875 48.4453C50.0078 48.7344 50.6992 49.2266 51.2617 49.9219C51.8242 50.6172 52.1055 51.4414 52.1055 52.3945C52.1055 53.6914 51.6758 54.7461 50.8164 55.5586C49.9648 56.3711 48.7578 56.7773 47.1953 56.7773C46.8125 56.7773 46.3984 56.75 45.9531 56.6953C45.5078 56.6406 45.0312 56.5586 44.5234 56.4492ZM44.5234 55.7812C44.9375 55.8594 45.3047 55.918 45.625 55.957C45.9453 55.9961 46.2188 56.0156 46.4453 56.0156C47.2578 56.0156 47.957 55.7031 48.543 55.0781C49.1367 54.4453 49.4336 53.6289 49.4336 52.6289C49.4336 51.9414 49.293 51.3047 49.0117 50.7188C48.7305 50.125 48.332 49.6836 47.8164 49.3945C47.3008 49.0977 46.7148 48.9492 46.0586 48.9492C45.6602 48.9492 45.1484 49.0234 44.5234 49.1719V55.7812Z" fill="white"/>
<path d="M62.7812 63.8906L56.6406 50.5195V61.1367C56.6406 62.1133 56.7461 62.7227 56.957 62.9648C57.2461 63.293 57.7031 63.457 58.3281 63.457H58.8906V63.8906H53.3594V63.457H53.9219C54.5938 63.457 55.0703 63.2539 55.3516 62.8477C55.5234 62.5977 55.6094 62.0273 55.6094 61.1367V50.7539C55.6094 50.0508 55.5312 49.543 55.375 49.2305C55.2656 49.0039 55.0625 48.8164 54.7656 48.668C54.4766 48.5117 54.0078 48.4336 53.3594 48.4336V48H57.8594L63.625 60.4336L69.2969 48H73.7969V48.4336H73.2461C72.5664 48.4336 72.0859 48.6367 71.8047 49.043C71.6328 49.293 71.5469 49.8633 71.5469 50.7539V61.1367C71.5469 62.1133 71.6562 62.7227 71.875 62.9648C72.1641 63.293 72.6211 63.457 73.2461 63.457H73.7969V63.8906H67.0469V63.457H67.6094C68.2891 63.457 68.7656 63.2539 69.0391 62.8477C69.2109 62.5977 69.2969 62.0273 69.2969 61.1367V50.5195L63.168 63.8906H62.7812Z" fill="white"/>
<defs>
<filter id="filter0_f_99_2533" x="0" y="0" width="113" height="113" filterUnits="userSpaceOnUse" color-interpolation-filters="sRGB">
<feFlood flood-opacity="0" result="BackgroundImageFix"/>
<feBlend mode="normal" in="SourceGraphic" in2="BackgroundImageFix" result="shape"/>
<feGaussianBlur stdDeviation="20" result="effect1_foregroundBlur_99_2533"/>
</filter>
<radialGradient id="paint0_angular_99_2533" cx="0" cy="0" r="1" gradientUnits="userSpaceOnUse" gradientTransform="translate(60 49) rotate(130.446) scale(40.0781 52.6308)">
<stop stop-color="#0C0028"/>
<stop offset="0.853932" stop-color="#0099EF"/>
<stop offset="1" stop-color="#0099EF" stop-opacity="0"/>
</radialGradient>
<radialGradient id="paint1_angular_99_2533" cx="0" cy="0" r="1" gradientUnits="userSpaceOnUse" gradientTransform="translate(56.5 56.5) rotate(90) scale(37.5)">
<stop offset="0.114972" stop-color="#0C0028" stop-opacity="0"/>
<stop offset="0.577126" stop-color="#0099EF"/>
</radialGradient>
</defs>
</svg>
