<svg width="75" height="75" viewBox="0 0 75 75" fill="none" xmlns="http://www.w3.org/2000/svg">
<rect x="5" y="5" width="65" height="65" rx="32.5" fill="url(#paint0_angular_99_2721)" fill-opacity="0.25"/>
<g filter="url(#filter0_f_99_2721)">
<circle cx="37.5" cy="37.5" r="16.5" fill="#F2994A"/>
</g>
<circle cx="37.5" cy="37.5" r="37" stroke="url(#paint1_angular_99_2721)"/>
<path d="M47.7085 25.8333H27.2918C26.4864 25.8333 25.8335 26.4862 25.8335 27.2916V47.7083C25.8335 48.5137 26.4864 49.1666 27.2918 49.1666H47.7085C48.5139 49.1666 49.1668 48.5137 49.1668 47.7083V27.2916C49.1668 26.4862 48.5139 25.8333 47.7085 25.8333Z" fill="#F2994A"/>
<path fill-rule="evenodd" clip-rule="evenodd" d="M24.7397 27.2916C24.7397 25.8821 25.8824 24.7395 27.2918 24.7395H47.7085C49.118 24.7395 50.2606 25.8821 50.2606 27.2916V47.7083C50.2606 49.1177 49.118 50.2603 47.7085 50.2603H27.2918C25.8824 50.2603 24.7397 49.1178 24.7397 47.7083V27.2916ZM27.2918 26.927C27.0905 26.927 26.9272 27.0902 26.9272 27.2916V47.7083C26.9272 47.9096 27.0905 48.0728 27.2918 48.0728H47.7085C47.9099 48.0728 48.0731 47.9096 48.0731 47.7083V27.2916C48.0731 27.0902 47.9099 26.927 47.7085 26.927H27.2918Z" fill="#F2994A"/>
<path d="M41.875 33.125H33.125V41.875H41.875V33.125Z" fill="#4E353E"/>
<path fill-rule="evenodd" clip-rule="evenodd" d="M32.0312 33.125C32.0312 32.5209 32.5209 32.0312 33.125 32.0312H41.875C42.4791 32.0312 42.9688 32.5209 42.9688 33.125V41.875C42.9688 42.4791 42.4791 42.9688 41.875 42.9688H33.125C32.5209 42.9688 32.0312 42.4791 32.0312 41.875V33.125ZM34.2188 34.2188V40.7813H40.7813V34.2188H34.2188Z" fill="#4E353E"/>
<path fill-rule="evenodd" clip-rule="evenodd" d="M30.8711 20.3645C31.4752 20.3645 31.9648 20.8542 31.9648 21.4583V25.8333C31.9648 26.4373 31.4752 26.927 30.8711 26.927C30.267 26.927 29.7773 26.4373 29.7773 25.8333V21.4583C29.7773 20.8542 30.267 20.3645 30.8711 20.3645Z" fill="#F2994A"/>
<path fill-rule="evenodd" clip-rule="evenodd" d="M30.8711 48.073C31.4752 48.073 31.9648 48.5627 31.9648 49.1667V53.5417C31.9648 54.1458 31.4752 54.6355 30.8711 54.6355C30.267 54.6355 29.7773 54.1458 29.7773 53.5417V49.1667C29.7773 48.5627 30.267 48.073 30.8711 48.073Z" fill="#F2994A"/>
<path fill-rule="evenodd" clip-rule="evenodd" d="M37.5 20.3645C38.1041 20.3645 38.5938 20.8542 38.5938 21.4583V25.8333C38.5938 26.4373 38.1041 26.927 37.5 26.927C36.8959 26.927 36.4062 26.4373 36.4062 25.8333V21.4583C36.4062 20.8542 36.8959 20.3645 37.5 20.3645Z" fill="#F2994A"/>
<path fill-rule="evenodd" clip-rule="evenodd" d="M37.5 48.073C38.1041 48.073 38.5938 48.5627 38.5938 49.1667V53.5417C38.5938 54.1458 38.1041 54.6355 37.5 54.6355C36.8959 54.6355 36.4062 54.1458 36.4062 53.5417V49.1667C36.4062 48.5627 36.8959 48.073 37.5 48.073Z" fill="#F2994A"/>
<path fill-rule="evenodd" clip-rule="evenodd" d="M44.1289 20.3645C44.733 20.3645 45.2227 20.8542 45.2227 21.4583V25.8333C45.2227 26.4373 44.733 26.927 44.1289 26.927C43.5248 26.927 43.0352 26.4373 43.0352 25.8333V21.4583C43.0352 20.8542 43.5248 20.3645 44.1289 20.3645Z" fill="#F2994A"/>
<path fill-rule="evenodd" clip-rule="evenodd" d="M44.1289 48.073C44.733 48.073 45.2227 48.5627 45.2227 49.1667V53.5417C45.2227 54.1458 44.733 54.6355 44.1289 54.6355C43.5248 54.6355 43.0352 54.1458 43.0352 53.5417V49.1667C43.0352 48.5627 43.5248 48.073 44.1289 48.073Z" fill="#F2994A"/>
<path fill-rule="evenodd" clip-rule="evenodd" d="M20.3647 30.8713C20.3647 30.2673 20.8544 29.7776 21.4585 29.7776H25.8335C26.4376 29.7776 26.9272 30.2673 26.9272 30.8713C26.9272 31.4754 26.4376 31.9651 25.8335 31.9651H21.4585C20.8544 31.9651 20.3647 31.4754 20.3647 30.8713Z" fill="#F2994A"/>
<path fill-rule="evenodd" clip-rule="evenodd" d="M48.0728 30.8713C48.0728 30.2673 48.5624 29.7776 49.1665 29.7776H53.5415C54.1456 29.7776 54.6353 30.2673 54.6353 30.8713C54.6353 31.4754 54.1456 31.9651 53.5415 31.9651H49.1665C48.5624 31.9651 48.0728 31.4754 48.0728 30.8713Z" fill="#F2994A"/>
<path fill-rule="evenodd" clip-rule="evenodd" d="M20.3647 37.5C20.3647 36.8959 20.8544 36.4062 21.4585 36.4062H25.8335C26.4376 36.4062 26.9272 36.8959 26.9272 37.5C26.9272 38.1041 26.4376 38.5938 25.8335 38.5938H21.4585C20.8544 38.5938 20.3647 38.1041 20.3647 37.5Z" fill="#F2994A"/>
<path fill-rule="evenodd" clip-rule="evenodd" d="M48.0728 37.5C48.0728 36.8959 48.5624 36.4062 49.1665 36.4062H53.5415C54.1456 36.4062 54.6353 36.8959 54.6353 37.5C54.6353 38.1041 54.1456 38.5938 53.5415 38.5938H49.1665C48.5624 38.5938 48.0728 38.1041 48.0728 37.5Z" fill="#F2994A"/>
<path fill-rule="evenodd" clip-rule="evenodd" d="M20.3647 44.1287C20.3647 43.5246 20.8544 43.0349 21.4585 43.0349H25.8335C26.4376 43.0349 26.9272 43.5246 26.9272 44.1287C26.9272 44.7327 26.4376 45.2224 25.8335 45.2224H21.4585C20.8544 45.2224 20.3647 44.7327 20.3647 44.1287Z" fill="#F2994A"/>
<path fill-rule="evenodd" clip-rule="evenodd" d="M48.0728 44.1287C48.0728 43.5246 48.5624 43.0349 49.1665 43.0349H53.5415C54.1456 43.0349 54.6353 43.5246 54.6353 44.1287C54.6353 44.7327 54.1456 45.2224 53.5415 45.2224H49.1665C48.5624 45.2224 48.0728 44.7327 48.0728 44.1287Z" fill="#F2994A"/>
<defs>
<filter id="filter0_f_99_2721" x="1" y="1" width="73" height="73" filterUnits="userSpaceOnUse" color-interpolation-filters="sRGB">
<feFlood flood-opacity="0" result="BackgroundImageFix"/>
<feBlend mode="normal" in="SourceGraphic" in2="BackgroundImageFix" result="shape"/>
<feGaussianBlur stdDeviation="10" result="effect1_foregroundBlur_99_2721"/>
</filter>
<radialGradient id="paint0_angular_99_2721" cx="0" cy="0" r="1" gradientUnits="userSpaceOnUse" gradientTransform="translate(50 24.5) rotate(134.193) scale(50.2096 65.9356)">
<stop stop-color="#0C0028"/>
<stop offset="0.853932" stop-color="#0099EF"/>
<stop offset="1" stop-color="#0099EF" stop-opacity="0"/>
</radialGradient>
<radialGradient id="paint1_angular_99_2721" cx="0" cy="0" r="1" gradientUnits="userSpaceOnUse" gradientTransform="translate(37.5 37.5) rotate(90) scale(37.5)">
<stop offset="0.114972" stop-color="#0C0028" stop-opacity="0"/>
<stop offset="0.577126" stop-color="#0099EF"/>
</radialGradient>
</defs>
</svg>
