<svg width="75" height="75" viewBox="0 0 75 75" fill="none" xmlns="http://www.w3.org/2000/svg">
<rect x="5" y="5" width="65" height="65" rx="32.5" fill="url(#paint0_angular_99_2718)" fill-opacity="0.25"/>
<g filter="url(#filter0_f_99_2718)">
<circle cx="37.5" cy="37.5" r="16.5" fill="#F2994A"/>
</g>
<circle cx="37.5" cy="37.5" r="37" stroke="url(#paint1_angular_99_2718)"/>
<path d="M46.9792 22.9167H28.0208C27.2154 22.9167 26.5625 23.5697 26.5625 24.3751V50.6251C26.5625 51.4305 27.2154 52.0834 28.0208 52.0834H46.9792C47.7846 52.0834 48.4375 51.4305 48.4375 50.6251V24.3751C48.4375 23.5697 47.7846 22.9167 46.9792 22.9167Z" fill="#F2994A"/>
<path fill-rule="evenodd" clip-rule="evenodd" d="M28.0208 24.0105C27.8195 24.0105 27.6563 24.1737 27.6563 24.3751V50.6251C27.6563 50.8264 27.8195 50.9897 28.0208 50.9897H46.9792C47.1805 50.9897 47.3438 50.8264 47.3438 50.6251V24.3751C47.3438 24.1737 47.1805 24.0105 46.9792 24.0105H28.0208ZM25.4688 24.3751C25.4688 22.9656 26.6114 21.823 28.0208 21.823H46.9792C48.3886 21.823 49.5313 22.9656 49.5313 24.3751V50.6251C49.5313 52.0346 48.3886 53.1772 46.9792 53.1772H28.0208C26.6114 53.1772 25.4688 52.0346 25.4688 50.6251V24.3751Z" fill="#F2994A"/>
<path d="M43.3333 28.7499C44.1387 28.7499 44.7917 28.097 44.7917 27.2916C44.7917 26.4862 44.1387 25.8333 43.3333 25.8333C42.5279 25.8333 41.875 26.4862 41.875 27.2916C41.875 28.097 42.5279 28.7499 43.3333 28.7499Z" fill="#4F404A"/>
<path d="M31.6668 28.7499C32.4722 28.7499 33.1252 28.097 33.1252 27.2916C33.1252 26.4862 32.4722 25.8333 31.6668 25.8333C30.8614 25.8333 30.2085 26.4862 30.2085 27.2916C30.2085 28.097 30.8614 28.7499 31.6668 28.7499Z" fill="#4F404A"/>
<path d="M43.3333 49.1667C44.1387 49.1667 44.7917 48.5137 44.7917 47.7083C44.7917 46.9029 44.1387 46.25 43.3333 46.25C42.5279 46.25 41.875 46.9029 41.875 47.7083C41.875 48.5137 42.5279 49.1667 43.3333 49.1667Z" fill="#4F404A"/>
<path d="M31.6668 49.1667C32.4722 49.1667 33.1252 48.5137 33.1252 47.7083C33.1252 46.9029 32.4722 46.25 31.6668 46.25C30.8614 46.25 30.2085 46.9029 30.2085 47.7083C30.2085 48.5137 30.8614 49.1667 31.6668 49.1667Z" fill="#4F404A"/>
<path fill-rule="evenodd" clip-rule="evenodd" d="M30.5728 36.0416C30.5728 32.2158 33.6741 29.1145 37.4998 29.1145C41.3256 29.1145 44.4269 32.2158 44.4269 36.0416C44.4269 39.8673 41.3256 42.9687 37.4998 42.9687C36.8958 42.9687 36.4061 42.479 36.4061 41.8749C36.4061 41.2709 36.8958 40.7812 37.4998 40.7812C40.1175 40.7812 42.2394 38.6592 42.2394 36.0416C42.2394 33.424 40.1175 31.302 37.4998 31.302C34.8822 31.302 32.7603 33.424 32.7603 36.0416C32.7603 36.6456 32.2706 37.1353 31.6665 37.1353C31.0624 37.1353 30.5728 36.6456 30.5728 36.0416Z" fill="#4F404A"/>
<path fill-rule="evenodd" clip-rule="evenodd" d="M38.2734 35.2683C38.7005 35.6955 38.7005 36.388 38.2734 36.8151L33.8984 41.1901C33.4713 41.6173 32.7787 41.6173 32.3516 41.1901C31.9245 40.763 31.9245 40.0705 32.3516 39.6433L36.7266 35.2683C37.1537 34.8412 37.8463 34.8412 38.2734 35.2683Z" fill="#4F404A"/>
<defs>
<filter id="filter0_f_99_2718" x="1" y="1" width="73" height="73" filterUnits="userSpaceOnUse" color-interpolation-filters="sRGB">
<feFlood flood-opacity="0" result="BackgroundImageFix"/>
<feBlend mode="normal" in="SourceGraphic" in2="BackgroundImageFix" result="shape"/>
<feGaussianBlur stdDeviation="10" result="effect1_foregroundBlur_99_2718"/>
</filter>
<radialGradient id="paint0_angular_99_2718" cx="0" cy="0" r="1" gradientUnits="userSpaceOnUse" gradientTransform="translate(50 24.5) rotate(134.193) scale(50.2096 65.9356)">
<stop stop-color="#0C0028"/>
<stop offset="0.853932" stop-color="#0099EF"/>
<stop offset="1" stop-color="#0099EF" stop-opacity="0"/>
</radialGradient>
<radialGradient id="paint1_angular_99_2718" cx="0" cy="0" r="1" gradientUnits="userSpaceOnUse" gradientTransform="translate(37.5 37.5) rotate(90) scale(37.5)">
<stop offset="0.114972" stop-color="#0C0028" stop-opacity="0"/>
<stop offset="0.577126" stop-color="#0099EF"/>
</radialGradient>
</defs>
</svg>
