<svg width="113" height="113" viewBox="0 0 113 113" fill="none" xmlns="http://www.w3.org/2000/svg">
<rect x="24" y="24" width="65" height="65" rx="32.5" fill="url(#paint0_angular_99_2388)" fill-opacity="0.25"/>
<g filter="url(#filter0_f_99_2388)">
<circle cx="56.5" cy="56.5" r="16.5" fill="#F2994A"/>
</g>
<circle cx="56.5" cy="56.5" r="37" stroke="url(#paint1_angular_99_2388)"/>
<path d="M56.983 67.9517H45.7949L46.6476 63.4361H55.469C62.4284 63.4361 62.8215 58.9204 63.2996 55.2362C63.7034 52.2426 62.0326 50.5771 57.8384 50.5771H48.9213L49.6943 46.0615H59.9527C67.9215 46.0615 68.7662 50.957 68.7662 53.0607V54.0675C68.7662 60.4664 65.6796 67.9517 56.983 67.9517Z" fill="white"/>
<path d="M52.3156 59.2552H41.7969L42.4875 56.6707C42.6353 56.1129 42.9635 55.6197 43.4209 55.268C43.8783 54.9163 44.4392 54.7258 45.0162 54.7263H55.535L54.8444 57.3135C54.6953 57.8703 54.3667 58.3624 53.9095 58.7135C53.4523 59.0645 52.8921 59.255 52.3156 59.2552Z" fill="white"/>
<defs>
<filter id="filter0_f_99_2388" x="0" y="0" width="113" height="113" filterUnits="userSpaceOnUse" color-interpolation-filters="sRGB">
<feFlood flood-opacity="0" result="BackgroundImageFix"/>
<feBlend mode="normal" in="SourceGraphic" in2="BackgroundImageFix" result="shape"/>
<feGaussianBlur stdDeviation="20" result="effect1_foregroundBlur_99_2388"/>
</filter>
<radialGradient id="paint0_angular_99_2388" cx="0" cy="0" r="1" gradientUnits="userSpaceOnUse" gradientTransform="translate(61.5 48.5) rotate(131.576) scale(41.4397 54.419)">
<stop stop-color="#0C0028"/>
<stop offset="0.853932" stop-color="#0099EF"/>
<stop offset="1" stop-color="#0099EF" stop-opacity="0"/>
</radialGradient>
<radialGradient id="paint1_angular_99_2388" cx="0" cy="0" r="1" gradientUnits="userSpaceOnUse" gradientTransform="translate(56.5 56.5) rotate(90) scale(37.5)">
<stop offset="0.114972" stop-color="#0C0028" stop-opacity="0"/>
<stop offset="0.577126" stop-color="#0099EF"/>
</radialGradient>
</defs>
</svg>
