<svg width="24" height="24" viewBox="0 0 24 24" fill="none" xmlns="http://www.w3.org/2000/svg">
<path fill-rule="evenodd" clip-rule="evenodd" d="M5.25 13.5C5.25 10.8766 7.37664 8.75 10 8.75H15C15.4142 8.75 15.75 9.08579 15.75 9.5C15.75 9.91421 15.4142 10.25 15 10.25H10C8.20506 10.25 6.75 11.7051 6.75 13.5C6.75 15.2949 8.20506 16.75 10 16.75H18C19.7949 16.75 21.25 15.2949 21.25 13.5C21.25 12.6752 20.9438 11.9238 20.4377 11.3505C20.1636 11.04 20.1931 10.566 20.5037 10.2919C20.8142 10.0178 21.2882 10.0473 21.5623 10.3579C22.3009 11.1948 22.75 12.2959 22.75 13.5C22.75 16.1234 20.6234 18.25 18 18.25H10C7.37664 18.25 5.25 16.1234 5.25 13.5Z" fill="#F2994A"/>
<path fill-rule="evenodd" clip-rule="evenodd" d="M6 6.25C4.20507 6.25 2.75 7.70506 2.75 9.5C2.75 10.3248 3.05623 11.0762 3.56229 11.6495C3.8364 11.96 3.80686 12.434 3.49631 12.7081C3.18577 12.9822 2.71181 12.9527 2.43771 12.6421C1.69904 11.8052 1.25 10.7041 1.25 9.5C1.25 6.87664 3.37665 4.75 6 4.75H14C16.6234 4.75 18.75 6.87664 18.75 9.5C18.75 12.1234 16.6234 14.25 14 14.25H9C8.58579 14.25 8.25 13.9142 8.25 13.5C8.25 13.0858 8.58579 12.75 9 12.75H14C15.7949 12.75 17.25 11.2949 17.25 9.5C17.25 7.70506 15.7949 6.25 14 6.25H6Z" fill="#F2994A"/>
</svg>
