<svg width="113" height="113" viewBox="0 0 113 113" fill="none" xmlns="http://www.w3.org/2000/svg">
<rect x="24" y="24" width="65" height="65" rx="32.5" fill="url(#paint0_angular_99_2530)" fill-opacity="0.25"/>
<circle cx="56.5" cy="56.5" r="37" stroke="url(#paint1_angular_99_2530)"/>
<g filter="url(#filter0_f_99_2530)">
<circle cx="56.5" cy="56.5" r="16.5" fill="#F2994A"/>
</g>
<path d="M59.7053 51.9843V48.8871H66.7045V44H47.2758V48.8871H54.2947V51.9843C48.4145 52.269 44 53.4574 44 54.881C44 56.3045 48.4096 57.4855 54.2947 57.7776V68H59.7053V57.7776C65.5855 57.4954 70 56.307 70 54.881C70 53.4549 65.5904 52.269 59.7053 51.9843ZM57 56.8517C50.6328 56.8517 45.4707 55.8614 45.4707 54.668C45.4707 53.6406 49.231 52.779 54.2898 52.5488V56.047C55.1604 56.0867 56.0655 56.1089 56.9951 56.1089C57.9247 56.1089 58.8347 56.0867 59.7003 56.047V52.5488C64.7592 52.779 68.5195 53.6406 68.5195 54.668C68.5293 55.8737 63.3672 56.8517 57 56.8517Z" fill="white"/>
<defs>
<filter id="filter0_f_99_2530" x="0" y="0" width="113" height="113" filterUnits="userSpaceOnUse" color-interpolation-filters="sRGB">
<feFlood flood-opacity="0" result="BackgroundImageFix"/>
<feBlend mode="normal" in="SourceGraphic" in2="BackgroundImageFix" result="shape"/>
<feGaussianBlur stdDeviation="20" result="effect1_foregroundBlur_99_2530"/>
</filter>
<radialGradient id="paint0_angular_99_2530" cx="0" cy="0" r="1" gradientUnits="userSpaceOnUse" gradientTransform="translate(60 49) rotate(130.446) scale(40.0781 52.6308)">
<stop stop-color="#0C0028"/>
<stop offset="0.853932" stop-color="#0099EF"/>
<stop offset="1" stop-color="#0099EF" stop-opacity="0"/>
</radialGradient>
<radialGradient id="paint1_angular_99_2530" cx="0" cy="0" r="1" gradientUnits="userSpaceOnUse" gradientTransform="translate(56.5 56.5) rotate(90) scale(37.5)">
<stop offset="0.114972" stop-color="#0C0028" stop-opacity="0"/>
<stop offset="0.577126" stop-color="#0099EF"/>
</radialGradient>
</defs>
</svg>
