<svg width="62" height="62" viewBox="0 0 62 62" fill="none" xmlns="http://www.w3.org/2000/svg">
<rect x="-4.7832" y="8.20459" width="60" height="60" rx="30" transform="rotate(-12.5003 -4.7832 8.20459)" fill="#FFA800"/>
<path d="M41.1725 33.3702C40.1866 31.2387 37.7487 30.3967 37.7487 30.3967C37.7487 30.3967 40.8208 28.8193 40.1467 25.7232C39.7124 23.7035 37.8819 21.6732 34.474 21.6226V18.6917H31.4392V21.6226H29.2303V18.6917H26.1982V21.6226H22.3906V24.3883H24.1492C24.2437 24.3883 24.3372 24.4069 24.4245 24.4431C24.5118 24.4792 24.5911 24.5322 24.6579 24.599C24.7247 24.6658 24.7777 24.7451 24.8138 24.8324C24.85 24.9197 24.8686 25.0132 24.8686 25.1077V37.0445C24.8686 37.2565 24.7844 37.4599 24.6345 37.6098C24.4846 37.7597 24.2812 37.8439 24.0692 37.8439H23.0221L22.3906 40.8201H26.1982V43.9509H29.2303V40.8201H31.4392V43.9509H34.4713V40.8201H35.0575C40.9274 40.8201 42.5047 36.3038 41.1725 33.3702ZM32.3185 24.3883C33.8612 24.3883 35.292 25.3821 35.332 26.9062C35.3719 28.4303 34.109 29.7466 32.433 29.7679C30.8903 29.7865 29.2357 29.7679 29.2357 29.7679V24.3883C29.2357 24.3883 30.7011 24.3883 32.3185 24.3883ZM33.2244 37.8359C31.6257 37.8652 29.2277 37.8359 29.2277 37.8359V32.2405C29.2277 32.2405 31.4418 32.2725 33.0938 32.2405C35.0815 32.2085 36.5443 33.1358 36.5576 34.8863C36.571 36.6369 35.3799 37.8013 33.2244 37.8412V37.8359Z" fill="white"/>
</svg>
