<svg width="60" height="60" viewBox="0 0 60 60" fill="none" xmlns="http://www.w3.org/2000/svg">
<rect width="60" height="60" rx="30" fill="white"/>
<path d="M43.536 19.1011L39.43 19.157L32.8461 25.7409C32.1743 26.4113 31.2639 26.7878 30.3149 26.7878C29.3658 26.7878 28.4555 26.4113 27.7836 25.7409L21.1997 19.157L17.0938 19.1011L25.2524 27.2597C26.5957 28.6011 28.4165 29.3545 30.3149 29.3545C32.2132 29.3545 34.034 28.6011 35.3774 27.2597L43.536 19.1011Z" fill="black"/>
<path d="M17.0938 41.5305L21.1997 41.4745L27.7836 34.8906C28.4555 34.2203 29.3658 33.8438 30.3149 33.8438C31.2639 33.8438 32.1743 34.2203 32.8461 34.8906L39.43 41.4745L43.536 41.5305L35.3774 33.3719C34.034 32.0305 32.2132 31.2771 30.3149 31.2771C28.4165 31.2771 26.5957 32.0305 25.2524 33.3719L17.0938 41.5305Z" fill="black"/>
</svg>
