<svg width="160" height="50" viewBox="0 0 160 50" fill="none" xmlns="http://www.w3.org/2000/svg">
<path d="M25 29.6876C25.8629 29.6876 26.5625 30.3871 26.5625 31.2501V45.8334C26.5625 46.6964 25.8629 47.3959 25 47.3959C24.1371 47.3959 23.4375 46.6964 23.4375 45.8334V31.2501C23.4375 30.3871 24.1371 29.6876 25 29.6876Z" fill="#F2994A"/>
<path d="M26.2003 3.16646L25 4.16675L23.7997 3.16646C24.0965 2.81022 24.5363 2.60425 25 2.60425C25.4637 2.60425 25.9035 2.81022 26.2003 3.16646ZM31.7616 22.9623C31.6413 16.4897 30.362 11.6718 29.0549 8.40416C28.3691 6.68961 27.6776 5.40665 27.1464 4.53903C26.8808 4.10529 26.6554 3.77544 26.4908 3.5474C26.4085 3.43338 26.3415 3.3448 26.2922 3.2814C26.2676 3.24971 26.2474 3.2243 26.232 3.20515L26.2125 3.18113L26.2055 3.17262L26.2027 3.16925C26.2021 3.16858 26.2003 3.16646 25 4.16675C23.7997 3.16646 23.8002 3.16579 23.7997 3.16646L23.7945 3.17262L23.7875 3.18113L23.768 3.20515C23.7526 3.2243 23.7324 3.24971 23.7078 3.2814C23.6585 3.3448 23.5915 3.43338 23.5092 3.5474C23.3446 3.77544 23.1192 4.10529 22.8536 4.53903C22.3224 5.40665 21.6309 6.68961 20.9451 8.40416C19.6435 11.6582 18.3693 16.4497 18.2399 22.8816C12.714 25.1256 8.67112 28.7145 5.98556 31.7837C4.55863 33.4144 3.5037 34.9111 2.80216 36.0062C2.45107 36.5542 2.18754 37.0032 2.00934 37.32C1.92021 37.4784 1.85235 37.604 1.80548 37.6925C1.78205 37.7367 1.76385 37.7717 1.75086 37.797L1.73527 37.8275L1.73039 37.8371L1.72868 37.8405C1.7284 37.8411 1.72746 37.843 3.125 38.5417L1.72746 37.843C1.48528 38.3273 1.51116 38.9025 1.79586 39.3632C2.08056 39.8239 2.58347 40.1042 3.125 40.1042V38.5417C3.125 40.1042 3.1244 40.1042 3.125 40.1042H3.12761L3.13137 40.1042L3.14232 40.1042L3.17775 40.1039C3.20732 40.1036 3.24875 40.103 3.30154 40.1018C3.40711 40.0996 3.5582 40.0951 3.75097 40.0864C4.1364 40.069 4.6891 40.0345 5.37818 39.9665C6.75513 39.8305 8.68376 39.5595 10.915 39.0186C15.0562 38.0147 20.3086 36.064 25 32.2578C29.6914 36.064 34.9438 38.0147 39.085 39.0186C41.3162 39.5595 43.2449 39.8305 44.6218 39.9665C45.3109 40.0345 45.8636 40.069 46.249 40.0864C46.4418 40.0951 46.5929 40.0996 46.6985 40.1018C46.7513 40.103 46.7927 40.1036 46.8223 40.1039L46.8577 40.1042L46.8686 40.1042L46.8724 40.1042C46.873 40.1042 46.875 40.1042 46.875 38.5417V40.1042C47.4286 40.1042 47.9409 39.8113 48.2217 39.3341C48.5024 38.857 48.5097 38.2669 48.2409 37.7829L46.875 38.5417C48.2409 37.7829 48.2412 37.7835 48.2409 37.7829L48.2378 37.7775L48.2329 37.7686L48.2171 37.7408C48.204 37.7178 48.1857 37.686 48.1621 37.6458C48.115 37.5653 48.047 37.4513 47.9578 37.307C47.7794 37.0185 47.5159 36.6085 47.1653 36.1039C46.4643 35.0952 45.4126 33.7051 43.9924 32.1497C41.3007 29.2016 37.2643 25.6367 31.7616 22.9623ZM43.7462 36.7189C42.6433 36.5716 41.3054 36.3414 39.8212 35.9816C35.6771 34.9769 30.4721 32.9819 26.0381 29.0406C25.4461 28.5144 24.5539 28.5144 23.9619 29.0406C19.5279 32.9819 14.3229 34.9769 10.1788 35.9816C8.60994 36.3619 7.20457 36.5975 6.0674 36.7433C6.65379 35.9003 7.40878 34.9027 8.33736 33.8415C10.9583 30.8461 14.9176 27.3934 20.3256 25.4268C20.9431 25.2023 21.3542 24.6155 21.3542 23.9584C21.3542 17.3934 22.6156 12.6421 23.8466 9.56475C24.2482 8.56074 24.6474 7.73286 25 7.07662C25.3526 7.73286 25.7518 8.56074 26.1534 9.56475C27.3844 12.6421 28.6458 17.3934 28.6458 23.9584C28.6458 24.5711 29.004 25.1273 29.5618 25.3809C35.0518 27.8763 39.0533 31.3748 41.6847 34.2568C42.5066 35.157 43.1926 35.9946 43.7462 36.7189Z" fill="#F2994A"/>
<path d="M25 27.0834C26.1506 27.0834 27.0833 26.1507 27.0833 25.0001C27.0833 23.8495 26.1506 22.9167 25 22.9167C23.8494 22.9167 22.9167 23.8495 22.9167 25.0001C22.9167 26.1507 23.8494 27.0834 25 27.0834Z" fill="#F2994A"/>
<path d="M46.06 11.57C46.65 10.88 47 9.98 47 9C47 7.14 45.73 5.57 44 5.13V3H42V5H40V3H38V5H35V7H37V17H35V19H38V21H40V19H42V21H44V19C46.21 19 48 17.21 48 15C48 13.55 47.22 12.27 46.06 11.57ZM39 7H43C44.1 7 45 7.9 45 9C45 10.1 44.1 11 43 11H39V7ZM44 17H39V13H44C45.1 13 46 13.9 46 15C46 16.1 45.1 17 44 17Z" fill="white"/>
<path d="M69.368 18.32V35H66.632V23.576L61.544 35H59.648L54.536 23.576V35H51.8V18.32H54.752L60.608 31.4L66.44 18.32H69.368ZM74.3561 20.024C73.8601 20.024 73.4441 19.856 73.1081 19.52C72.7721 19.184 72.6041 18.768 72.6041 18.272C72.6041 17.776 72.7721 17.36 73.1081 17.024C73.4441 16.688 73.8601 16.52 74.3561 16.52C74.8361 16.52 75.2441 16.688 75.5801 17.024C75.9161 17.36 76.0841 17.776 76.0841 18.272C76.0841 18.768 75.9161 19.184 75.5801 19.52C75.2441 19.856 74.8361 20.024 74.3561 20.024ZM75.7001 21.776V35H72.9641V21.776H75.7001ZM85.9642 21.56C87.0042 21.56 87.9322 21.776 88.7482 22.208C89.5802 22.64 90.2282 23.28 90.6922 24.128C91.1562 24.976 91.3882 26 91.3882 27.2V35H88.6762V27.608C88.6762 26.424 88.3802 25.52 87.7882 24.896C87.1962 24.256 86.3882 23.936 85.3642 23.936C84.3402 23.936 83.5242 24.256 82.9162 24.896C82.3242 25.52 82.0282 26.424 82.0282 27.608V35H79.2922V21.776H82.0282V23.288C82.4762 22.744 83.0442 22.32 83.7322 22.016C84.4362 21.712 85.1802 21.56 85.9642 21.56ZM96.2701 20.024C95.7741 20.024 95.3581 19.856 95.0221 19.52C94.6861 19.184 94.5181 18.768 94.5181 18.272C94.5181 17.776 94.6861 17.36 95.0221 17.024C95.3581 16.688 95.7741 16.52 96.2701 16.52C96.7501 16.52 97.1581 16.688 97.4941 17.024C97.8301 17.36 97.9981 17.776 97.9981 18.272C97.9981 18.768 97.8301 19.184 97.4941 19.52C97.1581 19.856 96.7501 20.024 96.2701 20.024ZM97.6141 21.776V35H94.8781V21.776H97.6141ZM107.878 21.56C108.918 21.56 109.846 21.776 110.662 22.208C111.494 22.64 112.142 23.28 112.606 24.128C113.07 24.976 113.302 26 113.302 27.2V35H110.59V27.608C110.59 26.424 110.294 25.52 109.702 24.896C109.11 24.256 108.302 23.936 107.278 23.936C106.254 23.936 105.438 24.256 104.83 24.896C104.238 25.52 103.942 26.424 103.942 27.608V35H101.206V21.776H103.942V23.288C104.39 22.744 104.958 22.32 105.646 22.016C106.35 21.712 107.094 21.56 107.878 21.56ZM122.12 21.56C123.144 21.56 124.048 21.768 124.832 22.184C125.632 22.584 126.256 23.088 126.704 23.696V21.776H129.464V35.216C129.464 36.432 129.208 37.512 128.696 38.456C128.184 39.416 127.44 40.168 126.464 40.712C125.504 41.256 124.352 41.528 123.008 41.528C121.216 41.528 119.728 41.104 118.544 40.256C117.36 39.424 116.688 38.288 116.528 36.848H119.24C119.448 37.536 119.888 38.088 120.56 38.504C121.248 38.936 122.064 39.152 123.008 39.152C124.112 39.152 125 38.816 125.672 38.144C126.36 37.472 126.704 36.496 126.704 35.216V33.008C126.24 33.632 125.608 34.16 124.808 34.592C124.024 35.008 123.128 35.216 122.12 35.216C120.968 35.216 119.912 34.928 118.952 34.352C118.008 33.76 117.256 32.944 116.696 31.904C116.152 30.848 115.88 29.656 115.88 28.328C115.88 27 116.152 25.824 116.696 24.8C117.256 23.776 118.008 22.984 118.952 22.424C119.912 21.848 120.968 21.56 122.12 21.56ZM126.704 28.376C126.704 27.464 126.512 26.672 126.128 26C125.76 25.328 125.272 24.816 124.664 24.464C124.056 24.112 123.4 23.936 122.696 23.936C121.992 23.936 121.336 24.112 120.728 24.464C120.12 24.8 119.624 25.304 119.24 25.976C118.872 26.632 118.688 27.416 118.688 28.328C118.688 29.24 118.872 30.04 119.24 30.728C119.624 31.416 120.12 31.944 120.728 32.312C121.352 32.664 122.008 32.84 122.696 32.84C123.4 32.84 124.056 32.664 124.664 32.312C125.272 31.96 125.76 31.448 126.128 30.776C126.512 30.088 126.704 29.288 126.704 28.376Z" fill="white"/>
</svg>
