<svg width="24" height="24" viewBox="0 0 24 24" fill="none" xmlns="http://www.w3.org/2000/svg">
<path fill-rule="evenodd" clip-rule="evenodd" d="M1.64234 8.34081C1.88407 8.20963 2.17821 8.22128 2.40881 8.37117L12.0001 14.6055L21.5913 8.37117C21.8219 8.22128 22.1161 8.20963 22.3578 8.34081C22.5995 8.472 22.7501 8.72497 22.7501 9V19.9091C22.7501 20.863 22.0267 21.75 21.0001 21.75H3.00007C1.97348 21.75 1.25007 20.863 1.25007 19.9091V9C1.25007 8.72497 1.40061 8.472 1.64234 8.34081ZM2.75007 10.382V19.9091C2.75007 20.1601 2.92209 20.25 3.00007 20.25H21.0001C21.078 20.25 21.2501 20.1601 21.2501 19.9091V10.382L12.4088 16.1288C12.1603 16.2904 11.8399 16.2904 11.5913 16.1288L2.75007 10.382Z" fill="#F2994A"/>
<path fill-rule="evenodd" clip-rule="evenodd" d="M11.5745 1.38246C11.8307 1.20585 12.1694 1.20585 12.4257 1.38246L22.4257 8.27441C22.7667 8.50947 22.8527 8.9765 22.6176 9.31756C22.3826 9.65862 21.9155 9.74455 21.5745 9.5095L12.0001 2.91087L2.42568 9.5095C2.08462 9.74455 1.61758 9.65862 1.38253 9.31756C1.14747 8.9765 1.2334 8.50947 1.57446 8.27441L11.5745 1.38246Z" fill="#F2994A"/>
</svg>
