<svg width="24" height="24" viewBox="0 0 24 24" fill="none" xmlns="http://www.w3.org/2000/svg">
<path fill-rule="evenodd" clip-rule="evenodd" d="M1.25 6.5C1.25 6.08579 1.58579 5.75 2 5.75H22C22.4142 5.75 22.75 6.08579 22.75 6.5V18.5C22.75 18.9142 22.4142 19.25 22 19.25H2C1.58579 19.25 1.25 18.9142 1.25 18.5V6.5ZM2.75 7.25V17.75H21.25V7.25H2.75Z" fill="#F2994A"/>
<path fill-rule="evenodd" clip-rule="evenodd" d="M1.25 6.5C1.25 6.08579 1.58579 5.75 2 5.75H6C6.41421 5.75 6.75 6.08579 6.75 6.5C6.75 9.12336 4.62335 11.25 2 11.25C1.58579 11.25 1.25 10.9142 1.25 10.5V6.5ZM2.75 7.25V9.66303C3.94259 9.38133 4.88133 8.4426 5.16303 7.25H2.75Z" fill="#F2994A"/>
<path fill-rule="evenodd" clip-rule="evenodd" d="M1.25 14.5C1.25 14.0858 1.58579 13.75 2 13.75C4.62335 13.75 6.75 15.8766 6.75 18.5C6.75 18.9142 6.41421 19.25 6 19.25H2C1.58579 19.25 1.25 18.9142 1.25 18.5V14.5ZM2.75 15.337V17.75H5.16303C4.88133 16.5574 3.94259 15.6187 2.75 15.337Z" fill="#F2994A"/>
<path fill-rule="evenodd" clip-rule="evenodd" d="M18.837 17.75H21.25V15.337C20.0574 15.6187 19.1187 16.5574 18.837 17.75ZM17.25 18.5C17.25 15.8766 19.3766 13.75 22 13.75C22.4142 13.75 22.75 14.0858 22.75 14.5V18.5C22.75 18.9142 22.4142 19.25 22 19.25H18C17.5858 19.25 17.25 18.9142 17.25 18.5Z" fill="#F2994A"/>
<path fill-rule="evenodd" clip-rule="evenodd" d="M17.25 6.5C17.25 6.08579 17.5858 5.75 18 5.75H22C22.4142 5.75 22.75 6.08579 22.75 6.5V10.5C22.75 10.9142 22.4142 11.25 22 11.25C19.3766 11.25 17.25 9.12336 17.25 6.5ZM18.837 7.25C19.1187 8.4426 20.0574 9.38133 21.25 9.66304V7.25H18.837Z" fill="#F2994A"/>
<path fill-rule="evenodd" clip-rule="evenodd" d="M8.75 12.5C8.75 10.5628 10.0829 8.75 12 8.75C13.9171 8.75 15.25 10.5628 15.25 12.5C15.25 14.4372 13.9171 16.25 12 16.25C10.0829 16.25 8.75 14.4372 8.75 12.5ZM12 10.25C11.1557 10.25 10.25 11.1235 10.25 12.5C10.25 13.8765 11.1557 14.75 12 14.75C12.8443 14.75 13.75 13.8765 13.75 12.5C13.75 11.1235 12.8443 10.25 12 10.25Z" fill="#F2994A"/>
</svg>
