<svg width="24" height="24" viewBox="0 0 24 24" fill="none" xmlns="http://www.w3.org/2000/svg">
<path d="M11.7986 1.25403C11.9331 1.21478 12.076 1.2148 12.2105 1.25408L21.0226 3.82827C21.3359 3.9198 21.5513 4.20708 21.5513 4.53349V9.81254C21.5513 15.6775 17.7979 20.8842 12.2338 22.7382C12.083 22.7884 11.9201 22.7884 11.7693 22.7382C6.2037 20.8843 2.44922 15.6764 2.44922 9.81009V4.53349C2.44922 4.20701 2.66467 3.91969 2.97809 3.82822L11.7986 1.25403ZM3.91861 5.08442V9.81009C3.91861 14.9618 7.16408 19.5444 12.0015 21.2642C16.8375 19.5444 20.0819 14.9629 20.0819 9.81254V5.08428L12.0044 2.72467L3.91861 5.08442Z" fill="#F2994A"/>
<path d="M17.4177 8.29673C17.7047 8.58365 17.7047 9.04883 17.4177 9.33574L11.5402 15.2133C11.2533 15.5002 10.7881 15.5002 10.5012 15.2133L7.07261 11.7847C6.78569 11.4978 6.78569 11.0326 7.07261 10.7457C7.35952 10.4588 7.82471 10.4588 8.11162 10.7457L11.0207 13.6548L16.3787 8.29673C16.6656 8.00981 17.1308 8.00981 17.4177 8.29673Z" fill="#F2994A"/>
</svg>
