<svg width="24" height="24" viewBox="0 0 24 24" fill="none" xmlns="http://www.w3.org/2000/svg">
<path d="M19.5 16V16.75H20.0856L20.2276 16.1819L19.5 16ZM6.5 16L5.77239 16.1819L5.91442 16.75H6.5V16ZM22 6L22.7276 6.1819L22.9606 5.25H22V6ZM1.5 3V2.25C1.20899 2.25 0.944243 2.41834 0.820808 2.68188C0.697373 2.94542 0.737532 3.25658 0.923834 3.48014L1.5 3ZM3.25 3L3.97761 2.8181C3.89414 2.48422 3.59415 2.25 3.25 2.25V3ZM11 10.25C10.5858 10.25 10.25 10.5858 10.25 11C10.25 11.4142 10.5858 11.75 11 11.75V10.25ZM15 11.75C15.4142 11.75 15.75 11.4142 15.75 11C15.75 10.5858 15.4142 10.25 15 10.25V11.75ZM12.25 13C12.25 13.4142 12.5858 13.75 13 13.75C13.4142 13.75 13.75 13.4142 13.75 13H12.25ZM13.75 9C13.75 8.58579 13.4142 8.25 13 8.25C12.5858 8.25 12.25 8.58579 12.25 9H13.75ZM19.5 15.25H6.5V16.75H19.5V15.25ZM7.22761 15.8181L4.72761 5.8181L3.27239 6.1819L5.77239 16.1819L7.22761 15.8181ZM4 6.75H22V5.25H4V6.75ZM21.2724 5.8181L18.7724 15.8181L20.2276 16.1819L22.7276 6.1819L21.2724 5.8181ZM1.5 3.75H3.25V2.25H1.5V3.75ZM2.52239 3.1819L3.27239 6.1819L4.72761 5.8181L3.97761 2.8181L2.52239 3.1819ZM4.57617 5.51986L2.07617 2.51986L0.923834 3.48014L3.42383 6.48014L4.57617 5.51986ZM7.25 19.5C7.25 19.9142 6.91421 20.25 6.5 20.25V21.75C7.74264 21.75 8.75 20.7426 8.75 19.5H7.25ZM6.5 20.25C6.08579 20.25 5.75 19.9142 5.75 19.5H4.25C4.25 20.7426 5.25736 21.75 6.5 21.75V20.25ZM5.75 19.5C5.75 19.0858 6.08579 18.75 6.5 18.75V17.25C5.25736 17.25 4.25 18.2574 4.25 19.5H5.75ZM6.5 18.75C6.91421 18.75 7.25 19.0858 7.25 19.5H8.75C8.75 18.2574 7.74264 17.25 6.5 17.25V18.75ZM20.25 19.5C20.25 19.9142 19.9142 20.25 19.5 20.25V21.75C20.7426 21.75 21.75 20.7426 21.75 19.5H20.25ZM19.5 20.25C19.0858 20.25 18.75 19.9142 18.75 19.5H17.25C17.25 20.7426 18.2574 21.75 19.5 21.75V20.25ZM18.75 19.5C18.75 19.0858 19.0858 18.75 19.5 18.75V17.25C18.2574 17.25 17.25 18.2574 17.25 19.5H18.75ZM19.5 18.75C19.9142 18.75 20.25 19.0858 20.25 19.5H21.75C21.75 18.2574 20.7426 17.25 19.5 17.25V18.75ZM11 11.75H15V10.25H11V11.75ZM13.75 13V9H12.25V13H13.75Z" fill="#F2994A"/>
</svg>
