<svg width="113" height="113" viewBox="0 0 113 113" fill="none" xmlns="http://www.w3.org/2000/svg">
<rect x="24" y="24" width="65" height="65" rx="32.5" fill="url(#paint0_angular_99_2272)" fill-opacity="0.25"/>
<g filter="url(#filter0_f_99_2272)">
<circle cx="56.5" cy="56.5" r="16.5" fill="#F2994A"/>
</g>
<circle cx="56.5" cy="56.5" r="37" stroke="url(#paint1_angular_99_2272)"/>
<path fill-rule="evenodd" clip-rule="evenodd" d="M40.8232 58.6876C40.8232 50.0294 47.8421 43.0105 56.5003 43.0105C65.1585 43.0105 72.1774 50.0294 72.1774 58.6876C72.1774 62.7167 70.8613 66.7971 68.2419 69.6374C68.0348 69.8619 67.7433 69.9897 67.4378 69.9897H45.5628C45.2574 69.9897 44.9659 69.8619 44.7588 69.6374C42.1394 66.7971 40.8232 62.7167 40.8232 58.6876ZM56.5003 45.198C49.0502 45.198 43.0107 51.2375 43.0107 58.6876C43.0107 62.1106 44.081 65.4555 46.0565 67.8022H66.9441C68.9197 65.4555 69.9899 62.1106 69.9899 58.6876C69.9899 51.2375 63.9504 45.198 56.5003 45.198Z" fill="#F2994A"/>
<path fill-rule="evenodd" clip-rule="evenodd" d="M56.5003 59.0522C55.4936 59.0522 54.6774 59.8683 54.6774 60.8751C54.6774 61.8819 55.4936 62.698 56.5003 62.698C57.5071 62.698 58.3232 61.8819 58.3232 60.8751C58.3232 59.8683 57.5071 59.0522 56.5003 59.0522ZM52.4899 60.8751C52.4899 58.6602 54.2854 56.8647 56.5003 56.8647C58.7152 56.8647 60.5107 58.6602 60.5107 60.8751C60.5107 63.09 58.7152 64.8855 56.5003 64.8855C54.2854 64.8855 52.4899 63.09 52.4899 60.8751Z" fill="#F2994A"/>
<path fill-rule="evenodd" clip-rule="evenodd" d="M56.5003 52.4897C57.1044 52.4897 57.5941 52.9794 57.5941 53.5834V57.9584C57.5941 58.5625 57.1044 59.0522 56.5003 59.0522C55.8963 59.0522 55.4066 58.5625 55.4066 57.9584V53.5834C55.4066 52.9794 55.8963 52.4897 56.5003 52.4897Z" fill="#F2994A"/>
<path fill-rule="evenodd" clip-rule="evenodd" d="M56.5003 46.6563C57.1044 46.6563 57.5941 47.146 57.5941 47.7501V49.2084C57.5941 49.8125 57.1044 50.3022 56.5003 50.3022C55.8963 50.3022 55.4066 49.8125 55.4066 49.2084V47.7501C55.4066 47.146 55.8963 46.6563 56.5003 46.6563Z" fill="#F2994A"/>
<path fill-rule="evenodd" clip-rule="evenodd" d="M44.4691 59.4167C44.4691 58.8127 44.9588 58.323 45.5628 58.323H47.0212C47.6252 58.323 48.1149 58.8127 48.1149 59.4167C48.1149 60.0208 47.6252 60.5105 47.0212 60.5105H45.5628C44.9588 60.5105 44.4691 60.0208 44.4691 59.4167Z" fill="#F2994A"/>
<path fill-rule="evenodd" clip-rule="evenodd" d="M47.7061 51.3517C48.1332 50.9245 48.8258 50.9245 49.2529 51.3517L50.2841 52.3829C50.7112 52.81 50.7112 53.5025 50.2841 53.9297C49.8569 54.3568 49.1644 54.3568 48.7373 53.9297L47.7061 52.8985C47.279 52.4713 47.279 51.7788 47.7061 51.3517Z" fill="#F2994A"/>
<path fill-rule="evenodd" clip-rule="evenodd" d="M64.8857 59.4167C64.8857 58.8127 65.3754 58.323 65.9795 58.323H67.4378C68.0419 58.323 68.5316 58.8127 68.5316 59.4167C68.5316 60.0208 68.0419 60.5105 67.4378 60.5105H65.9795C65.3754 60.5105 64.8857 60.0208 64.8857 59.4167Z" fill="#F2994A"/>
<path fill-rule="evenodd" clip-rule="evenodd" d="M65.5966 51.3517C66.0237 51.7788 66.0237 52.4713 65.5966 52.8985L64.5654 53.9297C64.1383 54.3568 63.4457 54.3568 63.0186 53.9297C62.5915 53.5025 62.5915 52.81 63.0186 52.3829L64.0498 51.3517C64.4769 50.9245 65.1694 50.9245 65.5966 51.3517Z" fill="#F2994A"/>
<defs>
<filter id="filter0_f_99_2272" x="0" y="0" width="113" height="113" filterUnits="userSpaceOnUse" color-interpolation-filters="sRGB">
<feFlood flood-opacity="0" result="BackgroundImageFix"/>
<feBlend mode="normal" in="SourceGraphic" in2="BackgroundImageFix" result="shape"/>
<feGaussianBlur stdDeviation="20" result="effect1_foregroundBlur_99_2272"/>
</filter>
<radialGradient id="paint0_angular_99_2272" cx="0" cy="0" r="1" gradientUnits="userSpaceOnUse" gradientTransform="translate(69 43.5) rotate(134.193) scale(50.2096 65.9356)">
<stop stop-color="#0C0028"/>
<stop offset="0.853932" stop-color="#0099EF"/>
<stop offset="1" stop-color="#0099EF" stop-opacity="0"/>
</radialGradient>
<radialGradient id="paint1_angular_99_2272" cx="0" cy="0" r="1" gradientUnits="userSpaceOnUse" gradientTransform="translate(56.5 56.5) rotate(90) scale(37.5)">
<stop offset="0.114972" stop-color="#0C0028" stop-opacity="0"/>
<stop offset="0.577126" stop-color="#0099EF"/>
</radialGradient>
</defs>
</svg>
