<svg width="113" height="113" viewBox="0 0 113 113" fill="none" xmlns="http://www.w3.org/2000/svg">
<rect x="24" y="24" width="65" height="65" rx="32.5" fill="url(#paint0_angular_99_2003)" fill-opacity="0.25"/>
<g filter="url(#filter0_f_99_2003)">
<circle cx="56.5" cy="56.5" r="16.5" fill="#F2994A"/>
</g>
<circle cx="56.5" cy="56.5" r="37" stroke="url(#paint1_angular_99_2003)"/>
<path d="M43.3743 45.927C43.173 45.927 43.0098 46.0902 43.0098 46.2916V66.7083C43.0098 66.9096 43.173 67.0728 43.3743 67.0728H69.6243C69.8257 67.0728 69.9889 66.9096 69.9889 66.7083V46.2916C69.9889 46.0902 69.8257 45.927 69.6243 45.927H43.3743ZM40.8223 46.2916C40.8223 44.8821 41.9649 43.7395 43.3743 43.7395H69.6243C71.0338 43.7395 72.1764 44.8821 72.1764 46.2916V66.7083C72.1764 68.1177 71.0338 69.2603 69.6243 69.2603H43.3743C41.9649 69.2603 40.8223 68.1177 40.8223 66.7083V46.2916Z" fill="#F2994A"/>
<path d="M47.3848 54.3124C47.3848 52.0976 49.1803 50.302 51.3952 50.302C53.61 50.302 55.4056 52.0976 55.4056 54.3124C55.4056 56.5273 53.61 58.3228 51.3952 58.3228C49.1803 58.3228 47.3848 56.5273 47.3848 54.3124ZM51.3952 52.4895C50.3884 52.4895 49.5723 53.3057 49.5723 54.3124C49.5723 55.3192 50.3884 56.1353 51.3952 56.1353C52.4019 56.1353 53.2181 55.3192 53.2181 54.3124C53.2181 53.3057 52.4019 52.4895 51.3952 52.4895Z" fill="#F2994A"/>
<path d="M45.9264 61.6041C45.9264 58.5838 48.3749 56.1353 51.3952 56.1353C54.4155 56.1353 56.8639 58.5838 56.8639 61.6041C56.8639 62.2081 56.3742 62.6978 55.7702 62.6978C55.1661 62.6978 54.6764 62.2081 54.6764 61.6041C54.6764 59.7919 53.2074 58.3228 51.3952 58.3228C49.583 58.3228 48.1139 59.7919 48.1139 61.6041C48.1139 62.2081 47.6242 62.6978 47.0202 62.6978C46.4161 62.6978 45.9264 62.2081 45.9264 61.6041Z" fill="#F2994A"/>
<path d="M58.3223 53.5833C58.3223 52.9792 58.812 52.4895 59.416 52.4895H65.2493C65.8534 52.4895 66.3431 52.9792 66.3431 53.5833C66.3431 54.1873 65.8534 54.677 65.2493 54.677H59.416C58.812 54.677 58.3223 54.1873 58.3223 53.5833Z" fill="#F2994A"/>
<path d="M59.7806 59.4166C59.7806 58.8125 60.2703 58.3228 60.8743 58.3228H65.2493C65.8534 58.3228 66.3431 58.8125 66.3431 59.4166C66.3431 60.0206 65.8534 60.5103 65.2493 60.5103H60.8743C60.2703 60.5103 59.7806 60.0206 59.7806 59.4166Z" fill="#F2994A"/>
<defs>
<filter id="filter0_f_99_2003" x="0" y="0" width="113" height="113" filterUnits="userSpaceOnUse" color-interpolation-filters="sRGB">
<feFlood flood-opacity="0" result="BackgroundImageFix"/>
<feBlend mode="normal" in="SourceGraphic" in2="BackgroundImageFix" result="shape"/>
<feGaussianBlur stdDeviation="20" result="effect1_foregroundBlur_99_2003"/>
</filter>
<radialGradient id="paint0_angular_99_2003" cx="0" cy="0" r="1" gradientUnits="userSpaceOnUse" gradientTransform="translate(69 43.5) rotate(134.193) scale(50.2096 65.9356)">
<stop stop-color="#0C0028"/>
<stop offset="0.853932" stop-color="#0099EF"/>
<stop offset="1" stop-color="#0099EF" stop-opacity="0"/>
</radialGradient>
<radialGradient id="paint1_angular_99_2003" cx="0" cy="0" r="1" gradientUnits="userSpaceOnUse" gradientTransform="translate(56.5 56.5) rotate(90) scale(37.5)">
<stop offset="0.114972" stop-color="#0C0028" stop-opacity="0"/>
<stop offset="0.577126" stop-color="#0099EF"/>
</radialGradient>
</defs>
</svg>
