<svg width="24" height="24" viewBox="0 0 24 24" fill="none" xmlns="http://www.w3.org/2000/svg">
<path fill-rule="evenodd" clip-rule="evenodd" d="M7.90003 7.04998C8.14856 6.71861 8.61866 6.65145 8.95003 6.89998L12.95 9.89998C12.9784 9.92128 13.0053 9.94456 13.0304 9.96965C13.2198 10.1591 13.5982 10.6369 13.752 11.272C13.9211 11.9708 13.8012 12.8213 13.0081 13.5517C12.2611 14.2396 11.4331 14.3445 10.7177 14.168C10.0606 14.006 9.52695 13.6175 9.21056 13.3493L2.5358 8.08905C2.21047 7.83266 2.15458 7.36109 2.41097 7.03576C2.66735 6.71043 3.13893 6.65454 3.46426 6.91092L10.15 12.1798C10.1575 12.1857 10.165 12.1919 10.1723 12.1981C10.4218 12.4108 10.7473 12.6304 11.0769 12.7117C11.356 12.7805 11.6531 12.7603 11.992 12.4483C12.1865 12.2691 12.2634 12.1148 12.2953 11.9996C12.3282 11.8809 12.326 11.7567 12.2941 11.6249C12.2327 11.3713 12.0758 11.1514 11.9974 11.0605L8.05003 8.09998C7.71866 7.85146 7.6515 7.38135 7.90003 7.04998Z" fill="#F2994A"/>
<path fill-rule="evenodd" clip-rule="evenodd" d="M1.25 4C1.25 3.58579 1.58579 3.25 2 3.25H13.5C13.6866 3.25 13.8665 3.31954 14.0045 3.44504L19.5045 8.44504C19.811 8.72368 19.8336 9.19801 19.555 9.5045C19.2763 9.811 18.802 9.83359 18.4955 9.55496L13.21 4.75H2C1.58579 4.75 1.25 4.41421 1.25 4Z" fill="#F2994A"/>
<path fill-rule="evenodd" clip-rule="evenodd" d="M3.75 16.4996C3.75023 16.0854 4.0862 15.7498 4.50041 15.75L22.0004 15.7596C22.4146 15.7599 22.7502 16.0958 22.75 16.5101C22.7498 16.9243 22.4138 17.2599 21.9996 17.2596L4.49959 17.25C4.08537 17.2498 3.74977 16.9138 3.75 16.4996Z" fill="#F2994A"/>
<path fill-rule="evenodd" clip-rule="evenodd" d="M4.5 8.25C4.91421 8.25 5.25 8.58579 5.25 9V19.25H21.25V9.75H11.0001C10.5859 9.75 10.2501 9.41421 10.2501 9C10.2501 8.58579 10.5859 8.25 11.0001 8.25H22C22.4142 8.25 22.75 8.58579 22.75 9V20C22.75 20.4142 22.4142 20.75 22 20.75H4.5C4.08579 20.75 3.75 20.4142 3.75 20V9C3.75 8.58579 4.08579 8.25 4.5 8.25Z" fill="#F2994A"/>
</svg>
