<svg width="24" height="24" viewBox="0 0 24 24" fill="none" xmlns="http://www.w3.org/2000/svg">
<path d="M2.25 4.5C2.25 3.25736 3.25736 2.25 4.5 2.25H19.5C20.7426 2.25 21.75 3.25736 21.75 4.5V19.5C21.75 20.7426 20.7426 21.75 19.5 21.75H4.5C3.25736 21.75 2.25 20.7426 2.25 19.5V4.5ZM12.25 9C12.25 9.41421 12.5858 9.75 13 9.75H15.1941L11.7405 13.2167L10.0779 11.558C9.78487 11.2657 9.31047 11.2659 9.01782 11.5586L6.1894 14.387C5.8965 14.6799 5.8965 15.1548 6.1894 15.4477C6.48229 15.7406 6.95716 15.7406 7.25006 15.4477L9.54878 13.1489L11.2125 14.8087C11.3533 14.9493 11.5443 15.0281 11.7433 15.0278C11.9423 15.0275 12.1331 14.9481 12.2735 14.8071L16.25 10.8154V13C16.25 13.4142 16.5858 13.75 17 13.75C17.4142 13.75 17.75 13.4142 17.75 13V9C17.75 8.58579 17.4142 8.25 17 8.25H13C12.5858 8.25 12.25 8.58579 12.25 9Z" fill="#F2994A"/>
</svg>
