<svg width="24" height="24" viewBox="0 0 24 24" fill="none" xmlns="http://www.w3.org/2000/svg">
<path d="M5.10573 5.10572C6.86928 3.34212 9.30781 2.25 12 2.25C17.3848 2.25 21.75 6.61524 21.75 12C21.75 17.3848 17.3848 21.75 12 21.75C9.3078 21.75 6.86927 20.6579 5.10571 18.8943C4.81282 18.6014 4.81283 18.1265 5.10573 17.8336C5.39863 17.5407 5.8735 17.5407 6.16639 17.8336C7.66013 19.3274 9.7216 20.25 12 20.25C16.5563 20.25 20.25 16.5563 20.25 12C20.25 7.44366 16.5563 3.75 12 3.75C9.7216 3.75 7.66013 4.67259 6.16639 6.16637C5.76676 6.56599 5.11955 7.26876 4.56269 7.88275C4.28638 8.18741 4.03572 8.46643 3.85413 8.6693C3.76335 8.77071 3.6899 8.85303 3.63919 8.90993L3.56108 8.99768L2.43923 8.00197L2.51934 7.91196C2.5707 7.85433 2.64489 7.77119 2.73648 7.66887C2.91961 7.46429 3.17253 7.18275 3.4516 6.87505C4.0055 6.26432 4.67634 5.5351 5.10573 5.10572ZM2.50201 9.0608C2.19228 8.78577 2.16419 8.31169 2.43923 8.00197L3.56108 8.99768C3.28605 9.3074 2.81173 9.33584 2.50201 9.0608Z" fill="#F2994A"/>
<path d="M3 3.75C3.41421 3.75 3.75 4.08579 3.75 4.5V7.75H7C7.41421 7.75 7.75 8.08579 7.75 8.5C7.75 8.91421 7.41421 9.25 7 9.25H3C2.58579 9.25 2.25 8.91421 2.25 8.5V4.5C2.25 4.08579 2.58579 3.75 3 3.75Z" fill="#F2994A"/>
</svg>
