<svg width="24" height="24" viewBox="0 0 24 24" fill="none" xmlns="http://www.w3.org/2000/svg">
<path d="M6.25 11C6.25 11.4142 6.58579 11.75 7 11.75C7.41421 11.75 7.75 11.4142 7.75 11H6.25ZM7 7.00235H7.75L7.75 7.00159L7 7.00235ZM11.5429 2.02558L11.6175 2.77187L11.6175 2.77187L11.5429 2.02558ZM16.2653 6.15373C16.3486 6.55949 16.745 6.82091 17.1508 6.73764C17.5565 6.65436 17.818 6.25792 17.7347 5.85217L16.2653 6.15373ZM12.75 15C12.75 14.5858 12.4142 14.25 12 14.25C11.5858 14.25 11.25 14.5858 11.25 15H12.75ZM11.25 18C11.25 18.4142 11.5858 18.75 12 18.75C12.4142 18.75 12.75 18.4142 12.75 18H11.25ZM4.5 11.7738H19.5V10.2738H4.5V11.7738ZM19.5 11.7738C19.6381 11.7738 19.75 11.8857 19.75 12.0238H21.25C21.25 11.0573 20.4665 10.2738 19.5 10.2738V11.7738ZM19.75 12.0238V21.0238H21.25V12.0238H19.75ZM19.75 21.0238C19.75 21.1619 19.6381 21.2738 19.5 21.2738V22.7738C20.4665 22.7738 21.25 21.9903 21.25 21.0238H19.75ZM19.5 21.2738H4.5V22.7738H19.5V21.2738ZM4.5 21.2738C4.36193 21.2738 4.25 21.1619 4.25 21.0238H2.75C2.75 21.9903 3.5335 22.7738 4.5 22.7738V21.2738ZM4.25 21.0238V12.0238H2.75V21.0238H4.25ZM4.25 12.0238C4.25 11.8857 4.36193 11.7738 4.5 11.7738V10.2738C3.5335 10.2738 2.75 11.0573 2.75 12.0238H4.25ZM7.75 11V7.00235H6.25V11H7.75ZM7.75 7.00159C7.7478 4.82639 9.41322 2.99217 11.6175 2.77187L11.4684 1.2793C8.50948 1.57501 6.247 4.04383 6.25 7.00311L7.75 7.00159ZM11.6175 2.77187C13.8227 2.55148 15.8275 4.02038 16.2653 6.15373L17.7347 5.85217C17.1398 2.9537 14.4263 0.983681 11.4684 1.2793L11.6175 2.77187ZM11.25 15V18H12.75V15H11.25Z" fill="#F2994A"/>
</svg>
