<svg width="24" height="24" viewBox="0 0 24 24" fill="none" xmlns="http://www.w3.org/2000/svg">
<path fill-rule="evenodd" clip-rule="evenodd" d="M3.5 7.25C3.36193 7.25 3.25 7.36193 3.25 7.5V18.5C3.25 18.6381 3.36193 18.75 3.5 18.75H20.5C20.6381 18.75 20.75 18.6381 20.75 18.5V7.5C20.75 7.36193 20.6381 7.25 20.5 7.25H3.5ZM1.75 7.5C1.75 6.5335 2.5335 5.75 3.5 5.75H20.5C21.4665 5.75 22.25 6.5335 22.25 7.5V18.5C22.25 19.4665 21.4665 20.25 20.5 20.25H3.5C2.5335 20.25 1.75 19.4665 1.75 18.5V7.5Z" fill="#F2994A"/>
<path fill-rule="evenodd" clip-rule="evenodd" d="M11.75 10C11.75 9.58579 12.0858 9.25 12.5 9.25H21.5C21.9142 9.25 22.25 9.58579 22.25 10V15.5C22.25 15.9142 21.9142 16.25 21.5 16.25H12.5C12.0858 16.25 11.75 15.9142 11.75 15.5V10ZM13.25 10.75V14.75H20.75V10.75H13.25Z" fill="#F2994A"/>
<path fill-rule="evenodd" clip-rule="evenodd" d="M21.5 8.25C21.9142 8.25 22.25 8.58579 22.25 9V16.5C22.25 16.9142 21.9142 17.25 21.5 17.25C21.0858 17.25 20.75 16.9142 20.75 16.5V9C20.75 8.58579 21.0858 8.25 21.5 8.25Z" fill="#F2994A"/>
<path fill-rule="evenodd" clip-rule="evenodd" d="M3.85108 3.85453C4.33337 3.21468 5.11973 2.75 6.25 2.75H13.5C14.009 2.75 14.8146 2.91249 15.508 3.48355C16.2334 4.08092 16.75 5.05478 16.75 6.5C16.75 6.91421 16.4142 7.25 16 7.25C15.5858 7.25 15.25 6.91421 15.25 6.5C15.25 5.44522 14.8916 4.91908 14.5545 4.64145C14.1854 4.33751 13.741 4.25 13.5 4.25H6.25C5.58027 4.25 5.24163 4.50174 5.04892 4.75741C4.82898 5.0492 4.75 5.41822 4.75 5.64925V6.5C4.75 6.91421 4.41421 7.25 4 7.25C3.58579 7.25 3.25 6.91421 3.25 6.5V5.64925C3.25 5.16386 3.39602 4.45826 3.85108 3.85453Z" fill="#F2994A"/>
<path d="M16.75 13.5C17.1642 13.5 17.5 13.1642 17.5 12.75C17.5 12.3358 17.1642 12 16.75 12C16.3358 12 16 12.3358 16 12.75C16 13.1642 16.3358 13.5 16.75 13.5Z" fill="#F2994A"/>
</svg>
