<svg enable-background="new 0 0 28 28" viewBox="0 0 28 28" xmlns="http://www.w3.org/2000/svg"><g fill="#03dac6"><path d="m7.01 12.03c-.76 0-1.38-.62-1.38-1.38s.62-1.38 1.38-1.38 1.38.62 1.38 1.38c0 .77-.62 1.38-1.38 1.38zm0-1.99c-.34 0-.62.28-.62.62s.28.62.62.62.62-.28.62-.62-.29-.62-.62-.62z"/><path d="m20.56 7.04c-.76 0-1.38-.62-1.38-1.38s.62-1.38 1.38-1.38 1.38.62 1.38 1.38-.62 1.38-1.38 1.38zm0-2c-.34 0-.62.28-.62.62s.28.62.62.62.62-.28.62-.62-.28-.62-.62-.62z"/><path d="m20.99 23.73c-.76 0-1.38-.62-1.38-1.38s.62-1.38 1.38-1.38 1.38.62 1.38 1.38c.01.76-.61 1.38-1.38 1.38zm0-2c-.34 0-.62.28-.62.62s.28.62.62.62.62-.28.62-.62-.28-.62-.62-.62z"/><path d="m20.77 7.57h-9.97c-.8 0-1.44.65-1.44 1.44v5.8h.38.38v-5.8c0-.37.3-.68.68-.68h9.97c.37 0 .68.3.68.68v9.97c0 .37-.3.68-.68.68h-9.97c-.03 0-.05 0-.08-.01v.77h.08 9.97c.8 0 1.44-.65 1.44-1.44v-9.97c0-.79-.65-1.44-1.44-1.44z"/></g><path d="m11.81 22.64h-4.16v-.77c.23 0 .4-.06.51-.18.2-.21.21-.59.2-.71v-.03-3.82h-1.16c-.29 0-.54.11-.73.33-.13.15-.34.21-.53.13-.19-.07-.31-.25-.31-.45v-2.71h8.22v2.71c0 .2-.12.38-.31.45s-.4.02-.53-.13c-.19-.22-.44-.33-.73-.33h-1.17v3.86c-.01.12.01.5.2.71.11.12.28.18.51.18v.76zm-2.85-.76h1.54c-.2-.41-.18-.83-.18-.95v-4.57h1.94c.29 0 .57.07.81.2v-1.36h-6.68v1.36c.24-.13.52-.2.81-.2h1.94v4.57c0 .11.02.54-.18.95z" fill="#fff"/></svg>