<?xml version="1.0" encoding="utf-8"?>
<!-- Generator: Adobe Illustrator 25.2.0, SVG Export Plug-In . SVG Version: 6.00 Build 0)  -->
<svg version="1.1" id="Layer_1" xmlns="http://www.w3.org/2000/svg" xmlns:xlink="http://www.w3.org/1999/xlink" x="0px" y="0px"
	 viewBox="0 0 150 150" style="enable-background:new 0 0 150 150;" xml:space="preserve">
<style type="text/css">
	.st0{fill:#03DAC6;}
	.st1{fill:#FFFFFF;}
	.st2{fill:none;stroke:#FFFFFF;stroke-width:2.5;stroke-linecap:round;stroke-miterlimit:10;}
</style>
<g>
	<g>
		<g>
			<g>
				<path class="st0" d="M123,20.3c-1.8,0-3.2-1.4-3.2-3.2c0-1.8,1.4-3.2,3.2-3.2c1.8,0,3.2,1.4,3.2,3.2
					C126.2,18.9,124.8,20.3,123,20.3z M123,15.7c-0.8,0-1.4,0.6-1.4,1.4c0,0.8,0.6,1.4,1.4,1.4c0.8,0,1.4-0.6,1.4-1.4
					C124.4,16.3,123.8,15.7,123,15.7z"/>
				<path class="st1" d="M16,42.2c-0.9,0-1.6-0.7-1.6-1.6c0-0.9,0.7-1.6,1.6-1.6c0.9,0,1.6,0.7,1.6,1.6C17.6,41.4,16.9,42.2,16,42.2
					z M16,39.8c-0.4,0-0.7,0.3-0.7,0.7c0,0.4,0.3,0.7,0.7,0.7c0.4,0,0.7-0.3,0.7-0.7C16.7,40.1,16.4,39.8,16,39.8z"/>
				<path class="st0" d="M17.5,119.2c-3.4,0-6.2-2.8-6.2-6.2c0-3.4,2.8-6.2,6.2-6.2c3.4,0,6.2,2.8,6.2,6.2
					C23.7,116.4,20.9,119.2,17.5,119.2z M17.5,110.2c-1.5,0-2.8,1.2-2.8,2.8c0,1.5,1.2,2.8,2.8,2.8c1.5,0,2.8-1.2,2.8-2.8
					C20.3,111.5,19.1,110.2,17.5,110.2z"/>
			</g>
		</g>
		<path class="st0" d="M20.1,76.7l-8.2-7.4c-0.6-0.6-0.7-1.5-0.1-2.1l8.3-8.4c0.6-0.6,1.5-0.6,2.1,0l0,0c0.6,0.6,0.6,1.5,0,2.1
			l-6.1,6.2c-0.6,0.6-0.6,1.6,0.1,2.1l5.9,5.3c0.6,0.5,0.7,1.5,0.1,2.1h0C21.7,77.2,20.7,77.3,20.1,76.7z"/>
		<path class="st0" d="M130,76.7l8.2-7.4c0.6-0.6,0.7-1.5,0.1-2.1l-8.3-8.4c-0.6-0.6-1.5-0.6-2.1,0l0,0c-0.6,0.6-0.6,1.5,0,2.1
			l6.1,6.2c0.6,0.6,0.6,1.6-0.1,2.1l-5.9,5.3c-0.6,0.5-0.7,1.5-0.1,2.1l0,0C128.4,77.2,129.3,77.3,130,76.7z"/>
	</g>
	<g>
		<path class="st2" d="M109.9,117.4H42.5c-4.4,0-8-3.6-8-8V41.6c0-4.4,3.6-8,8-8h67.4c4.4,0,8,3.6,8,8v67.7
			C117.9,113.8,114.3,117.4,109.9,117.4z"/>
	</g>
</g>
<g>
	<path class="st0" d="M75,62.8c-2.2,0-3.9-1.8-3.9-3.9c0-2.2,1.8-3.9,3.9-3.9c2.2,0,3.9,1.8,3.9,3.9C78.9,61,77.2,62.8,75,62.8z
		 M75,57.1c-1,0-1.7,0.8-1.7,1.7c0,1,0.8,1.7,1.7,1.7c1,0,1.7-0.8,1.7-1.7C76.7,57.9,76,57.1,75,57.1z"/>
	<path class="st1" d="M83.3,77.6H66.7c-3.9,0-7-3.1-7-7V54c0-3.9,3.1-7,7-7h16.5c3.9,0,7,3.1,7,7v16.5
		C90.3,74.4,87.1,77.6,83.3,77.6z M66.7,49.2c-2.7,0-4.8,2.2-4.8,4.8v16.5c0,2.7,2.2,4.8,4.8,4.8h16.5c2.7,0,4.8-2.2,4.8-4.8V54
		c0-2.7-2.2-4.8-4.8-4.8H66.7z"/>
	<path class="st0" d="M83.3,77.6H66.7c-3.9,0-7-3.1-7-7v-1.8l10.6-6l3.1,4.5l16.9-10.3v13.7C90.3,74.4,87.1,77.6,83.3,77.6z
		 M61.9,70.1v0.5c0,2.7,2.2,4.8,4.8,4.8h16.5c2.7,0,4.8-2.2,4.8-4.8v-9.8l-15.3,9.4l-3.1-4.5L61.9,70.1z"/>
</g>
<path class="st0" d="M94.3,92.5H55.7c-0.8,0-1.4-0.6-1.4-1.4l0,0c0-0.8,0.6-1.4,1.4-1.4h38.7c0.8,0,1.4,0.6,1.4,1.4l0,0
	C95.8,91.9,95.1,92.5,94.3,92.5z"/>
<path class="st0" d="M103.2,98.7H46.8c-0.8,0-1.4-0.6-1.4-1.4l0,0c0-0.8,0.6-1.4,1.4-1.4h56.4c0.8,0,1.4,0.6,1.4,1.4l0,0
	C104.6,98,104,98.7,103.2,98.7z"/>
</svg>
