<svg enable-background="new 0 0 28 28" viewBox="0 0 28 28" xmlns="http://www.w3.org/2000/svg"><path d="m16.62 20.84h-5.83v-.77c.37 0 .65-.1.84-.31.38-.41.32-1.11.32-1.12v-.03-5.51h-1.79c-.57 0-.94.28-1.14.52-.14.17-.37.22-.57.15-.21-.08-.34-.27-.34-.49v-3.64h11.22v3.64c0 .22-.13.41-.34.49s-.43.02-.57-.15c-.21-.24-.57-.52-1.14-.52h-1.79v5.55c0 .01-.05.71.32 1.12.19.21.46.31.84.31v.76zm-4.27-.76h2.7c-.4-.6-.37-1.34-.36-1.47v-6.26h2.56c.55 0 .98.17 1.29.39v-2.34h-9.68v2.33c.32-.22.74-.39 1.29-.39h2.56v6.26c.01.14.04.88-.36 1.48z" fill="#fff"/><g fill="#03dac6"><path d="m5.23 17.41c-.76 0-1.38-.62-1.38-1.38s.62-1.38 1.38-1.38 1.38.62 1.38 1.38-.62 1.38-1.38 1.38zm0-2c-.34 0-.62.28-.62.62s.28.62.62.62.62-.28.62-.62-.28-.62-.62-.62z"/><path d="m17.01 5.52c-.76 0-1.38-.62-1.38-1.38s.62-1.38 1.38-1.38 1.38.62 1.38 1.38-.62 1.38-1.38 1.38zm0-2c-.34 0-.62.28-.62.62s.28.62.62.62.62-.28.62-.62-.28-.62-.62-.62z"/><path d="m6.22 11.79h-.77v-4.6h17.37v.77h-16.6z"/><path d="m20.9 10.02-.46-.61 2.41-1.82-2.4-1.7.44-.62 3.26 2.3z"/><path d="m19.2 23.32h-12.7v-.77h11.93v-3.1h.77z"/><path d="m8.44 25.24-3.25-2.3 3.24-2.45.47.61-2.41 1.82 2.4 1.7z"/></g></svg>