<svg enable-background="new 0 0 28 28" viewBox="0 0 28 28" xmlns="http://www.w3.org/2000/svg"><path d="m22.96 21.8h-17.92c-1.48 0-2.68-1.2-2.68-2.68v-10.64c0-1.48 1.2-2.68 2.68-2.68h17.92c1.48 0 2.68 1.2 2.68 2.68v10.63c0 1.48-1.2 2.69-2.68 2.69zm-17.92-15.23c-1.06 0-1.92.86-1.92 1.92v10.63c0 1.06.86 1.92 1.92 1.92h17.92c1.06 0 1.92-.86 1.92-1.92v-10.64c0-1.06-.86-1.92-1.92-1.92h-17.92z" fill="#fff"/><path d="m20.16 19.19h-12.32c-1.25 0-2.27-1.02-2.27-2.27v-6.24c0-1.25 1.02-2.27 2.27-2.27h12.32c.88 0 1.69.52 2.06 1.32.14.3.21.63.21.96v6.24c0 1.24-1.02 2.26-2.27 2.26zm-12.32-10.02c-.83 0-1.5.67-1.5 1.5v6.24c0 .83.67 1.51 1.5 1.51h12.32c.83 0 1.51-.68 1.51-1.51v-6.24c0-.22-.05-.44-.14-.63-.25-.53-.78-.87-1.37-.87z" fill="#03dac6"/><path d="m9.11 13.18c-.76 0-1.38-.62-1.38-1.38s.62-1.38 1.38-1.38 1.38.62 1.38 1.38-.62 1.38-1.38 1.38zm0-1.99c-.34 0-.62.28-.62.62s.28.62.62.62.62-.28.62-.62c0-.35-.28-.62-.62-.62z" fill="#03dac6"/><path d="m19.34 17.75c-.76 0-1.38-.62-1.38-1.38s.62-1.38 1.38-1.38 1.38.62 1.38 1.38-.62 1.38-1.38 1.38zm0-1.99c-.34 0-.62.28-.62.62s.28.62.62.62.62-.28.62-.62c-.01-.35-.29-.62-.62-.62z" fill="#fff"/><g fill="#03dac6"><path d="m17.34 5.02c-.76 0-1.38-.62-1.38-1.38s.62-1.38 1.38-1.38 1.38.62 1.38 1.38-.62 1.38-1.38 1.38zm0-2c-.34 0-.62.28-.62.62s.28.62.62.62.62-.28.62-.62-.28-.62-.62-.62z"/><path d="m5.95 25.74c-.76 0-1.38-.62-1.38-1.38s.62-1.38 1.38-1.38 1.38.62 1.38 1.38-.62 1.38-1.38 1.38zm0-2c-.34 0-.62.28-.62.62s.28.62.62.62.62-.28.62-.62-.28-.62-.62-.62z"/></g></svg>