<?xml version="1.0" encoding="UTF-8"?><svg id="a" xmlns="http://www.w3.org/2000/svg" xmlns:xlink="http://www.w3.org/1999/xlink" viewBox="0 0 26 26"><defs><style>.g{fill:url(#e);}.h{fill:url(#d);}.i{fill:url(#f);}.j{fill:url(#c);}.k{fill:url(#b);}.l{fill:#6b09eb;}.m{fill:#6200ee;}.n{fill:rgba(255,255,255,.25);}</style><linearGradient id="b" x1="9" y1="19.39" x2="6.82" y2="18.81" gradientTransform="translate(0 28) scale(1 -1)" gradientUnits="userSpaceOnUse"><stop offset="0" stop-color="#ff6cdf"/><stop offset=".99" stop-color="#eb0ce2"/></linearGradient><linearGradient id="c" x1="8.54" y1="10.32" x2="8.03" y2="10.26" xlink:href="#b"/><linearGradient id="d" x1="9.5" y1="10.32" x2="8.99" y2="10.26" xlink:href="#b"/><linearGradient id="e" x1="18.09" y1="10.25" x2="15.91" y2="9.66" xlink:href="#b"/><linearGradient id="f" x1="18.66" y1="20.4" x2="16.82" y2="19.73" xlink:href="#b"/></defs><ellipse class="n" cx="13" cy="12.94" rx="13" ry="12.94"/><path class="m" d="M13.93,12.63c.52,0,.94-.41,.94-.9s-.42-.9-.94-.9-.94,.41-.94,.9c0,.05,0,.1,.01,.15l-.75,.4c-.2-.23-.5-.37-.83-.37-.6,0-1.09,.47-1.09,1.04s.49,1.04,1.09,1.04c.33,0,.63-.15,.83-.37l.75,.4s-.01,.1-.01,.15c0,.5,.42,.9,.94,.9s.94-.41,.94-.9-.42-.9-.94-.9c-.25,0-.48,.09-.65,.25l-.79-.42s0-.09,0-.14,0-.09,0-.14l.79-.42c.17,.15,.4,.25,.65,.25h0Zm0,1.2c.19,0,.34,.15,.34,.33s-.15,.33-.34,.33-.34-.15-.34-.33,.15-.33,.34-.33Zm-2.51-.42c-.27,0-.49-.21-.49-.47s.22-.47,.49-.47,.49,.21,.49,.47-.22,.47-.49,.47Zm2.51-2.01c.19,0,.34,.15,.34,.33s-.15,.33-.34,.33-.34-.15-.34-.33,.15-.33,.34-.33Z"/><path class="m" d="M14.88,8.85s.07,.02,.1,.02c.05,0,.11-.02,.15-.05s.07-.08,.08-.13c.01-.05,0-.11-.02-.16-.02-.05-.06-.09-.11-.11-.62-.3-1.29-.47-1.98-.51s-1.38,.07-2.02,.3c-.06,.02-.11,.07-.13,.12-.03,.06-.03,.12,0,.18,.02,.06,.07,.11,.12,.14,.06,.03,.12,.03,.18,0,.59-.21,1.21-.3,1.84-.27,.62,.03,1.24,.19,1.8,.46h0Z"/><path class="m" d="M17.48,15.06c.06,.02,.13,.02,.18,0,.06-.03,.1-.08,.12-.13,.23-.65,.33-1.34,.3-2.02-.04-.69-.21-1.36-.51-1.98-.03-.05-.08-.09-.14-.11-.06-.02-.12-.01-.18,.01-.05,.03-.1,.07-.12,.13-.02,.06-.02,.12,0,.18,.27,.56,.43,1.18,.46,1.8,.03,.62-.06,1.25-.27,1.84-.02,.06-.02,.12,0,.18,.03,.06,.08,.1,.13,.12Z"/><path class="m" d="M13.97,17.8c-.75,.19-1.53,.19-2.27,0-.03,0-.06,0-.09,0-.03,0-.06,.02-.09,.03-.03,.02-.05,.04-.07,.06-.02,.03-.03,.05-.04,.08,0,.03,0,.06,0,.09,0,.03,.02,.06,.03,.09,.02,.03,.04,.05,.06,.07,.03,.02,.05,.03,.08,.04,.82,.21,1.68,.21,2.5,0,.03,0,.06-.02,.08-.04,.03-.02,.05-.04,.06-.07,.02-.03,.03-.06,.03-.09,0-.03,0-.06,0-.09,0-.03-.02-.06-.04-.08-.02-.03-.04-.05-.07-.06-.03-.02-.06-.03-.09-.03-.03,0-.06,0-.09,0h0Z"/><path class="m" d="M8.02,11.74s-.06,0-.09,0c-.03,0-.06,.02-.09,.03-.03,.02-.05,.04-.07,.06-.02,.03-.03,.05-.04,.08-.29,1.17-.17,2.41,.36,3.5,.02,.04,.05,.07,.09,.1,.04,.02,.08,.04,.13,.04,.04,0,.07,0,.1-.02,.06-.03,.1-.08,.12-.14,.02-.06,.02-.13,0-.18-.48-.99-.59-2.12-.32-3.18,0-.03,0-.06,0-.09,0-.03-.02-.06-.03-.09-.02-.03-.04-.05-.06-.07-.03-.02-.05-.03-.08-.04Z"/><path class="m" d="M9.25,11.25c.32,0,.62-.13,.84-.35,.22-.22,.35-.53,.35-.84v-2.39c0-.32-.13-.62-.35-.84-.22-.22-.53-.35-.84-.35h-2.39c-.32,0-.62,.13-.84,.35-.22,.22-.35,.53-.35,.84v1.2c0,.06,.03,.12,.07,.17,.04,.04,.11,.07,.17,.07s.12-.03,.17-.07c.04-.04,.07-.11,.07-.17v-1.2c0-.19,.08-.37,.21-.51,.13-.13,.32-.21,.51-.21h2.39c.19,0,.37,.08,.51,.21,.13,.13,.21,.32,.21,.51v2.39c0,.19-.08,.37-.21,.51s-.32,.21-.51,.21h-2.39c-.19,0-.37-.08-.51-.21-.13-.13-.21-.32-.21-.51v-.24c0-.06-.03-.12-.07-.17s-.11-.07-.17-.07-.12,.03-.17,.07-.07,.11-.07,.17v.24c0,.32,.13,.62,.35,.84,.22,.22,.53,.35,.84,.35h2.39Z"/><path class="k" d="M8.29,7.91h.48c.06,0,.12-.03,.17-.07,.04-.04,.07-.11,.07-.17s-.03-.12-.07-.17-.11-.07-.17-.07h-.48c-.19,0-.37,.08-.51,.21s-.21,.32-.21,.51v.48h-.48c-.06,0-.12,.03-.17,.07-.04,.04-.07,.11-.07,.17s.03,.12,.07,.17c.04,.04,.11,.07,.17,.07h.48v.96c0,.06,.03,.12,.07,.17,.04,.04,.11,.07,.17,.07s.12-.03,.17-.07,.07-.11,.07-.17v-.96h.48c.06,0,.12-.03,.17-.07s.07-.11,.07-.17-.03-.12-.07-.17-.11-.07-.17-.07h-.48v-.48c0-.06,.03-.12,.07-.17s.11-.07,.17-.07h0Z"/><path class="j" d="M8.05,17.23v.96c0,.06,.03,.12,.07,.17,.04,.04,.11,.07,.17,.07s.12-.03,.17-.07c.04-.04,.07-.11,.07-.17v-.96c0-.06-.03-.12-.07-.17-.04-.04-.11-.07-.17-.07s-.12,.03-.17,.07c-.04,.04-.07,.11-.07,.17Z"/><path class="h" d="M9.25,16.99c-.06,0-.12,.03-.17,.07-.04,.04-.07,.11-.07,.17v.96c0,.06,.03,.12,.07,.17,.04,.04,.11,.07,.17,.07s.12-.03,.17-.07c.04-.04,.07-.11,.07-.17v-.96c0-.06-.03-.12-.07-.17-.04-.04-.11-.07-.17-.07Z"/><path class="m" d="M9.97,16.03h-2.39c-.25,0-.5,.1-.68,.28-.18,.18-.28,.42-.28,.68v1.43c0,.25,.1,.5,.28,.68s.42,.28,.68,.28v.72s.01,.09,.04,.13c.02,.04,.06,.07,.1,.09,.03,.01,.07,.02,.1,.02,.06,0,.11-.02,.15-.06l1.15-.96s.08-.1,.09-.16c0-.06-.01-.13-.05-.17-.04-.05-.1-.08-.16-.09s-.13,.01-.17,.05l-.75,.63v-.45c0-.06-.03-.12-.07-.17s-.11-.07-.17-.07h-.24c-.13,0-.25-.05-.34-.14-.09-.09-.14-.21-.14-.34v-1.43c0-.13,.05-.25,.14-.34,.09-.09,.21-.14,.34-.14h2.39c.13,0,.25,.05,.34,.14,.09,.09,.14,.21,.14,.34v1.43c0,.13-.05,.25-.14,.34-.09,.09-.21,.14-.34,.14-.06,0-.12,.03-.17,.07-.04,.04-.07,.11-.07,.17s.03,.12,.07,.17c.04,.04,.11,.07,.17,.07,.25,0,.5-.1,.68-.28,.18-.18,.28-.42,.28-.68v-1.43c0-.25-.1-.5-.28-.68s-.42-.28-.68-.28Z"/><path class="g" d="M17.37,19.38h.48c.06,0,.12-.03,.17-.07s.07-.11,.07-.17-.03-.12-.07-.17-.11-.07-.17-.07h-.48c-.06,0-.12-.03-.17-.07s-.07-.11-.07-.17v-.48h.48c.06,0,.12-.03,.17-.07s.07-.11,.07-.17-.03-.12-.07-.17c-.04-.04-.11-.07-.17-.07h-.48v-.96c0-.06-.03-.12-.07-.17s-.11-.07-.17-.07-.12,.03-.17,.07-.07,.11-.07,.17v.96h-.48c-.06,0-.12,.03-.17,.07-.04,.04-.07,.11-.07,.17s.03,.12,.07,.17,.11,.07,.17,.07h.48v.48c0,.19,.08,.37,.21,.51,.13,.13,.32,.21,.51,.21Z"/><path class="m" d="M18.33,15.55h-2.39c-.32,0-.62,.13-.84,.35-.22,.22-.35,.53-.35,.84v2.39c0,.32,.13,.62,.35,.84,.22,.22,.53,.35,.84,.35h2.39c.32,0,.62-.13,.84-.35,.22-.22,.35-.53,.35-.84v-.24c0-.06-.03-.12-.07-.17-.04-.04-.11-.07-.17-.07s-.12,.03-.17,.07c-.04,.04-.07,.11-.07,.17v.24c0,.19-.08,.37-.21,.51-.13,.13-.32,.21-.51,.21h-2.39c-.19,0-.37-.08-.51-.21s-.21-.32-.21-.51v-2.39c0-.19,.08-.37,.21-.51,.13-.13,.32-.21,.51-.21h2.39c.19,0,.37,.08,.51,.21,.13,.13,.21,.32,.21,.51v1.2c0,.06,.03,.12,.07,.17s.11,.07,.17,.07,.12-.03,.17-.07,.07-.11,.07-.17v-1.2c0-.32-.13-.62-.35-.84s-.53-.35-.84-.35h0Z"/><path class="i" d="M18.8,8.15s-.01-.09-.04-.13c-.02-.04-.06-.07-.1-.09l-1.43-.72s-.08-.03-.12-.02c-.04,0-.08,.01-.11,.04-.03,.02-.06,.05-.08,.09-.02,.04-.03,.08-.03,.12v1.43s.01,.08,.03,.12c.02,.04,.05,.07,.08,.09,.03,.02,.07,.03,.11,.04,.04,0,.08,0,.12-.02l1.43-.72s.07-.05,.1-.09c.02-.04,.04-.08,.04-.13Zm-1.43,.33v-.66l.66,.33-.66,.33Z"/><path class="m" d="M18.8,6h-1.91c-.32,0-.62,.13-.84,.35-.22,.22-.35,.53-.35,.84v1.91c0,.32,.13,.62,.35,.84,.22,.22,.53,.35,.84,.35h.96c.06,0,.12-.03,.17-.07s.07-.11,.07-.17-.03-.12-.07-.17c-.04-.04-.11-.07-.17-.07h-.96c-.19,0-.37-.08-.51-.21-.13-.13-.21-.32-.21-.51v-1.91c0-.19,.08-.37,.21-.51,.13-.13,.32-.21,.51-.21h1.91c.19,0,.37,.08,.51,.21,.13,.13,.21,.32,.21,.51v1.91c0,.19-.08,.37-.21,.51-.13,.13-.32,.21-.51,.21-.06,0-.12,.03-.17,.07-.04,.04-.07,.11-.07,.17s.03,.12,.07,.17,.11,.07,.17,.07c.32,0,.62-.13,.84-.35,.22-.22,.35-.53,.35-.84v-1.91c0-.32-.13-.62-.35-.84-.22-.22-.53-.35-.84-.35h0Z"/><path class="l" d="M18.83,2.67c-.64,0-1.17-.52-1.17-1.17s.52-1.17,1.17-1.17,1.17,.52,1.17,1.17-.52,1.17-1.17,1.17Zm0-1.69c-.29,0-.52,.24-.52,.52s.24,.52,.52,.52,.52-.24,.52-.52-.24-.52-.52-.52Z"/><path class="l" d="M8,26c-.55,0-1-.45-1-1s.45-1,1-1,1,.45,1,1-.45,1-1,1Zm0-1.45c-.25,0-.45,.2-.45,.45s.2,.45,.45,.45,.45-.2,.45-.45-.2-.45-.45-.45Z"/></svg>