<svg enable-background="new 0 0 28 28" viewBox="0 0 28 28" xmlns="http://www.w3.org/2000/svg"><path d="m2.6 14.4c-.8 0-1.5-.7-1.5-1.5s.7-1.5 1.5-1.5 1.5.7 1.5 1.5-.7 1.5-1.5 1.5zm0-2.2c-.4 0-.7.3-.7.7s.3.7.7.7.7-.3.7-.7-.3-.7-.7-.7z" fill="#03dac6"/><path d="m23.7 22c-.8 0-1.5-.7-1.5-1.5s.7-1.5 1.5-1.5 1.5.7 1.5 1.5c.1.8-.6 1.5-1.5 1.5zm0-2.2c-.4 0-.7.3-.7.7s.3.7.7.7.7-.3.7-.7-.3-.7-.7-.7z" fill="#03dac6"/><path d="m22.2 12.9-4.3-6.9h-3.2l4.4 6.9z" fill="#fff"/><path d="m19.1 12.9-4.4 6.9h3.2l4.3-6.9z" fill="#fff"/><path d="m12.5 12.9h2.4l-4.3-6.9h-.4-2.7v13.8h3.1l4.3-6.9z" fill="#03dac6"/></svg>