<svg enable-background="new 0 0 28 28" viewBox="0 0 28 28" xmlns="http://www.w3.org/2000/svg"><path d="m3.05 9.1c-.59 0-1.07-.48-1.07-1.07s.48-1.07 1.07-1.07 1.07.48 1.07 1.07-.48 1.07-1.07 1.07zm0-1.55c-.26 0-.48.21-.48.48 0 .26.21.47.48.47.26 0 .47-.21.47-.47.01-.26-.21-.48-.47-.48z" fill="#03dac6"/><path d="m14 14.07c-.59 0-1.07-.48-1.07-1.07s.48-1.07 1.07-1.07 1.07.48 1.07 1.07-.48 1.07-1.07 1.07zm0-1.55c-.26 0-.47.21-.47.47s.21.48.47.48.48-.21.48-.48c0-.25-.22-.47-.48-.47z" fill="#fff"/><path d="m16.24 18.09h-4.49c-1.05 0-1.9-.86-1.9-1.91v-4.49c0-1.05.85-1.9 1.9-1.9h4.49c1.05 0 1.91.85 1.91 1.9v4.49c0 1.05-.86 1.91-1.91 1.91zm-4.48-7.71c-.72 0-1.31.59-1.31 1.31v4.49c0 .73.59 1.31 1.31 1.31h4.49c.73 0 1.31-.59 1.31-1.31v-4.49c0-.72-.59-1.31-1.31-1.31z" fill="#03dac6"/><g fill="#fff"><path d="m16.24 18.09h-4.49c-1.05 0-1.9-.86-1.9-1.91v-.48l2.89-1.64.83 1.21 4.58-2.8v3.71c0 1.05-.86 1.91-1.91 1.91zm-5.8-2.05v.14c0 .73.59 1.31 1.31 1.31h4.49c.73 0 1.31-.59 1.31-1.31v-2.65l-4.16 2.54-.84-1.23z"/><path d="m4.68 14.09c-.52 0-.94-.42-.94-.94s.42-.94.94-.94.94.42.94.94-.42.94-.94.94zm0-1.28c-.19 0-.35.16-.35.35s.16.35.35.35.35-.16.35-.35c0-.2-.16-.35-.35-.35z"/><path d="m6.55 17.45h-3.74c-.9 0-1.64-.74-1.64-1.64v-3.75c0-.9.74-1.64 1.64-1.64h3.75c.9 0 1.64.74 1.64 1.64v3.75c-.01.91-.74 1.64-1.65 1.64zm-3.74-6.43c-.58 0-1.05.47-1.05 1.05v3.75c0 .58.47 1.05 1.05 1.05h3.75c.58 0 1.05-.47 1.05-1.05v-3.75c0-.58-.47-1.05-1.05-1.05z"/><path d="m6.55 17.45h-3.74c-.9 0-1.64-.74-1.64-1.64v-.43l2.48-1.4.69 1.01 3.86-2.36v3.18c-.01.91-.74 1.64-1.65 1.64zm-4.79-1.73v.09c0 .58.47 1.05 1.05 1.05h3.75c.58 0 1.05-.47 1.05-1.05v-2.13l-3.44 2.1-.7-1.03z"/><path d="m23.32 14.09c-.52 0-.94-.42-.94-.94s.42-.94.94-.94.94.42.94.94-.42.94-.94.94zm0-1.28c-.19 0-.35.16-.35.35s.16.35.35.35.35-.16.35-.35c0-.2-.16-.35-.35-.35z"/><path d="m25.19 17.45h-3.75c-.9 0-1.64-.74-1.64-1.64v-3.75c0-.9.74-1.64 1.64-1.64h3.75c.9 0 1.64.74 1.64 1.64v3.75c0 .91-.73 1.64-1.64 1.64zm-3.74-6.43c-.58 0-1.05.47-1.05 1.05v3.75c0 .58.47 1.05 1.05 1.05h3.75c.58 0 1.05-.47 1.05-1.05v-3.75c0-.58-.47-1.05-1.05-1.05z"/><path d="m25.19 17.45h-3.75c-.9 0-1.64-.74-1.64-1.64v-.43l2.48-1.4.69 1.01 3.86-2.36v3.18c0 .91-.73 1.64-1.64 1.64zm-4.79-1.73v.09c0 .58.47 1.05 1.05 1.05h3.75c.58 0 1.05-.47 1.05-1.05v-2.13l-3.44 2.1-.7-1.03z"/></g><path d="m17.02 21.04h-6.04c-.62 0-1.13-.51-1.13-1.13s.51-1.13 1.13-1.13h6.04c.62 0 1.13.51 1.13 1.13s-.51 1.13-1.13 1.13zm-6.04-1.67c-.3 0-.54.24-.54.54s.24.54.54.54h6.04c.3 0 .54-.24.54-.54s-.24-.54-.54-.54z" fill="#03dac6"/><path d="m7.05 20.02h-4.74c-.53 0-.95-.43-.95-.95s.43-.95.95-.95h4.74c.52 0 .95.43.95.95 0 .53-.42.95-.95.95zm-4.74-1.31c-.2 0-.36.16-.36.36s.16.36.36.36h4.74c.2 0 .36-.16.36-.36s-.16-.36-.36-.36z" fill="#fff"/><path d="m25.69 20.02h-4.74c-.52 0-.95-.43-.95-.95s.43-.95.95-.95h4.74c.52 0 .95.43.95.95 0 .53-.42.95-.95.95zm-4.74-1.31c-.2 0-.36.16-.36.36s.16.36.36.36h4.74c.2 0 .36-.16.36-.36s-.16-.36-.36-.36z" fill="#fff"/></svg>